<?xml version="1.0" standalone="no"?>
<!DOCTYPE svg PUBLIC "-//W3C//DTD SVG 1.1//EN" "http://www.w3.org/Graphics/SVG/1.1/DTD/svg11.dtd" >
<svg>
<metadata>
Created by FontForge 20110222 at Mon Dec  7 16:55:40 2015
 By www-data
Copyright c 2014 by Grilli Type GmbH. All rights reserved.
</metadata>
<defs>
<font id="GTSectraFineTrial-Book" horiz-adv-x="0" >
  <font-face 
    font-family="GT Sectra Fine Trial"
    font-weight="300"
    font-stretch="normal"
    units-per-em="1000"
    panose-1="2 0 5 3 7 0 0 2 0 3"
    ascent="750"
    descent="-250"
    x-height="466"
    cap-height="701"
    bbox="-19 -244 1348 721"
    underline-thickness="50"
    underline-position="-25"
    stemh="26"
    stemv="80"
    unicode-range="U+0020-FB01"
  />
<missing-glyph horiz-adv-x="550" 
d="M422 342v158h-30v-158h30zM302 452v-110h30v110h-30zM50 0v700h450v-700h-450zM303 260h-30v-109h30v109zM295 453c-3 1 -6 2 -11 2c-15 0 -25 -11 -31 -21v18h-27v-110h29v50c0 18 8 35 30 35c5 0 7 0 10 -1v27zM439 452v-110h30v110h-30zM89 307v-29h44v-127h30v127h44
v29h-118zM427 151h29v158h-29v-158zM266 234v28c-3 1 -5 1 -10 1c-14 0 -25 -10 -30 -21v18h-28v-109h30v49c0 18 7 35 28 35c4 0 6 0 10 -1zM301 500v-29h32v29h-32zM438 500v-29h32v29h-32zM181 399c0 -13 -9 -33 -36 -33s-41 20 -41 53c0 32 14 55 40 55
c20 0 28 -13 31 -23l30 12c-7 19 -23 39 -60 39c-48 0 -74 -35 -74 -82c0 -46 25 -81 67 -81c18 0 35 6 43 20l4 -17h23v87h-67v-28h40v-2zM304 309h-32v-30h32v30zM376 342v158h-29v-158h29zM385 151h29c-1 5 -3 11 -3 21v40c0 34 -10 51 -46 51c-33 0 -50 -14 -51 -37h29
c1 10 8 15 21 15c15 0 18 -9 18 -22c-24 -2 -40 -5 -50 -8c-12 -5 -21 -14 -21 -29c0 -21 16 -34 38 -34c16 0 28 6 35 19c0 -6 0 -11 1 -16zM382 201v-3c0 -18 -10 -28 -24 -28c-11 0 -17 6 -17 13c0 9 7 14 23 16z" />
    <glyph glyph-name=".notdef" horiz-adv-x="550" 
d="M422 342v158h-30v-158h30zM302 452v-110h30v110h-30zM50 0v700h450v-700h-450zM303 260h-30v-109h30v109zM295 453c-3 1 -6 2 -11 2c-15 0 -25 -11 -31 -21v18h-27v-110h29v50c0 18 8 35 30 35c5 0 7 0 10 -1v27zM439 452v-110h30v110h-30zM89 307v-29h44v-127h30v127h44
v29h-118zM427 151h29v158h-29v-158zM266 234v28c-3 1 -5 1 -10 1c-14 0 -25 -10 -30 -21v18h-28v-109h30v49c0 18 7 35 28 35c4 0 6 0 10 -1zM301 500v-29h32v29h-32zM438 500v-29h32v29h-32zM181 399c0 -13 -9 -33 -36 -33s-41 20 -41 53c0 32 14 55 40 55
c20 0 28 -13 31 -23l30 12c-7 19 -23 39 -60 39c-48 0 -74 -35 -74 -82c0 -46 25 -81 67 -81c18 0 35 6 43 20l4 -17h23v87h-67v-28h40v-2zM304 309h-32v-30h32v30zM376 342v158h-29v-158h29zM385 151h29c-1 5 -3 11 -3 21v40c0 34 -10 51 -46 51c-33 0 -50 -14 -51 -37h29
c1 10 8 15 21 15c15 0 18 -9 18 -22c-24 -2 -40 -5 -50 -8c-12 -5 -21 -14 -21 -29c0 -21 16 -34 38 -34c16 0 28 6 35 19c0 -6 0 -11 1 -16zM382 201v-3c0 -18 -10 -28 -24 -28c-11 0 -17 6 -17 13c0 9 7 14 23 16z" />
    <glyph glyph-name=".null" 
 />
    <glyph glyph-name=".null" 
 />
    <glyph glyph-name="A" unicode="A" horiz-adv-x="721" 
d="M11 -1l-3 20l80 9l246 660l48 22l253 -682l78 -9l-2 -20l-128 2l-133 -2l-2 20l87 10l-76 217h-252l-76 -217l88 -10l-2 -20l-107 2zM217 275h231l-79 221l-33 117z" />
    <glyph glyph-name="AE" unicode="&#xc6;" horiz-adv-x="1334" 
d="M11 -1l-3 20l80 9l246 660l48 22l253 -682l78 -9l-2 -20l-128 2l-133 -2l-2 20l87 10l-76 217h-252l-76 -217l88 -10l-2 -20l-107 2zM217 275h231l-79 221l-33 117zM753 -1l-2 20l89 10v643l-89 9l2 20l138 -2l393 2l4 -178h-18l-60 149l-280 1v-294l159 2l41 111h19
l-5 -122l5 -128h-19l-41 110l-159 2v-327l289 2l66 153h20l-18 -183l-396 2z" />
    <glyph glyph-name="AEacute" unicode="&#x1fc;" horiz-adv-x="1334" 
d="M11 -1l-3 20l80 9l246 660l48 22l253 -682l78 -9l-2 -20l-128 2l-133 -2l-2 20l87 10l-76 217h-252l-76 -217l88 -10l-2 -20l-107 2zM217 275h231l-79 221l-33 117zM753 -1l-2 20l89 10v643l-89 9l2 20l138 -2l393 2l4 -178h-18l-60 149l-280 1v-294l159 2l41 111h19
l-5 -122l5 -128h-19l-41 110l-159 2v-327l289 2l66 153h20l-18 -183l-396 2z" />
    <glyph glyph-name="Aacute" unicode="&#xc1;" horiz-adv-x="721" 
d="M11 -1l-3 20l80 9l246 660l48 22l253 -682l78 -9l-2 -20l-128 2l-133 -2l-2 20l87 10l-76 217h-252l-76 -217l88 -10l-2 -20l-107 2zM217 275h231l-79 221l-33 117z" />
    <glyph glyph-name="Abreve" unicode="&#x102;" horiz-adv-x="721" 
d="M11 -1l-3 20l80 9l246 660l48 22l253 -682l78 -9l-2 -20l-128 2l-133 -2l-2 20l87 10l-76 217h-252l-76 -217l88 -10l-2 -20l-107 2zM217 275h231l-79 221l-33 117z" />
    <glyph glyph-name="Acircumflex" unicode="&#xc2;" horiz-adv-x="721" 
d="M11 -1l-3 20l80 9l246 660l48 22l253 -682l78 -9l-2 -20l-128 2l-133 -2l-2 20l87 10l-76 217h-252l-76 -217l88 -10l-2 -20l-107 2zM217 275h231l-79 221l-33 117z" />
    <glyph glyph-name="Adieresis" unicode="&#xc4;" horiz-adv-x="721" 
d="M11 -1l-3 20l80 9l246 660l48 22l253 -682l78 -9l-2 -20l-128 2l-133 -2l-2 20l87 10l-76 217h-252l-76 -217l88 -10l-2 -20l-107 2zM217 275h231l-79 221l-33 117z" />
    <glyph glyph-name="Agrave" unicode="&#xc0;" horiz-adv-x="721" 
d="M11 -1l-3 20l80 9l246 660l48 22l253 -682l78 -9l-2 -20l-128 2l-133 -2l-2 20l87 10l-76 217h-252l-76 -217l88 -10l-2 -20l-107 2zM217 275h231l-79 221l-33 117z" />
    <glyph glyph-name="Amacron" unicode="&#x100;" horiz-adv-x="721" 
d="M11 -1l-3 20l80 9l246 660l48 22l253 -682l78 -9l-2 -20l-128 2l-133 -2l-2 20l87 10l-76 217h-252l-76 -217l88 -10l-2 -20l-107 2zM217 275h231l-79 221l-33 117z" />
    <glyph glyph-name="Aogonek" unicode="&#x104;" horiz-adv-x="721" 
d="M11 -1l-3 20l80 9l246 660l48 22l253 -682l78 -9l-2 -20l-128 2l-133 -2l-2 20l87 10l-76 217h-252l-76 -217l88 -10l-2 -20l-107 2zM217 275h231l-79 221l-33 117z" />
    <glyph glyph-name="Aring" unicode="&#xc5;" horiz-adv-x="721" 
d="M11 -1l-3 20l80 9l246 660l48 22l253 -682l78 -9l-2 -20l-128 2l-133 -2l-2 20l87 10l-76 217h-252l-76 -217l88 -10l-2 -20l-107 2zM217 275h231l-79 221l-33 117z" />
    <glyph glyph-name="Aringacute" unicode="&#x1fa;" horiz-adv-x="721" 
d="M11 -1l-3 20l80 9l246 660l48 22l253 -682l78 -9l-2 -20l-128 2l-133 -2l-2 20l87 10l-76 217h-252l-76 -217l88 -10l-2 -20l-107 2zM217 275h231l-79 221l-33 117z" />
    <glyph glyph-name="Atilde" unicode="&#xc3;" horiz-adv-x="721" 
d="M11 -1l-3 20l80 9l246 660l48 22l253 -682l78 -9l-2 -20l-128 2l-133 -2l-2 20l87 10l-76 217h-252l-76 -217l88 -10l-2 -20l-107 2zM217 275h231l-79 221l-33 117z" />
    <glyph glyph-name="B" unicode="B" horiz-adv-x="630" 
d="M32 -1l-2 20l89 10v643l-89 9l2 20l151 -2l169 2c130 0 195 -73 195 -152c0 -91 -85 -162 -180 -175c148 -3 221 -79 221 -171c0 -133 -108 -190 -266 -204l-146 2zM209 383h97c92 0 147 72 147 161c0 79 -48 131 -131 132l-113 -5v-288zM306 24c141 0 187 86 187 174
c0 98 -67 156 -167 156h-117v-325z" />
    <glyph glyph-name="C" unicode="C" horiz-adv-x="687" 
d="M614 201h30l-14 -145c-64 -30 -151 -62 -239 -73c-182 0 -350 126 -350 358c0 227 149 353 362 376c100 0 185 -36 235 -67v-141h-29l-45 112c-32 32 -86 66 -168 66c-145 0 -254 -111 -254 -328c0 -171 89 -342 275 -342c60 0 112 31 140 58z" />
    <glyph glyph-name="Cacute" unicode="&#x106;" horiz-adv-x="687" 
d="M614 201h30l-14 -145c-64 -30 -151 -62 -239 -73c-182 0 -350 126 -350 358c0 227 149 353 362 376c100 0 185 -36 235 -67v-141h-29l-45 112c-32 32 -86 66 -168 66c-145 0 -254 -111 -254 -328c0 -171 89 -342 275 -342c60 0 112 31 140 58z" />
    <glyph glyph-name="Ccaron" unicode="&#x10c;" horiz-adv-x="687" 
d="M614 201h30l-14 -145c-64 -30 -151 -62 -239 -73c-182 0 -350 126 -350 358c0 227 149 353 362 376c100 0 185 -36 235 -67v-141h-29l-45 112c-32 32 -86 66 -168 66c-145 0 -254 -111 -254 -328c0 -171 89 -342 275 -342c60 0 112 31 140 58z" />
    <glyph glyph-name="Ccedilla" unicode="&#xc7;" horiz-adv-x="687" 
d="M614 201h30l-14 -145c-64 -30 -151 -62 -239 -73c-182 0 -350 126 -350 358c0 227 149 353 362 376c100 0 185 -36 235 -67v-141h-29l-45 112c-32 32 -86 66 -168 66c-145 0 -254 -111 -254 -328c0 -171 89 -342 275 -342c60 0 112 31 140 58z" />
    <glyph glyph-name="Ccircumflex" unicode="&#x108;" horiz-adv-x="687" 
d="M614 201h30l-14 -145c-64 -30 -151 -62 -239 -73c-182 0 -350 126 -350 358c0 227 149 353 362 376c100 0 185 -36 235 -67v-141h-29l-45 112c-32 32 -86 66 -168 66c-145 0 -254 -111 -254 -328c0 -171 89 -342 275 -342c60 0 112 31 140 58z" />
    <glyph glyph-name="Cdotaccent" unicode="&#x10a;" horiz-adv-x="687" 
d="M614 201h30l-14 -145c-64 -30 -151 -62 -239 -73c-182 0 -350 126 -350 358c0 227 149 353 362 376c100 0 185 -36 235 -67v-141h-29l-45 112c-32 32 -86 66 -168 66c-145 0 -254 -111 -254 -328c0 -171 89 -342 275 -342c60 0 112 31 140 58z" />
    <glyph glyph-name="D" unicode="D" horiz-adv-x="726" 
d="M32 -1l-2 20l93 10v643l-93 9l2 20l148 -2l174 2c203 0 332 -120 332 -335c0 -213 -115 -351 -338 -367l-168 2zM344 25c143 1 242 130 242 333c0 181 -81 318 -263 319l-110 -6v-638z" />
    <glyph glyph-name="Dcaron" unicode="&#x10e;" horiz-adv-x="726" 
d="M32 -1l-2 20l93 10v643l-93 9l2 20l148 -2l174 2c203 0 332 -120 332 -335c0 -213 -115 -351 -338 -367l-168 2zM344 25c143 1 242 130 242 333c0 181 -81 318 -263 319l-110 -6v-638z" />
    <glyph glyph-name="Dcroat" unicode="&#x110;" horiz-adv-x="726" 
d="M32 -1l-2 20l93 10v643l-93 9l2 20l148 -2l174 2c203 0 332 -120 332 -335c0 -213 -115 -351 -338 -367l-168 2zM344 25c143 1 242 130 242 333c0 181 -81 318 -263 319l-110 -6v-638z" />
    <glyph glyph-name="E" unicode="E" horiz-adv-x="613" 
d="M32 -1l-2 20l89 10v643l-89 9l2 20l138 -2l393 2l4 -178h-18l-60 149l-280 1v-294l159 2l41 111h19l-5 -122l5 -128h-19l-41 110l-159 2v-327l289 2l66 153h20l-18 -183l-396 2z" />
    <glyph glyph-name="Eacute" unicode="&#xc9;" horiz-adv-x="613" 
d="M32 -1l-2 20l89 10v643l-89 9l2 20l138 -2l393 2l4 -178h-18l-60 149l-280 1v-294l159 2l41 111h19l-5 -122l5 -128h-19l-41 110l-159 2v-327l289 2l66 153h20l-18 -183l-396 2z" />
    <glyph glyph-name="Ebreve" unicode="&#x114;" horiz-adv-x="613" 
d="M32 -1l-2 20l89 10v643l-89 9l2 20l138 -2l393 2l4 -178h-18l-60 149l-280 1v-294l159 2l41 111h19l-5 -122l5 -128h-19l-41 110l-159 2v-327l289 2l66 153h20l-18 -183l-396 2z" />
    <glyph glyph-name="Ecaron" unicode="&#x11a;" horiz-adv-x="613" 
d="M32 -1l-2 20l89 10v643l-89 9l2 20l138 -2l393 2l4 -178h-18l-60 149l-280 1v-294l159 2l41 111h19l-5 -122l5 -128h-19l-41 110l-159 2v-327l289 2l66 153h20l-18 -183l-396 2z" />
    <glyph glyph-name="Ecircumflex" unicode="&#xca;" horiz-adv-x="613" 
d="M32 -1l-2 20l89 10v643l-89 9l2 20l138 -2l393 2l4 -178h-18l-60 149l-280 1v-294l159 2l41 111h19l-5 -122l5 -128h-19l-41 110l-159 2v-327l289 2l66 153h20l-18 -183l-396 2z" />
    <glyph glyph-name="Edieresis" unicode="&#xcb;" horiz-adv-x="613" 
d="M32 -1l-2 20l89 10v643l-89 9l2 20l138 -2l393 2l4 -178h-18l-60 149l-280 1v-294l159 2l41 111h19l-5 -122l5 -128h-19l-41 110l-159 2v-327l289 2l66 153h20l-18 -183l-396 2z" />
    <glyph glyph-name="Edotaccent" unicode="&#x116;" horiz-adv-x="613" 
d="M32 -1l-2 20l89 10v643l-89 9l2 20l138 -2l393 2l4 -178h-18l-60 149l-280 1v-294l159 2l41 111h19l-5 -122l5 -128h-19l-41 110l-159 2v-327l289 2l66 153h20l-18 -183l-396 2z" />
    <glyph glyph-name="Egrave" unicode="&#xc8;" horiz-adv-x="613" 
d="M32 -1l-2 20l89 10v643l-89 9l2 20l138 -2l393 2l4 -178h-18l-60 149l-280 1v-294l159 2l41 111h19l-5 -122l5 -128h-19l-41 110l-159 2v-327l289 2l66 153h20l-18 -183l-396 2z" />
    <glyph glyph-name="Emacron" unicode="&#x112;" horiz-adv-x="613" 
d="M32 -1l-2 20l89 10v643l-89 9l2 20l138 -2l393 2l4 -178h-18l-60 149l-280 1v-294l159 2l41 111h19l-5 -122l5 -128h-19l-41 110l-159 2v-327l289 2l66 153h20l-18 -183l-396 2z" />
    <glyph glyph-name="Eng" unicode="&#x14a;" horiz-adv-x="718" 
d="M568 -4l-389 597l-23 55v-619l88 -10l-3 -20l-99 2l-110 -2l-2 20l89 10v638l-87 14l3 20l95 -2l80 2l350 -531l22 -43v545l-87 9l2 20l99 -2l109 2l3 -20l-90 -9v-676h-50z" />
    <glyph glyph-name="Eogonek" unicode="&#x118;" horiz-adv-x="613" 
d="M32 -1l-2 20l89 10v643l-89 9l2 20l138 -2l393 2l4 -178h-18l-60 149l-280 1v-294l159 2l41 111h19l-5 -122l5 -128h-19l-41 110l-159 2v-327l289 2l66 153h20l-18 -183l-396 2z" />
    <glyph glyph-name="Eth" unicode="&#xd0;" horiz-adv-x="726" 
d="M32 -1l-2 20l93 10v643l-93 9l2 20l148 -2l174 2c203 0 332 -120 332 -335c0 -213 -115 -351 -338 -367l-168 2zM344 25c143 1 242 130 242 333c0 181 -81 318 -263 319l-110 -6v-638z" />
    <glyph glyph-name="F" unicode="F" horiz-adv-x="582" 
d="M32 -1l-2 20l89 10v643l-89 9l2 20l139 -2l391 2l5 -180h-18l-61 151l-279 1v-307l159 2l41 117h19l-5 -129l5 -135h-19l-41 118l-159 2v-312l104 -10l-2 -20l-142 2z" />
    <glyph glyph-name="G" unicode="G" horiz-adv-x="731" 
d="M385 -17c-185 0 -344 126 -344 359c0 223 142 350 360 375c103 0 195 -39 235 -67v-141h-26l-45 110c-31 31 -87 68 -172 68c-154 0 -251 -131 -251 -332c0 -174 95 -340 263 -340c67 0 121 34 146 62v213l-86 11l2 19l124 -2l112 2l2 -19l-64 -11v-236
c-56 -24 -166 -63 -256 -71z" />
    <glyph glyph-name="Gbreve" unicode="&#x11e;" horiz-adv-x="731" 
d="M385 -17c-185 0 -344 126 -344 359c0 223 142 350 360 375c103 0 195 -39 235 -67v-141h-26l-45 110c-31 31 -87 68 -172 68c-154 0 -251 -131 -251 -332c0 -174 95 -340 263 -340c67 0 121 34 146 62v213l-86 11l2 19l124 -2l112 2l2 -19l-64 -11v-236
c-56 -24 -166 -63 -256 -71z" />
    <glyph glyph-name="Gcircumflex" unicode="&#x11c;" horiz-adv-x="731" 
d="M385 -17c-185 0 -344 126 -344 359c0 223 142 350 360 375c103 0 195 -39 235 -67v-141h-26l-45 110c-31 31 -87 68 -172 68c-154 0 -251 -131 -251 -332c0 -174 95 -340 263 -340c67 0 121 34 146 62v213l-86 11l2 19l124 -2l112 2l2 -19l-64 -11v-236
c-56 -24 -166 -63 -256 -71z" />
    <glyph glyph-name="Gcommaaccent" unicode="&#x122;" horiz-adv-x="731" 
d="M385 -17c-185 0 -344 126 -344 359c0 223 142 350 360 375c103 0 195 -39 235 -67v-141h-26l-45 110c-31 31 -87 68 -172 68c-154 0 -251 -131 -251 -332c0 -174 95 -340 263 -340c67 0 121 34 146 62v213l-86 11l2 19l124 -2l112 2l2 -19l-64 -11v-236
c-56 -24 -166 -63 -256 -71z" />
    <glyph glyph-name="Gdotaccent" unicode="&#x120;" horiz-adv-x="731" 
d="M385 -17c-185 0 -344 126 -344 359c0 223 142 350 360 375c103 0 195 -39 235 -67v-141h-26l-45 110c-31 31 -87 68 -172 68c-154 0 -251 -131 -251 -332c0 -174 95 -340 263 -340c67 0 121 34 146 62v213l-86 11l2 19l124 -2l112 2l2 -19l-64 -11v-236
c-56 -24 -166 -63 -256 -71z" />
    <glyph glyph-name="H" unicode="H" horiz-adv-x="749" 
d="M32 -1l-2 20l89 10v643l-89 9l2 20l132 -2l129 2l3 -20l-87 -9v-294h334v294l-90 9l3 20l133 -2l128 2l3 -20l-87 -9v-643l87 -10l-3 -20l-128 2l-133 -2l-3 20l90 10v320h-334v-320l87 -10l-3 -20l-129 2z" />
    <glyph glyph-name="Hbar" unicode="&#x126;" horiz-adv-x="749" 
d="M32 -1l-2 20l89 10v643l-89 9l2 20l132 -2l129 2l3 -20l-87 -9v-294h334v294l-90 9l3 20l133 -2l128 2l3 -20l-87 -9v-643l87 -10l-3 -20l-128 2l-133 -2l-3 20l90 10v320h-334v-320l87 -10l-3 -20l-129 2z" />
    <glyph glyph-name="Hcircumflex" unicode="&#x124;" horiz-adv-x="749" 
d="M32 -1l-2 20l89 10v643l-89 9l2 20l132 -2l129 2l3 -20l-87 -9v-294h334v294l-90 9l3 20l133 -2l128 2l3 -20l-87 -9v-643l87 -10l-3 -20l-128 2l-133 -2l-3 20l90 10v320h-334v-320l87 -10l-3 -20l-129 2z" />
    <glyph glyph-name="I" unicode="I" horiz-adv-x="328" 
d="M296 -1l-132 2l-132 -2l-2 21l89 9v643l-89 9l2 20l132 -2l132 2l2 -20l-89 -9v-643l89 -9z" />
    <glyph glyph-name="IJ" unicode="&#x132;" horiz-adv-x="656" 
d="M296 -1l-132 2l-132 -2l-2 21l89 9v643l-89 9l2 20l132 -2l132 2l2 -20l-89 -9v-643l89 -9zM545 672v-579c0 -80 -13 -122 -48 -162l-93 -106h-76v81h109l6 21c9 26 11 60 11 165v580l-106 9l3 20l148 -2l130 2l2 -20z" />
    <glyph glyph-name="Iacute" unicode="&#xcd;" horiz-adv-x="328" 
d="M296 -1l-132 2l-132 -2l-2 21l89 9v643l-89 9l2 20l132 -2l132 2l2 -20l-89 -9v-643l89 -9z" />
    <glyph glyph-name="Ibreve" unicode="&#x12c;" horiz-adv-x="328" 
d="M296 -1l-132 2l-132 -2l-2 21l89 9v643l-89 9l2 20l132 -2l132 2l2 -20l-89 -9v-643l89 -9z" />
    <glyph glyph-name="Icircumflex" unicode="&#xce;" horiz-adv-x="328" 
d="M296 -1l-132 2l-132 -2l-2 21l89 9v643l-89 9l2 20l132 -2l132 2l2 -20l-89 -9v-643l89 -9z" />
    <glyph glyph-name="Idieresis" unicode="&#xcf;" horiz-adv-x="328" 
d="M296 -1l-132 2l-132 -2l-2 21l89 9v643l-89 9l2 20l132 -2l132 2l2 -20l-89 -9v-643l89 -9z" />
    <glyph glyph-name="Idotaccent" unicode="&#x130;" horiz-adv-x="328" 
d="M296 -1l-132 2l-132 -2l-2 21l89 9v643l-89 9l2 20l132 -2l132 2l2 -20l-89 -9v-643l89 -9z" />
    <glyph glyph-name="Igrave" unicode="&#xcc;" horiz-adv-x="328" 
d="M296 -1l-132 2l-132 -2l-2 21l89 9v643l-89 9l2 20l132 -2l132 2l2 -20l-89 -9v-643l89 -9z" />
    <glyph glyph-name="Imacron" unicode="&#x12a;" horiz-adv-x="328" 
d="M296 -1l-132 2l-132 -2l-2 21l89 9v643l-89 9l2 20l132 -2l132 2l2 -20l-89 -9v-643l89 -9z" />
    <glyph glyph-name="Iogonek" unicode="&#x12e;" horiz-adv-x="328" 
d="M296 -1l-132 2l-132 -2l-2 21l89 9v643l-89 9l2 20l132 -2l132 2l2 -20l-89 -9v-643l89 -9z" />
    <glyph glyph-name="Itilde" unicode="&#x128;" horiz-adv-x="328" 
d="M296 -1l-132 2l-132 -2l-2 21l89 9v643l-89 9l2 20l132 -2l132 2l2 -20l-89 -9v-643l89 -9z" />
    <glyph glyph-name="J" unicode="J" horiz-adv-x="328" 
d="M217 672v-579c0 -80 -13 -122 -48 -162l-93 -106h-76v81h109l6 21c9 26 11 60 11 165v580l-106 9l3 20l148 -2l130 2l2 -20z" />
    <glyph glyph-name="Jcircumflex" unicode="&#x134;" horiz-adv-x="328" 
d="M217 672v-579c0 -80 -13 -122 -48 -162l-93 -106h-76v81h109l6 21c9 26 11 60 11 165v580l-106 9l3 20l148 -2l130 2l2 -20z" />
    <glyph glyph-name="K" unicode="K" horiz-adv-x="689" 
d="M209 368l24 18l302 286l-82 9l3 20l102 -2l91 2l3 -20l-80 -11l-311 -298l44 3l314 -348l59 -8l-2 -20l-101 2l-59 -2l-292 333l-15 23v-326l80 -10l-2 -20l-123 2l-132 -2l-2 20l89 10v643l-89 9l2 20l132 -2l123 2l2 -20l-80 -9v-304z" />
    <glyph glyph-name="Kcommaaccent" unicode="&#x136;" horiz-adv-x="689" 
d="M209 368l24 18l302 286l-82 9l3 20l102 -2l91 2l3 -20l-80 -11l-311 -298l44 3l314 -348l59 -8l-2 -20l-101 2l-59 -2l-292 333l-15 23v-326l80 -10l-2 -20l-123 2l-132 -2l-2 20l89 10v643l-89 9l2 20l132 -2l123 2l2 -20l-80 -9v-304z" />
    <glyph glyph-name="L" unicode="L" horiz-adv-x="570" 
d="M541 -1l-373 2l-136 -2l-2 20l89 10v643l-89 9l2 20l134 -2l130 2l2 -20l-89 -9v-644l262 2l65 154h22z" />
    <glyph glyph-name="Lacute" unicode="&#x139;" horiz-adv-x="570" 
d="M541 -1l-373 2l-136 -2l-2 20l89 10v643l-89 9l2 20l134 -2l130 2l2 -20l-89 -9v-644l262 2l65 154h22z" />
    <glyph glyph-name="Lcaron" unicode="&#x13d;" horiz-adv-x="570" 
d="M541 -1l-373 2l-136 -2l-2 20l89 10v643l-89 9l2 20l134 -2l130 2l2 -20l-89 -9v-644l262 2l65 154h22z" />
    <glyph glyph-name="Lcommaaccent" unicode="&#x13b;" horiz-adv-x="570" 
d="M541 -1l-373 2l-136 -2l-2 20l89 10v643l-89 9l2 20l134 -2l130 2l2 -20l-89 -9v-644l262 2l65 154h22z" />
    <glyph glyph-name="Ldot" unicode="&#x13f;" horiz-adv-x="570" 
d="M541 -1l-373 2l-136 -2l-2 20l89 10v643l-89 9l2 20l134 -2l130 2l2 -20l-89 -9v-644l262 2l65 154h22z" />
    <glyph glyph-name="Lslash" unicode="&#x141;" horiz-adv-x="570" 
d="M541 -1l-373 2l-136 -2l-2 20l89 10v643l-89 9l2 20l134 -2l130 2l2 -20l-89 -9v-644l262 2l65 154h22z" />
    <glyph glyph-name="M" unicode="M" horiz-adv-x="913" 
d="M35 -1l-2 20l83 10v641l-86 11l2 20l98 -2l93 2l223 -554l14 -46l236 600l93 -2l92 2l3 -20l-87 -9v-643l84 -10l-3 -20l-123 2l-130 -2l-3 20l84 10v517l6 99l-255 -648h-49l-220 553l-35 98v-619l85 -10l-5 -20l-95 2z" />
    <glyph glyph-name="N" unicode="N" horiz-adv-x="718" 
d="M568 -4l-389 597l-23 55v-619l88 -10l-3 -20l-99 2l-110 -2l-2 20l89 10v638l-87 14l3 20l95 -2l80 2l350 -531l22 -43v545l-87 9l2 20l99 -2l109 2l3 -20l-90 -9v-676h-50z" />
    <glyph glyph-name="Nacute" unicode="&#x143;" horiz-adv-x="718" 
d="M568 -4l-389 597l-23 55v-619l88 -10l-3 -20l-99 2l-110 -2l-2 20l89 10v638l-87 14l3 20l95 -2l80 2l350 -531l22 -43v545l-87 9l2 20l99 -2l109 2l3 -20l-90 -9v-676h-50z" />
    <glyph glyph-name="Ncaron" unicode="&#x147;" horiz-adv-x="718" 
d="M568 -4l-389 597l-23 55v-619l88 -10l-3 -20l-99 2l-110 -2l-2 20l89 10v638l-87 14l3 20l95 -2l80 2l350 -531l22 -43v545l-87 9l2 20l99 -2l109 2l3 -20l-90 -9v-676h-50z" />
    <glyph glyph-name="Ncommaaccent" unicode="&#x145;" horiz-adv-x="718" 
d="M568 -4l-389 597l-23 55v-619l88 -10l-3 -20l-99 2l-110 -2l-2 20l89 10v638l-87 14l3 20l95 -2l80 2l350 -531l22 -43v545l-87 9l2 20l99 -2l109 2l3 -20l-90 -9v-676h-50z" />
    <glyph glyph-name="Ntilde" unicode="&#xd1;" horiz-adv-x="718" 
d="M568 -4l-389 597l-23 55v-619l88 -10l-3 -20l-99 2l-110 -2l-2 20l89 10v638l-87 14l3 20l95 -2l80 2l350 -531l22 -43v545l-87 9l2 20l99 -2l109 2l3 -20l-90 -9v-676h-50z" />
    <glyph glyph-name="O" unicode="O" horiz-adv-x="764" 
d="M392 717c195 0 332 -153 332 -353c0 -216 -115 -345 -352 -381c-195 0 -331 153 -331 353c0 216 114 345 351 381zM142 367c0 -178 88 -348 258 -348c148 0 223 139 223 315s-88 347 -258 347c-148 0 -223 -138 -223 -314z" />
    <glyph glyph-name="OE" unicode="&#x152;" horiz-adv-x="1377" 
d="M392 717c195 0 332 -153 332 -353c0 -216 -115 -345 -352 -381c-195 0 -331 153 -331 353c0 216 114 345 351 381zM142 367c0 -178 88 -348 258 -348c148 0 223 139 223 315s-88 347 -258 347c-148 0 -223 -138 -223 -314zM796 -1l-2 20l89 10v643l-89 9l2 20l138 -2
l393 2l4 -178h-18l-60 149l-280 1v-294l159 2l41 111h19l-5 -122l5 -128h-19l-41 110l-159 2v-327l289 2l66 153h20l-18 -183l-396 2z" />
    <glyph glyph-name="Oacute" unicode="&#xd3;" horiz-adv-x="764" 
d="M392 717c195 0 332 -153 332 -353c0 -216 -115 -345 -352 -381c-195 0 -331 153 -331 353c0 216 114 345 351 381zM142 367c0 -178 88 -348 258 -348c148 0 223 139 223 315s-88 347 -258 347c-148 0 -223 -138 -223 -314z" />
    <glyph glyph-name="Obreve" unicode="&#x14e;" horiz-adv-x="764" 
d="M392 717c195 0 332 -153 332 -353c0 -216 -115 -345 -352 -381c-195 0 -331 153 -331 353c0 216 114 345 351 381zM142 367c0 -178 88 -348 258 -348c148 0 223 139 223 315s-88 347 -258 347c-148 0 -223 -138 -223 -314z" />
    <glyph glyph-name="Ocircumflex" unicode="&#xd4;" horiz-adv-x="764" 
d="M392 717c195 0 332 -153 332 -353c0 -216 -115 -345 -352 -381c-195 0 -331 153 -331 353c0 216 114 345 351 381zM142 367c0 -178 88 -348 258 -348c148 0 223 139 223 315s-88 347 -258 347c-148 0 -223 -138 -223 -314z" />
    <glyph glyph-name="Odieresis" unicode="&#xd6;" horiz-adv-x="764" 
d="M392 717c195 0 332 -153 332 -353c0 -216 -115 -345 -352 -381c-195 0 -331 153 -331 353c0 216 114 345 351 381zM142 367c0 -178 88 -348 258 -348c148 0 223 139 223 315s-88 347 -258 347c-148 0 -223 -138 -223 -314z" />
    <glyph glyph-name="Ograve" unicode="&#xd2;" horiz-adv-x="764" 
d="M392 717c195 0 332 -153 332 -353c0 -216 -115 -345 -352 -381c-195 0 -331 153 -331 353c0 216 114 345 351 381zM142 367c0 -178 88 -348 258 -348c148 0 223 139 223 315s-88 347 -258 347c-148 0 -223 -138 -223 -314z" />
    <glyph glyph-name="Ohungarumlaut" unicode="&#x150;" horiz-adv-x="764" 
d="M392 717c195 0 332 -153 332 -353c0 -216 -115 -345 -352 -381c-195 0 -331 153 -331 353c0 216 114 345 351 381zM142 367c0 -178 88 -348 258 -348c148 0 223 139 223 315s-88 347 -258 347c-148 0 -223 -138 -223 -314z" />
    <glyph glyph-name="Omacron" unicode="&#x14c;" horiz-adv-x="764" 
d="M392 717c195 0 332 -153 332 -353c0 -216 -115 -345 -352 -381c-195 0 -331 153 -331 353c0 216 114 345 351 381zM142 367c0 -178 88 -348 258 -348c148 0 223 139 223 315s-88 347 -258 347c-148 0 -223 -138 -223 -314z" />
    <glyph glyph-name="Oslash" unicode="&#xd8;" horiz-adv-x="764" 
d="M392 717c195 0 332 -153 332 -353c0 -216 -115 -345 -352 -381c-195 0 -331 153 -331 353c0 216 114 345 351 381zM142 367c0 -178 88 -348 258 -348c148 0 223 139 223 315s-88 347 -258 347c-148 0 -223 -138 -223 -314z" />
    <glyph glyph-name="Oslashacute" unicode="&#x1fe;" horiz-adv-x="764" 
d="M392 717c195 0 332 -153 332 -353c0 -216 -115 -345 -352 -381c-195 0 -331 153 -331 353c0 216 114 345 351 381zM142 367c0 -178 88 -348 258 -348c148 0 223 139 223 315s-88 347 -258 347c-148 0 -223 -138 -223 -314z" />
    <glyph glyph-name="Otilde" unicode="&#xd5;" horiz-adv-x="764" 
d="M392 717c195 0 332 -153 332 -353c0 -216 -115 -345 -352 -381c-195 0 -331 153 -331 353c0 216 114 345 351 381zM142 367c0 -178 88 -348 258 -348c148 0 223 139 223 315s-88 347 -258 347c-148 0 -223 -138 -223 -314z" />
    <glyph glyph-name="P" unicode="P" horiz-adv-x="578" 
d="M119 672l-89 9l2 20l132 -2l184 2c122 0 217 -61 217 -178c0 -132 -119 -187 -241 -213h-115v-281l106 -10l-2 -20l-148 2l-133 -2l-2 20l89 10v643zM209 671v-332h90c100 0 167 73 167 173c0 91 -42 165 -153 165z" />
    <glyph glyph-name="Q" unicode="Q" horiz-adv-x="764" 
d="M392 717c195 0 332 -153 332 -353c0 -206 -105 -333 -320 -375l112 -34l120 -94l50 -11l-2 -19h-143l-168 152h-1c-195 0 -331 153 -331 353c0 216 114 345 351 381zM142 367c0 -178 88 -348 258 -348c148 0 223 139 223 315s-88 347 -258 347
c-148 0 -223 -138 -223 -314z" />
    <glyph glyph-name="R" unicode="R" horiz-adv-x="659" 
d="M32 -1l-2 20l89 10v643l-89 9l2 20l132 -2l176 2c118 0 222 -48 222 -174c0 -120 -113 -173 -232 -196l87 -32l183 -271l54 -10l-2 -19l-81 2l-63 -2l-207 313l-12 16h-80v-299l83 -10l-2 -20l-126 2zM209 671v-317h67c119 0 186 69 186 166c0 104 -66 155 -151 157z" />
    <glyph glyph-name="Racute" unicode="&#x154;" horiz-adv-x="659" 
d="M32 -1l-2 20l89 10v643l-89 9l2 20l132 -2l176 2c118 0 222 -48 222 -174c0 -120 -113 -173 -232 -196l87 -32l183 -271l54 -10l-2 -19l-81 2l-63 -2l-207 313l-12 16h-80v-299l83 -10l-2 -20l-126 2zM209 671v-317h67c119 0 186 69 186 166c0 104 -66 155 -151 157z" />
    <glyph glyph-name="Rcaron" unicode="&#x158;" horiz-adv-x="659" 
d="M32 -1l-2 20l89 10v643l-89 9l2 20l132 -2l176 2c118 0 222 -48 222 -174c0 -120 -113 -173 -232 -196l87 -32l183 -271l54 -10l-2 -19l-81 2l-63 -2l-207 313l-12 16h-80v-299l83 -10l-2 -20l-126 2zM209 671v-317h67c119 0 186 69 186 166c0 104 -66 155 -151 157z" />
    <glyph glyph-name="Rcommaaccent" unicode="&#x156;" horiz-adv-x="659" 
d="M32 -1l-2 20l89 10v643l-89 9l2 20l132 -2l176 2c118 0 222 -48 222 -174c0 -120 -113 -173 -232 -196l87 -32l183 -271l54 -10l-2 -19l-81 2l-63 -2l-207 313l-12 16h-80v-299l83 -10l-2 -20l-126 2zM209 671v-317h67c119 0 186 69 186 166c0 104 -66 155 -151 157z" />
    <glyph glyph-name="S" unicode="S" horiz-adv-x="541" 
d="M256 -17c-91 0 -149 25 -202 63l-11 143h37l39 -96c35 -40 92 -71 155 -71c89 0 143 55 143 134c0 69 -41 112 -114 148l-119 60c-67 32 -122 73 -122 158c0 107 95 170 225 195c63 0 130 -18 181 -50v-142h-26l-39 106c-31 31 -69 52 -127 52c-82 0 -134 -47 -134 -119
c0 -60 41 -96 103 -126l114 -56c76 -39 136 -88 136 -181c0 -85 -54 -176 -239 -218z" />
    <glyph glyph-name="Sacute" unicode="&#x15a;" horiz-adv-x="541" 
d="M256 -17c-91 0 -149 25 -202 63l-11 143h37l39 -96c35 -40 92 -71 155 -71c89 0 143 55 143 134c0 69 -41 112 -114 148l-119 60c-67 32 -122 73 -122 158c0 107 95 170 225 195c63 0 130 -18 181 -50v-142h-26l-39 106c-31 31 -69 52 -127 52c-82 0 -134 -47 -134 -119
c0 -60 41 -96 103 -126l114 -56c76 -39 136 -88 136 -181c0 -85 -54 -176 -239 -218z" />
    <glyph glyph-name="Scaron" unicode="&#x160;" horiz-adv-x="541" 
d="M256 -17c-91 0 -149 25 -202 63l-11 143h37l39 -96c35 -40 92 -71 155 -71c89 0 143 55 143 134c0 69 -41 112 -114 148l-119 60c-67 32 -122 73 -122 158c0 107 95 170 225 195c63 0 130 -18 181 -50v-142h-26l-39 106c-31 31 -69 52 -127 52c-82 0 -134 -47 -134 -119
c0 -60 41 -96 103 -126l114 -56c76 -39 136 -88 136 -181c0 -85 -54 -176 -239 -218z" />
    <glyph glyph-name="Scedilla" unicode="&#x15e;" horiz-adv-x="541" 
d="M256 -17c-91 0 -149 25 -202 63l-11 143h37l39 -96c35 -40 92 -71 155 -71c89 0 143 55 143 134c0 69 -41 112 -114 148l-119 60c-67 32 -122 73 -122 158c0 107 95 170 225 195c63 0 130 -18 181 -50v-142h-26l-39 106c-31 31 -69 52 -127 52c-82 0 -134 -47 -134 -119
c0 -60 41 -96 103 -126l114 -56c76 -39 136 -88 136 -181c0 -85 -54 -176 -239 -218z" />
    <glyph glyph-name="Scircumflex" unicode="&#x15c;" horiz-adv-x="541" 
d="M256 -17c-91 0 -149 25 -202 63l-11 143h37l39 -96c35 -40 92 -71 155 -71c89 0 143 55 143 134c0 69 -41 112 -114 148l-119 60c-67 32 -122 73 -122 158c0 107 95 170 225 195c63 0 130 -18 181 -50v-142h-26l-39 106c-31 31 -69 52 -127 52c-82 0 -134 -47 -134 -119
c0 -60 41 -96 103 -126l114 -56c76 -39 136 -88 136 -181c0 -85 -54 -176 -239 -218z" />
    <glyph glyph-name="Scommaaccent" unicode="&#x218;" horiz-adv-x="541" 
d="M256 -17c-91 0 -149 25 -202 63l-11 143h37l39 -96c35 -40 92 -71 155 -71c89 0 143 55 143 134c0 69 -41 112 -114 148l-119 60c-67 32 -122 73 -122 158c0 107 95 170 225 195c63 0 130 -18 181 -50v-142h-26l-39 106c-31 31 -69 52 -127 52c-82 0 -134 -47 -134 -119
c0 -60 41 -96 103 -126l114 -56c76 -39 136 -88 136 -181c0 -85 -54 -176 -239 -218z" />
    <glyph glyph-name="T" unicode="T" horiz-adv-x="584" 
d="M441 19l-2 -20l-147 2l-150 -2l-2 20l107 10v643h-157l-56 -153h-21v182l278 -2l280 2v-182h-21l-56 153h-157v-643z" />
    <glyph glyph-name="Tbar" unicode="&#x166;" horiz-adv-x="584" 
d="M441 19l-2 -20l-147 2l-150 -2l-2 20l107 10v643h-157l-56 -153h-21v182l278 -2l280 2v-182h-21l-56 153h-157v-643z" />
    <glyph glyph-name="Tcaron" unicode="&#x164;" horiz-adv-x="584" 
d="M441 19l-2 -20l-147 2l-150 -2l-2 20l107 10v643h-157l-56 -153h-21v182l278 -2l280 2v-182h-21l-56 153h-157v-643z" />
    <glyph glyph-name="Tcommaaccent" unicode="&#x162;" horiz-adv-x="584" 
d="M441 19l-2 -20l-147 2l-150 -2l-2 20l107 10v643h-157l-56 -153h-21v182l278 -2l280 2v-182h-21l-56 153h-157v-643z" />
    <glyph glyph-name="Thorn" unicode="&#xde;" horiz-adv-x="578" 
d="M119 672l-89 9l2 20l132 -2l184 2c122 0 217 -61 217 -178c0 -132 -119 -187 -241 -213h-115v-281l106 -10l-2 -20l-148 2l-133 -2l-2 20l89 10v643zM209 671v-332h90c100 0 167 73 167 173c0 91 -42 165 -153 165z" />
    <glyph glyph-name="U" unicode="U" horiz-adv-x="690" 
d="M544 672l-88 9l2 20l111 -2l106 2l3 -20l-86 -9v-430c0 -128 -49 -221 -239 -259c-184 0 -251 107 -251 264v425l-89 9l2 20l135 -2l129 2l3 -20l-87 -9v-440c0 -123 59 -207 180 -207c106 0 169 83 169 209v438z" />
    <glyph glyph-name="Uacute" unicode="&#xda;" horiz-adv-x="690" 
d="M544 672l-88 9l2 20l111 -2l106 2l3 -20l-86 -9v-430c0 -128 -49 -221 -239 -259c-184 0 -251 107 -251 264v425l-89 9l2 20l135 -2l129 2l3 -20l-87 -9v-440c0 -123 59 -207 180 -207c106 0 169 83 169 209v438z" />
    <glyph glyph-name="Ubreve" unicode="&#x16c;" horiz-adv-x="690" 
d="M544 672l-88 9l2 20l111 -2l106 2l3 -20l-86 -9v-430c0 -128 -49 -221 -239 -259c-184 0 -251 107 -251 264v425l-89 9l2 20l135 -2l129 2l3 -20l-87 -9v-440c0 -123 59 -207 180 -207c106 0 169 83 169 209v438z" />
    <glyph glyph-name="Ucircumflex" unicode="&#xdb;" horiz-adv-x="690" 
d="M544 672l-88 9l2 20l111 -2l106 2l3 -20l-86 -9v-430c0 -128 -49 -221 -239 -259c-184 0 -251 107 -251 264v425l-89 9l2 20l135 -2l129 2l3 -20l-87 -9v-440c0 -123 59 -207 180 -207c106 0 169 83 169 209v438z" />
    <glyph glyph-name="Udieresis" unicode="&#xdc;" horiz-adv-x="690" 
d="M544 672l-88 9l2 20l111 -2l106 2l3 -20l-86 -9v-430c0 -128 -49 -221 -239 -259c-184 0 -251 107 -251 264v425l-89 9l2 20l135 -2l129 2l3 -20l-87 -9v-440c0 -123 59 -207 180 -207c106 0 169 83 169 209v438z" />
    <glyph glyph-name="Ugrave" unicode="&#xd9;" horiz-adv-x="690" 
d="M544 672l-88 9l2 20l111 -2l106 2l3 -20l-86 -9v-430c0 -128 -49 -221 -239 -259c-184 0 -251 107 -251 264v425l-89 9l2 20l135 -2l129 2l3 -20l-87 -9v-440c0 -123 59 -207 180 -207c106 0 169 83 169 209v438z" />
    <glyph glyph-name="Uhungarumlaut" unicode="&#x170;" horiz-adv-x="690" 
d="M544 672l-88 9l2 20l111 -2l106 2l3 -20l-86 -9v-430c0 -128 -49 -221 -239 -259c-184 0 -251 107 -251 264v425l-89 9l2 20l135 -2l129 2l3 -20l-87 -9v-440c0 -123 59 -207 180 -207c106 0 169 83 169 209v438z" />
    <glyph glyph-name="Umacron" unicode="&#x16a;" horiz-adv-x="690" 
d="M544 672l-88 9l2 20l111 -2l106 2l3 -20l-86 -9v-430c0 -128 -49 -221 -239 -259c-184 0 -251 107 -251 264v425l-89 9l2 20l135 -2l129 2l3 -20l-87 -9v-440c0 -123 59 -207 180 -207c106 0 169 83 169 209v438z" />
    <glyph glyph-name="Uogonek" unicode="&#x172;" horiz-adv-x="690" 
d="M544 672l-88 9l2 20l111 -2l106 2l3 -20l-86 -9v-430c0 -128 -49 -221 -239 -259c-184 0 -251 107 -251 264v425l-89 9l2 20l135 -2l129 2l3 -20l-87 -9v-440c0 -123 59 -207 180 -207c106 0 169 83 169 209v438z" />
    <glyph glyph-name="Uring" unicode="&#x16e;" horiz-adv-x="690" 
d="M544 672l-88 9l2 20l111 -2l106 2l3 -20l-86 -9v-430c0 -128 -49 -221 -239 -259c-184 0 -251 107 -251 264v425l-89 9l2 20l135 -2l129 2l3 -20l-87 -9v-440c0 -123 59 -207 180 -207c106 0 169 83 169 209v438z" />
    <glyph glyph-name="Utilde" unicode="&#x168;" horiz-adv-x="690" 
d="M544 672l-88 9l2 20l111 -2l106 2l3 -20l-86 -9v-430c0 -128 -49 -221 -239 -259c-184 0 -251 107 -251 264v425l-89 9l2 20l135 -2l129 2l3 -20l-87 -9v-440c0 -123 59 -207 180 -207c106 0 169 83 169 209v438z" />
    <glyph glyph-name="V" unicode="V" horiz-adv-x="719" 
d="M389 8l-45 -21l-261 686l-78 8l3 20l126 -2l137 2l2 -19l-86 -10l189 -531l12 -47l205 578l-89 10l2 19l110 -2l95 2l3 -20l-81 -8z" />
    <glyph glyph-name="W" unicode="W" horiz-adv-x="980" 
d="M294 -9l-223 682l-60 8l2 20l110 -2l129 2l2 -20l-86 -9l160 -514l10 -53l132 431l-46 137l-65 8l2 20l115 -2l129 2l2 -20l-86 -9l160 -516l10 -50l176 567l-89 8l3 20l109 -2l77 2l3 -20l-62 -8l-213 -665l-48 -17l-148 450l-7 47l-150 -480z" />
    <glyph glyph-name="Wacute" unicode="&#x1e82;" horiz-adv-x="980" 
d="M294 -9l-223 682l-60 8l2 20l110 -2l129 2l2 -20l-86 -9l160 -514l10 -53l132 431l-46 137l-65 8l2 20l115 -2l129 2l2 -20l-86 -9l160 -516l10 -50l176 567l-89 8l3 20l109 -2l77 2l3 -20l-62 -8l-213 -665l-48 -17l-148 450l-7 47l-150 -480z" />
    <glyph glyph-name="Wcircumflex" unicode="&#x174;" horiz-adv-x="980" 
d="M294 -9l-223 682l-60 8l2 20l110 -2l129 2l2 -20l-86 -9l160 -514l10 -53l132 431l-46 137l-65 8l2 20l115 -2l129 2l2 -20l-86 -9l160 -516l10 -50l176 567l-89 8l3 20l109 -2l77 2l3 -20l-62 -8l-213 -665l-48 -17l-148 450l-7 47l-150 -480z" />
    <glyph glyph-name="Wdieresis" unicode="&#x1e84;" horiz-adv-x="980" 
d="M294 -9l-223 682l-60 8l2 20l110 -2l129 2l2 -20l-86 -9l160 -514l10 -53l132 431l-46 137l-65 8l2 20l115 -2l129 2l2 -20l-86 -9l160 -516l10 -50l176 567l-89 8l3 20l109 -2l77 2l3 -20l-62 -8l-213 -665l-48 -17l-148 450l-7 47l-150 -480z" />
    <glyph glyph-name="Wgrave" unicode="&#x1e80;" horiz-adv-x="980" 
d="M294 -9l-223 682l-60 8l2 20l110 -2l129 2l2 -20l-86 -9l160 -514l10 -53l132 431l-46 137l-65 8l2 20l115 -2l129 2l2 -20l-86 -9l160 -516l10 -50l176 567l-89 8l3 20l109 -2l77 2l3 -20l-62 -8l-213 -665l-48 -17l-148 450l-7 47l-150 -480z" />
    <glyph glyph-name="X" unicode="X" horiz-adv-x="700" 
d="M612 28l73 -8l-3 -21l-133 2l-133 -2l-2 21l85 9l-148 239l-20 38l-186 -277l99 -9l-3 -21l-114 2l-114 -2l-3 21l91 8l210 303l-219 342l-76 9l3 19l138 -2l129 2l2 -19l-83 -10l145 -238l17 -35l181 273l-101 9l2 20l120 -2l112 2l2 -20l-90 -8l-206 -298z" />
    <glyph glyph-name="Y" unicode="Y" horiz-adv-x="696" 
d="M613 674l-215 -394l1 -251l113 -10l-2 -20l-156 2l-160 -2l-2 20l117 10v245l-226 399l-78 9l3 19l134 -2l131 2l3 -19l-90 -10l182 -323l13 -33l188 356l-95 10l2 19l116 -2l96 2l3 -19z" />
    <glyph glyph-name="Yacute" unicode="&#xdd;" horiz-adv-x="696" 
d="M613 674l-215 -394l1 -251l113 -10l-2 -20l-156 2l-160 -2l-2 20l117 10v245l-226 399l-78 9l3 19l134 -2l131 2l3 -19l-90 -10l182 -323l13 -33l188 356l-95 10l2 19l116 -2l96 2l3 -19z" />
    <glyph glyph-name="Ycircumflex" unicode="&#x176;" horiz-adv-x="696" 
d="M613 674l-215 -394l1 -251l113 -10l-2 -20l-156 2l-160 -2l-2 20l117 10v245l-226 399l-78 9l3 19l134 -2l131 2l3 -19l-90 -10l182 -323l13 -33l188 356l-95 10l2 19l116 -2l96 2l3 -19z" />
    <glyph glyph-name="Ydieresis" unicode="&#x178;" horiz-adv-x="696" 
d="M613 674l-215 -394l1 -251l113 -10l-2 -20l-156 2l-160 -2l-2 20l117 10v245l-226 399l-78 9l3 19l134 -2l131 2l3 -19l-90 -10l182 -323l13 -33l188 356l-95 10l2 19l116 -2l96 2l3 -19z" />
    <glyph glyph-name="Ygrave" unicode="&#x1ef2;" horiz-adv-x="696" 
d="M613 674l-215 -394l1 -251l113 -10l-2 -20l-156 2l-160 -2l-2 20l117 10v245l-226 399l-78 9l3 19l134 -2l131 2l3 -19l-90 -10l182 -323l13 -33l188 356l-95 10l2 19l116 -2l96 2l3 -19z" />
    <glyph glyph-name="Z" unicode="Z" horiz-adv-x="564" 
d="M438 29l73 158h25l-17 -187h-494l-5 28l386 609l30 37l-300 -3l-62 -151h-24v180h477l5 -25l-388 -612l-28 -36z" />
    <glyph glyph-name="Zacute" unicode="&#x179;" horiz-adv-x="564" 
d="M438 29l73 158h25l-17 -187h-494l-5 28l386 609l30 37l-300 -3l-62 -151h-24v180h477l5 -25l-388 -612l-28 -36z" />
    <glyph glyph-name="Zcaron" unicode="&#x17d;" horiz-adv-x="564" 
d="M438 29l73 158h25l-17 -187h-494l-5 28l386 609l30 37l-300 -3l-62 -151h-24v180h477l5 -25l-388 -612l-28 -36z" />
    <glyph glyph-name="Zdotaccent" unicode="&#x17b;" horiz-adv-x="564" 
d="M438 29l73 158h25l-17 -187h-494l-5 28l386 609l30 37l-300 -3l-62 -151h-24v180h477l5 -25l-388 -612l-28 -36z" />
    <glyph glyph-name="a" unicode="a" horiz-adv-x="451" 
d="M293 101v151l-147 -59c-21 -18 -33 -41 -33 -72c0 -51 30 -77 66 -77c31 0 59 19 75 30zM45 400l176 81c125 0 152 -39 152 -156v-207c0 -38 8 -60 18 -83l53 4l2 -19l-125 -25l-24 82l-130 -92c-82 0 -137 45 -137 122c0 33 10 62 43 95l220 73v54c0 60 -2 105 -78 105
c-25 0 -49 -6 -76 -15l-21 -90h-73v71z" />
    <glyph glyph-name="aacute" unicode="&#xe1;" horiz-adv-x="451" 
d="M293 101v151l-147 -59c-21 -18 -33 -41 -33 -72c0 -51 30 -77 66 -77c31 0 59 19 75 30zM45 400l176 81c125 0 152 -39 152 -156v-207c0 -38 8 -60 18 -83l53 4l2 -19l-125 -25l-24 82l-130 -92c-82 0 -137 45 -137 122c0 33 10 62 43 95l220 73v54c0 60 -2 105 -78 105
c-25 0 -49 -6 -76 -15l-21 -90h-73v71z" />
    <glyph glyph-name="abreve" unicode="&#x103;" horiz-adv-x="451" 
d="M293 101v151l-147 -59c-21 -18 -33 -41 -33 -72c0 -51 30 -77 66 -77c31 0 59 19 75 30zM45 400l176 81c125 0 152 -39 152 -156v-207c0 -38 8 -60 18 -83l53 4l2 -19l-125 -25l-24 82l-130 -92c-82 0 -137 45 -137 122c0 33 10 62 43 95l220 73v54c0 60 -2 105 -78 105
c-25 0 -49 -6 -76 -15l-21 -90h-73v71z" />
    <glyph glyph-name="acircumflex" unicode="&#xe2;" horiz-adv-x="451" 
d="M293 101v151l-147 -59c-21 -18 -33 -41 -33 -72c0 -51 30 -77 66 -77c31 0 59 19 75 30zM45 400l176 81c125 0 152 -39 152 -156v-207c0 -38 8 -60 18 -83l53 4l2 -19l-125 -25l-24 82l-130 -92c-82 0 -137 45 -137 122c0 33 10 62 43 95l220 73v54c0 60 -2 105 -78 105
c-25 0 -49 -6 -76 -15l-21 -90h-73v71z" />
    <glyph glyph-name="adieresis" unicode="&#xe4;" horiz-adv-x="451" 
d="M293 101v151l-147 -59c-21 -18 -33 -41 -33 -72c0 -51 30 -77 66 -77c31 0 59 19 75 30zM45 400l176 81c125 0 152 -39 152 -156v-207c0 -38 8 -60 18 -83l53 4l2 -19l-125 -25l-24 82l-130 -92c-82 0 -137 45 -137 122c0 33 10 62 43 95l220 73v54c0 60 -2 105 -78 105
c-25 0 -49 -6 -76 -15l-21 -90h-73v71z" />
    <glyph glyph-name="ae" unicode="&#xe6;" horiz-adv-x="914" 
d="M293 101v151l-147 -59c-21 -18 -33 -41 -33 -72c0 -51 30 -77 66 -77c31 0 59 19 75 30zM45 400l176 81c125 0 152 -39 152 -156v-207c0 -38 8 -60 18 -83l53 4l2 -19l-125 -25l-24 82l-130 -92c-82 0 -137 45 -137 122c0 33 10 62 43 95l220 73v54c0 60 -2 105 -78 105
c-25 0 -49 -6 -76 -15l-21 -90h-73v71zM875 265h-310c0 -133 69 -214 179 -214c41 0 87 19 126 44l9 -21c-52 -39 -105 -66 -167 -89c-116 0 -225 81 -225 236c0 157 99 234 218 260c124 0 170 -78 170 -184v-32zM566 288l219 5c0 90 -17 153 -102 153
c-71 0 -110 -65 -117 -158z" />
    <glyph glyph-name="aeacute" unicode="&#x1fd;" horiz-adv-x="914" 
d="M293 101v151l-147 -59c-21 -18 -33 -41 -33 -72c0 -51 30 -77 66 -77c31 0 59 19 75 30zM45 400l176 81c125 0 152 -39 152 -156v-207c0 -38 8 -60 18 -83l53 4l2 -19l-125 -25l-24 82l-130 -92c-82 0 -137 45 -137 122c0 33 10 62 43 95l220 73v54c0 60 -2 105 -78 105
c-25 0 -49 -6 -76 -15l-21 -90h-73v71zM875 265h-310c0 -133 69 -214 179 -214c41 0 87 19 126 44l9 -21c-52 -39 -105 -66 -167 -89c-116 0 -225 81 -225 236c0 157 99 234 218 260c124 0 170 -78 170 -184v-32zM566 288l219 5c0 90 -17 153 -102 153
c-71 0 -110 -65 -117 -158z" />
    <glyph glyph-name="agrave" unicode="&#xe0;" horiz-adv-x="451" 
d="M293 101v151l-147 -59c-21 -18 -33 -41 -33 -72c0 -51 30 -77 66 -77c31 0 59 19 75 30zM45 400l176 81c125 0 152 -39 152 -156v-207c0 -38 8 -60 18 -83l53 4l2 -19l-125 -25l-24 82l-130 -92c-82 0 -137 45 -137 122c0 33 10 62 43 95l220 73v54c0 60 -2 105 -78 105
c-25 0 -49 -6 -76 -15l-21 -90h-73v71z" />
    <glyph glyph-name="amacron" unicode="&#x101;" horiz-adv-x="451" 
d="M293 101v151l-147 -59c-21 -18 -33 -41 -33 -72c0 -51 30 -77 66 -77c31 0 59 19 75 30zM45 400l176 81c125 0 152 -39 152 -156v-207c0 -38 8 -60 18 -83l53 4l2 -19l-125 -25l-24 82l-130 -92c-82 0 -137 45 -137 122c0 33 10 62 43 95l220 73v54c0 60 -2 105 -78 105
c-25 0 -49 -6 -76 -15l-21 -90h-73v71z" />
    <glyph glyph-name="aogonek" unicode="&#x105;" horiz-adv-x="451" 
d="M293 101v151l-147 -59c-21 -18 -33 -41 -33 -72c0 -51 30 -77 66 -77c31 0 59 19 75 30zM45 400l176 81c125 0 152 -39 152 -156v-207c0 -38 8 -60 18 -83l53 4l2 -19l-125 -25l-24 82l-130 -92c-82 0 -137 45 -137 122c0 33 10 62 43 95l220 73v54c0 60 -2 105 -78 105
c-25 0 -49 -6 -76 -15l-21 -90h-73v71z" />
    <glyph glyph-name="aring" unicode="&#xe5;" horiz-adv-x="451" 
d="M293 101v151l-147 -59c-21 -18 -33 -41 -33 -72c0 -51 30 -77 66 -77c31 0 59 19 75 30zM45 400l176 81c125 0 152 -39 152 -156v-207c0 -38 8 -60 18 -83l53 4l2 -19l-125 -25l-24 82l-130 -92c-82 0 -137 45 -137 122c0 33 10 62 43 95l220 73v54c0 60 -2 105 -78 105
c-25 0 -49 -6 -76 -15l-21 -90h-73v71z" />
    <glyph glyph-name="aringacute" unicode="&#x1fb;" horiz-adv-x="451" 
d="M293 101v151l-147 -59c-21 -18 -33 -41 -33 -72c0 -51 30 -77 66 -77c31 0 59 19 75 30zM45 400l176 81c125 0 152 -39 152 -156v-207c0 -38 8 -60 18 -83l53 4l2 -19l-125 -25l-24 82l-130 -92c-82 0 -137 45 -137 122c0 33 10 62 43 95l220 73v54c0 60 -2 105 -78 105
c-25 0 -49 -6 -76 -15l-21 -90h-73v71z" />
    <glyph glyph-name="atilde" unicode="&#xe3;" horiz-adv-x="451" 
d="M293 101v151l-147 -59c-21 -18 -33 -41 -33 -72c0 -51 30 -77 66 -77c31 0 59 19 75 30zM45 400l176 81c125 0 152 -39 152 -156v-207c0 -38 8 -60 18 -83l53 4l2 -19l-125 -25l-24 82l-130 -92c-82 0 -137 45 -137 122c0 33 10 62 43 95l220 73v54c0 60 -2 105 -78 105
c-25 0 -49 -6 -76 -15l-21 -90h-73v71z" />
    <glyph glyph-name="b" unicode="b" horiz-adv-x="531" 
d="M490 260c0 -180 -104 -252 -242 -275c-88 0 -125 20 -165 42v640l-69 -7l-4 20l126 32l27 2v-329l138 96c104 0 189 -82 189 -221zM405 230c0 110 -41 187 -115 187c-32 0 -61 -14 -98 -40l-29 -21v-294c22 -30 58 -45 104 -45c79 0 138 83 138 213z" />
    <glyph glyph-name="c" unicode="c" horiz-adv-x="437" 
d="M341 342l-33 92c-16 9 -31 13 -53 13c-76 0 -137 -68 -137 -192c0 -116 64 -205 164 -205c43 0 83 18 122 46l8 -20c-46 -38 -96 -67 -156 -91c-124 0 -217 83 -217 234c0 160 114 238 232 262c40 0 102 -26 132 -51v-88h-62z" />
    <glyph glyph-name="cacute" unicode="&#x107;" horiz-adv-x="437" 
d="M341 342l-33 92c-16 9 -31 13 -53 13c-76 0 -137 -68 -137 -192c0 -116 64 -205 164 -205c43 0 83 18 122 46l8 -20c-46 -38 -96 -67 -156 -91c-124 0 -217 83 -217 234c0 160 114 238 232 262c40 0 102 -26 132 -51v-88h-62z" />
    <glyph glyph-name="ccaron" unicode="&#x10d;" horiz-adv-x="437" 
d="M341 342l-33 92c-16 9 -31 13 -53 13c-76 0 -137 -68 -137 -192c0 -116 64 -205 164 -205c43 0 83 18 122 46l8 -20c-46 -38 -96 -67 -156 -91c-124 0 -217 83 -217 234c0 160 114 238 232 262c40 0 102 -26 132 -51v-88h-62z" />
    <glyph glyph-name="ccedilla" unicode="&#xe7;" horiz-adv-x="437" 
d="M341 342l-33 92c-16 9 -31 13 -53 13c-76 0 -137 -68 -137 -192c0 -116 64 -205 164 -205c43 0 83 18 122 46l8 -20c-46 -38 -96 -67 -156 -91c-124 0 -217 83 -217 234c0 160 114 238 232 262c40 0 102 -26 132 -51v-88h-62z" />
    <glyph glyph-name="ccircumflex" unicode="&#x109;" horiz-adv-x="437" 
d="M341 342l-33 92c-16 9 -31 13 -53 13c-76 0 -137 -68 -137 -192c0 -116 64 -205 164 -205c43 0 83 18 122 46l8 -20c-46 -38 -96 -67 -156 -91c-124 0 -217 83 -217 234c0 160 114 238 232 262c40 0 102 -26 132 -51v-88h-62z" />
    <glyph glyph-name="cdotaccent" unicode="&#x10b;" horiz-adv-x="437" 
d="M341 342l-33 92c-16 9 -31 13 -53 13c-76 0 -137 -68 -137 -192c0 -116 64 -205 164 -205c43 0 83 18 122 46l8 -20c-46 -38 -96 -67 -156 -91c-124 0 -217 83 -217 234c0 160 114 238 232 262c40 0 102 -26 132 -51v-88h-62z" />
    <glyph glyph-name="colon" unicode=":" horiz-adv-x="217" 
d="M77 96l67 5l27 -5l5 -51l-7 -45l-68 -5l-26 5l-5 53z" />
    <glyph glyph-name="comma" unicode="," horiz-adv-x="214" 
d="M81 0l-5 53l6 43l66 5l29 -5l4 -51l-6 -45l-74 -141l-19 8c7 18 47 116 47 129z" />
    <glyph glyph-name="d" unicode="d" horiz-adv-x="547" 
d="M442 714v-593c0 -36 6 -57 18 -82l64 4l3 -20l-134 -28l-26 85l-137 -95c-117 0 -195 100 -195 228c0 148 84 244 235 268c28 0 64 -12 92 -27v214l-69 -7l-4 19l128 32zM237 49c30 0 55 11 97 42l28 22v293c-20 26 -54 44 -98 44c-91 -1 -143 -80 -143 -205
c0 -114 47 -196 116 -196z" />
    <glyph glyph-name="dcaron" unicode="&#x10f;" horiz-adv-x="547" 
d="M442 714v-593c0 -36 6 -57 18 -82l64 4l3 -20l-134 -28l-26 85l-137 -95c-117 0 -195 100 -195 228c0 148 84 244 235 268c28 0 64 -12 92 -27v214l-69 -7l-4 19l128 32zM237 49c30 0 55 11 97 42l28 22v293c-20 26 -54 44 -98 44c-91 -1 -143 -80 -143 -205
c0 -114 47 -196 116 -196z" />
    <glyph glyph-name="dcroat" unicode="&#x111;" horiz-adv-x="547" 
d="M442 714v-593c0 -36 6 -57 18 -82l64 4l3 -20l-134 -28l-26 85l-137 -95c-117 0 -195 100 -195 228c0 148 84 244 235 268c28 0 64 -12 92 -27v214l-69 -7l-4 19l128 32zM237 49c30 0 55 11 97 42l28 22v293c-20 26 -54 44 -98 44c-91 -1 -143 -80 -143 -205
c0 -114 47 -196 116 -196z" />
    <glyph glyph-name="dotlessi" unicode="&#x131;" horiz-adv-x="277" 
d="M255 -1l-109 2l-109 -2l-2 20l69 8v400l-71 -12l-3 20l127 35l27 2v-445l73 -8zM94 648l9 42l63 5l25 -5l5 -49l-9 -44l-63 -5l-24 5z" />
    <glyph glyph-name="e" unicode="e" horiz-adv-x="463" 
d="M424 265h-310c0 -133 69 -214 179 -214c41 0 87 19 126 44l9 -21c-52 -39 -105 -66 -167 -89c-116 0 -225 81 -225 236c0 157 99 234 218 260c124 0 170 -78 170 -184v-32zM115 288l219 5c0 90 -17 153 -102 153c-71 0 -110 -65 -117 -158z" />
    <glyph glyph-name="eacute" unicode="&#xe9;" horiz-adv-x="463" 
d="M424 265h-310c0 -133 69 -214 179 -214c41 0 87 19 126 44l9 -21c-52 -39 -105 -66 -167 -89c-116 0 -225 81 -225 236c0 157 99 234 218 260c124 0 170 -78 170 -184v-32zM115 288l219 5c0 90 -17 153 -102 153c-71 0 -110 -65 -117 -158z" />
    <glyph glyph-name="ebreve" unicode="&#x115;" horiz-adv-x="463" 
d="M424 265h-310c0 -133 69 -214 179 -214c41 0 87 19 126 44l9 -21c-52 -39 -105 -66 -167 -89c-116 0 -225 81 -225 236c0 157 99 234 218 260c124 0 170 -78 170 -184v-32zM115 288l219 5c0 90 -17 153 -102 153c-71 0 -110 -65 -117 -158z" />
    <glyph glyph-name="ecaron" unicode="&#x11b;" horiz-adv-x="463" 
d="M424 265h-310c0 -133 69 -214 179 -214c41 0 87 19 126 44l9 -21c-52 -39 -105 -66 -167 -89c-116 0 -225 81 -225 236c0 157 99 234 218 260c124 0 170 -78 170 -184v-32zM115 288l219 5c0 90 -17 153 -102 153c-71 0 -110 -65 -117 -158z" />
    <glyph glyph-name="ecircumflex" unicode="&#xea;" horiz-adv-x="463" 
d="M424 265h-310c0 -133 69 -214 179 -214c41 0 87 19 126 44l9 -21c-52 -39 -105 -66 -167 -89c-116 0 -225 81 -225 236c0 157 99 234 218 260c124 0 170 -78 170 -184v-32zM115 288l219 5c0 90 -17 153 -102 153c-71 0 -110 -65 -117 -158z" />
    <glyph glyph-name="edieresis" unicode="&#xeb;" horiz-adv-x="463" 
d="M424 265h-310c0 -133 69 -214 179 -214c41 0 87 19 126 44l9 -21c-52 -39 -105 -66 -167 -89c-116 0 -225 81 -225 236c0 157 99 234 218 260c124 0 170 -78 170 -184v-32zM115 288l219 5c0 90 -17 153 -102 153c-71 0 -110 -65 -117 -158z" />
    <glyph glyph-name="edotaccent" unicode="&#x117;" horiz-adv-x="463" 
d="M424 265h-310c0 -133 69 -214 179 -214c41 0 87 19 126 44l9 -21c-52 -39 -105 -66 -167 -89c-116 0 -225 81 -225 236c0 157 99 234 218 260c124 0 170 -78 170 -184v-32zM115 288l219 5c0 90 -17 153 -102 153c-71 0 -110 -65 -117 -158z" />
    <glyph glyph-name="egrave" unicode="&#xe8;" horiz-adv-x="463" 
d="M424 265h-310c0 -133 69 -214 179 -214c41 0 87 19 126 44l9 -21c-52 -39 -105 -66 -167 -89c-116 0 -225 81 -225 236c0 157 99 234 218 260c124 0 170 -78 170 -184v-32zM115 288l219 5c0 90 -17 153 -102 153c-71 0 -110 -65 -117 -158z" />
    <glyph glyph-name="eight" unicode="8" horiz-adv-x="535" 
d="M485 182c0 -105 -77 -165 -230 -197c-114 0 -205 69 -205 177c0 82 64 150 155 194c-92 65 -135 119 -135 184c0 86 70 141 206 175c125 0 196 -55 196 -142c0 -80 -60 -140 -149 -190c108 -76 162 -125 162 -201zM136 186c0 -95 64 -167 137 -167c60 0 126 37 126 123
c0 81 -73 127 -174 201c-61 -43 -89 -85 -89 -157zM385 551c0 72 -42 131 -123 131c-62 0 -105 -39 -105 -103c0 -66 58 -118 147 -182c63 48 81 95 81 154z" />
    <glyph glyph-name="emacron" unicode="&#x113;" horiz-adv-x="463" 
d="M424 265h-310c0 -133 69 -214 179 -214c41 0 87 19 126 44l9 -21c-52 -39 -105 -66 -167 -89c-116 0 -225 81 -225 236c0 157 99 234 218 260c124 0 170 -78 170 -184v-32zM115 288l219 5c0 90 -17 153 -102 153c-71 0 -110 -65 -117 -158z" />
    <glyph glyph-name="emdash" unicode="&#x2014;" horiz-adv-x="385" 
d="M40 253v44h305v-44h-305z" />
    <glyph glyph-name="endash" unicode="&#x2013;" horiz-adv-x="385" 
d="M40 253v44h305v-44h-305z" />
    <glyph glyph-name="eng" unicode="&#x14b;" horiz-adv-x="572" 
d="M236 -1l-90 2l-109 -2l-3 20l70 8v400l-71 -12l-3 20l127 35l23 2l3 -97l164 106c51 -1 83 -10 102 -33c20 -23 27 -59 27 -114v-307l79 -8l-3 -20l-114 2l-91 -2l-2 20l51 8v306c0 62 -23 84 -68 84c-37 0 -68 -20 -108 -46l-36 -22v-322l55 -8z" />
    <glyph glyph-name="eogonek" unicode="&#x119;" horiz-adv-x="463" 
d="M424 265h-310c0 -133 69 -214 179 -214c41 0 87 19 126 44l9 -21c-52 -39 -105 -66 -167 -89c-116 0 -225 81 -225 236c0 157 99 234 218 260c124 0 170 -78 170 -184v-32zM115 288l219 5c0 90 -17 153 -102 153c-71 0 -110 -65 -117 -158z" />
    <glyph glyph-name="exclam" unicode="!" horiz-adv-x="217" 
d="M77 96l67 5l27 -5l5 -51l-7 -45l-68 -5l-26 5l-5 53z" />
    <glyph glyph-name="f" unicode="f" horiz-adv-x="325" 
d="M184 499v-38h124v-26h-124v-408l114 -6l-2 -22l-146 2l-114 -2l-2 20l70 8v408h-78v12l14 16h64v11c0 64 12 100 46 138l87 98h114v-71h-139l-12 -20c-11 -22 -16 -48 -16 -120z" />
    <glyph glyph-name="ff" unicode="&#xfb00;" horiz-adv-x="650" 
d="M184 499v-38h124v-26h-124v-408l114 -6l-2 -22l-146 2l-114 -2l-2 20l70 8v408h-78v12l14 16h64v11c0 64 12 100 46 138l87 98h114v-71h-139l-12 -20c-11 -22 -16 -48 -16 -120zM509 499v-38h124v-26h-124v-408l114 -6l-2 -22l-146 2l-114 -2l-2 20l70 8v408h-78v12
l14 16h64v11c0 64 12 100 46 138l87 98h114v-71h-139l-12 -20c-11 -22 -16 -48 -16 -120z" />
    <glyph glyph-name="fi" unicode="&#xfb01;" horiz-adv-x="602" 
d="M184 499v-38h124v-26h-124v-408l114 -6l-2 -22l-146 2l-114 -2l-2 20l70 8v408h-78v12l14 16h64v11c0 64 12 100 46 138l87 98h114v-71h-139l-12 -20c-11 -22 -16 -48 -16 -120zM580 -1l-109 2l-109 -2l-2 20l69 8v400l-71 -12l-3 20l127 35l27 2v-445l73 -8zM419 648
l9 42l63 5l25 -5l5 -49l-9 -44l-63 -5l-24 5z" />
    <glyph glyph-name="five" unicode="5" horiz-adv-x="470" 
d="M118 392l-27 -242l151 80c155 0 195 -103 195 -166c0 -137 -98 -194 -209 -245l-102 -49h-82v81h191c78 43 113 106 113 176s-40 131 -129 131c-38 0 -62 -5 -109 -28l-38 -18l-16 9l38 349h336l-2 -29l-13 -49h-297z" />
    <glyph glyph-name="four" unicode="4" horiz-adv-x="543" 
d="M390 234v-195h141v-34h-141v-236h-82v236h-277l-21 21l315 442h99v-19l-363 -416l37 6h210v147l58 41z" />
    <glyph glyph-name="g" unicode="g" horiz-adv-x="494" 
d="M234 480c63 0 122 -26 150 -69l56 69h49v-79h-69l-23 -13c7 -15 11 -32 11 -50c0 -82 -55 -143 -187 -177c-17 0 -34 2 -48 6l-52 -56c0 -34 20 -51 50 -51h179c82 0 118 -42 118 -96c0 -84 -100 -164 -245 -208c-138 0 -203 43 -203 136v16l110 87c-69 22 -80 55 -80 99
v8l98 71c-60 21 -101 69 -101 130c0 83 55 142 187 177zM151 -11c-49 -48 -54 -75 -54 -97c0 -54 52 -92 125 -91c96 0 174 59 174 129c0 39 -26 59 -93 59h-152zM325 304c0 57 -21 145 -107 145c-56 0 -88 -44 -88 -118c0 -54 21 -138 107 -138c55 0 88 42 88 111z" />
    <glyph glyph-name="gbreve" unicode="&#x11f;" horiz-adv-x="494" 
d="M234 480c63 0 122 -26 150 -69l56 69h49v-79h-69l-23 -13c7 -15 11 -32 11 -50c0 -82 -55 -143 -187 -177c-17 0 -34 2 -48 6l-52 -56c0 -34 20 -51 50 -51h179c82 0 118 -42 118 -96c0 -84 -100 -164 -245 -208c-138 0 -203 43 -203 136v16l110 87c-69 22 -80 55 -80 99
v8l98 71c-60 21 -101 69 -101 130c0 83 55 142 187 177zM151 -11c-49 -48 -54 -75 -54 -97c0 -54 52 -92 125 -91c96 0 174 59 174 129c0 39 -26 59 -93 59h-152zM325 304c0 57 -21 145 -107 145c-56 0 -88 -44 -88 -118c0 -54 21 -138 107 -138c55 0 88 42 88 111z" />
    <glyph glyph-name="gcircumflex" unicode="&#x11d;" horiz-adv-x="494" 
d="M234 480c63 0 122 -26 150 -69l56 69h49v-79h-69l-23 -13c7 -15 11 -32 11 -50c0 -82 -55 -143 -187 -177c-17 0 -34 2 -48 6l-52 -56c0 -34 20 -51 50 -51h179c82 0 118 -42 118 -96c0 -84 -100 -164 -245 -208c-138 0 -203 43 -203 136v16l110 87c-69 22 -80 55 -80 99
v8l98 71c-60 21 -101 69 -101 130c0 83 55 142 187 177zM151 -11c-49 -48 -54 -75 -54 -97c0 -54 52 -92 125 -91c96 0 174 59 174 129c0 39 -26 59 -93 59h-152zM325 304c0 57 -21 145 -107 145c-56 0 -88 -44 -88 -118c0 -54 21 -138 107 -138c55 0 88 42 88 111z" />
    <glyph glyph-name="gcommaaccent" unicode="&#x123;" horiz-adv-x="494" 
d="M234 480c63 0 122 -26 150 -69l56 69h49v-79h-69l-23 -13c7 -15 11 -32 11 -50c0 -82 -55 -143 -187 -177c-17 0 -34 2 -48 6l-52 -56c0 -34 20 -51 50 -51h179c82 0 118 -42 118 -96c0 -84 -100 -164 -245 -208c-138 0 -203 43 -203 136v16l110 87c-69 22 -80 55 -80 99
v8l98 71c-60 21 -101 69 -101 130c0 83 55 142 187 177zM151 -11c-49 -48 -54 -75 -54 -97c0 -54 52 -92 125 -91c96 0 174 59 174 129c0 39 -26 59 -93 59h-152zM325 304c0 57 -21 145 -107 145c-56 0 -88 -44 -88 -118c0 -54 21 -138 107 -138c55 0 88 42 88 111z" />
    <glyph glyph-name="gdotaccent" unicode="&#x121;" horiz-adv-x="494" 
d="M234 480c63 0 122 -26 150 -69l56 69h49v-79h-69l-23 -13c7 -15 11 -32 11 -50c0 -82 -55 -143 -187 -177c-17 0 -34 2 -48 6l-52 -56c0 -34 20 -51 50 -51h179c82 0 118 -42 118 -96c0 -84 -100 -164 -245 -208c-138 0 -203 43 -203 136v16l110 87c-69 22 -80 55 -80 99
v8l98 71c-60 21 -101 69 -101 130c0 83 55 142 187 177zM151 -11c-49 -48 -54 -75 -54 -97c0 -54 52 -92 125 -91c96 0 174 59 174 129c0 39 -26 59 -93 59h-152zM325 304c0 57 -21 145 -107 145c-56 0 -88 -44 -88 -118c0 -54 21 -138 107 -138c55 0 88 42 88 111z" />
    <glyph glyph-name="germandbls" unicode="&#xdf;" horiz-adv-x="790" 
d="M318 331l-36 90c-20 17 -49 28 -85 28c-43 0 -78 -24 -78 -66c0 -39 30 -59 74 -85l79 -44c66 -37 89 -71 88 -125c0 -78 -65 -119 -172 -144c-59 0 -120 28 -148 46l-10 114h35l44 -94c23 -18 52 -33 89 -33c59 0 86 37 86 78c0 48 -25 66 -80 98l-79 45
c-38 22 -80 53 -80 112c0 67 61 104 163 130c54 0 107 -21 140 -42v-108h-30zM713 331l-36 90c-20 17 -49 28 -85 28c-43 0 -78 -24 -78 -66c0 -39 30 -59 74 -85l79 -44c66 -37 89 -71 88 -125c0 -78 -65 -119 -172 -144c-59 0 -120 28 -148 46l-10 114h35l44 -94
c23 -18 52 -33 89 -33c59 0 86 37 86 78c0 48 -25 66 -80 98l-79 45c-38 22 -80 53 -80 112c0 67 61 104 163 130c54 0 107 -21 140 -42v-108h-30z" />
    <glyph glyph-name="h" unicode="h" horiz-adv-x="571" 
d="M183 350v-323l55 -8l-3 -20l-89 2l-110 -2l-3 20l70 8v641l-69 -7l-3 19l125 32l27 2v-337l164 104c54 0 86 -13 105 -39s24 -66 24 -119v-296l78 -8l-3 -20l-114 2l-90 -2l-2 20l51 8v306c0 62 -24 84 -67 84c-35 0 -68 -20 -109 -46z" />
    <glyph glyph-name="hbar" unicode="&#x127;" horiz-adv-x="571" 
d="M183 350v-323l55 -8l-3 -20l-89 2l-110 -2l-3 20l70 8v641l-69 -7l-3 19l125 32l27 2v-337l164 104c54 0 86 -13 105 -39s24 -66 24 -119v-296l78 -8l-3 -20l-114 2l-90 -2l-2 20l51 8v306c0 62 -24 84 -67 84c-35 0 -68 -20 -109 -46z" />
    <glyph glyph-name="hcircumflex" unicode="&#x125;" horiz-adv-x="571" 
d="M183 350v-323l55 -8l-3 -20l-89 2l-110 -2l-3 20l70 8v641l-69 -7l-3 19l125 32l27 2v-337l164 104c54 0 86 -13 105 -39s24 -66 24 -119v-296l78 -8l-3 -20l-114 2l-90 -2l-2 20l51 8v306c0 62 -24 84 -67 84c-35 0 -68 -20 -109 -46z" />
    <glyph glyph-name="hyphen" unicode="-" horiz-adv-x="385" 
d="M40 253v44h305v-44h-305z" />
    <glyph glyph-name="i" unicode="i" horiz-adv-x="277" 
d="M255 -1l-109 2l-109 -2l-2 20l69 8v400l-71 -12l-3 20l127 35l27 2v-445l73 -8zM94 648l9 42l63 5l25 -5l5 -49l-9 -44l-63 -5l-24 5z" />
    <glyph glyph-name="iacute" unicode="&#xed;" horiz-adv-x="277" 
d="M255 -1l-109 2l-109 -2l-2 20l69 8v400l-71 -12l-3 20l127 35l27 2v-445l73 -8zM94 648l9 42l63 5l25 -5l5 -49l-9 -44l-63 -5l-24 5z" />
    <glyph glyph-name="ibreve" unicode="&#x12d;" horiz-adv-x="277" 
d="M255 -1l-109 2l-109 -2l-2 20l69 8v400l-71 -12l-3 20l127 35l27 2v-445l73 -8zM94 648l9 42l63 5l25 -5l5 -49l-9 -44l-63 -5l-24 5z" />
    <glyph glyph-name="icircumflex" unicode="&#xee;" horiz-adv-x="277" 
d="M255 -1l-109 2l-109 -2l-2 20l69 8v400l-71 -12l-3 20l127 35l27 2v-445l73 -8zM94 648l9 42l63 5l25 -5l5 -49l-9 -44l-63 -5l-24 5z" />
    <glyph glyph-name="idieresis" unicode="&#xef;" horiz-adv-x="277" 
d="M255 -1l-109 2l-109 -2l-2 20l69 8v400l-71 -12l-3 20l127 35l27 2v-445l73 -8zM94 648l9 42l63 5l25 -5l5 -49l-9 -44l-63 -5l-24 5z" />
    <glyph glyph-name="igrave" unicode="&#xec;" horiz-adv-x="277" 
d="M255 -1l-109 2l-109 -2l-2 20l69 8v400l-71 -12l-3 20l127 35l27 2v-445l73 -8zM94 648l9 42l63 5l25 -5l5 -49l-9 -44l-63 -5l-24 5z" />
    <glyph glyph-name="ij" unicode="&#x133;" horiz-adv-x="533" 
d="M255 -1l-109 2l-109 -2l-2 20l69 8v400l-71 -12l-3 20l127 35l27 2v-445l73 -8zM94 648l9 42l63 5l25 -5l5 -49l-9 -44l-63 -5l-24 5zM371 648l9 42l63 5l25 -5l5 -49l-9 -44l-63 -5l-24 5zM360 -158l7 18c6 17 15 47 15 104v463l-71 -12l-4 20l128 35l27 2v-491
c0 -47 -10 -73 -41 -111l-88 -106h-75v78h102z" />
    <glyph glyph-name="imacron" unicode="&#x12b;" horiz-adv-x="277" 
d="M255 -1l-109 2l-109 -2l-2 20l69 8v400l-71 -12l-3 20l127 35l27 2v-445l73 -8zM94 648l9 42l63 5l25 -5l5 -49l-9 -44l-63 -5l-24 5z" />
    <glyph glyph-name="iogonek" unicode="&#x12f;" horiz-adv-x="277" 
d="M255 -1l-109 2l-109 -2l-2 20l69 8v400l-71 -12l-3 20l127 35l27 2v-445l73 -8zM94 648l9 42l63 5l25 -5l5 -49l-9 -44l-63 -5l-24 5z" />
    <glyph glyph-name="itilde" unicode="&#x129;" horiz-adv-x="277" 
d="M255 -1l-109 2l-109 -2l-2 20l69 8v400l-71 -12l-3 20l127 35l27 2v-445l73 -8zM94 648l9 42l63 5l25 -5l5 -49l-9 -44l-63 -5l-24 5z" />
    <glyph glyph-name="j" unicode="j" horiz-adv-x="256" 
d="M94 648l9 42l63 5l25 -5l5 -49l-9 -44l-63 -5l-24 5zM83 -158l7 18c6 17 15 47 15 104v463l-71 -12l-4 20l128 35l27 2v-491c0 -47 -10 -73 -41 -111l-88 -106h-75v78h102z" />
    <glyph glyph-name="jcircumflex" unicode="&#x135;" horiz-adv-x="256" 
d="M94 648l9 42l63 5l25 -5l5 -49l-9 -44l-63 -5l-24 5zM83 -158l7 18c6 17 15 47 15 104v463l-71 -12l-4 20l128 35l27 2v-491c0 -47 -10 -73 -41 -111l-88 -106h-75v78h102z" />
    <glyph glyph-name="k" unicode="k" horiz-adv-x="527" 
d="M520 -1l-79 2l-57 -2l-188 232l-13 21v-225l62 -8l-2 -20l-97 2l-111 -2l-2 20l70 8v640l-69 -7l-4 20l126 32l27 2v-449l27 17l183 157l-46 8v19l77 -1l74 1l3 -19l-60 -8l-211 -173h41l206 -240l45 -7z" />
    <glyph glyph-name="kcommaaccent" unicode="&#x137;" horiz-adv-x="527" 
d="M520 -1l-79 2l-57 -2l-188 232l-13 21v-225l62 -8l-2 -20l-97 2l-111 -2l-2 20l70 8v640l-69 -7l-4 20l126 32l27 2v-449l27 17l183 157l-46 8v19l77 -1l74 1l3 -19l-60 -8l-211 -173h41l206 -240l45 -7z" />
    <glyph glyph-name="kgreenlandic" unicode="&#x138;" horiz-adv-x="527" 
d="M520 -1l-79 2l-57 -2l-188 232l-13 21v-225l62 -8l-2 -20l-97 2l-111 -2l-2 20l70 8v640l-69 -7l-4 20l126 32l27 2v-449l27 17l183 157l-46 8v19l77 -1l74 1l3 -19l-60 -8l-211 -173h41l206 -240l45 -7z" />
    <glyph glyph-name="l" unicode="l" horiz-adv-x="271" 
d="M253 -1l-109 2l-108 -2l-3 20l70 8v640l-69 -7l-3 20l125 32l27 2v-687l73 -8z" />
    <glyph glyph-name="lacute" unicode="&#x13a;" horiz-adv-x="271" 
d="M253 -1l-109 2l-108 -2l-3 20l70 8v640l-69 -7l-3 20l125 32l27 2v-687l73 -8z" />
    <glyph glyph-name="lcaron" unicode="&#x13e;" horiz-adv-x="271" 
d="M253 -1l-109 2l-108 -2l-3 20l70 8v640l-69 -7l-3 20l125 32l27 2v-687l73 -8z" />
    <glyph glyph-name="lcommaaccent" unicode="&#x13c;" horiz-adv-x="271" 
d="M253 -1l-109 2l-108 -2l-3 20l70 8v640l-69 -7l-3 20l125 32l27 2v-687l73 -8z" />
    <glyph glyph-name="ldot" unicode="&#x140;" horiz-adv-x="271" 
d="M253 -1l-109 2l-108 -2l-3 20l70 8v640l-69 -7l-3 20l125 32l27 2v-687l73 -8z" />
    <glyph glyph-name="lslash" unicode="&#x142;" horiz-adv-x="271" 
d="M253 -1l-109 2l-108 -2l-3 20l70 8v640l-69 -7l-3 20l125 32l27 2v-687l73 -8z" />
    <glyph glyph-name="m" unicode="m" horiz-adv-x="844" 
d="M825 -1l-115 2l-90 -2l-3 20l52 8v306c0 62 -23 84 -63 84c-34 0 -71 -22 -104 -45l-35 -24v-321l49 -8l-3 -20l-84 2l-89 -2l-2 20l49 8v306c0 62 -23 84 -64 84c-33 0 -70 -22 -103 -45l-36 -24v-321l52 -8l-2 -20l-88 2l-109 -2l-3 20l70 8v400l-71 -11l-3 19l128 35
l23 2l2 -96l156 105c39 0 69 -8 90 -25s33 -43 35 -81l157 106c53 -2 85 -13 104 -38c18 -25 24 -63 24 -119v-297l78 -8z" />
    <glyph glyph-name="n" unicode="n" horiz-adv-x="572" 
d="M236 -1l-90 2l-109 -2l-3 20l70 8v400l-71 -12l-3 20l127 35l23 2l3 -97l164 106c51 -1 83 -10 102 -33c20 -23 27 -59 27 -114v-307l79 -8l-3 -20l-114 2l-91 -2l-2 20l51 8v306c0 62 -23 84 -68 84c-37 0 -68 -20 -108 -46l-36 -22v-322l55 -8z" />
    <glyph glyph-name="nacute" unicode="&#x144;" horiz-adv-x="572" 
d="M236 -1l-90 2l-109 -2l-3 20l70 8v400l-71 -12l-3 20l127 35l23 2l3 -97l164 106c51 -1 83 -10 102 -33c20 -23 27 -59 27 -114v-307l79 -8l-3 -20l-114 2l-91 -2l-2 20l51 8v306c0 62 -23 84 -68 84c-37 0 -68 -20 -108 -46l-36 -22v-322l55 -8z" />
    <glyph glyph-name="napostrophe" unicode="&#x149;" horiz-adv-x="572" 
d="M236 -1l-90 2l-109 -2l-3 20l70 8v400l-71 -12l-3 20l127 35l23 2l3 -97l164 106c51 -1 83 -10 102 -33c20 -23 27 -59 27 -114v-307l79 -8l-3 -20l-114 2l-91 -2l-2 20l51 8v306c0 62 -23 84 -68 84c-37 0 -68 -20 -108 -46l-36 -22v-322l55 -8z" />
    <glyph glyph-name="ncaron" unicode="&#x148;" horiz-adv-x="572" 
d="M236 -1l-90 2l-109 -2l-3 20l70 8v400l-71 -12l-3 20l127 35l23 2l3 -97l164 106c51 -1 83 -10 102 -33c20 -23 27 -59 27 -114v-307l79 -8l-3 -20l-114 2l-91 -2l-2 20l51 8v306c0 62 -23 84 -68 84c-37 0 -68 -20 -108 -46l-36 -22v-322l55 -8z" />
    <glyph glyph-name="ncommaaccent" unicode="&#x146;" horiz-adv-x="572" 
d="M236 -1l-90 2l-109 -2l-3 20l70 8v400l-71 -12l-3 20l127 35l23 2l3 -97l164 106c51 -1 83 -10 102 -33c20 -23 27 -59 27 -114v-307l79 -8l-3 -20l-114 2l-91 -2l-2 20l51 8v306c0 62 -23 84 -68 84c-37 0 -68 -20 -108 -46l-36 -22v-322l55 -8z" />
    <glyph glyph-name="nine" unicode="9" horiz-adv-x="532" 
d="M35 231c0 124 73 214 234 254c135 0 207 -128 207 -283c0 -184 -102 -359 -352 -446l-9 23c217 93 264 230 269 367l-162 -123c-130 0 -187 108 -187 208zM121 258c0 -107 53 -168 111 -168c38 0 54 11 111 55l41 33c-2 145 -40 271 -136 271c-78 0 -127 -67 -127 -191z
" />
    <glyph glyph-name="ntilde" unicode="&#xf1;" horiz-adv-x="572" 
d="M236 -1l-90 2l-109 -2l-3 20l70 8v400l-71 -12l-3 20l127 35l23 2l3 -97l164 106c51 -1 83 -10 102 -33c20 -23 27 -59 27 -114v-307l79 -8l-3 -20l-114 2l-91 -2l-2 20l51 8v306c0 62 -23 84 -68 84c-37 0 -68 -20 -108 -46l-36 -22v-322l55 -8z" />
    <glyph glyph-name="o" unicode="o" horiz-adv-x="526" 
d="M274 481c130 0 217 -103 217 -238c0 -147 -87 -231 -238 -258c-130 0 -217 103 -217 237c0 149 87 230 238 259zM121 242c0 -120 62 -224 156 -224c85 0 129 89 129 205c0 134 -65 224 -156 224c-86 0 -129 -87 -129 -205z" />
    <glyph glyph-name="oacute" unicode="&#xf3;" horiz-adv-x="526" 
d="M274 481c130 0 217 -103 217 -238c0 -147 -87 -231 -238 -258c-130 0 -217 103 -217 237c0 149 87 230 238 259zM121 242c0 -120 62 -224 156 -224c85 0 129 89 129 205c0 134 -65 224 -156 224c-86 0 -129 -87 -129 -205z" />
    <glyph glyph-name="obreve" unicode="&#x14f;" horiz-adv-x="526" 
d="M274 481c130 0 217 -103 217 -238c0 -147 -87 -231 -238 -258c-130 0 -217 103 -217 237c0 149 87 230 238 259zM121 242c0 -120 62 -224 156 -224c85 0 129 89 129 205c0 134 -65 224 -156 224c-86 0 -129 -87 -129 -205z" />
    <glyph glyph-name="ocircumflex" unicode="&#xf4;" horiz-adv-x="526" 
d="M274 481c130 0 217 -103 217 -238c0 -147 -87 -231 -238 -258c-130 0 -217 103 -217 237c0 149 87 230 238 259zM121 242c0 -120 62 -224 156 -224c85 0 129 89 129 205c0 134 -65 224 -156 224c-86 0 -129 -87 -129 -205z" />
    <glyph glyph-name="odieresis" unicode="&#xf6;" horiz-adv-x="526" 
d="M274 481c130 0 217 -103 217 -238c0 -147 -87 -231 -238 -258c-130 0 -217 103 -217 237c0 149 87 230 238 259zM121 242c0 -120 62 -224 156 -224c85 0 129 89 129 205c0 134 -65 224 -156 224c-86 0 -129 -87 -129 -205z" />
    <glyph glyph-name="oe" unicode="&#x153;" horiz-adv-x="989" 
d="M274 481c130 0 217 -103 217 -238c0 -147 -87 -231 -238 -258c-130 0 -217 103 -217 237c0 149 87 230 238 259zM121 242c0 -120 62 -224 156 -224c85 0 129 89 129 205c0 134 -65 224 -156 224c-86 0 -129 -87 -129 -205zM950 265h-310c0 -133 69 -214 179 -214
c41 0 87 19 126 44l9 -21c-52 -39 -105 -66 -167 -89c-116 0 -225 81 -225 236c0 157 99 234 218 260c124 0 170 -78 170 -184v-32zM641 288l219 5c0 90 -17 153 -102 153c-71 0 -110 -65 -117 -158z" />
    <glyph glyph-name="ograve" unicode="&#xf2;" horiz-adv-x="526" 
d="M274 481c130 0 217 -103 217 -238c0 -147 -87 -231 -238 -258c-130 0 -217 103 -217 237c0 149 87 230 238 259zM121 242c0 -120 62 -224 156 -224c85 0 129 89 129 205c0 134 -65 224 -156 224c-86 0 -129 -87 -129 -205z" />
    <glyph glyph-name="ohungarumlaut" unicode="&#x151;" horiz-adv-x="526" 
d="M274 481c130 0 217 -103 217 -238c0 -147 -87 -231 -238 -258c-130 0 -217 103 -217 237c0 149 87 230 238 259zM121 242c0 -120 62 -224 156 -224c85 0 129 89 129 205c0 134 -65 224 -156 224c-86 0 -129 -87 -129 -205z" />
    <glyph glyph-name="omacron" unicode="&#x14d;" horiz-adv-x="526" 
d="M274 481c130 0 217 -103 217 -238c0 -147 -87 -231 -238 -258c-130 0 -217 103 -217 237c0 149 87 230 238 259zM121 242c0 -120 62 -224 156 -224c85 0 129 89 129 205c0 134 -65 224 -156 224c-86 0 -129 -87 -129 -205z" />
    <glyph glyph-name="one" unicode="1" horiz-adv-x="434" 
d="M184 391l3 19l-40 -17l-107 -31l-10 20l218 92h19v-443l149 -12l-2 -20l-189 2l-191 -2l-2 20l152 12v360z" />
    <glyph glyph-name="oslash" unicode="&#xf8;" horiz-adv-x="526" 
d="M274 481c130 0 217 -103 217 -238c0 -147 -87 -231 -238 -258c-130 0 -217 103 -217 237c0 149 87 230 238 259zM121 242c0 -120 62 -224 156 -224c85 0 129 89 129 205c0 134 -65 224 -156 224c-86 0 -129 -87 -129 -205z" />
    <glyph glyph-name="oslashacute" unicode="&#x1ff;" horiz-adv-x="526" 
d="M274 481c130 0 217 -103 217 -238c0 -147 -87 -231 -238 -258c-130 0 -217 103 -217 237c0 149 87 230 238 259zM121 242c0 -120 62 -224 156 -224c85 0 129 89 129 205c0 134 -65 224 -156 224c-86 0 -129 -87 -129 -205z" />
    <glyph glyph-name="otilde" unicode="&#xf5;" horiz-adv-x="526" 
d="M274 481c130 0 217 -103 217 -238c0 -147 -87 -231 -238 -258c-130 0 -217 103 -217 237c0 149 87 230 238 259zM121 242c0 -120 62 -224 156 -224c85 0 129 89 129 205c0 134 -65 224 -156 224c-86 0 -129 -87 -129 -205z" />
    <glyph glyph-name="p" unicode="p" horiz-adv-x="532" 
d="M262 -15c-33 0 -67 8 -93 27v-215l105 -8l-2 -20l-141 2l-110 -2l-2 20l70 8v631l-71 -12l-3 19l127 35l23 2l3 -89l136 98c122 0 193 -93 193 -226c0 -154 -87 -242 -235 -270zM411 222c0 112 -43 197 -116 197c-33 0 -59 -17 -99 -45l-27 -19v-283
c21 -33 61 -55 107 -55c81 1 135 81 135 205z" />
    <glyph glyph-name="period" unicode="." horiz-adv-x="217" 
d="M77 96l67 5l27 -5l5 -51l-7 -45l-68 -5l-26 5l-5 53z" />
    <glyph glyph-name="q" unicode="q" horiz-adv-x="519" 
d="M121 244c0 -112 46 -196 123 -196c33 0 53 12 74 25l45 31v282c-16 39 -46 64 -97 64c-82 0 -145 -71 -145 -206zM511 -231l-111 2l-139 -2l-3 20l105 8v277l-131 -89c-113 0 -197 87 -197 227c0 152 100 249 247 269c47 0 87 -17 123 -39l28 34h10v-679l71 -8z" />
    <glyph glyph-name="question" unicode="?" horiz-adv-x="217" 
d="M77 96l67 5l27 -5l5 -51l-7 -45l-68 -5l-26 5l-5 53z" />
    <glyph glyph-name="r" unicode="r" horiz-adv-x="374" 
d="M180 472v-139l109 143h69v-89h-87c-12 -2 -53 -41 -67 -58l-22 -29v-271l99 -8l-3 -22l-135 2l-106 -2l-2 20l69 8v400l-71 -11l-3 19l128 35z" />
    <glyph glyph-name="racute" unicode="&#x155;" horiz-adv-x="374" 
d="M180 472v-139l109 143h69v-89h-87c-12 -2 -53 -41 -67 -58l-22 -29v-271l99 -8l-3 -22l-135 2l-106 -2l-2 20l69 8v400l-71 -11l-3 19l128 35z" />
    <glyph glyph-name="rcaron" unicode="&#x159;" horiz-adv-x="374" 
d="M180 472v-139l109 143h69v-89h-87c-12 -2 -53 -41 -67 -58l-22 -29v-271l99 -8l-3 -22l-135 2l-106 -2l-2 20l69 8v400l-71 -11l-3 19l128 35z" />
    <glyph glyph-name="rcommaaccent" unicode="&#x157;" horiz-adv-x="374" 
d="M180 472v-139l109 143h69v-89h-87c-12 -2 -53 -41 -67 -58l-22 -29v-271l99 -8l-3 -22l-135 2l-106 -2l-2 20l69 8v400l-71 -11l-3 19l128 35z" />
    <glyph glyph-name="s" unicode="s" horiz-adv-x="395" 
d="M318 331l-36 90c-20 17 -49 28 -85 28c-43 0 -78 -24 -78 -66c0 -39 30 -59 74 -85l79 -44c66 -37 89 -71 88 -125c0 -78 -65 -119 -172 -144c-59 0 -120 28 -148 46l-10 114h35l44 -94c23 -18 52 -33 89 -33c59 0 86 37 86 78c0 48 -25 66 -80 98l-79 45
c-38 22 -80 53 -80 112c0 67 61 104 163 130c54 0 107 -21 140 -42v-108h-30z" />
    <glyph glyph-name="sacute" unicode="&#x15b;" horiz-adv-x="395" 
d="M318 331l-36 90c-20 17 -49 28 -85 28c-43 0 -78 -24 -78 -66c0 -39 30 -59 74 -85l79 -44c66 -37 89 -71 88 -125c0 -78 -65 -119 -172 -144c-59 0 -120 28 -148 46l-10 114h35l44 -94c23 -18 52 -33 89 -33c59 0 86 37 86 78c0 48 -25 66 -80 98l-79 45
c-38 22 -80 53 -80 112c0 67 61 104 163 130c54 0 107 -21 140 -42v-108h-30z" />
    <glyph glyph-name="scaron" unicode="&#x161;" horiz-adv-x="395" 
d="M318 331l-36 90c-20 17 -49 28 -85 28c-43 0 -78 -24 -78 -66c0 -39 30 -59 74 -85l79 -44c66 -37 89 -71 88 -125c0 -78 -65 -119 -172 -144c-59 0 -120 28 -148 46l-10 114h35l44 -94c23 -18 52 -33 89 -33c59 0 86 37 86 78c0 48 -25 66 -80 98l-79 45
c-38 22 -80 53 -80 112c0 67 61 104 163 130c54 0 107 -21 140 -42v-108h-30z" />
    <glyph glyph-name="scedilla" unicode="&#x15f;" horiz-adv-x="395" 
d="M318 331l-36 90c-20 17 -49 28 -85 28c-43 0 -78 -24 -78 -66c0 -39 30 -59 74 -85l79 -44c66 -37 89 -71 88 -125c0 -78 -65 -119 -172 -144c-59 0 -120 28 -148 46l-10 114h35l44 -94c23 -18 52 -33 89 -33c59 0 86 37 86 78c0 48 -25 66 -80 98l-79 45
c-38 22 -80 53 -80 112c0 67 61 104 163 130c54 0 107 -21 140 -42v-108h-30z" />
    <glyph glyph-name="scircumflex" unicode="&#x15d;" horiz-adv-x="395" 
d="M318 331l-36 90c-20 17 -49 28 -85 28c-43 0 -78 -24 -78 -66c0 -39 30 -59 74 -85l79 -44c66 -37 89 -71 88 -125c0 -78 -65 -119 -172 -144c-59 0 -120 28 -148 46l-10 114h35l44 -94c23 -18 52 -33 89 -33c59 0 86 37 86 78c0 48 -25 66 -80 98l-79 45
c-38 22 -80 53 -80 112c0 67 61 104 163 130c54 0 107 -21 140 -42v-108h-30z" />
    <glyph glyph-name="scommaaccent" unicode="&#x219;" horiz-adv-x="395" 
d="M318 331l-36 90c-20 17 -49 28 -85 28c-43 0 -78 -24 -78 -66c0 -39 30 -59 74 -85l79 -44c66 -37 89 -71 88 -125c0 -78 -65 -119 -172 -144c-59 0 -120 28 -148 46l-10 114h35l44 -94c23 -18 52 -33 89 -33c59 0 86 37 86 78c0 48 -25 66 -80 98l-79 45
c-38 22 -80 53 -80 112c0 67 61 104 163 130c54 0 107 -21 140 -42v-108h-30z" />
    <glyph glyph-name="semicolon" unicode=";" horiz-adv-x="214" 
d="M81 0l-5 53l6 43l66 5l29 -5l4 -51l-6 -45l-74 -141l-19 8c7 18 47 116 47 129z" />
    <glyph glyph-name="seven" unicode="7" horiz-adv-x="479" 
d="M20 391v79h428l11 -12l-282 -687h-75v15l284 587l19 18h-385z" />
    <glyph glyph-name="six" unicode="6" horiz-adv-x="536" 
d="M489 240c0 -125 -75 -218 -234 -255c-135 0 -207 129 -207 281c0 188 98 367 355 455l9 -23c-222 -92 -267 -218 -272 -376l164 126c131 0 185 -106 185 -208zM403 211c0 114 -51 172 -110 172c-37 0 -69 -24 -116 -61l-37 -30c3 -140 40 -271 136 -271
c80 0 127 70 127 190z" />
    <glyph glyph-name="space" unicode=" " horiz-adv-x="240" 
 />
    <glyph glyph-name="t" unicode="t" horiz-adv-x="333" 
d="M93 434h-88v13l17 16h73v72l68 54h9v-130h151v-25h-150v-323c0 -37 16 -64 57 -64c33 0 56 10 85 25l10 -19l-121 -68c-105 0 -111 48 -111 125v324z" />
    <glyph glyph-name="tbar" unicode="&#x167;" horiz-adv-x="333" 
d="M93 434h-88v13l17 16h73v72l68 54h9v-130h151v-25h-150v-323c0 -37 16 -64 57 -64c33 0 56 10 85 25l10 -19l-121 -68c-105 0 -111 48 -111 125v324z" />
    <glyph glyph-name="tcaron" unicode="&#x165;" horiz-adv-x="333" 
d="M93 434h-88v13l17 16h73v72l68 54h9v-130h151v-25h-150v-323c0 -37 16 -64 57 -64c33 0 56 10 85 25l10 -19l-121 -68c-105 0 -111 48 -111 125v324z" />
    <glyph glyph-name="tcommaaccent" unicode="&#x163;" horiz-adv-x="333" 
d="M93 434h-88v13l17 16h73v72l68 54h9v-130h151v-25h-150v-323c0 -37 16 -64 57 -64c33 0 56 10 85 25l10 -19l-121 -68c-105 0 -111 48 -111 125v324z" />
    <glyph glyph-name="thorn" unicode="&#xfe;" horiz-adv-x="532" 
d="M262 -15c-33 0 -67 8 -93 27v-215l105 -8l-2 -20l-141 2l-110 -2l-2 20l70 8v631l-71 -12l-3 19l127 35l23 2l3 -89l136 98c122 0 193 -93 193 -226c0 -154 -87 -242 -235 -270zM411 222c0 112 -43 197 -116 197c-33 0 -59 -17 -99 -45l-27 -19v-283
c21 -33 61 -55 107 -55c81 1 135 81 135 205z" />
    <glyph glyph-name="three" unicode="3" horiz-adv-x="462" 
d="M243 -150c62 38 85 89 85 140c0 75 -66 139 -195 139l-6 18l49 23c98 44 125 95 125 162s-42 110 -94 110c-28 0 -57 -10 -73 -19l-36 -113h-67v101l203 74c110 0 154 -68 154 -128c0 -71 -45 -135 -154 -182c108 -5 182 -69 182 -148c0 -108 -78 -160 -184 -209
l-102 -48h-103v80h216z" />
    <glyph glyph-name="two" unicode="2" horiz-adv-x="479" 
d="M190 79h259v-16l-25 -63h-392l-12 25l138 105c121 92 158 155 158 212c0 67 -35 102 -95 102c-30 0 -51 -11 -65 -18l-32 -113h-69v95l184 77c113 0 168 -56 167 -127c0 -93 -71 -159 -194 -233l-98 -57z" />
    <glyph glyph-name="u" unicode="u" horiz-adv-x="548" 
d="M454 470v-342c0 -43 5 -66 13 -91l54 3l2 -19l-125 -25l-22 88l-159 -99c-57 1 -90 12 -109 37s-23 63 -23 116v290l-72 -7l-3 22l129 25l26 2v-339c0 -60 23 -84 68 -84c34 0 67 20 106 46l35 21v314l-66 -7l-2 22l123 25z" />
    <glyph glyph-name="uacute" unicode="&#xfa;" horiz-adv-x="548" 
d="M454 470v-342c0 -43 5 -66 13 -91l54 3l2 -19l-125 -25l-22 88l-159 -99c-57 1 -90 12 -109 37s-23 63 -23 116v290l-72 -7l-3 22l129 25l26 2v-339c0 -60 23 -84 68 -84c34 0 67 20 106 46l35 21v314l-66 -7l-2 22l123 25z" />
    <glyph glyph-name="ubreve" unicode="&#x16d;" horiz-adv-x="548" 
d="M454 470v-342c0 -43 5 -66 13 -91l54 3l2 -19l-125 -25l-22 88l-159 -99c-57 1 -90 12 -109 37s-23 63 -23 116v290l-72 -7l-3 22l129 25l26 2v-339c0 -60 23 -84 68 -84c34 0 67 20 106 46l35 21v314l-66 -7l-2 22l123 25z" />
    <glyph glyph-name="ucircumflex" unicode="&#xfb;" horiz-adv-x="548" 
d="M454 470v-342c0 -43 5 -66 13 -91l54 3l2 -19l-125 -25l-22 88l-159 -99c-57 1 -90 12 -109 37s-23 63 -23 116v290l-72 -7l-3 22l129 25l26 2v-339c0 -60 23 -84 68 -84c34 0 67 20 106 46l35 21v314l-66 -7l-2 22l123 25z" />
    <glyph glyph-name="udieresis" unicode="&#xfc;" horiz-adv-x="548" 
d="M454 470v-342c0 -43 5 -66 13 -91l54 3l2 -19l-125 -25l-22 88l-159 -99c-57 1 -90 12 -109 37s-23 63 -23 116v290l-72 -7l-3 22l129 25l26 2v-339c0 -60 23 -84 68 -84c34 0 67 20 106 46l35 21v314l-66 -7l-2 22l123 25z" />
    <glyph glyph-name="ugrave" unicode="&#xf9;" horiz-adv-x="548" 
d="M454 470v-342c0 -43 5 -66 13 -91l54 3l2 -19l-125 -25l-22 88l-159 -99c-57 1 -90 12 -109 37s-23 63 -23 116v290l-72 -7l-3 22l129 25l26 2v-339c0 -60 23 -84 68 -84c34 0 67 20 106 46l35 21v314l-66 -7l-2 22l123 25z" />
    <glyph glyph-name="uhungarumlaut" unicode="&#x171;" horiz-adv-x="548" 
d="M454 470v-342c0 -43 5 -66 13 -91l54 3l2 -19l-125 -25l-22 88l-159 -99c-57 1 -90 12 -109 37s-23 63 -23 116v290l-72 -7l-3 22l129 25l26 2v-339c0 -60 23 -84 68 -84c34 0 67 20 106 46l35 21v314l-66 -7l-2 22l123 25z" />
    <glyph glyph-name="umacron" unicode="&#x16b;" horiz-adv-x="548" 
d="M454 470v-342c0 -43 5 -66 13 -91l54 3l2 -19l-125 -25l-22 88l-159 -99c-57 1 -90 12 -109 37s-23 63 -23 116v290l-72 -7l-3 22l129 25l26 2v-339c0 -60 23 -84 68 -84c34 0 67 20 106 46l35 21v314l-66 -7l-2 22l123 25z" />
    <glyph glyph-name="underscore" unicode="_" horiz-adv-x="385" 
d="M40 253v44h305v-44h-305z" />
    <glyph glyph-name="uni021A" unicode="&#x21a;" horiz-adv-x="584" 
d="M441 19l-2 -20l-147 2l-150 -2l-2 20l107 10v643h-157l-56 -153h-21v182l278 -2l280 2v-182h-21l-56 153h-157v-643z" />
    <glyph glyph-name="uni021B" unicode="&#x21b;" horiz-adv-x="548" 
d="M454 470v-342c0 -43 5 -66 13 -91l54 3l2 -19l-125 -25l-22 88l-159 -99c-57 1 -90 12 -109 37s-23 63 -23 116v290l-72 -7l-3 22l129 25l26 2v-339c0 -60 23 -84 68 -84c34 0 67 20 106 46l35 21v314l-66 -7l-2 22l123 25z" />
    <glyph glyph-name="uogonek" unicode="&#x173;" horiz-adv-x="548" 
d="M454 470v-342c0 -43 5 -66 13 -91l54 3l2 -19l-125 -25l-22 88l-159 -99c-57 1 -90 12 -109 37s-23 63 -23 116v290l-72 -7l-3 22l129 25l26 2v-339c0 -60 23 -84 68 -84c34 0 67 20 106 46l35 21v314l-66 -7l-2 22l123 25z" />
    <glyph glyph-name="uring" unicode="&#x16f;" horiz-adv-x="548" 
d="M454 470v-342c0 -43 5 -66 13 -91l54 3l2 -19l-125 -25l-22 88l-159 -99c-57 1 -90 12 -109 37s-23 63 -23 116v290l-72 -7l-3 22l129 25l26 2v-339c0 -60 23 -84 68 -84c34 0 67 20 106 46l35 21v314l-66 -7l-2 22l123 25z" />
    <glyph glyph-name="utilde" unicode="&#x169;" horiz-adv-x="548" 
d="M454 470v-342c0 -43 5 -66 13 -91l54 3l2 -19l-125 -25l-22 88l-159 -99c-57 1 -90 12 -109 37s-23 63 -23 116v290l-72 -7l-3 22l129 25l26 2v-339c0 -60 23 -84 68 -84c34 0 67 20 106 46l35 21v314l-66 -7l-2 22l123 25z" />
    <glyph glyph-name="v" unicode="v" horiz-adv-x="532" 
d="M275 109l14 -58l133 388l-60 8l3 19l85 -1l75 1l2 -19l-63 -8l-159 -422l-65 -33l-174 455l-61 8l3 19l106 -1l102 1l3 -19l-64 -8z" />
    <glyph glyph-name="w" unicode="w" horiz-adv-x="822" 
d="M529 -15l-108 304l-10 54l-114 -326l-70 -32l-161 454l-61 8l3 19l103 -1l96 1l3 -19l-58 -8l112 -333l14 -53l112 326l-21 60l-49 8l3 19l91 -1l96 1l2 -19l-58 -8l114 -336l12 -50l133 386l-60 8l3 19l74 -1l84 1l3 -19l-63 -8l-154 -422z" />
    <glyph glyph-name="wacute" unicode="&#x1e83;" horiz-adv-x="822" 
d="M529 -15l-108 304l-10 54l-114 -326l-70 -32l-161 454l-61 8l3 19l103 -1l96 1l3 -19l-58 -8l112 -333l14 -53l112 326l-21 60l-49 8l3 19l91 -1l96 1l2 -19l-58 -8l114 -336l12 -50l133 386l-60 8l3 19l74 -1l84 1l3 -19l-63 -8l-154 -422z" />
    <glyph glyph-name="wcircumflex" unicode="&#x175;" horiz-adv-x="822" 
d="M529 -15l-108 304l-10 54l-114 -326l-70 -32l-161 454l-61 8l3 19l103 -1l96 1l3 -19l-58 -8l112 -333l14 -53l112 326l-21 60l-49 8l3 19l91 -1l96 1l2 -19l-58 -8l114 -336l12 -50l133 386l-60 8l3 19l74 -1l84 1l3 -19l-63 -8l-154 -422z" />
    <glyph glyph-name="wdieresis" unicode="&#x1e85;" horiz-adv-x="822" 
d="M529 -15l-108 304l-10 54l-114 -326l-70 -32l-161 454l-61 8l3 19l103 -1l96 1l3 -19l-58 -8l112 -333l14 -53l112 326l-21 60l-49 8l3 19l91 -1l96 1l2 -19l-58 -8l114 -336l12 -50l133 386l-60 8l3 19l74 -1l84 1l3 -19l-63 -8l-154 -422z" />
    <glyph glyph-name="wgrave" unicode="&#x1e81;" horiz-adv-x="822" 
d="M529 -15l-108 304l-10 54l-114 -326l-70 -32l-161 454l-61 8l3 19l103 -1l96 1l3 -19l-58 -8l112 -333l14 -53l112 326l-21 60l-49 8l3 19l91 -1l96 1l2 -19l-58 -8l114 -336l12 -50l133 386l-60 8l3 19l74 -1l84 1l3 -19l-63 -8l-154 -422z" />
    <glyph glyph-name="x" unicode="x" horiz-adv-x="526" 
d="M128 27l67 -8l-3 -20l-85 2l-94 -2l-2 20l75 8l148 192l-149 219l-59 8l3 20l111 -1l82 1l2 -20l-36 -8l86 -134l13 -25l109 159l-70 8l2 20l86 -1l95 1l2 -20l-76 -8l-131 -175l156 -236l61 -8l-3 -20l-107 2l-88 -2l-3 20l39 8l-96 147l-12 24z" />
    <glyph glyph-name="y" unicode="y" horiz-adv-x="529" 
d="M191 -235h-104v86h89l101 174l-47 -21l-164 435l-61 8l3 19l106 -1l102 1l3 -19l-64 -8l119 -330l12 -54l133 384l-59 8l3 19l83 -1l76 1l2 -19l-64 -8l-154 -414z" />
    <glyph glyph-name="yacute" unicode="&#xfd;" horiz-adv-x="529" 
d="M191 -235h-104v86h89l101 174l-47 -21l-164 435l-61 8l3 19l106 -1l102 1l3 -19l-64 -8l119 -330l12 -54l133 384l-59 8l3 19l83 -1l76 1l2 -19l-64 -8l-154 -414z" />
    <glyph glyph-name="ycircumflex" unicode="&#x177;" horiz-adv-x="529" 
d="M191 -235h-104v86h89l101 174l-47 -21l-164 435l-61 8l3 19l106 -1l102 1l3 -19l-64 -8l119 -330l12 -54l133 384l-59 8l3 19l83 -1l76 1l2 -19l-64 -8l-154 -414z" />
    <glyph glyph-name="ydieresis" unicode="&#xff;" horiz-adv-x="529" 
d="M191 -235h-104v86h89l101 174l-47 -21l-164 435l-61 8l3 19l106 -1l102 1l3 -19l-64 -8l119 -330l12 -54l133 384l-59 8l3 19l83 -1l76 1l2 -19l-64 -8l-154 -414z" />
    <glyph glyph-name="ygrave" unicode="&#x1ef3;" horiz-adv-x="529" 
d="M191 -235h-104v86h89l101 174l-47 -21l-164 435l-61 8l3 19l106 -1l102 1l3 -19l-64 -8l119 -330l12 -54l133 384l-59 8l3 19l83 -1l76 1l2 -19l-64 -8l-154 -414z" />
    <glyph glyph-name="z" unicode="z" horiz-adv-x="454" 
d="M411 0h-369l-6 18l265 387l34 38l-199 -2l-50 -114h-22v139h354l7 -19l-267 -391l-29 -33l213 2l60 116h23z" />
    <glyph glyph-name="zacute" unicode="&#x17a;" horiz-adv-x="454" 
d="M411 0h-369l-6 18l265 387l34 38l-199 -2l-50 -114h-22v139h354l7 -19l-267 -391l-29 -33l213 2l60 116h23z" />
    <glyph glyph-name="zcaron" unicode="&#x17e;" horiz-adv-x="454" 
d="M411 0h-369l-6 18l265 387l34 38l-199 -2l-50 -114h-22v139h354l7 -19l-267 -391l-29 -33l213 2l60 116h23z" />
    <glyph glyph-name="zdotaccent" unicode="&#x17c;" horiz-adv-x="454" 
d="M411 0h-369l-6 18l265 387l34 38l-199 -2l-50 -114h-22v139h354l7 -19l-267 -391l-29 -33l213 2l60 116h23z" />
    <glyph glyph-name="zero" unicode="0" horiz-adv-x="569" 
d="M295 481c136 0 234 -101 234 -238c0 -139 -85 -223 -255 -258c-136 0 -234 101 -234 238c0 139 85 220 255 258zM133 247c0 -123 47 -227 164 -227c93 0 139 95 139 199c0 122 -47 226 -164 226c-94 0 -139 -96 -139 -198z" />
    <glyph glyph-name="uni0401" unicode="&#x401;" 
 />
    <glyph glyph-name="uni0403" unicode="&#x403;" 
 />
    <glyph glyph-name="uni0407" unicode="&#x407;" 
 />
    <glyph glyph-name="uni0409" unicode="&#x409;" 
 />
    <glyph glyph-name="uni040A" unicode="&#x40a;" 
 />
    <glyph glyph-name="uni040C" unicode="&#x40c;" 
 />
    <glyph glyph-name="uni040E" unicode="&#x40e;" 
 />
    <glyph glyph-name="uni0419" unicode="&#x419;" 
 />
    <glyph glyph-name="uni0439" unicode="&#x439;" 
 />
    <glyph glyph-name="uni0451" unicode="&#x451;" 
 />
    <glyph glyph-name="uni0453" unicode="&#x453;" 
 />
    <glyph glyph-name="uni0457" unicode="&#x457;" 
 />
    <glyph glyph-name="uni0459" unicode="&#x459;" 
 />
    <glyph glyph-name="uni045A" unicode="&#x45a;" 
 />
    <glyph glyph-name="uni045C" unicode="&#x45c;" 
 />
    <glyph glyph-name="uni045E" unicode="&#x45e;" 
 />
    <glyph glyph-name="uni0490" unicode="&#x490;" 
 />
    <glyph glyph-name="uni0491" unicode="&#x491;" 
 />
  </font>
</defs>
</svg>
