<?xml version="1.0" standalone="no"?>
<!DOCTYPE svg PUBLIC "-//W3C//DTD SVG 1.1//EN" "http://www.w3.org/Graphics/SVG/1.1/DTD/svg11.dtd" >
<svg>
<metadata>
Created by FontForge 20110222 at Mon Dec  7 16:57:46 2015
 By www-data
Copyright c 2014 by Grilli Type GmbH. All rights reserved.
</metadata>
<defs>
<font id="GTSectraFineTrial-Regular" horiz-adv-x="0" >
  <font-face 
    font-family="GT Sectra Fine Trial"
    font-weight="400"
    font-stretch="normal"
    units-per-em="1000"
    panose-1="2 0 5 3 7 0 0 2 0 3"
    ascent="750"
    descent="-250"
    x-height="469"
    cap-height="701"
    bbox="-21 -244 1358 721"
    underline-thickness="50"
    underline-position="-25"
    stemh="28"
    stemv="95"
    unicode-range="U+0020-FB01"
  />
<missing-glyph horiz-adv-x="550" 
d="M422 342v158h-30v-158h30zM302 452v-110h30v110h-30zM50 0v700h450v-700h-450zM303 260h-30v-109h30v109zM295 453c-3 1 -6 2 -11 2c-15 0 -25 -11 -31 -21v18h-27v-110h29v50c0 18 8 35 30 35c5 0 7 0 10 -1v27zM439 452v-110h30v110h-30zM89 307v-29h44v-127h30v127h44
v29h-118zM427 151h29v158h-29v-158zM266 234v28c-3 1 -5 1 -10 1c-14 0 -25 -10 -30 -21v18h-28v-109h30v49c0 18 7 35 28 35c4 0 6 0 10 -1zM301 500v-29h32v29h-32zM438 500v-29h32v29h-32zM181 399c0 -13 -9 -33 -36 -33s-41 20 -41 53c0 32 14 55 40 55
c20 0 28 -13 31 -23l30 12c-7 19 -23 39 -60 39c-48 0 -74 -35 -74 -82c0 -46 25 -81 67 -81c18 0 35 6 43 20l4 -17h23v87h-67v-28h40v-2zM304 309h-32v-30h32v30zM376 342v158h-29v-158h29zM385 151h29c-1 5 -3 11 -3 21v40c0 34 -10 51 -46 51c-33 0 -50 -14 -51 -37h29
c1 10 8 15 21 15c15 0 18 -9 18 -22c-24 -2 -40 -5 -50 -8c-12 -5 -21 -14 -21 -29c0 -21 16 -34 38 -34c16 0 28 6 35 19c0 -6 0 -11 1 -16zM382 201v-3c0 -18 -10 -28 -24 -28c-11 0 -17 6 -17 13c0 9 7 14 23 16z" />
    <glyph glyph-name=".notdef" horiz-adv-x="550" 
d="M422 342v158h-30v-158h30zM302 452v-110h30v110h-30zM50 0v700h450v-700h-450zM303 260h-30v-109h30v109zM295 453c-3 1 -6 2 -11 2c-15 0 -25 -11 -31 -21v18h-27v-110h29v50c0 18 8 35 30 35c5 0 7 0 10 -1v27zM439 452v-110h30v110h-30zM89 307v-29h44v-127h30v127h44
v29h-118zM427 151h29v158h-29v-158zM266 234v28c-3 1 -5 1 -10 1c-14 0 -25 -10 -30 -21v18h-28v-109h30v49c0 18 7 35 28 35c4 0 6 0 10 -1zM301 500v-29h32v29h-32zM438 500v-29h32v29h-32zM181 399c0 -13 -9 -33 -36 -33s-41 20 -41 53c0 32 14 55 40 55
c20 0 28 -13 31 -23l30 12c-7 19 -23 39 -60 39c-48 0 -74 -35 -74 -82c0 -46 25 -81 67 -81c18 0 35 6 43 20l4 -17h23v87h-67v-28h40v-2zM304 309h-32v-30h32v30zM376 342v158h-29v-158h29zM385 151h29c-1 5 -3 11 -3 21v40c0 34 -10 51 -46 51c-33 0 -50 -14 -51 -37h29
c1 10 8 15 21 15c15 0 18 -9 18 -22c-24 -2 -40 -5 -50 -8c-12 -5 -21 -14 -21 -29c0 -21 16 -34 38 -34c16 0 28 6 35 19c0 -6 0 -11 1 -16zM382 201v-3c0 -18 -10 -28 -24 -28c-11 0 -17 6 -17 13c0 9 7 14 23 16z" />
    <glyph glyph-name=".null" 
 />
    <glyph glyph-name=".null" 
 />
    <glyph glyph-name="A" unicode="A" horiz-adv-x="721" 
d="M11 -1l-3 23l75 10l242 654l66 25l248 -680l75 -9l-2 -23l-137 2l-135 -2l-2 23l84 10l-73 211h-247l-74 -211l86 -10l-2 -23l-105 2zM212 275h226l-81 232l-28 103z" />
    <glyph glyph-name="AE" unicode="&#xc6;" horiz-adv-x="1337" 
d="M11 -1l-3 23l75 10l242 654l66 25l248 -680l75 -9l-2 -23l-137 2l-135 -2l-2 23l84 10l-73 211h-247l-74 -211l86 -10l-2 -23l-105 2zM212 275h226l-81 232l-28 103zM753 -1l-3 23l85 10v637l-85 9l3 23l138 -2l398 2l5 -181h-22l-62 149l-269 1v-289l149 2l42 112h23
l-5 -125l5 -131h-23l-42 112l-149 2v-323l277 2l67 154h24l-18 -187l-401 2z" />
    <glyph glyph-name="AEacute" unicode="&#x1fc;" horiz-adv-x="1337" 
d="M11 -1l-3 23l75 10l242 654l66 25l248 -680l75 -9l-2 -23l-137 2l-135 -2l-2 23l84 10l-73 211h-247l-74 -211l86 -10l-2 -23l-105 2zM212 275h226l-81 232l-28 103zM753 -1l-3 23l85 10v637l-85 9l3 23l138 -2l398 2l5 -181h-22l-62 149l-269 1v-289l149 2l42 112h23
l-5 -125l5 -131h-23l-42 112l-149 2v-323l277 2l67 154h24l-18 -187l-401 2z" />
    <glyph glyph-name="Aacute" unicode="&#xc1;" horiz-adv-x="721" 
d="M11 -1l-3 23l75 10l242 654l66 25l248 -680l75 -9l-2 -23l-137 2l-135 -2l-2 23l84 10l-73 211h-247l-74 -211l86 -10l-2 -23l-105 2zM212 275h226l-81 232l-28 103z" />
    <glyph glyph-name="Abreve" unicode="&#x102;" horiz-adv-x="721" 
d="M11 -1l-3 23l75 10l242 654l66 25l248 -680l75 -9l-2 -23l-137 2l-135 -2l-2 23l84 10l-73 211h-247l-74 -211l86 -10l-2 -23l-105 2zM212 275h226l-81 232l-28 103z" />
    <glyph glyph-name="Acircumflex" unicode="&#xc2;" horiz-adv-x="721" 
d="M11 -1l-3 23l75 10l242 654l66 25l248 -680l75 -9l-2 -23l-137 2l-135 -2l-2 23l84 10l-73 211h-247l-74 -211l86 -10l-2 -23l-105 2zM212 275h226l-81 232l-28 103z" />
    <glyph glyph-name="Adieresis" unicode="&#xc4;" horiz-adv-x="721" 
d="M11 -1l-3 23l75 10l242 654l66 25l248 -680l75 -9l-2 -23l-137 2l-135 -2l-2 23l84 10l-73 211h-247l-74 -211l86 -10l-2 -23l-105 2zM212 275h226l-81 232l-28 103z" />
    <glyph glyph-name="Agrave" unicode="&#xc0;" horiz-adv-x="721" 
d="M11 -1l-3 23l75 10l242 654l66 25l248 -680l75 -9l-2 -23l-137 2l-135 -2l-2 23l84 10l-73 211h-247l-74 -211l86 -10l-2 -23l-105 2zM212 275h226l-81 232l-28 103z" />
    <glyph glyph-name="Amacron" unicode="&#x100;" horiz-adv-x="721" 
d="M11 -1l-3 23l75 10l242 654l66 25l248 -680l75 -9l-2 -23l-137 2l-135 -2l-2 23l84 10l-73 211h-247l-74 -211l86 -10l-2 -23l-105 2zM212 275h226l-81 232l-28 103z" />
    <glyph glyph-name="Aogonek" unicode="&#x104;" horiz-adv-x="721" 
d="M11 -1l-3 23l75 10l242 654l66 25l248 -680l75 -9l-2 -23l-137 2l-135 -2l-2 23l84 10l-73 211h-247l-74 -211l86 -10l-2 -23l-105 2zM212 275h226l-81 232l-28 103z" />
    <glyph glyph-name="Aring" unicode="&#xc5;" horiz-adv-x="721" 
d="M11 -1l-3 23l75 10l242 654l66 25l248 -680l75 -9l-2 -23l-137 2l-135 -2l-2 23l84 10l-73 211h-247l-74 -211l86 -10l-2 -23l-105 2zM212 275h226l-81 232l-28 103z" />
    <glyph glyph-name="Aringacute" unicode="&#x1fa;" horiz-adv-x="721" 
d="M11 -1l-3 23l75 10l242 654l66 25l248 -680l75 -9l-2 -23l-137 2l-135 -2l-2 23l84 10l-73 211h-247l-74 -211l86 -10l-2 -23l-105 2zM212 275h226l-81 232l-28 103z" />
    <glyph glyph-name="Atilde" unicode="&#xc3;" horiz-adv-x="721" 
d="M11 -1l-3 23l75 10l242 654l66 25l248 -680l75 -9l-2 -23l-137 2l-135 -2l-2 23l84 10l-73 211h-247l-74 -211l86 -10l-2 -23l-105 2zM212 275h226l-81 232l-28 103z" />
    <glyph glyph-name="B" unicode="B" horiz-adv-x="634" 
d="M32 -1l-3 23l85 10v637l-85 9l3 23l146 -2l184 2c129 0 194 -74 194 -153c0 -91 -83 -161 -186 -174c152 -3 225 -79 225 -171c0 -131 -108 -189 -265 -204l-157 2zM220 384h89c86 0 137 70 137 159c0 78 -44 130 -124 131l-102 -6v-284zM309 26c131 0 175 85 175 172
c0 98 -64 156 -158 156h-106v-322z" />
    <glyph glyph-name="C" unicode="C" horiz-adv-x="691" 
d="M617 209h33l-13 -155c-66 -30 -150 -60 -243 -71c-185 0 -355 124 -355 356c0 229 150 353 370 378c100 0 182 -34 235 -65v-150h-33l-48 116c-31 33 -82 66 -161 66c-139 0 -244 -110 -244 -325c0 -174 86 -339 262 -339c59 0 109 29 138 58z" />
    <glyph glyph-name="Cacute" unicode="&#x106;" horiz-adv-x="691" 
d="M617 209h33l-13 -155c-66 -30 -150 -60 -243 -71c-185 0 -355 124 -355 356c0 229 150 353 370 378c100 0 182 -34 235 -65v-150h-33l-48 116c-31 33 -82 66 -161 66c-139 0 -244 -110 -244 -325c0 -174 86 -339 262 -339c59 0 109 29 138 58z" />
    <glyph glyph-name="Ccaron" unicode="&#x10c;" horiz-adv-x="691" 
d="M617 209h33l-13 -155c-66 -30 -150 -60 -243 -71c-185 0 -355 124 -355 356c0 229 150 353 370 378c100 0 182 -34 235 -65v-150h-33l-48 116c-31 33 -82 66 -161 66c-139 0 -244 -110 -244 -325c0 -174 86 -339 262 -339c59 0 109 29 138 58z" />
    <glyph glyph-name="Ccedilla" unicode="&#xc7;" horiz-adv-x="691" 
d="M617 209h33l-13 -155c-66 -30 -150 -60 -243 -71c-185 0 -355 124 -355 356c0 229 150 353 370 378c100 0 182 -34 235 -65v-150h-33l-48 116c-31 33 -82 66 -161 66c-139 0 -244 -110 -244 -325c0 -174 86 -339 262 -339c59 0 109 29 138 58z" />
    <glyph glyph-name="Ccircumflex" unicode="&#x108;" horiz-adv-x="691" 
d="M617 209h33l-13 -155c-66 -30 -150 -60 -243 -71c-185 0 -355 124 -355 356c0 229 150 353 370 378c100 0 182 -34 235 -65v-150h-33l-48 116c-31 33 -82 66 -161 66c-139 0 -244 -110 -244 -325c0 -174 86 -339 262 -339c59 0 109 29 138 58z" />
    <glyph glyph-name="Cdotaccent" unicode="&#x10a;" horiz-adv-x="691" 
d="M617 209h33l-13 -155c-66 -30 -150 -60 -243 -71c-185 0 -355 124 -355 356c0 229 150 353 370 378c100 0 182 -34 235 -65v-150h-33l-48 116c-31 33 -82 66 -161 66c-139 0 -244 -110 -244 -325c0 -174 86 -339 262 -339c59 0 109 29 138 58z" />
    <glyph glyph-name="D" unicode="D" horiz-adv-x="731" 
d="M32 -1l-3 23l88 10v637l-88 9l3 23l144 -2l182 2c206 0 334 -120 334 -335c0 -210 -112 -350 -339 -367l-176 2zM345 27c138 0 231 132 231 331c0 181 -78 316 -251 317l-102 -7v-633z" />
    <glyph glyph-name="Dcaron" unicode="&#x10e;" horiz-adv-x="731" 
d="M32 -1l-3 23l88 10v637l-88 9l3 23l144 -2l182 2c206 0 334 -120 334 -335c0 -210 -112 -350 -339 -367l-176 2zM345 27c138 0 231 132 231 331c0 181 -78 316 -251 317l-102 -7v-633z" />
    <glyph glyph-name="Dcroat" unicode="&#x110;" horiz-adv-x="731" 
d="M32 -1l-3 23l88 10v637l-88 9l3 23l144 -2l182 2c206 0 334 -120 334 -335c0 -210 -112 -350 -339 -367l-176 2zM345 27c138 0 231 132 231 331c0 181 -78 316 -251 317l-102 -7v-633z" />
    <glyph glyph-name="E" unicode="E" horiz-adv-x="616" 
d="M32 -1l-3 23l85 10v637l-85 9l3 23l138 -2l398 2l5 -181h-22l-62 149l-269 1v-289l149 2l42 112h23l-5 -125l5 -131h-23l-42 112l-149 2v-323l277 2l67 154h24l-18 -187l-401 2z" />
    <glyph glyph-name="Eacute" unicode="&#xc9;" horiz-adv-x="616" 
d="M32 -1l-3 23l85 10v637l-85 9l3 23l138 -2l398 2l5 -181h-22l-62 149l-269 1v-289l149 2l42 112h23l-5 -125l5 -131h-23l-42 112l-149 2v-323l277 2l67 154h24l-18 -187l-401 2z" />
    <glyph glyph-name="Ebreve" unicode="&#x114;" horiz-adv-x="616" 
d="M32 -1l-3 23l85 10v637l-85 9l3 23l138 -2l398 2l5 -181h-22l-62 149l-269 1v-289l149 2l42 112h23l-5 -125l5 -131h-23l-42 112l-149 2v-323l277 2l67 154h24l-18 -187l-401 2z" />
    <glyph glyph-name="Ecaron" unicode="&#x11a;" horiz-adv-x="616" 
d="M32 -1l-3 23l85 10v637l-85 9l3 23l138 -2l398 2l5 -181h-22l-62 149l-269 1v-289l149 2l42 112h23l-5 -125l5 -131h-23l-42 112l-149 2v-323l277 2l67 154h24l-18 -187l-401 2z" />
    <glyph glyph-name="Ecircumflex" unicode="&#xca;" horiz-adv-x="616" 
d="M32 -1l-3 23l85 10v637l-85 9l3 23l138 -2l398 2l5 -181h-22l-62 149l-269 1v-289l149 2l42 112h23l-5 -125l5 -131h-23l-42 112l-149 2v-323l277 2l67 154h24l-18 -187l-401 2z" />
    <glyph glyph-name="Edieresis" unicode="&#xcb;" horiz-adv-x="616" 
d="M32 -1l-3 23l85 10v637l-85 9l3 23l138 -2l398 2l5 -181h-22l-62 149l-269 1v-289l149 2l42 112h23l-5 -125l5 -131h-23l-42 112l-149 2v-323l277 2l67 154h24l-18 -187l-401 2z" />
    <glyph glyph-name="Edotaccent" unicode="&#x116;" horiz-adv-x="616" 
d="M32 -1l-3 23l85 10v637l-85 9l3 23l138 -2l398 2l5 -181h-22l-62 149l-269 1v-289l149 2l42 112h23l-5 -125l5 -131h-23l-42 112l-149 2v-323l277 2l67 154h24l-18 -187l-401 2z" />
    <glyph glyph-name="Egrave" unicode="&#xc8;" horiz-adv-x="616" 
d="M32 -1l-3 23l85 10v637l-85 9l3 23l138 -2l398 2l5 -181h-22l-62 149l-269 1v-289l149 2l42 112h23l-5 -125l5 -131h-23l-42 112l-149 2v-323l277 2l67 154h24l-18 -187l-401 2z" />
    <glyph glyph-name="Emacron" unicode="&#x112;" horiz-adv-x="616" 
d="M32 -1l-3 23l85 10v637l-85 9l3 23l138 -2l398 2l5 -181h-22l-62 149l-269 1v-289l149 2l42 112h23l-5 -125l5 -131h-23l-42 112l-149 2v-323l277 2l67 154h24l-18 -187l-401 2z" />
    <glyph glyph-name="Eng" unicode="&#x14a;" horiz-adv-x="716" 
d="M565 -4l-390 589l-21 55v-608l84 -10l-3 -23l-98 2l-105 -2l-3 23l85 10v633l-83 13l3 23l92 -2l93 2l342 -509l21 -44v521l-84 9l2 23l98 -2l105 2l3 -23l-85 -9v-673h-56z" />
    <glyph glyph-name="Eogonek" unicode="&#x118;" horiz-adv-x="616" 
d="M32 -1l-3 23l85 10v637l-85 9l3 23l138 -2l398 2l5 -181h-22l-62 149l-269 1v-289l149 2l42 112h23l-5 -125l5 -131h-23l-42 112l-149 2v-323l277 2l67 154h24l-18 -187l-401 2z" />
    <glyph glyph-name="Eth" unicode="&#xd0;" horiz-adv-x="731" 
d="M32 -1l-3 23l88 10v637l-88 9l3 23l144 -2l182 2c206 0 334 -120 334 -335c0 -210 -112 -350 -339 -367l-176 2zM345 27c138 0 231 132 231 331c0 181 -78 316 -251 317l-102 -7v-633z" />
    <glyph glyph-name="F" unicode="F" horiz-adv-x="587" 
d="M32 -1l-3 23l85 10v637l-85 9l3 23l138 -2l397 2l5 -184h-22l-63 152l-267 1v-303l149 2l42 118h23l-5 -132l5 -136h-23l-42 118l-149 2v-307l102 -10l-2 -23l-151 2z" />
    <glyph glyph-name="G" unicode="G" horiz-adv-x="733" 
d="M386 -17c-186 0 -347 126 -347 356c0 226 144 352 369 378c103 0 191 -37 234 -65v-150h-30l-47 115c-31 32 -84 67 -165 67c-148 0 -242 -128 -242 -328c0 -176 90 -338 250 -338c61 0 110 30 134 56v214l-85 11l2 23l131 -2l117 2l2 -23l-61 -11v-234
c-59 -26 -164 -62 -262 -71z" />
    <glyph glyph-name="Gbreve" unicode="&#x11e;" horiz-adv-x="733" 
d="M386 -17c-186 0 -347 126 -347 356c0 226 144 352 369 378c103 0 191 -37 234 -65v-150h-30l-47 115c-31 32 -84 67 -165 67c-148 0 -242 -128 -242 -328c0 -176 90 -338 250 -338c61 0 110 30 134 56v214l-85 11l2 23l131 -2l117 2l2 -23l-61 -11v-234
c-59 -26 -164 -62 -262 -71z" />
    <glyph glyph-name="Gcircumflex" unicode="&#x11c;" horiz-adv-x="733" 
d="M386 -17c-186 0 -347 126 -347 356c0 226 144 352 369 378c103 0 191 -37 234 -65v-150h-30l-47 115c-31 32 -84 67 -165 67c-148 0 -242 -128 -242 -328c0 -176 90 -338 250 -338c61 0 110 30 134 56v214l-85 11l2 23l131 -2l117 2l2 -23l-61 -11v-234
c-59 -26 -164 -62 -262 -71z" />
    <glyph glyph-name="Gcommaaccent" unicode="&#x122;" horiz-adv-x="733" 
d="M386 -17c-186 0 -347 126 -347 356c0 226 144 352 369 378c103 0 191 -37 234 -65v-150h-30l-47 115c-31 32 -84 67 -165 67c-148 0 -242 -128 -242 -328c0 -176 90 -338 250 -338c61 0 110 30 134 56v214l-85 11l2 23l131 -2l117 2l2 -23l-61 -11v-234
c-59 -26 -164 -62 -262 -71z" />
    <glyph glyph-name="Gdotaccent" unicode="&#x120;" horiz-adv-x="733" 
d="M386 -17c-186 0 -347 126 -347 356c0 226 144 352 369 378c103 0 191 -37 234 -65v-150h-30l-47 115c-31 32 -84 67 -165 67c-148 0 -242 -128 -242 -328c0 -176 90 -338 250 -338c61 0 110 30 134 56v214l-85 11l2 23l131 -2l117 2l2 -23l-61 -11v-234
c-59 -26 -164 -62 -262 -71z" />
    <glyph glyph-name="H" unicode="H" horiz-adv-x="753" 
d="M32 -1l-3 23l85 10v637l-85 9l3 23l135 -2l131 2l3 -23l-81 -9v-289h316v289l-84 9l3 23l135 -2l131 2l3 -23l-82 -9v-637l82 -10l-3 -23l-131 2l-135 -2l-3 23l84 10v315h-316v-315l81 -10l-3 -23l-131 2z" />
    <glyph glyph-name="Hbar" unicode="&#x126;" horiz-adv-x="753" 
d="M32 -1l-3 23l85 10v637l-85 9l3 23l135 -2l131 2l3 -23l-81 -9v-289h316v289l-84 9l3 23l135 -2l131 2l3 -23l-82 -9v-637l82 -10l-3 -23l-131 2l-135 -2l-3 23l84 10v315h-316v-315l81 -10l-3 -23l-131 2z" />
    <glyph glyph-name="Hcircumflex" unicode="&#x124;" horiz-adv-x="753" 
d="M32 -1l-3 23l85 10v637l-85 9l3 23l135 -2l131 2l3 -23l-81 -9v-289h316v289l-84 9l3 23l135 -2l131 2l3 -23l-82 -9v-637l82 -10l-3 -23l-131 2l-135 -2l-3 23l84 10v315h-316v-315l81 -10l-3 -23l-131 2z" />
    <glyph glyph-name="I" unicode="I" horiz-adv-x="333" 
d="M302 -1l-135 2l-135 -2l-3 24l85 9v637l-85 9l3 23l135 -2l135 2l2 -23l-84 -9v-637l84 -9z" />
    <glyph glyph-name="IJ" unicode="&#x132;" horiz-adv-x="672" 
d="M302 -1l-135 2l-135 -2l-3 24l85 9v637l-85 9l3 23l135 -2l135 2l2 -23l-84 -9v-637l84 -9zM567 669v-562c0 -88 -26 -138 -65 -181l-90 -101h-78v90h109l6 22c9 26 11 61 11 156v576l-104 9l2 23l155 -2l133 2l2 -23z" />
    <glyph glyph-name="Iacute" unicode="&#xcd;" horiz-adv-x="333" 
d="M302 -1l-135 2l-135 -2l-3 24l85 9v637l-85 9l3 23l135 -2l135 2l2 -23l-84 -9v-637l84 -9z" />
    <glyph glyph-name="Ibreve" unicode="&#x12c;" horiz-adv-x="333" 
d="M302 -1l-135 2l-135 -2l-3 24l85 9v637l-85 9l3 23l135 -2l135 2l2 -23l-84 -9v-637l84 -9z" />
    <glyph glyph-name="Icircumflex" unicode="&#xce;" horiz-adv-x="333" 
d="M302 -1l-135 2l-135 -2l-3 24l85 9v637l-85 9l3 23l135 -2l135 2l2 -23l-84 -9v-637l84 -9z" />
    <glyph glyph-name="Idieresis" unicode="&#xcf;" horiz-adv-x="333" 
d="M302 -1l-135 2l-135 -2l-3 24l85 9v637l-85 9l3 23l135 -2l135 2l2 -23l-84 -9v-637l84 -9z" />
    <glyph glyph-name="Idotaccent" unicode="&#x130;" horiz-adv-x="333" 
d="M302 -1l-135 2l-135 -2l-3 24l85 9v637l-85 9l3 23l135 -2l135 2l2 -23l-84 -9v-637l84 -9z" />
    <glyph glyph-name="Igrave" unicode="&#xcc;" horiz-adv-x="333" 
d="M302 -1l-135 2l-135 -2l-3 24l85 9v637l-85 9l3 23l135 -2l135 2l2 -23l-84 -9v-637l84 -9z" />
    <glyph glyph-name="Imacron" unicode="&#x12a;" horiz-adv-x="333" 
d="M302 -1l-135 2l-135 -2l-3 24l85 9v637l-85 9l3 23l135 -2l135 2l2 -23l-84 -9v-637l84 -9z" />
    <glyph glyph-name="Iogonek" unicode="&#x12e;" horiz-adv-x="333" 
d="M302 -1l-135 2l-135 -2l-3 24l85 9v637l-85 9l3 23l135 -2l135 2l2 -23l-84 -9v-637l84 -9z" />
    <glyph glyph-name="Itilde" unicode="&#x128;" horiz-adv-x="333" 
d="M302 -1l-135 2l-135 -2l-3 24l85 9v637l-85 9l3 23l135 -2l135 2l2 -23l-84 -9v-637l84 -9z" />
    <glyph glyph-name="J" unicode="J" horiz-adv-x="339" 
d="M234 669v-562c0 -88 -26 -138 -65 -181l-90 -101h-78v90h109l6 22c9 26 11 61 11 156v576l-104 9l2 23l155 -2l133 2l2 -23z" />
    <glyph glyph-name="Jcircumflex" unicode="&#x134;" horiz-adv-x="339" 
d="M234 669v-562c0 -88 -26 -138 -65 -181l-90 -101h-78v90h109l6 22c9 26 11 61 11 156v576l-104 9l2 23l155 -2l133 2l2 -23z" />
    <glyph glyph-name="K" unicode="K" horiz-adv-x="701" 
d="M329 378l305 -347l57 -9l-2 -23l-102 2l-70 -2l-283 332l-14 23v-322l76 -10l-2 -23l-127 2l-135 -2l-3 23l85 10v637l-85 9l3 23l135 -2l127 2l2 -23l-76 -9v-300l22 16l299 284l-82 9l3 23l104 -2l96 2l3 -23l-81 -11l-308 -294z" />
    <glyph glyph-name="Kcommaaccent" unicode="&#x136;" horiz-adv-x="701" 
d="M329 378l305 -347l57 -9l-2 -23l-102 2l-70 -2l-283 332l-14 23v-322l76 -10l-2 -23l-127 2l-135 -2l-3 23l85 10v637l-85 9l3 23l135 -2l127 2l2 -23l-76 -9v-300l22 16l299 284l-82 9l3 23l104 -2l96 2l3 -23l-81 -11l-308 -294z" />
    <glyph glyph-name="L" unicode="L" horiz-adv-x="575" 
d="M548 -1l-379 2l-137 -2l-3 23l85 10v637l-85 9l3 23l135 -2l135 2l2 -23l-84 -9v-638l251 2l70 156h24z" />
    <glyph glyph-name="Lacute" unicode="&#x139;" horiz-adv-x="575" 
d="M548 -1l-379 2l-137 -2l-3 23l85 10v637l-85 9l3 23l135 -2l135 2l2 -23l-84 -9v-638l251 2l70 156h24z" />
    <glyph glyph-name="Lcaron" unicode="&#x13d;" horiz-adv-x="575" 
d="M548 -1l-379 2l-137 -2l-3 23l85 10v637l-85 9l3 23l135 -2l135 2l2 -23l-84 -9v-638l251 2l70 156h24z" />
    <glyph glyph-name="Lcommaaccent" unicode="&#x13b;" horiz-adv-x="575" 
d="M548 -1l-379 2l-137 -2l-3 23l85 10v637l-85 9l3 23l135 -2l135 2l2 -23l-84 -9v-638l251 2l70 156h24z" />
    <glyph glyph-name="Ldot" unicode="&#x13f;" horiz-adv-x="575" 
d="M548 -1l-379 2l-137 -2l-3 23l85 10v637l-85 9l3 23l135 -2l135 2l2 -23l-84 -9v-638l251 2l70 156h24z" />
    <glyph glyph-name="Lslash" unicode="&#x141;" horiz-adv-x="575" 
d="M548 -1l-379 2l-137 -2l-3 23l85 10v637l-85 9l3 23l135 -2l135 2l2 -23l-84 -9v-638l251 2l70 156h24z" />
    <glyph glyph-name="M" unicode="M" horiz-adv-x="920" 
d="M34 -1l-2 23l79 10v635l-82 11l3 23l98 -2l106 2l216 -543l11 -47l228 590l99 -2l98 2l3 -23l-83 -9v-637l81 -10l-3 -23l-128 2l-133 -2l-3 23l80 10v518l6 92l-249 -645h-58l-219 558l-31 92v-615l82 -10l-5 -23l-94 2z" />
    <glyph glyph-name="N" unicode="N" horiz-adv-x="716" 
d="M565 -4l-390 589l-21 55v-608l84 -10l-3 -23l-98 2l-105 -2l-3 23l85 10v633l-83 13l3 23l92 -2l93 2l342 -509l21 -44v521l-84 9l2 23l98 -2l105 2l3 -23l-85 -9v-673h-56z" />
    <glyph glyph-name="Nacute" unicode="&#x143;" horiz-adv-x="716" 
d="M565 -4l-390 589l-21 55v-608l84 -10l-3 -23l-98 2l-105 -2l-3 23l85 10v633l-83 13l3 23l92 -2l93 2l342 -509l21 -44v521l-84 9l2 23l98 -2l105 2l3 -23l-85 -9v-673h-56z" />
    <glyph glyph-name="Ncaron" unicode="&#x147;" horiz-adv-x="716" 
d="M565 -4l-390 589l-21 55v-608l84 -10l-3 -23l-98 2l-105 -2l-3 23l85 10v633l-83 13l3 23l92 -2l93 2l342 -509l21 -44v521l-84 9l2 23l98 -2l105 2l3 -23l-85 -9v-673h-56z" />
    <glyph glyph-name="Ncommaaccent" unicode="&#x145;" horiz-adv-x="716" 
d="M565 -4l-390 589l-21 55v-608l84 -10l-3 -23l-98 2l-105 -2l-3 23l85 10v633l-83 13l3 23l92 -2l93 2l342 -509l21 -44v521l-84 9l2 23l98 -2l105 2l3 -23l-85 -9v-673h-56z" />
    <glyph glyph-name="Ntilde" unicode="&#xd1;" horiz-adv-x="716" 
d="M565 -4l-390 589l-21 55v-608l84 -10l-3 -23l-98 2l-105 -2l-3 23l85 10v633l-83 13l3 23l92 -2l93 2l342 -509l21 -44v521l-84 9l2 23l98 -2l105 2l3 -23l-85 -9v-673h-56z" />
    <glyph glyph-name="O" unicode="O" horiz-adv-x="770" 
d="M396 717c199 0 336 -151 336 -352c0 -217 -114 -343 -357 -382c-199 0 -336 152 -336 353c0 216 114 342 357 381zM158 368c0 -179 84 -346 245 -346c141 0 210 137 210 311c0 177 -84 346 -244 346c-141 0 -211 -137 -211 -311z" />
    <glyph glyph-name="OE" unicode="&#x152;" horiz-adv-x="1386" 
d="M396 717c199 0 336 -151 336 -352c0 -217 -114 -343 -357 -382c-199 0 -336 152 -336 353c0 216 114 342 357 381zM158 368c0 -179 84 -346 245 -346c141 0 210 137 210 311c0 177 -84 346 -244 346c-141 0 -211 -137 -211 -311zM802 -1l-3 23l85 10v637l-85 9l3 23
l138 -2l398 2l5 -181h-22l-62 149l-269 1v-289l149 2l42 112h23l-5 -125l5 -131h-23l-42 112l-149 2v-323l277 2l67 154h24l-18 -187l-401 2z" />
    <glyph glyph-name="Oacute" unicode="&#xd3;" horiz-adv-x="770" 
d="M396 717c199 0 336 -151 336 -352c0 -217 -114 -343 -357 -382c-199 0 -336 152 -336 353c0 216 114 342 357 381zM158 368c0 -179 84 -346 245 -346c141 0 210 137 210 311c0 177 -84 346 -244 346c-141 0 -211 -137 -211 -311z" />
    <glyph glyph-name="Obreve" unicode="&#x14e;" horiz-adv-x="770" 
d="M396 717c199 0 336 -151 336 -352c0 -217 -114 -343 -357 -382c-199 0 -336 152 -336 353c0 216 114 342 357 381zM158 368c0 -179 84 -346 245 -346c141 0 210 137 210 311c0 177 -84 346 -244 346c-141 0 -211 -137 -211 -311z" />
    <glyph glyph-name="Ocircumflex" unicode="&#xd4;" horiz-adv-x="770" 
d="M396 717c199 0 336 -151 336 -352c0 -217 -114 -343 -357 -382c-199 0 -336 152 -336 353c0 216 114 342 357 381zM158 368c0 -179 84 -346 245 -346c141 0 210 137 210 311c0 177 -84 346 -244 346c-141 0 -211 -137 -211 -311z" />
    <glyph glyph-name="Odieresis" unicode="&#xd6;" horiz-adv-x="770" 
d="M396 717c199 0 336 -151 336 -352c0 -217 -114 -343 -357 -382c-199 0 -336 152 -336 353c0 216 114 342 357 381zM158 368c0 -179 84 -346 245 -346c141 0 210 137 210 311c0 177 -84 346 -244 346c-141 0 -211 -137 -211 -311z" />
    <glyph glyph-name="Ograve" unicode="&#xd2;" horiz-adv-x="770" 
d="M396 717c199 0 336 -151 336 -352c0 -217 -114 -343 -357 -382c-199 0 -336 152 -336 353c0 216 114 342 357 381zM158 368c0 -179 84 -346 245 -346c141 0 210 137 210 311c0 177 -84 346 -244 346c-141 0 -211 -137 -211 -311z" />
    <glyph glyph-name="Ohungarumlaut" unicode="&#x150;" horiz-adv-x="770" 
d="M396 717c199 0 336 -151 336 -352c0 -217 -114 -343 -357 -382c-199 0 -336 152 -336 353c0 216 114 342 357 381zM158 368c0 -179 84 -346 245 -346c141 0 210 137 210 311c0 177 -84 346 -244 346c-141 0 -211 -137 -211 -311z" />
    <glyph glyph-name="Omacron" unicode="&#x14c;" horiz-adv-x="770" 
d="M396 717c199 0 336 -151 336 -352c0 -217 -114 -343 -357 -382c-199 0 -336 152 -336 353c0 216 114 342 357 381zM158 368c0 -179 84 -346 245 -346c141 0 210 137 210 311c0 177 -84 346 -244 346c-141 0 -211 -137 -211 -311z" />
    <glyph glyph-name="Oslash" unicode="&#xd8;" horiz-adv-x="770" 
d="M396 717c199 0 336 -151 336 -352c0 -217 -114 -343 -357 -382c-199 0 -336 152 -336 353c0 216 114 342 357 381zM158 368c0 -179 84 -346 245 -346c141 0 210 137 210 311c0 177 -84 346 -244 346c-141 0 -211 -137 -211 -311z" />
    <glyph glyph-name="Oslashacute" unicode="&#x1fe;" horiz-adv-x="770" 
d="M396 717c199 0 336 -151 336 -352c0 -217 -114 -343 -357 -382c-199 0 -336 152 -336 353c0 216 114 342 357 381zM158 368c0 -179 84 -346 245 -346c141 0 210 137 210 311c0 177 -84 346 -244 346c-141 0 -211 -137 -211 -311z" />
    <glyph glyph-name="Otilde" unicode="&#xd5;" horiz-adv-x="770" 
d="M396 717c199 0 336 -151 336 -352c0 -217 -114 -343 -357 -382c-199 0 -336 152 -336 353c0 216 114 342 357 381zM158 368c0 -179 84 -346 245 -346c141 0 210 137 210 311c0 177 -84 346 -244 346c-141 0 -211 -137 -211 -311z" />
    <glyph glyph-name="P" unicode="P" horiz-adv-x="586" 
d="M114 669l-85 9l3 23l134 -2l192 2c121 0 216 -60 216 -178c0 -132 -121 -186 -247 -214h-107v-277l102 -10l-2 -23l-152 2l-136 -2l-3 23l85 10v637zM220 668v-327h82c93 0 157 71 157 171c0 91 -43 163 -145 163z" />
    <glyph glyph-name="Q" unicode="Q" horiz-adv-x="770" 
d="M396 717c199 0 336 -151 336 -352c0 -206 -103 -330 -321 -375l116 -31l119 -94l51 -11l-2 -23h-152l-168 152c-199 0 -336 152 -336 353c0 216 114 342 357 381zM158 368c0 -179 84 -346 245 -346c141 0 210 137 210 311c0 177 -84 346 -244 346
c-141 0 -211 -137 -211 -311z" />
    <glyph glyph-name="R" unicode="R" horiz-adv-x="667" 
d="M32 -1l-3 23l85 10v637l-85 9l3 23l134 -2l187 2c117 0 219 -50 219 -174c0 -118 -111 -172 -236 -195l99 -34l175 -266l52 -11l-2 -22l-88 2l-69 -2l-200 314l-12 14h-71v-295l79 -10l-2 -23l-130 2zM220 668v-312h63c109 0 173 67 173 164c0 101 -63 153 -143 155z" />
    <glyph glyph-name="Racute" unicode="&#x154;" horiz-adv-x="667" 
d="M32 -1l-3 23l85 10v637l-85 9l3 23l134 -2l187 2c117 0 219 -50 219 -174c0 -118 -111 -172 -236 -195l99 -34l175 -266l52 -11l-2 -22l-88 2l-69 -2l-200 314l-12 14h-71v-295l79 -10l-2 -23l-130 2zM220 668v-312h63c109 0 173 67 173 164c0 101 -63 153 -143 155z" />
    <glyph glyph-name="Rcaron" unicode="&#x158;" horiz-adv-x="667" 
d="M32 -1l-3 23l85 10v637l-85 9l3 23l134 -2l187 2c117 0 219 -50 219 -174c0 -118 -111 -172 -236 -195l99 -34l175 -266l52 -11l-2 -22l-88 2l-69 -2l-200 314l-12 14h-71v-295l79 -10l-2 -23l-130 2zM220 668v-312h63c109 0 173 67 173 164c0 101 -63 153 -143 155z" />
    <glyph glyph-name="Rcommaaccent" unicode="&#x156;" horiz-adv-x="667" 
d="M32 -1l-3 23l85 10v637l-85 9l3 23l134 -2l187 2c117 0 219 -50 219 -174c0 -118 -111 -172 -236 -195l99 -34l175 -266l52 -11l-2 -22l-88 2l-69 -2l-200 314l-12 14h-71v-295l79 -10l-2 -23l-130 2zM220 668v-312h63c109 0 173 67 173 164c0 101 -63 153 -143 155z" />
    <glyph glyph-name="S" unicode="S" horiz-adv-x="546" 
d="M257 -17c-89 0 -149 25 -205 63l-11 151h40l41 -99c35 -41 90 -73 152 -73c84 0 136 52 136 128c0 64 -37 106 -108 142l-121 63c-69 35 -123 77 -123 162c0 104 88 170 231 197c67 0 132 -17 186 -49v-149h-30l-41 109c-30 31 -68 52 -124 52c-79 0 -129 -44 -129 -113
c0 -57 39 -92 99 -122l117 -60c81 -43 136 -92 136 -182c0 -91 -61 -178 -246 -220z" />
    <glyph glyph-name="Sacute" unicode="&#x15a;" horiz-adv-x="546" 
d="M257 -17c-89 0 -149 25 -205 63l-11 151h40l41 -99c35 -41 90 -73 152 -73c84 0 136 52 136 128c0 64 -37 106 -108 142l-121 63c-69 35 -123 77 -123 162c0 104 88 170 231 197c67 0 132 -17 186 -49v-149h-30l-41 109c-30 31 -68 52 -124 52c-79 0 -129 -44 -129 -113
c0 -57 39 -92 99 -122l117 -60c81 -43 136 -92 136 -182c0 -91 -61 -178 -246 -220z" />
    <glyph glyph-name="Scaron" unicode="&#x160;" horiz-adv-x="546" 
d="M257 -17c-89 0 -149 25 -205 63l-11 151h40l41 -99c35 -41 90 -73 152 -73c84 0 136 52 136 128c0 64 -37 106 -108 142l-121 63c-69 35 -123 77 -123 162c0 104 88 170 231 197c67 0 132 -17 186 -49v-149h-30l-41 109c-30 31 -68 52 -124 52c-79 0 -129 -44 -129 -113
c0 -57 39 -92 99 -122l117 -60c81 -43 136 -92 136 -182c0 -91 -61 -178 -246 -220z" />
    <glyph glyph-name="Scedilla" unicode="&#x15e;" horiz-adv-x="546" 
d="M257 -17c-89 0 -149 25 -205 63l-11 151h40l41 -99c35 -41 90 -73 152 -73c84 0 136 52 136 128c0 64 -37 106 -108 142l-121 63c-69 35 -123 77 -123 162c0 104 88 170 231 197c67 0 132 -17 186 -49v-149h-30l-41 109c-30 31 -68 52 -124 52c-79 0 -129 -44 -129 -113
c0 -57 39 -92 99 -122l117 -60c81 -43 136 -92 136 -182c0 -91 -61 -178 -246 -220z" />
    <glyph glyph-name="Scircumflex" unicode="&#x15c;" horiz-adv-x="546" 
d="M257 -17c-89 0 -149 25 -205 63l-11 151h40l41 -99c35 -41 90 -73 152 -73c84 0 136 52 136 128c0 64 -37 106 -108 142l-121 63c-69 35 -123 77 -123 162c0 104 88 170 231 197c67 0 132 -17 186 -49v-149h-30l-41 109c-30 31 -68 52 -124 52c-79 0 -129 -44 -129 -113
c0 -57 39 -92 99 -122l117 -60c81 -43 136 -92 136 -182c0 -91 -61 -178 -246 -220z" />
    <glyph glyph-name="Scommaaccent" unicode="&#x218;" horiz-adv-x="546" 
d="M257 -17c-89 0 -149 25 -205 63l-11 151h40l41 -99c35 -41 90 -73 152 -73c84 0 136 52 136 128c0 64 -37 106 -108 142l-121 63c-69 35 -123 77 -123 162c0 104 88 170 231 197c67 0 132 -17 186 -49v-149h-30l-41 109c-30 31 -68 52 -124 52c-79 0 -129 -44 -129 -113
c0 -57 39 -92 99 -122l117 -60c81 -43 136 -92 136 -182c0 -91 -61 -178 -246 -220z" />
    <glyph glyph-name="T" unicode="T" horiz-adv-x="589" 
d="M450 22l-2 -23l-153 2l-156 -2l-2 23l105 10v638l-146 -1l-59 -155h-24v187l282 -2l281 2v-187h-24l-59 155l-145 1v-638z" />
    <glyph glyph-name="Tbar" unicode="&#x166;" horiz-adv-x="589" 
d="M450 22l-2 -23l-153 2l-156 -2l-2 23l105 10v638l-146 -1l-59 -155h-24v187l282 -2l281 2v-187h-24l-59 155l-145 1v-638z" />
    <glyph glyph-name="Tcaron" unicode="&#x164;" horiz-adv-x="589" 
d="M450 22l-2 -23l-153 2l-156 -2l-2 23l105 10v638l-146 -1l-59 -155h-24v187l282 -2l281 2v-187h-24l-59 155l-145 1v-638z" />
    <glyph glyph-name="Tcommaaccent" unicode="&#x162;" horiz-adv-x="589" 
d="M450 22l-2 -23l-153 2l-156 -2l-2 23l105 10v638l-146 -1l-59 -155h-24v187l282 -2l281 2v-187h-24l-59 155l-145 1v-638z" />
    <glyph glyph-name="Thorn" unicode="&#xde;" horiz-adv-x="586" 
d="M114 669l-85 9l3 23l134 -2l192 2c121 0 216 -60 216 -178c0 -132 -121 -186 -247 -214h-107v-277l102 -10l-2 -23l-152 2l-136 -2l-3 23l85 10v637zM220 668v-327h82c93 0 157 71 157 171c0 91 -43 163 -145 163z" />
    <glyph glyph-name="U" unicode="U" horiz-adv-x="693" 
d="M548 669l-84 9l2 23l109 -2l103 2l3 -23l-82 -9v-427c0 -127 -49 -220 -240 -259c-190 0 -262 107 -262 263v423l-84 9l2 23l136 -2l134 2l3 -23l-82 -9v-435c0 -121 59 -203 176 -203c104 0 166 81 166 205v433z" />
    <glyph glyph-name="Uacute" unicode="&#xda;" horiz-adv-x="693" 
d="M548 669l-84 9l2 23l109 -2l103 2l3 -23l-82 -9v-427c0 -127 -49 -220 -240 -259c-190 0 -262 107 -262 263v423l-84 9l2 23l136 -2l134 2l3 -23l-82 -9v-435c0 -121 59 -203 176 -203c104 0 166 81 166 205v433z" />
    <glyph glyph-name="Ubreve" unicode="&#x16c;" horiz-adv-x="693" 
d="M548 669l-84 9l2 23l109 -2l103 2l3 -23l-82 -9v-427c0 -127 -49 -220 -240 -259c-190 0 -262 107 -262 263v423l-84 9l2 23l136 -2l134 2l3 -23l-82 -9v-435c0 -121 59 -203 176 -203c104 0 166 81 166 205v433z" />
    <glyph glyph-name="Ucircumflex" unicode="&#xdb;" horiz-adv-x="693" 
d="M548 669l-84 9l2 23l109 -2l103 2l3 -23l-82 -9v-427c0 -127 -49 -220 -240 -259c-190 0 -262 107 -262 263v423l-84 9l2 23l136 -2l134 2l3 -23l-82 -9v-435c0 -121 59 -203 176 -203c104 0 166 81 166 205v433z" />
    <glyph glyph-name="Udieresis" unicode="&#xdc;" horiz-adv-x="693" 
d="M548 669l-84 9l2 23l109 -2l103 2l3 -23l-82 -9v-427c0 -127 -49 -220 -240 -259c-190 0 -262 107 -262 263v423l-84 9l2 23l136 -2l134 2l3 -23l-82 -9v-435c0 -121 59 -203 176 -203c104 0 166 81 166 205v433z" />
    <glyph glyph-name="Ugrave" unicode="&#xd9;" horiz-adv-x="693" 
d="M548 669l-84 9l2 23l109 -2l103 2l3 -23l-82 -9v-427c0 -127 -49 -220 -240 -259c-190 0 -262 107 -262 263v423l-84 9l2 23l136 -2l134 2l3 -23l-82 -9v-435c0 -121 59 -203 176 -203c104 0 166 81 166 205v433z" />
    <glyph glyph-name="Uhungarumlaut" unicode="&#x170;" horiz-adv-x="693" 
d="M548 669l-84 9l2 23l109 -2l103 2l3 -23l-82 -9v-427c0 -127 -49 -220 -240 -259c-190 0 -262 107 -262 263v423l-84 9l2 23l136 -2l134 2l3 -23l-82 -9v-435c0 -121 59 -203 176 -203c104 0 166 81 166 205v433z" />
    <glyph glyph-name="Umacron" unicode="&#x16a;" horiz-adv-x="693" 
d="M548 669l-84 9l2 23l109 -2l103 2l3 -23l-82 -9v-427c0 -127 -49 -220 -240 -259c-190 0 -262 107 -262 263v423l-84 9l2 23l136 -2l134 2l3 -23l-82 -9v-435c0 -121 59 -203 176 -203c104 0 166 81 166 205v433z" />
    <glyph glyph-name="Uogonek" unicode="&#x172;" horiz-adv-x="693" 
d="M548 669l-84 9l2 23l109 -2l103 2l3 -23l-82 -9v-427c0 -127 -49 -220 -240 -259c-190 0 -262 107 -262 263v423l-84 9l2 23l136 -2l134 2l3 -23l-82 -9v-435c0 -121 59 -203 176 -203c104 0 166 81 166 205v433z" />
    <glyph glyph-name="Uring" unicode="&#x16e;" horiz-adv-x="693" 
d="M548 669l-84 9l2 23l109 -2l103 2l3 -23l-82 -9v-427c0 -127 -49 -220 -240 -259c-190 0 -262 107 -262 263v423l-84 9l2 23l136 -2l134 2l3 -23l-82 -9v-435c0 -121 59 -203 176 -203c104 0 166 81 166 205v433z" />
    <glyph glyph-name="Utilde" unicode="&#x168;" horiz-adv-x="693" 
d="M548 669l-84 9l2 23l109 -2l103 2l3 -23l-82 -9v-427c0 -127 -49 -220 -240 -259c-190 0 -262 107 -262 263v423l-84 9l2 23l136 -2l134 2l3 -23l-82 -9v-435c0 -121 59 -203 176 -203c104 0 166 81 166 205v433z" />
    <glyph glyph-name="V" unicode="V" horiz-adv-x="717" 
d="M396 10l-61 -24l-256 684l-74 8l3 23l136 -2l135 2l2 -22l-82 -10l184 -524l10 -46l200 570l-87 10l3 22l107 -2l94 2l2 -23l-76 -8z" />
    <glyph glyph-name="W" unicode="W" horiz-adv-x="994" 
d="M292 -10l-222 680l-59 8l2 23l120 -2l131 2l2 -23l-83 -9l157 -503l8 -51l127 418l-45 137l-62 8l2 23l123 -2l131 2l2 -23l-83 -9l157 -505l9 -48l170 554l-86 8l2 23l106 -2l80 2l3 -23l-62 -8l-210 -661l-60 -19l-147 448l-6 45l-147 -474z" />
    <glyph glyph-name="Wacute" unicode="&#x1e82;" horiz-adv-x="994" 
d="M292 -10l-222 680l-59 8l2 23l120 -2l131 2l2 -23l-83 -9l157 -503l8 -51l127 418l-45 137l-62 8l2 23l123 -2l131 2l2 -23l-83 -9l157 -505l9 -48l170 554l-86 8l2 23l106 -2l80 2l3 -23l-62 -8l-210 -661l-60 -19l-147 448l-6 45l-147 -474z" />
    <glyph glyph-name="Wcircumflex" unicode="&#x174;" horiz-adv-x="994" 
d="M292 -10l-222 680l-59 8l2 23l120 -2l131 2l2 -23l-83 -9l157 -503l8 -51l127 418l-45 137l-62 8l2 23l123 -2l131 2l2 -23l-83 -9l157 -505l9 -48l170 554l-86 8l2 23l106 -2l80 2l3 -23l-62 -8l-210 -661l-60 -19l-147 448l-6 45l-147 -474z" />
    <glyph glyph-name="Wdieresis" unicode="&#x1e84;" horiz-adv-x="994" 
d="M292 -10l-222 680l-59 8l2 23l120 -2l131 2l2 -23l-83 -9l157 -503l8 -51l127 418l-45 137l-62 8l2 23l123 -2l131 2l2 -23l-83 -9l157 -505l9 -48l170 554l-86 8l2 23l106 -2l80 2l3 -23l-62 -8l-210 -661l-60 -19l-147 448l-6 45l-147 -474z" />
    <glyph glyph-name="Wgrave" unicode="&#x1e80;" horiz-adv-x="994" 
d="M292 -10l-222 680l-59 8l2 23l120 -2l131 2l2 -23l-83 -9l157 -503l8 -51l127 418l-45 137l-62 8l2 23l123 -2l131 2l2 -23l-83 -9l157 -505l9 -48l170 554l-86 8l2 23l106 -2l80 2l3 -23l-62 -8l-210 -661l-60 -19l-147 448l-6 45l-147 -474z" />
    <glyph glyph-name="X" unicode="X" horiz-adv-x="709" 
d="M626 32l68 -9l-3 -24l-133 2l-140 -2l-2 24l80 9l-147 235l-18 35l-182 -270l94 -9l-3 -24l-115 2l-112 -2l-3 24l90 9l209 297l-219 341l-72 9l3 22l137 -2l138 2l2 -22l-79 -10l143 -232l15 -33l177 265l-97 9l2 23l120 -2l108 2l2 -23l-87 -8l-202 -291z" />
    <glyph glyph-name="Y" unicode="Y" horiz-adv-x="700" 
d="M620 670l-212 -390l1 -248l111 -10l-3 -23l-161 2l-165 -2l-2 23l114 10v242l-223 396l-75 9l3 22l139 -2l137 2l3 -22l-87 -10l179 -320l10 -32l186 352l-92 10l3 22l112 -2l94 2l3 -22z" />
    <glyph glyph-name="Yacute" unicode="&#xdd;" horiz-adv-x="700" 
d="M620 670l-212 -390l1 -248l111 -10l-3 -23l-161 2l-165 -2l-2 23l114 10v242l-223 396l-75 9l3 22l139 -2l137 2l3 -22l-87 -10l179 -320l10 -32l186 352l-92 10l3 22l112 -2l94 2l3 -22z" />
    <glyph glyph-name="Ycircumflex" unicode="&#x176;" horiz-adv-x="700" 
d="M620 670l-212 -390l1 -248l111 -10l-3 -23l-161 2l-165 -2l-2 23l114 10v242l-223 396l-75 9l3 22l139 -2l137 2l3 -22l-87 -10l179 -320l10 -32l186 352l-92 10l3 22l112 -2l94 2l3 -22z" />
    <glyph glyph-name="Ydieresis" unicode="&#x178;" horiz-adv-x="700" 
d="M620 670l-212 -390l1 -248l111 -10l-3 -23l-161 2l-165 -2l-2 23l114 10v242l-223 396l-75 9l3 22l139 -2l137 2l3 -22l-87 -10l179 -320l10 -32l186 352l-92 10l3 22l112 -2l94 2l3 -22z" />
    <glyph glyph-name="Ygrave" unicode="&#x1ef2;" horiz-adv-x="700" 
d="M620 670l-212 -390l1 -248l111 -10l-3 -23l-161 2l-165 -2l-2 23l114 10v242l-223 396l-75 9l3 22l139 -2l137 2l3 -22l-87 -10l179 -320l10 -32l186 352l-92 10l3 22l112 -2l94 2l3 -22z" />
    <glyph glyph-name="Z" unicode="Z" horiz-adv-x="571" 
d="M438 32l77 160h28l-17 -192h-502l-5 29l379 608l30 34l-287 -3l-65 -152h-27v184h487l5 -26l-381 -611l-28 -33z" />
    <glyph glyph-name="Zacute" unicode="&#x179;" horiz-adv-x="571" 
d="M438 32l77 160h28l-17 -192h-502l-5 29l379 608l30 34l-287 -3l-65 -152h-27v184h487l5 -26l-381 -611l-28 -33z" />
    <glyph glyph-name="Zcaron" unicode="&#x17d;" horiz-adv-x="571" 
d="M438 32l77 160h28l-17 -192h-502l-5 29l379 608l30 34l-287 -3l-65 -152h-27v184h487l5 -26l-381 -611l-28 -33z" />
    <glyph glyph-name="Zdotaccent" unicode="&#x17b;" horiz-adv-x="571" 
d="M438 32l77 160h28l-17 -192h-502l-5 29l379 608l30 34l-287 -3l-65 -152h-27v184h487l5 -26l-381 -611l-28 -33z" />
    <glyph glyph-name="a" unicode="a" horiz-adv-x="467" 
d="M295 101v153l-134 -54c-21 -18 -33 -43 -33 -74c0 -51 29 -77 63 -77c28 0 54 17 69 28zM45 402l184 82c129 0 162 -38 162 -155v-207c0 -37 7 -59 17 -82l51 4l3 -22l-138 -28l-25 82l-129 -91c-83 0 -140 46 -140 124c0 35 11 66 44 98l221 71v59c0 59 -4 99 -73 99
c-23 0 -45 -5 -70 -14l-20 -96h-87v76z" />
    <glyph glyph-name="aacute" unicode="&#xe1;" horiz-adv-x="467" 
d="M295 101v153l-134 -54c-21 -18 -33 -43 -33 -74c0 -51 29 -77 63 -77c28 0 54 17 69 28zM45 402l184 82c129 0 162 -38 162 -155v-207c0 -37 7 -59 17 -82l51 4l3 -22l-138 -28l-25 82l-129 -91c-83 0 -140 46 -140 124c0 35 11 66 44 98l221 71v59c0 59 -4 99 -73 99
c-23 0 -45 -5 -70 -14l-20 -96h-87v76z" />
    <glyph glyph-name="abreve" unicode="&#x103;" horiz-adv-x="467" 
d="M295 101v153l-134 -54c-21 -18 -33 -43 -33 -74c0 -51 29 -77 63 -77c28 0 54 17 69 28zM45 402l184 82c129 0 162 -38 162 -155v-207c0 -37 7 -59 17 -82l51 4l3 -22l-138 -28l-25 82l-129 -91c-83 0 -140 46 -140 124c0 35 11 66 44 98l221 71v59c0 59 -4 99 -73 99
c-23 0 -45 -5 -70 -14l-20 -96h-87v76z" />
    <glyph glyph-name="acircumflex" unicode="&#xe2;" horiz-adv-x="467" 
d="M295 101v153l-134 -54c-21 -18 -33 -43 -33 -74c0 -51 29 -77 63 -77c28 0 54 17 69 28zM45 402l184 82c129 0 162 -38 162 -155v-207c0 -37 7 -59 17 -82l51 4l3 -22l-138 -28l-25 82l-129 -91c-83 0 -140 46 -140 124c0 35 11 66 44 98l221 71v59c0 59 -4 99 -73 99
c-23 0 -45 -5 -70 -14l-20 -96h-87v76z" />
    <glyph glyph-name="adieresis" unicode="&#xe4;" horiz-adv-x="467" 
d="M295 101v153l-134 -54c-21 -18 -33 -43 -33 -74c0 -51 29 -77 63 -77c28 0 54 17 69 28zM45 402l184 82c129 0 162 -38 162 -155v-207c0 -37 7 -59 17 -82l51 4l3 -22l-138 -28l-25 82l-129 -91c-83 0 -140 46 -140 124c0 35 11 66 44 98l221 71v59c0 59 -4 99 -73 99
c-23 0 -45 -5 -70 -14l-20 -96h-87v76z" />
    <glyph glyph-name="ae" unicode="&#xe6;" horiz-adv-x="937" 
d="M295 101v153l-134 -54c-21 -18 -33 -43 -33 -74c0 -51 29 -77 63 -77c28 0 54 17 69 28zM45 402l184 82c129 0 162 -38 162 -155v-207c0 -37 7 -59 17 -82l51 4l3 -22l-138 -28l-25 82l-129 -91c-83 0 -140 46 -140 124c0 35 11 66 44 98l221 71v59c0 59 -4 99 -73 99
c-23 0 -45 -5 -70 -14l-20 -96h-87v76zM900 264h-306c2 -127 69 -203 173 -203c43 0 87 18 125 42l11 -23c-54 -42 -107 -70 -173 -95c-120 0 -229 83 -229 236c0 152 96 234 224 263c123 0 175 -77 175 -185v-35zM594 289l202 5v5c0 88 -16 147 -94 147
c-66 0 -102 -62 -108 -154v-3z" />
    <glyph glyph-name="aeacute" unicode="&#x1fd;" horiz-adv-x="937" 
d="M295 101v153l-134 -54c-21 -18 -33 -43 -33 -74c0 -51 29 -77 63 -77c28 0 54 17 69 28zM45 402l184 82c129 0 162 -38 162 -155v-207c0 -37 7 -59 17 -82l51 4l3 -22l-138 -28l-25 82l-129 -91c-83 0 -140 46 -140 124c0 35 11 66 44 98l221 71v59c0 59 -4 99 -73 99
c-23 0 -45 -5 -70 -14l-20 -96h-87v76zM900 264h-306c2 -127 69 -203 173 -203c43 0 87 18 125 42l11 -23c-54 -42 -107 -70 -173 -95c-120 0 -229 83 -229 236c0 152 96 234 224 263c123 0 175 -77 175 -185v-35zM594 289l202 5v5c0 88 -16 147 -94 147
c-66 0 -102 -62 -108 -154v-3z" />
    <glyph glyph-name="agrave" unicode="&#xe0;" horiz-adv-x="467" 
d="M295 101v153l-134 -54c-21 -18 -33 -43 -33 -74c0 -51 29 -77 63 -77c28 0 54 17 69 28zM45 402l184 82c129 0 162 -38 162 -155v-207c0 -37 7 -59 17 -82l51 4l3 -22l-138 -28l-25 82l-129 -91c-83 0 -140 46 -140 124c0 35 11 66 44 98l221 71v59c0 59 -4 99 -73 99
c-23 0 -45 -5 -70 -14l-20 -96h-87v76z" />
    <glyph glyph-name="amacron" unicode="&#x101;" horiz-adv-x="467" 
d="M295 101v153l-134 -54c-21 -18 -33 -43 -33 -74c0 -51 29 -77 63 -77c28 0 54 17 69 28zM45 402l184 82c129 0 162 -38 162 -155v-207c0 -37 7 -59 17 -82l51 4l3 -22l-138 -28l-25 82l-129 -91c-83 0 -140 46 -140 124c0 35 11 66 44 98l221 71v59c0 59 -4 99 -73 99
c-23 0 -45 -5 -70 -14l-20 -96h-87v76z" />
    <glyph glyph-name="aogonek" unicode="&#x105;" horiz-adv-x="467" 
d="M295 101v153l-134 -54c-21 -18 -33 -43 -33 -74c0 -51 29 -77 63 -77c28 0 54 17 69 28zM45 402l184 82c129 0 162 -38 162 -155v-207c0 -37 7 -59 17 -82l51 4l3 -22l-138 -28l-25 82l-129 -91c-83 0 -140 46 -140 124c0 35 11 66 44 98l221 71v59c0 59 -4 99 -73 99
c-23 0 -45 -5 -70 -14l-20 -96h-87v76z" />
    <glyph glyph-name="aring" unicode="&#xe5;" horiz-adv-x="467" 
d="M295 101v153l-134 -54c-21 -18 -33 -43 -33 -74c0 -51 29 -77 63 -77c28 0 54 17 69 28zM45 402l184 82c129 0 162 -38 162 -155v-207c0 -37 7 -59 17 -82l51 4l3 -22l-138 -28l-25 82l-129 -91c-83 0 -140 46 -140 124c0 35 11 66 44 98l221 71v59c0 59 -4 99 -73 99
c-23 0 -45 -5 -70 -14l-20 -96h-87v76z" />
    <glyph glyph-name="aringacute" unicode="&#x1fb;" horiz-adv-x="467" 
d="M295 101v153l-134 -54c-21 -18 -33 -43 -33 -74c0 -51 29 -77 63 -77c28 0 54 17 69 28zM45 402l184 82c129 0 162 -38 162 -155v-207c0 -37 7 -59 17 -82l51 4l3 -22l-138 -28l-25 82l-129 -91c-83 0 -140 46 -140 124c0 35 11 66 44 98l221 71v59c0 59 -4 99 -73 99
c-23 0 -45 -5 -70 -14l-20 -96h-87v76z" />
    <glyph glyph-name="atilde" unicode="&#xe3;" horiz-adv-x="467" 
d="M295 101v153l-134 -54c-21 -18 -33 -43 -33 -74c0 -51 29 -77 63 -77c28 0 54 17 69 28zM45 402l184 82c129 0 162 -38 162 -155v-207c0 -37 7 -59 17 -82l51 4l3 -22l-138 -28l-25 82l-129 -91c-83 0 -140 46 -140 124c0 35 11 66 44 98l221 71v59c0 59 -4 99 -73 99
c-23 0 -45 -5 -70 -14l-20 -96h-87v76z" />
    <glyph glyph-name="b" unicode="b" horiz-adv-x="539" 
d="M500 263c0 -175 -100 -253 -247 -278c-87 0 -131 19 -173 42v637l-66 -7l-4 24l135 31l30 2v-327l138 97c102 0 187 -82 187 -221zM399 228c0 114 -39 184 -107 184c-30 0 -57 -14 -91 -37l-26 -19v-295c20 -28 53 -42 94 -42c75 0 130 80 130 209z" />
    <glyph glyph-name="c" unicode="c" horiz-adv-x="446" 
d="M336 337l-32 98c-14 9 -27 12 -47 12c-69 0 -127 -64 -127 -185c0 -115 64 -202 163 -202c42 0 81 17 118 43l10 -22c-48 -41 -98 -71 -162 -96c-127 0 -222 85 -222 234c0 160 115 239 237 265c44 0 106 -25 137 -51v-96h-75z" />
    <glyph glyph-name="cacute" unicode="&#x107;" horiz-adv-x="446" 
d="M336 337l-32 98c-14 9 -27 12 -47 12c-69 0 -127 -64 -127 -185c0 -115 64 -202 163 -202c42 0 81 17 118 43l10 -22c-48 -41 -98 -71 -162 -96c-127 0 -222 85 -222 234c0 160 115 239 237 265c44 0 106 -25 137 -51v-96h-75z" />
    <glyph glyph-name="ccaron" unicode="&#x10d;" horiz-adv-x="446" 
d="M336 337l-32 98c-14 9 -27 12 -47 12c-69 0 -127 -64 -127 -185c0 -115 64 -202 163 -202c42 0 81 17 118 43l10 -22c-48 -41 -98 -71 -162 -96c-127 0 -222 85 -222 234c0 160 115 239 237 265c44 0 106 -25 137 -51v-96h-75z" />
    <glyph glyph-name="ccedilla" unicode="&#xe7;" horiz-adv-x="446" 
d="M336 337l-32 98c-14 9 -27 12 -47 12c-69 0 -127 -64 -127 -185c0 -115 64 -202 163 -202c42 0 81 17 118 43l10 -22c-48 -41 -98 -71 -162 -96c-127 0 -222 85 -222 234c0 160 115 239 237 265c44 0 106 -25 137 -51v-96h-75z" />
    <glyph glyph-name="ccircumflex" unicode="&#x109;" horiz-adv-x="446" 
d="M336 337l-32 98c-14 9 -27 12 -47 12c-69 0 -127 -64 -127 -185c0 -115 64 -202 163 -202c42 0 81 17 118 43l10 -22c-48 -41 -98 -71 -162 -96c-127 0 -222 85 -222 234c0 160 115 239 237 265c44 0 106 -25 137 -51v-96h-75z" />
    <glyph glyph-name="cdotaccent" unicode="&#x10b;" horiz-adv-x="446" 
d="M336 337l-32 98c-14 9 -27 12 -47 12c-69 0 -127 -64 -127 -185c0 -115 64 -202 163 -202c42 0 81 17 118 43l10 -22c-48 -41 -98 -71 -162 -96c-127 0 -222 85 -222 234c0 160 115 239 237 265c44 0 106 -25 137 -51v-96h-75z" />
    <glyph glyph-name="colon" unicode=":" horiz-adv-x="226" 
d="M78 105l73 6l29 -6l6 -56l-8 -49l-74 -5l-28 5l-6 58z" />
    <glyph glyph-name="comma" unicode="," horiz-adv-x="223" 
d="M81 0l-5 58l6 47l73 6l31 -6l4 -56l-7 -49l-77 -144l-22 9c7 18 48 118 48 131z" />
    <glyph glyph-name="d" unicode="d" horiz-adv-x="554" 
d="M455 714v-591c0 -37 5 -56 17 -81l60 4l3 -23l-143 -29l-27 86l-134 -95c-118 0 -197 99 -197 229c0 149 83 244 233 270c29 0 66 -12 93 -27v207l-66 -6l-4 22l135 32zM246 57c28 0 51 10 89 38l25 20v293c-18 24 -50 40 -90 40c-85 -1 -134 -78 -134 -200
c0 -112 44 -191 110 -191z" />
    <glyph glyph-name="dcaron" unicode="&#x10f;" horiz-adv-x="554" 
d="M455 714v-591c0 -37 5 -56 17 -81l60 4l3 -23l-143 -29l-27 86l-134 -95c-118 0 -197 99 -197 229c0 149 83 244 233 270c29 0 66 -12 93 -27v207l-66 -6l-4 22l135 32zM246 57c28 0 51 10 89 38l25 20v293c-18 24 -50 40 -90 40c-85 -1 -134 -78 -134 -200
c0 -112 44 -191 110 -191z" />
    <glyph glyph-name="dcroat" unicode="&#x111;" horiz-adv-x="554" 
d="M455 714v-591c0 -37 5 -56 17 -81l60 4l3 -23l-143 -29l-27 86l-134 -95c-118 0 -197 99 -197 229c0 149 83 244 233 270c29 0 66 -12 93 -27v207l-66 -6l-4 22l135 32zM246 57c28 0 51 10 89 38l25 20v293c-18 24 -50 40 -90 40c-85 -1 -134 -78 -134 -200
c0 -112 44 -191 110 -191z" />
    <glyph glyph-name="dotlessi" unicode="&#x131;" horiz-adv-x="284" 
d="M262 -1l-112 2l-113 -2l-2 23l65 9v395l-67 -11l-3 24l135 34l30 2v-444l69 -9zM93 646l10 46l70 5l27 -5l6 -53l-10 -48l-70 -5l-26 5z" />
    <glyph glyph-name="e" unicode="e" horiz-adv-x="470" 
d="M433 264h-306c2 -127 69 -203 173 -203c43 0 87 18 125 42l11 -23c-54 -42 -107 -70 -173 -95c-120 0 -229 83 -229 236c0 152 96 234 224 263c123 0 175 -77 175 -185v-35zM127 289l202 5v5c0 88 -16 147 -94 147c-66 0 -102 -62 -108 -154v-3z" />
    <glyph glyph-name="eacute" unicode="&#xe9;" horiz-adv-x="470" 
d="M433 264h-306c2 -127 69 -203 173 -203c43 0 87 18 125 42l11 -23c-54 -42 -107 -70 -173 -95c-120 0 -229 83 -229 236c0 152 96 234 224 263c123 0 175 -77 175 -185v-35zM127 289l202 5v5c0 88 -16 147 -94 147c-66 0 -102 -62 -108 -154v-3z" />
    <glyph glyph-name="ebreve" unicode="&#x115;" horiz-adv-x="470" 
d="M433 264h-306c2 -127 69 -203 173 -203c43 0 87 18 125 42l11 -23c-54 -42 -107 -70 -173 -95c-120 0 -229 83 -229 236c0 152 96 234 224 263c123 0 175 -77 175 -185v-35zM127 289l202 5v5c0 88 -16 147 -94 147c-66 0 -102 -62 -108 -154v-3z" />
    <glyph glyph-name="ecaron" unicode="&#x11b;" horiz-adv-x="470" 
d="M433 264h-306c2 -127 69 -203 173 -203c43 0 87 18 125 42l11 -23c-54 -42 -107 -70 -173 -95c-120 0 -229 83 -229 236c0 152 96 234 224 263c123 0 175 -77 175 -185v-35zM127 289l202 5v5c0 88 -16 147 -94 147c-66 0 -102 -62 -108 -154v-3z" />
    <glyph glyph-name="ecircumflex" unicode="&#xea;" horiz-adv-x="470" 
d="M433 264h-306c2 -127 69 -203 173 -203c43 0 87 18 125 42l11 -23c-54 -42 -107 -70 -173 -95c-120 0 -229 83 -229 236c0 152 96 234 224 263c123 0 175 -77 175 -185v-35zM127 289l202 5v5c0 88 -16 147 -94 147c-66 0 -102 -62 -108 -154v-3z" />
    <glyph glyph-name="edieresis" unicode="&#xeb;" horiz-adv-x="470" 
d="M433 264h-306c2 -127 69 -203 173 -203c43 0 87 18 125 42l11 -23c-54 -42 -107 -70 -173 -95c-120 0 -229 83 -229 236c0 152 96 234 224 263c123 0 175 -77 175 -185v-35zM127 289l202 5v5c0 88 -16 147 -94 147c-66 0 -102 -62 -108 -154v-3z" />
    <glyph glyph-name="edotaccent" unicode="&#x117;" horiz-adv-x="470" 
d="M433 264h-306c2 -127 69 -203 173 -203c43 0 87 18 125 42l11 -23c-54 -42 -107 -70 -173 -95c-120 0 -229 83 -229 236c0 152 96 234 224 263c123 0 175 -77 175 -185v-35zM127 289l202 5v5c0 88 -16 147 -94 147c-66 0 -102 -62 -108 -154v-3z" />
    <glyph glyph-name="egrave" unicode="&#xe8;" horiz-adv-x="470" 
d="M433 264h-306c2 -127 69 -203 173 -203c43 0 87 18 125 42l11 -23c-54 -42 -107 -70 -173 -95c-120 0 -229 83 -229 236c0 152 96 234 224 263c123 0 175 -77 175 -185v-35zM127 289l202 5v5c0 88 -16 147 -94 147c-66 0 -102 -62 -108 -154v-3z" />
    <glyph glyph-name="eight" unicode="8" horiz-adv-x="545" 
d="M496 185c0 -107 -79 -166 -235 -200c-118 0 -212 68 -212 176c0 82 62 146 155 190c-93 64 -136 120 -136 186c0 88 74 145 214 178c127 0 202 -56 202 -142c0 -79 -59 -138 -151 -186c109 -75 163 -126 163 -202zM149 183c0 -95 61 -162 129 -162c56 0 117 35 117 119
c0 78 -67 123 -166 195c-54 -41 -80 -84 -80 -152zM383 554c0 70 -40 126 -115 126c-58 0 -99 -37 -99 -99c0 -64 54 -115 141 -177c56 46 73 92 73 150z" />
    <glyph glyph-name="emacron" unicode="&#x113;" horiz-adv-x="470" 
d="M433 264h-306c2 -127 69 -203 173 -203c43 0 87 18 125 42l11 -23c-54 -42 -107 -70 -173 -95c-120 0 -229 83 -229 236c0 152 96 234 224 263c123 0 175 -77 175 -185v-35zM127 289l202 5v5c0 88 -16 147 -94 147c-66 0 -102 -62 -108 -154v-3z" />
    <glyph glyph-name="emdash" unicode="&#x2014;" horiz-adv-x="385" 
d="M40 252v48h305v-48h-305z" />
    <glyph glyph-name="endash" unicode="&#x2013;" horiz-adv-x="385" 
d="M40 252v48h305v-48h-305z" />
    <glyph glyph-name="eng" unicode="&#x14b;" horiz-adv-x="581" 
d="M244 -1l-95 2l-112 -2l-3 23l67 9v395l-68 -11l-3 23l136 35l26 2l3 -96l164 105c52 -1 84 -10 103 -33c21 -23 28 -58 28 -114v-306l74 -9l-3 -23l-116 2l-97 -2l-2 23l48 9v304c0 57 -22 78 -63 78c-35 0 -65 -19 -102 -43l-33 -21v-318l51 -9z" />
    <glyph glyph-name="eogonek" unicode="&#x119;" horiz-adv-x="470" 
d="M433 264h-306c2 -127 69 -203 173 -203c43 0 87 18 125 42l11 -23c-54 -42 -107 -70 -173 -95c-120 0 -229 83 -229 236c0 152 96 234 224 263c123 0 175 -77 175 -185v-35zM127 289l202 5v5c0 88 -16 147 -94 147c-66 0 -102 -62 -108 -154v-3z" />
    <glyph glyph-name="exclam" unicode="!" horiz-adv-x="226" 
d="M78 105l73 6l29 -6l6 -56l-8 -49l-74 -5l-28 5l-6 58z" />
    <glyph glyph-name="f" unicode="f" horiz-adv-x="336" 
d="M196 497v-36h125v-29h-125v-401l110 -7l-2 -25l-154 2l-114 -2l-2 23l67 9v401h-75v14l14 17h61v11c0 62 15 99 51 137l93 99h116v-78h-138l-12 -19c-10 -22 -15 -49 -15 -116z" />
    <glyph glyph-name="ff" unicode="&#xfb00;" horiz-adv-x="672" 
d="M196 497v-36h125v-29h-125v-401l110 -7l-2 -25l-154 2l-114 -2l-2 23l67 9v401h-75v14l14 17h61v11c0 62 15 99 51 137l93 99h116v-78h-138l-12 -19c-10 -22 -15 -49 -15 -116zM532 497v-36h125v-29h-125v-401l110 -7l-2 -25l-154 2l-114 -2l-2 23l67 9v401h-75v14l14 17
h61v11c0 62 15 99 51 137l93 99h116v-78h-138l-12 -19c-10 -22 -15 -49 -15 -116z" />
    <glyph glyph-name="fi" unicode="&#xfb01;" horiz-adv-x="620" 
d="M196 497v-36h125v-29h-125v-401l110 -7l-2 -25l-154 2l-114 -2l-2 23l67 9v401h-75v14l14 17h61v11c0 62 15 99 51 137l93 99h116v-78h-138l-12 -19c-10 -22 -15 -49 -15 -116zM598 -1l-112 2l-113 -2l-2 23l65 9v395l-67 -11l-3 24l135 34l30 2v-444l69 -9zM429 646
l10 46l70 5l27 -5l6 -53l-10 -48l-70 -5l-26 5z" />
    <glyph glyph-name="five" unicode="5" horiz-adv-x="479" 
d="M118 385l-27 -235l158 83c150 0 197 -98 197 -166c0 -134 -97 -190 -208 -242l-111 -54h-84v90h197c70 41 101 100 101 166c0 68 -39 129 -125 129c-38 0 -62 -6 -108 -28l-37 -17l-16 10l39 351h344l-2 -28l-16 -59h-302z" />
    <glyph glyph-name="four" unicode="4" horiz-adv-x="550" 
d="M401 236v-197h137v-40h-137v-229h-95v229h-273l-23 26l315 446h112v-23l-373 -416l35 7h207v141l72 50z" />
    <glyph glyph-name="g" unicode="g" horiz-adv-x="507" 
d="M240 483c70 0 129 -29 157 -75l53 75h52v-87h-73l-20 -12c6 -14 10 -30 10 -46c0 -86 -60 -143 -194 -178c-18 0 -37 2 -52 7l-47 -51c0 -33 19 -49 49 -49h185c81 0 119 -43 119 -99c0 -89 -104 -166 -251 -212c-137 0 -209 39 -209 132v17l112 85
c-68 21 -83 56 -83 101v11l99 72c-60 22 -101 71 -101 133c0 85 60 141 194 176zM154 -16c-43 -42 -48 -67 -48 -88c0 -52 50 -88 123 -87h11c92 0 162 55 162 118c0 37 -24 57 -86 57h-162zM323 306c0 64 -21 144 -100 144c-52 0 -81 -44 -81 -118c0 -61 21 -138 99 -138
c52 0 82 42 82 112z" />
    <glyph glyph-name="gbreve" unicode="&#x11f;" horiz-adv-x="507" 
d="M240 483c70 0 129 -29 157 -75l53 75h52v-87h-73l-20 -12c6 -14 10 -30 10 -46c0 -86 -60 -143 -194 -178c-18 0 -37 2 -52 7l-47 -51c0 -33 19 -49 49 -49h185c81 0 119 -43 119 -99c0 -89 -104 -166 -251 -212c-137 0 -209 39 -209 132v17l112 85
c-68 21 -83 56 -83 101v11l99 72c-60 22 -101 71 -101 133c0 85 60 141 194 176zM154 -16c-43 -42 -48 -67 -48 -88c0 -52 50 -88 123 -87h11c92 0 162 55 162 118c0 37 -24 57 -86 57h-162zM323 306c0 64 -21 144 -100 144c-52 0 -81 -44 -81 -118c0 -61 21 -138 99 -138
c52 0 82 42 82 112z" />
    <glyph glyph-name="gcircumflex" unicode="&#x11d;" horiz-adv-x="507" 
d="M240 483c70 0 129 -29 157 -75l53 75h52v-87h-73l-20 -12c6 -14 10 -30 10 -46c0 -86 -60 -143 -194 -178c-18 0 -37 2 -52 7l-47 -51c0 -33 19 -49 49 -49h185c81 0 119 -43 119 -99c0 -89 -104 -166 -251 -212c-137 0 -209 39 -209 132v17l112 85
c-68 21 -83 56 -83 101v11l99 72c-60 22 -101 71 -101 133c0 85 60 141 194 176zM154 -16c-43 -42 -48 -67 -48 -88c0 -52 50 -88 123 -87h11c92 0 162 55 162 118c0 37 -24 57 -86 57h-162zM323 306c0 64 -21 144 -100 144c-52 0 -81 -44 -81 -118c0 -61 21 -138 99 -138
c52 0 82 42 82 112z" />
    <glyph glyph-name="gcommaaccent" unicode="&#x123;" horiz-adv-x="507" 
d="M240 483c70 0 129 -29 157 -75l53 75h52v-87h-73l-20 -12c6 -14 10 -30 10 -46c0 -86 -60 -143 -194 -178c-18 0 -37 2 -52 7l-47 -51c0 -33 19 -49 49 -49h185c81 0 119 -43 119 -99c0 -89 -104 -166 -251 -212c-137 0 -209 39 -209 132v17l112 85
c-68 21 -83 56 -83 101v11l99 72c-60 22 -101 71 -101 133c0 85 60 141 194 176zM154 -16c-43 -42 -48 -67 -48 -88c0 -52 50 -88 123 -87h11c92 0 162 55 162 118c0 37 -24 57 -86 57h-162zM323 306c0 64 -21 144 -100 144c-52 0 -81 -44 -81 -118c0 -61 21 -138 99 -138
c52 0 82 42 82 112z" />
    <glyph glyph-name="gdotaccent" unicode="&#x121;" horiz-adv-x="507" 
d="M240 483c70 0 129 -29 157 -75l53 75h52v-87h-73l-20 -12c6 -14 10 -30 10 -46c0 -86 -60 -143 -194 -178c-18 0 -37 2 -52 7l-47 -51c0 -33 19 -49 49 -49h185c81 0 119 -43 119 -99c0 -89 -104 -166 -251 -212c-137 0 -209 39 -209 132v17l112 85
c-68 21 -83 56 -83 101v11l99 72c-60 22 -101 71 -101 133c0 85 60 141 194 176zM154 -16c-43 -42 -48 -67 -48 -88c0 -52 50 -88 123 -87h11c92 0 162 55 162 118c0 37 -24 57 -86 57h-162zM323 306c0 64 -21 144 -100 144c-52 0 -81 -44 -81 -118c0 -61 21 -138 99 -138
c52 0 82 42 82 112z" />
    <glyph glyph-name="germandbls" unicode="&#xdf;" horiz-adv-x="806" 
d="M325 329l-39 92c-20 17 -47 29 -82 29c-42 0 -75 -24 -75 -63c0 -37 27 -56 74 -83l80 -46c64 -36 88 -70 87 -125c0 -79 -64 -122 -177 -148c-58 0 -121 25 -152 44l-10 122h36l44 -95c24 -20 53 -36 90 -36c55 0 82 34 82 73c0 45 -23 62 -77 94l-80 46
c-41 24 -82 56 -82 115c0 68 59 108 169 136c60 0 110 -20 144 -40v-115h-32zM728 329l-39 92c-20 17 -47 29 -82 29c-42 0 -75 -24 -75 -63c0 -37 27 -56 74 -83l80 -46c64 -36 88 -70 87 -125c0 -79 -64 -122 -177 -148c-58 0 -121 25 -152 44l-10 122h36l44 -95
c24 -20 53 -36 90 -36c55 0 82 34 82 73c0 45 -23 62 -77 94l-80 46c-41 24 -82 56 -82 115c0 68 59 108 169 136c60 0 110 -20 144 -40v-115h-32z" />
    <glyph glyph-name="h" unicode="h" horiz-adv-x="580" 
d="M194 350v-319l52 -9l-3 -23l-94 2l-113 -2l-3 23l66 9v634l-65 -7l-3 23l133 31l30 2v-334l164 104c55 0 87 -13 106 -38c20 -25 26 -64 26 -118v-297l73 -9l-3 -23l-117 2l-95 -2l-3 23l49 9v304c0 57 -23 78 -63 78c-33 0 -64 -19 -102 -43z" />
    <glyph glyph-name="hbar" unicode="&#x127;" horiz-adv-x="580" 
d="M194 350v-319l52 -9l-3 -23l-94 2l-113 -2l-3 23l66 9v634l-65 -7l-3 23l133 31l30 2v-334l164 104c55 0 87 -13 106 -38c20 -25 26 -64 26 -118v-297l73 -9l-3 -23l-117 2l-95 -2l-3 23l49 9v304c0 57 -23 78 -63 78c-33 0 -64 -19 -102 -43z" />
    <glyph glyph-name="hcircumflex" unicode="&#x125;" horiz-adv-x="580" 
d="M194 350v-319l52 -9l-3 -23l-94 2l-113 -2l-3 23l66 9v634l-65 -7l-3 23l133 31l30 2v-334l164 104c55 0 87 -13 106 -38c20 -25 26 -64 26 -118v-297l73 -9l-3 -23l-117 2l-95 -2l-3 23l49 9v304c0 57 -23 78 -63 78c-33 0 -64 -19 -102 -43z" />
    <glyph glyph-name="hyphen" unicode="-" horiz-adv-x="385" 
d="M40 252v48h305v-48h-305z" />
    <glyph glyph-name="i" unicode="i" horiz-adv-x="284" 
d="M262 -1l-112 2l-113 -2l-2 23l65 9v395l-67 -11l-3 24l135 34l30 2v-444l69 -9zM93 646l10 46l70 5l27 -5l6 -53l-10 -48l-70 -5l-26 5z" />
    <glyph glyph-name="iacute" unicode="&#xed;" horiz-adv-x="284" 
d="M262 -1l-112 2l-113 -2l-2 23l65 9v395l-67 -11l-3 24l135 34l30 2v-444l69 -9zM93 646l10 46l70 5l27 -5l6 -53l-10 -48l-70 -5l-26 5z" />
    <glyph glyph-name="ibreve" unicode="&#x12d;" horiz-adv-x="284" 
d="M262 -1l-112 2l-113 -2l-2 23l65 9v395l-67 -11l-3 24l135 34l30 2v-444l69 -9zM93 646l10 46l70 5l27 -5l6 -53l-10 -48l-70 -5l-26 5z" />
    <glyph glyph-name="icircumflex" unicode="&#xee;" horiz-adv-x="284" 
d="M262 -1l-112 2l-113 -2l-2 23l65 9v395l-67 -11l-3 24l135 34l30 2v-444l69 -9zM93 646l10 46l70 5l27 -5l6 -53l-10 -48l-70 -5l-26 5z" />
    <glyph glyph-name="idieresis" unicode="&#xef;" horiz-adv-x="284" 
d="M262 -1l-112 2l-113 -2l-2 23l65 9v395l-67 -11l-3 24l135 34l30 2v-444l69 -9zM93 646l10 46l70 5l27 -5l6 -53l-10 -48l-70 -5l-26 5z" />
    <glyph glyph-name="igrave" unicode="&#xec;" horiz-adv-x="284" 
d="M262 -1l-112 2l-113 -2l-2 23l65 9v395l-67 -11l-3 24l135 34l30 2v-444l69 -9zM93 646l10 46l70 5l27 -5l6 -53l-10 -48l-70 -5l-26 5z" />
    <glyph glyph-name="ij" unicode="&#x133;" horiz-adv-x="549" 
d="M262 -1l-112 2l-113 -2l-2 23l65 9v395l-67 -11l-3 24l135 34l30 2v-444l69 -9zM93 646l10 46l70 5l27 -5l6 -53l-10 -48l-70 -5l-26 5zM378 646l10 46l70 5l27 -5l5 -53l-10 -48l-70 -5l-26 5zM366 -148l6 19c6 17 14 49 14 108v447l-67 -11l-4 24l136 34l30 2v-476
c0 -59 -16 -90 -52 -131l-90 -104h-76v88h103z" />
    <glyph glyph-name="imacron" unicode="&#x12b;" horiz-adv-x="284" 
d="M262 -1l-112 2l-113 -2l-2 23l65 9v395l-67 -11l-3 24l135 34l30 2v-444l69 -9zM93 646l10 46l70 5l27 -5l6 -53l-10 -48l-70 -5l-26 5z" />
    <glyph glyph-name="iogonek" unicode="&#x12f;" horiz-adv-x="284" 
d="M262 -1l-112 2l-113 -2l-2 23l65 9v395l-67 -11l-3 24l135 34l30 2v-444l69 -9zM93 646l10 46l70 5l27 -5l6 -53l-10 -48l-70 -5l-26 5z" />
    <glyph glyph-name="itilde" unicode="&#x129;" horiz-adv-x="284" 
d="M262 -1l-112 2l-113 -2l-2 23l65 9v395l-67 -11l-3 24l135 34l30 2v-444l69 -9zM93 646l10 46l70 5l27 -5l6 -53l-10 -48l-70 -5l-26 5z" />
    <glyph glyph-name="j" unicode="j" horiz-adv-x="265" 
d="M94 646l10 46l70 5l27 -5l5 -53l-10 -48l-70 -5l-26 5zM82 -148l6 19c6 17 14 49 14 108v447l-67 -11l-4 24l136 34l30 2v-476c0 -59 -16 -90 -52 -131l-90 -104h-76v88h103z" />
    <glyph glyph-name="jcircumflex" unicode="&#x135;" horiz-adv-x="265" 
d="M94 646l10 46l70 5l27 -5l5 -53l-10 -48l-70 -5l-26 5zM82 -148l6 19c6 17 14 49 14 108v447l-67 -11l-4 24l136 34l30 2v-476c0 -59 -16 -90 -52 -131l-90 -104h-76v88h103z" />
    <glyph glyph-name="k" unicode="k" horiz-adv-x="543" 
d="M535 -1l-84 2l-62 -2l-182 233l-12 22v-223l58 -9l-2 -23l-103 2l-112 -2l-2 23l66 9v633l-66 -7l-4 24l135 31l30 2v-447l25 15l184 156l-49 9v22l81 -1l78 1l3 -22l-61 -9l-209 -169l48 1l200 -240l43 -8z" />
    <glyph glyph-name="kcommaaccent" unicode="&#x137;" horiz-adv-x="543" 
d="M535 -1l-84 2l-62 -2l-182 233l-12 22v-223l58 -9l-2 -23l-103 2l-112 -2l-2 23l66 9v633l-66 -7l-4 24l135 31l30 2v-447l25 15l184 156l-49 9v22l81 -1l78 1l3 -22l-61 -9l-209 -169l48 1l200 -240l43 -8z" />
    <glyph glyph-name="kgreenlandic" unicode="&#x138;" horiz-adv-x="543" 
d="M535 -1l-84 2l-62 -2l-182 233l-12 22v-223l58 -9l-2 -23l-103 2l-112 -2l-2 23l66 9v633l-66 -7l-4 24l135 31l30 2v-447l25 15l184 156l-49 9v22l81 -1l78 1l3 -22l-61 -9l-209 -169l48 1l200 -240l43 -8z" />
    <glyph glyph-name="l" unicode="l" horiz-adv-x="278" 
d="M260 -1l-112 2l-112 -2l-3 23l66 9v633l-65 -7l-3 24l133 31l30 2v-683l69 -9z" />
    <glyph glyph-name="lacute" unicode="&#x13a;" horiz-adv-x="278" 
d="M260 -1l-112 2l-112 -2l-3 23l66 9v633l-65 -7l-3 24l133 31l30 2v-683l69 -9z" />
    <glyph glyph-name="lcaron" unicode="&#x13e;" horiz-adv-x="278" 
d="M260 -1l-112 2l-112 -2l-3 23l66 9v633l-65 -7l-3 24l133 31l30 2v-683l69 -9z" />
    <glyph glyph-name="lcommaaccent" unicode="&#x13c;" horiz-adv-x="278" 
d="M260 -1l-112 2l-112 -2l-3 23l66 9v633l-65 -7l-3 24l133 31l30 2v-683l69 -9z" />
    <glyph glyph-name="ldot" unicode="&#x140;" horiz-adv-x="278" 
d="M260 -1l-112 2l-112 -2l-3 23l66 9v633l-65 -7l-3 24l133 31l30 2v-683l69 -9z" />
    <glyph glyph-name="lslash" unicode="&#x142;" horiz-adv-x="278" 
d="M260 -1l-112 2l-112 -2l-3 23l66 9v633l-65 -7l-3 24l133 31l30 2v-683l69 -9z" />
    <glyph glyph-name="m" unicode="m" horiz-adv-x="856" 
d="M837 -1l-117 2l-96 -2l-3 23l49 9v304c0 57 -22 78 -59 78c-32 0 -67 -21 -98 -42l-32 -22v-318l46 -9l-3 -23l-90 2l-93 -2l-2 23l46 9v304c0 57 -21 78 -60 78c-31 0 -66 -21 -97 -42l-32 -22v-318l48 -9l-2 -23l-94 2l-111 -2l-3 23l67 9v395l-68 -10l-3 22l136 35
l27 2l2 -95l155 104c41 0 71 -8 93 -25c21 -17 33 -42 35 -80l157 105c54 -2 86 -13 105 -37s26 -61 26 -118v-298l73 -9z" />
    <glyph glyph-name="n" unicode="n" horiz-adv-x="581" 
d="M244 -1l-95 2l-112 -2l-3 23l67 9v395l-68 -11l-3 23l136 35l26 2l3 -96l164 105c52 -1 84 -10 103 -33c21 -23 28 -58 28 -114v-306l74 -9l-3 -23l-116 2l-97 -2l-2 23l48 9v304c0 57 -22 78 -63 78c-35 0 -65 -19 -102 -43l-33 -21v-318l51 -9z" />
    <glyph glyph-name="nacute" unicode="&#x144;" horiz-adv-x="581" 
d="M244 -1l-95 2l-112 -2l-3 23l67 9v395l-68 -11l-3 23l136 35l26 2l3 -96l164 105c52 -1 84 -10 103 -33c21 -23 28 -58 28 -114v-306l74 -9l-3 -23l-116 2l-97 -2l-2 23l48 9v304c0 57 -22 78 -63 78c-35 0 -65 -19 -102 -43l-33 -21v-318l51 -9z" />
    <glyph glyph-name="napostrophe" unicode="&#x149;" horiz-adv-x="581" 
d="M244 -1l-95 2l-112 -2l-3 23l67 9v395l-68 -11l-3 23l136 35l26 2l3 -96l164 105c52 -1 84 -10 103 -33c21 -23 28 -58 28 -114v-306l74 -9l-3 -23l-116 2l-97 -2l-2 23l48 9v304c0 57 -22 78 -63 78c-35 0 -65 -19 -102 -43l-33 -21v-318l51 -9z" />
    <glyph glyph-name="ncaron" unicode="&#x148;" horiz-adv-x="581" 
d="M244 -1l-95 2l-112 -2l-3 23l67 9v395l-68 -11l-3 23l136 35l26 2l3 -96l164 105c52 -1 84 -10 103 -33c21 -23 28 -58 28 -114v-306l74 -9l-3 -23l-116 2l-97 -2l-2 23l48 9v304c0 57 -22 78 -63 78c-35 0 -65 -19 -102 -43l-33 -21v-318l51 -9z" />
    <glyph glyph-name="ncommaaccent" unicode="&#x146;" horiz-adv-x="581" 
d="M244 -1l-95 2l-112 -2l-3 23l67 9v395l-68 -11l-3 23l136 35l26 2l3 -96l164 105c52 -1 84 -10 103 -33c21 -23 28 -58 28 -114v-306l74 -9l-3 -23l-116 2l-97 -2l-2 23l48 9v304c0 57 -22 78 -63 78c-35 0 -65 -19 -102 -43l-33 -21v-318l51 -9z" />
    <glyph glyph-name="nine" unicode="9" horiz-adv-x="545" 
d="M36 231c0 130 80 216 240 256c139 0 214 -125 214 -282c0 -185 -106 -360 -364 -448l-10 25c214 93 259 225 265 363v1l-159 -122c-130 0 -186 108 -186 207zM138 262c0 -105 48 -164 102 -164c36 0 52 11 103 51l38 30c-2 151 -37 271 -126 271
c-72 0 -117 -65 -117 -188z" />
    <glyph glyph-name="ntilde" unicode="&#xf1;" horiz-adv-x="581" 
d="M244 -1l-95 2l-112 -2l-3 23l67 9v395l-68 -11l-3 23l136 35l26 2l3 -96l164 105c52 -1 84 -10 103 -33c21 -23 28 -58 28 -114v-306l74 -9l-3 -23l-116 2l-97 -2l-2 23l48 9v304c0 57 -22 78 -63 78c-35 0 -65 -19 -102 -43l-33 -21v-318l51 -9z" />
    <glyph glyph-name="o" unicode="o" horiz-adv-x="531" 
d="M279 484c129 0 219 -102 219 -239c0 -151 -95 -232 -245 -260c-129 0 -219 102 -219 238c0 153 95 231 245 261zM135 249c0 -129 59 -228 144 -228c77 0 117 81 117 198c0 141 -61 228 -143 228c-78 0 -118 -79 -118 -198z" />
    <glyph glyph-name="oacute" unicode="&#xf3;" horiz-adv-x="531" 
d="M279 484c129 0 219 -102 219 -239c0 -151 -95 -232 -245 -260c-129 0 -219 102 -219 238c0 153 95 231 245 261zM135 249c0 -129 59 -228 144 -228c77 0 117 81 117 198c0 141 -61 228 -143 228c-78 0 -118 -79 -118 -198z" />
    <glyph glyph-name="obreve" unicode="&#x14f;" horiz-adv-x="531" 
d="M279 484c129 0 219 -102 219 -239c0 -151 -95 -232 -245 -260c-129 0 -219 102 -219 238c0 153 95 231 245 261zM135 249c0 -129 59 -228 144 -228c77 0 117 81 117 198c0 141 -61 228 -143 228c-78 0 -118 -79 -118 -198z" />
    <glyph glyph-name="ocircumflex" unicode="&#xf4;" horiz-adv-x="531" 
d="M279 484c129 0 219 -102 219 -239c0 -151 -95 -232 -245 -260c-129 0 -219 102 -219 238c0 153 95 231 245 261zM135 249c0 -129 59 -228 144 -228c77 0 117 81 117 198c0 141 -61 228 -143 228c-78 0 -118 -79 -118 -198z" />
    <glyph glyph-name="odieresis" unicode="&#xf6;" horiz-adv-x="531" 
d="M279 484c129 0 219 -102 219 -239c0 -151 -95 -232 -245 -260c-129 0 -219 102 -219 238c0 153 95 231 245 261zM135 249c0 -129 59 -228 144 -228c77 0 117 81 117 198c0 141 -61 228 -143 228c-78 0 -118 -79 -118 -198z" />
    <glyph glyph-name="oe" unicode="&#x153;" horiz-adv-x="1001" 
d="M279 484c129 0 219 -102 219 -239c0 -151 -95 -232 -245 -260c-129 0 -219 102 -219 238c0 153 95 231 245 261zM135 249c0 -129 59 -228 144 -228c77 0 117 81 117 198c0 141 -61 228 -143 228c-78 0 -118 -79 -118 -198zM964 264h-306c2 -127 69 -203 173 -203
c43 0 87 18 125 42l11 -23c-54 -42 -107 -70 -173 -95c-120 0 -229 83 -229 236c0 152 96 234 224 263c123 0 175 -77 175 -185v-35zM658 289l202 5v5c0 88 -16 147 -94 147c-66 0 -102 -62 -108 -154v-3z" />
    <glyph glyph-name="ograve" unicode="&#xf2;" horiz-adv-x="531" 
d="M279 484c129 0 219 -102 219 -239c0 -151 -95 -232 -245 -260c-129 0 -219 102 -219 238c0 153 95 231 245 261zM135 249c0 -129 59 -228 144 -228c77 0 117 81 117 198c0 141 -61 228 -143 228c-78 0 -118 -79 -118 -198z" />
    <glyph glyph-name="ohungarumlaut" unicode="&#x151;" horiz-adv-x="531" 
d="M279 484c129 0 219 -102 219 -239c0 -151 -95 -232 -245 -260c-129 0 -219 102 -219 238c0 153 95 231 245 261zM135 249c0 -129 59 -228 144 -228c77 0 117 81 117 198c0 141 -61 228 -143 228c-78 0 -118 -79 -118 -198z" />
    <glyph glyph-name="omacron" unicode="&#x14d;" horiz-adv-x="531" 
d="M279 484c129 0 219 -102 219 -239c0 -151 -95 -232 -245 -260c-129 0 -219 102 -219 238c0 153 95 231 245 261zM135 249c0 -129 59 -228 144 -228c77 0 117 81 117 198c0 141 -61 228 -143 228c-78 0 -118 -79 -118 -198z" />
    <glyph glyph-name="one" unicode="1" horiz-adv-x="440" 
d="M278 477v-443l145 -12l-2 -23l-192 2l-194 -2l-3 23l148 12v355l3 17l-37 -16l-106 -30l-11 23l223 94h26z" />
    <glyph glyph-name="oslash" unicode="&#xf8;" horiz-adv-x="531" 
d="M279 484c129 0 219 -102 219 -239c0 -151 -95 -232 -245 -260c-129 0 -219 102 -219 238c0 153 95 231 245 261zM135 249c0 -129 59 -228 144 -228c77 0 117 81 117 198c0 141 -61 228 -143 228c-78 0 -118 -79 -118 -198z" />
    <glyph glyph-name="oslashacute" unicode="&#x1ff;" horiz-adv-x="531" 
d="M279 484c129 0 219 -102 219 -239c0 -151 -95 -232 -245 -260c-129 0 -219 102 -219 238c0 153 95 231 245 261zM135 249c0 -129 59 -228 144 -228c77 0 117 81 117 198c0 141 -61 228 -143 228c-78 0 -118 -79 -118 -198z" />
    <glyph glyph-name="otilde" unicode="&#xf5;" horiz-adv-x="531" 
d="M279 484c129 0 219 -102 219 -239c0 -151 -95 -232 -245 -260c-129 0 -219 102 -219 238c0 153 95 231 245 261zM135 249c0 -129 59 -228 144 -228c77 0 117 81 117 198c0 141 -61 228 -143 228c-78 0 -118 -79 -118 -198z" />
    <glyph glyph-name="p" unicode="p" horiz-adv-x="540" 
d="M271 -15c-33 0 -65 7 -91 26v-211l101 -8l-2 -23l-144 2l-114 -2l-2 23l66 8v627l-67 -11l-3 22l134 35l26 2l4 -89l136 98c117 0 192 -92 192 -226c0 -153 -83 -244 -236 -273zM405 221c0 113 -41 192 -109 192c-31 0 -55 -15 -91 -40l-25 -18v-285
c20 -30 56 -50 98 -50c77 1 127 79 127 201z" />
    <glyph glyph-name="period" unicode="." horiz-adv-x="226" 
d="M78 105l73 6l29 -6l6 -56l-8 -49l-74 -5l-28 5l-6 58z" />
    <glyph glyph-name="q" unicode="q" horiz-adv-x="529" 
d="M136 247c0 -109 43 -191 116 -191c30 0 49 11 69 24l40 27v285c-15 35 -43 57 -89 57c-78 0 -136 -70 -136 -202zM521 -231l-115 2l-143 -2l-3 23l101 8v275l-130 -90c-113 0 -197 87 -197 227c0 152 98 250 248 272c51 0 93 -16 131 -38l29 33h14v-679l68 -8z" />
    <glyph glyph-name="question" unicode="?" horiz-adv-x="226" 
d="M78 105l73 6l29 -6l6 -56l-8 -49l-74 -5l-28 5l-6 58z" />
    <glyph glyph-name="r" unicode="r" horiz-adv-x="386" 
d="M189 475l2 -145l106 149h73v-102h-94c-12 -3 -49 -40 -63 -56l-19 -25v-264l98 -8l-3 -25l-141 2l-111 -2l-2 23l66 9v395l-68 -10l-3 22l134 35z" />
    <glyph glyph-name="racute" unicode="&#x155;" horiz-adv-x="386" 
d="M189 475l2 -145l106 149h73v-102h-94c-12 -3 -49 -40 -63 -56l-19 -25v-264l98 -8l-3 -25l-141 2l-111 -2l-2 23l66 9v395l-68 -10l-3 22l134 35z" />
    <glyph glyph-name="rcaron" unicode="&#x159;" horiz-adv-x="386" 
d="M189 475l2 -145l106 149h73v-102h-94c-12 -3 -49 -40 -63 -56l-19 -25v-264l98 -8l-3 -25l-141 2l-111 -2l-2 23l66 9v395l-68 -10l-3 22l134 35z" />
    <glyph glyph-name="rcommaaccent" unicode="&#x157;" horiz-adv-x="386" 
d="M189 475l2 -145l106 149h73v-102h-94c-12 -3 -49 -40 -63 -56l-19 -25v-264l98 -8l-3 -25l-141 2l-111 -2l-2 23l66 9v395l-68 -10l-3 22l134 35z" />
    <glyph glyph-name="s" unicode="s" horiz-adv-x="403" 
d="M325 329l-39 92c-20 17 -47 29 -82 29c-42 0 -75 -24 -75 -63c0 -37 27 -56 74 -83l80 -46c64 -36 88 -70 87 -125c0 -79 -64 -122 -177 -148c-58 0 -121 25 -152 44l-10 122h36l44 -95c24 -20 53 -36 90 -36c55 0 82 34 82 73c0 45 -23 62 -77 94l-80 46
c-41 24 -82 56 -82 115c0 68 59 108 169 136c60 0 110 -20 144 -40v-115h-32z" />
    <glyph glyph-name="sacute" unicode="&#x15b;" horiz-adv-x="403" 
d="M325 329l-39 92c-20 17 -47 29 -82 29c-42 0 -75 -24 -75 -63c0 -37 27 -56 74 -83l80 -46c64 -36 88 -70 87 -125c0 -79 -64 -122 -177 -148c-58 0 -121 25 -152 44l-10 122h36l44 -95c24 -20 53 -36 90 -36c55 0 82 34 82 73c0 45 -23 62 -77 94l-80 46
c-41 24 -82 56 -82 115c0 68 59 108 169 136c60 0 110 -20 144 -40v-115h-32z" />
    <glyph glyph-name="scaron" unicode="&#x161;" horiz-adv-x="403" 
d="M325 329l-39 92c-20 17 -47 29 -82 29c-42 0 -75 -24 -75 -63c0 -37 27 -56 74 -83l80 -46c64 -36 88 -70 87 -125c0 -79 -64 -122 -177 -148c-58 0 -121 25 -152 44l-10 122h36l44 -95c24 -20 53 -36 90 -36c55 0 82 34 82 73c0 45 -23 62 -77 94l-80 46
c-41 24 -82 56 -82 115c0 68 59 108 169 136c60 0 110 -20 144 -40v-115h-32z" />
    <glyph glyph-name="scedilla" unicode="&#x15f;" horiz-adv-x="403" 
d="M325 329l-39 92c-20 17 -47 29 -82 29c-42 0 -75 -24 -75 -63c0 -37 27 -56 74 -83l80 -46c64 -36 88 -70 87 -125c0 -79 -64 -122 -177 -148c-58 0 -121 25 -152 44l-10 122h36l44 -95c24 -20 53 -36 90 -36c55 0 82 34 82 73c0 45 -23 62 -77 94l-80 46
c-41 24 -82 56 -82 115c0 68 59 108 169 136c60 0 110 -20 144 -40v-115h-32z" />
    <glyph glyph-name="scircumflex" unicode="&#x15d;" horiz-adv-x="403" 
d="M325 329l-39 92c-20 17 -47 29 -82 29c-42 0 -75 -24 -75 -63c0 -37 27 -56 74 -83l80 -46c64 -36 88 -70 87 -125c0 -79 -64 -122 -177 -148c-58 0 -121 25 -152 44l-10 122h36l44 -95c24 -20 53 -36 90 -36c55 0 82 34 82 73c0 45 -23 62 -77 94l-80 46
c-41 24 -82 56 -82 115c0 68 59 108 169 136c60 0 110 -20 144 -40v-115h-32z" />
    <glyph glyph-name="scommaaccent" unicode="&#x219;" horiz-adv-x="403" 
d="M325 329l-39 92c-20 17 -47 29 -82 29c-42 0 -75 -24 -75 -63c0 -37 27 -56 74 -83l80 -46c64 -36 88 -70 87 -125c0 -79 -64 -122 -177 -148c-58 0 -121 25 -152 44l-10 122h36l44 -95c24 -20 53 -36 90 -36c55 0 82 34 82 73c0 45 -23 62 -77 94l-80 46
c-41 24 -82 56 -82 115c0 68 59 108 169 136c60 0 110 -20 144 -40v-115h-32z" />
    <glyph glyph-name="semicolon" unicode=";" horiz-adv-x="223" 
d="M81 0l-5 58l6 47l73 6l31 -6l4 -56l-7 -49l-77 -144l-22 9c7 18 48 118 48 131z" />
    <glyph glyph-name="seven" unicode="7" horiz-adv-x="486" 
d="M20 383v89h433l13 -14l-286 -686h-84v20l292 578l12 13h-380z" />
    <glyph glyph-name="six" unicode="6" horiz-adv-x="548" 
d="M502 243c0 -131 -82 -220 -241 -258c-138 0 -213 126 -213 281c0 189 101 366 366 455l9 -25c-219 -92 -261 -214 -267 -370v-1l162 124c130 0 184 -105 184 -206zM400 211c0 110 -46 166 -101 166c-35 0 -65 -23 -108 -56l-35 -28c3 -147 37 -271 126 -271
c74 0 118 68 118 189z" />
    <glyph glyph-name="space" unicode=" " horiz-adv-x="239" 
 />
    <glyph glyph-name="t" unicode="t" horiz-adv-x="344" 
d="M91 432h-86v14l18 17h69v71l80 60h13v-134h146v-28h-145v-316c0 -37 17 -63 56 -63c32 0 54 10 83 24l11 -21l-128 -71c-100 0 -117 47 -117 127v320z" />
    <glyph glyph-name="tbar" unicode="&#x167;" horiz-adv-x="344" 
d="M91 432h-86v14l18 17h69v71l80 60h13v-134h146v-28h-145v-316c0 -37 17 -63 56 -63c32 0 54 10 83 24l11 -21l-128 -71c-100 0 -117 47 -117 127v320z" />
    <glyph glyph-name="tcaron" unicode="&#x165;" horiz-adv-x="344" 
d="M91 432h-86v14l18 17h69v71l80 60h13v-134h146v-28h-145v-316c0 -37 17 -63 56 -63c32 0 54 10 83 24l11 -21l-128 -71c-100 0 -117 47 -117 127v320z" />
    <glyph glyph-name="tcommaaccent" unicode="&#x163;" horiz-adv-x="344" 
d="M91 432h-86v14l18 17h69v71l80 60h13v-134h146v-28h-145v-316c0 -37 17 -63 56 -63c32 0 54 10 83 24l11 -21l-128 -71c-100 0 -117 47 -117 127v320z" />
    <glyph glyph-name="thorn" unicode="&#xfe;" horiz-adv-x="540" 
d="M271 -15c-33 0 -65 7 -91 26v-211l101 -8l-2 -23l-144 2l-114 -2l-2 23l66 8v627l-67 -11l-3 22l134 35l26 2l4 -89l136 98c117 0 192 -92 192 -226c0 -153 -83 -244 -236 -273zM405 221c0 113 -41 192 -109 192c-31 0 -55 -15 -91 -40l-25 -18v-285
c20 -30 56 -50 98 -50c77 1 127 79 127 201z" />
    <glyph glyph-name="three" unicode="3" horiz-adv-x="474" 
d="M249 -141c56 37 78 84 78 134c0 74 -64 137 -188 136l-6 21l49 24c92 43 119 92 119 159c0 66 -40 108 -90 108c-25 0 -52 -9 -66 -17l-36 -117h-78v105l211 75c116 0 160 -67 160 -128c0 -70 -45 -133 -159 -177c116 -6 187 -74 187 -151c0 -110 -80 -159 -189 -209
l-112 -52h-102v89h222z" />
    <glyph glyph-name="two" unicode="2" horiz-adv-x="493" 
d="M200 87h263v-19l-27 -68h-403l-13 27l142 109c117 89 156 151 156 211c0 63 -33 97 -89 97c-28 0 -49 -10 -62 -16l-32 -120h-80v101l194 78c118 0 175 -56 174 -128c0 -92 -74 -157 -200 -229l-102 -55z" />
    <glyph glyph-name="u" unicode="u" horiz-adv-x="557" 
d="M466 473v-343c0 -42 5 -65 13 -89l51 3l2 -22l-136 -27l-22 89l-158 -99c-56 1 -90 12 -110 36c-20 25 -25 62 -25 116v290l-67 -7l-3 25l136 26l30 2v-339c0 -56 22 -79 65 -79c31 0 61 18 97 42l32 19v311l-62 -7l-3 25l130 26z" />
    <glyph glyph-name="uacute" unicode="&#xfa;" horiz-adv-x="557" 
d="M466 473v-343c0 -42 5 -65 13 -89l51 3l2 -22l-136 -27l-22 89l-158 -99c-56 1 -90 12 -110 36c-20 25 -25 62 -25 116v290l-67 -7l-3 25l136 26l30 2v-339c0 -56 22 -79 65 -79c31 0 61 18 97 42l32 19v311l-62 -7l-3 25l130 26z" />
    <glyph glyph-name="ubreve" unicode="&#x16d;" horiz-adv-x="557" 
d="M466 473v-343c0 -42 5 -65 13 -89l51 3l2 -22l-136 -27l-22 89l-158 -99c-56 1 -90 12 -110 36c-20 25 -25 62 -25 116v290l-67 -7l-3 25l136 26l30 2v-339c0 -56 22 -79 65 -79c31 0 61 18 97 42l32 19v311l-62 -7l-3 25l130 26z" />
    <glyph glyph-name="ucircumflex" unicode="&#xfb;" horiz-adv-x="557" 
d="M466 473v-343c0 -42 5 -65 13 -89l51 3l2 -22l-136 -27l-22 89l-158 -99c-56 1 -90 12 -110 36c-20 25 -25 62 -25 116v290l-67 -7l-3 25l136 26l30 2v-339c0 -56 22 -79 65 -79c31 0 61 18 97 42l32 19v311l-62 -7l-3 25l130 26z" />
    <glyph glyph-name="udieresis" unicode="&#xfc;" horiz-adv-x="557" 
d="M466 473v-343c0 -42 5 -65 13 -89l51 3l2 -22l-136 -27l-22 89l-158 -99c-56 1 -90 12 -110 36c-20 25 -25 62 -25 116v290l-67 -7l-3 25l136 26l30 2v-339c0 -56 22 -79 65 -79c31 0 61 18 97 42l32 19v311l-62 -7l-3 25l130 26z" />
    <glyph glyph-name="ugrave" unicode="&#xf9;" horiz-adv-x="557" 
d="M466 473v-343c0 -42 5 -65 13 -89l51 3l2 -22l-136 -27l-22 89l-158 -99c-56 1 -90 12 -110 36c-20 25 -25 62 -25 116v290l-67 -7l-3 25l136 26l30 2v-339c0 -56 22 -79 65 -79c31 0 61 18 97 42l32 19v311l-62 -7l-3 25l130 26z" />
    <glyph glyph-name="uhungarumlaut" unicode="&#x171;" horiz-adv-x="557" 
d="M466 473v-343c0 -42 5 -65 13 -89l51 3l2 -22l-136 -27l-22 89l-158 -99c-56 1 -90 12 -110 36c-20 25 -25 62 -25 116v290l-67 -7l-3 25l136 26l30 2v-339c0 -56 22 -79 65 -79c31 0 61 18 97 42l32 19v311l-62 -7l-3 25l130 26z" />
    <glyph glyph-name="umacron" unicode="&#x16b;" horiz-adv-x="557" 
d="M466 473v-343c0 -42 5 -65 13 -89l51 3l2 -22l-136 -27l-22 89l-158 -99c-56 1 -90 12 -110 36c-20 25 -25 62 -25 116v290l-67 -7l-3 25l136 26l30 2v-339c0 -56 22 -79 65 -79c31 0 61 18 97 42l32 19v311l-62 -7l-3 25l130 26z" />
    <glyph glyph-name="underscore" unicode="_" horiz-adv-x="385" 
d="M40 252v48h305v-48h-305z" />
    <glyph glyph-name="uni021A" unicode="&#x21a;" horiz-adv-x="589" 
d="M450 22l-2 -23l-153 2l-156 -2l-2 23l105 10v638l-146 -1l-59 -155h-24v187l282 -2l281 2v-187h-24l-59 155l-145 1v-638z" />
    <glyph glyph-name="uni021B" unicode="&#x21b;" horiz-adv-x="557" 
d="M466 473v-343c0 -42 5 -65 13 -89l51 3l2 -22l-136 -27l-22 89l-158 -99c-56 1 -90 12 -110 36c-20 25 -25 62 -25 116v290l-67 -7l-3 25l136 26l30 2v-339c0 -56 22 -79 65 -79c31 0 61 18 97 42l32 19v311l-62 -7l-3 25l130 26z" />
    <glyph glyph-name="uogonek" unicode="&#x173;" horiz-adv-x="557" 
d="M466 473v-343c0 -42 5 -65 13 -89l51 3l2 -22l-136 -27l-22 89l-158 -99c-56 1 -90 12 -110 36c-20 25 -25 62 -25 116v290l-67 -7l-3 25l136 26l30 2v-339c0 -56 22 -79 65 -79c31 0 61 18 97 42l32 19v311l-62 -7l-3 25l130 26z" />
    <glyph glyph-name="uring" unicode="&#x16f;" horiz-adv-x="557" 
d="M466 473v-343c0 -42 5 -65 13 -89l51 3l2 -22l-136 -27l-22 89l-158 -99c-56 1 -90 12 -110 36c-20 25 -25 62 -25 116v290l-67 -7l-3 25l136 26l30 2v-339c0 -56 22 -79 65 -79c31 0 61 18 97 42l32 19v311l-62 -7l-3 25l130 26z" />
    <glyph glyph-name="utilde" unicode="&#x169;" horiz-adv-x="557" 
d="M466 473v-343c0 -42 5 -65 13 -89l51 3l2 -22l-136 -27l-22 89l-158 -99c-56 1 -90 12 -110 36c-20 25 -25 62 -25 116v290l-67 -7l-3 25l136 26l30 2v-339c0 -56 22 -79 65 -79c31 0 61 18 97 42l32 19v311l-62 -7l-3 25l130 26z" />
    <glyph glyph-name="v" unicode="v" horiz-adv-x="536" 
d="M529 469l2 -22l-60 -9l-157 -421l-78 -34l-174 455l-57 9l3 22l112 -1l106 1l3 -22l-61 -9l117 -324l12 -55l129 379l-58 9l3 22l85 -1z" />
    <glyph glyph-name="w" unicode="w" horiz-adv-x="831" 
d="M532 -16l-107 302l-9 51l-110 -320l-83 -33l-161 454l-57 9l3 22l108 -1l101 1l3 -22l-56 -9l109 -327l12 -52l109 317l-22 62l-47 9l3 22l98 -1l101 1l2 -22l-56 -9l111 -330l10 -49l129 379l-58 9l3 22l75 -1l80 1l3 -22l-60 -9l-151 -421z" />
    <glyph glyph-name="wacute" unicode="&#x1e83;" horiz-adv-x="831" 
d="M532 -16l-107 302l-9 51l-110 -320l-83 -33l-161 454l-57 9l3 22l108 -1l101 1l3 -22l-56 -9l109 -327l12 -52l109 317l-22 62l-47 9l3 22l98 -1l101 1l2 -22l-56 -9l111 -330l10 -49l129 379l-58 9l3 22l75 -1l80 1l3 -22l-60 -9l-151 -421z" />
    <glyph glyph-name="wcircumflex" unicode="&#x175;" horiz-adv-x="831" 
d="M532 -16l-107 302l-9 51l-110 -320l-83 -33l-161 454l-57 9l3 22l108 -1l101 1l3 -22l-56 -9l109 -327l12 -52l109 317l-22 62l-47 9l3 22l98 -1l101 1l2 -22l-56 -9l111 -330l10 -49l129 379l-58 9l3 22l75 -1l80 1l3 -22l-60 -9l-151 -421z" />
    <glyph glyph-name="wdieresis" unicode="&#x1e85;" horiz-adv-x="831" 
d="M532 -16l-107 302l-9 51l-110 -320l-83 -33l-161 454l-57 9l3 22l108 -1l101 1l3 -22l-56 -9l109 -327l12 -52l109 317l-22 62l-47 9l3 22l98 -1l101 1l2 -22l-56 -9l111 -330l10 -49l129 379l-58 9l3 22l75 -1l80 1l3 -22l-60 -9l-151 -421z" />
    <glyph glyph-name="wgrave" unicode="&#x1e81;" horiz-adv-x="831" 
d="M532 -16l-107 302l-9 51l-110 -320l-83 -33l-161 454l-57 9l3 22l108 -1l101 1l3 -22l-56 -9l109 -327l12 -52l109 317l-22 62l-47 9l3 22l98 -1l101 1l2 -22l-56 -9l111 -330l10 -49l129 379l-58 9l3 22l75 -1l80 1l3 -22l-60 -9l-151 -421z" />
    <glyph glyph-name="x" unicode="x" horiz-adv-x="538" 
d="M129 30l66 -8l-3 -23l-87 2l-91 -2l-2 23l71 8l148 188l-151 220l-56 8l3 23l114 -1l94 1l2 -23l-37 -8l85 -130l11 -24l109 154l-65 8l2 23l86 -1l91 1l2 -23l-72 -8l-132 -172l158 -236l58 -8l-3 -23l-110 2l-100 -2l-3 23l40 8l-94 142l-12 24z" />
    <glyph glyph-name="y" unicode="y" horiz-adv-x="536" 
d="M201 -235h-115v97h100l101 169l-62 -26l-163 434l-57 8l3 22l112 -1l106 1l3 -22l-61 -8l117 -326l11 -53l130 378l-58 9l3 22l83 -1l75 1l2 -22l-61 -9l-152 -410z" />
    <glyph glyph-name="yacute" unicode="&#xfd;" horiz-adv-x="536" 
d="M201 -235h-115v97h100l101 169l-62 -26l-163 434l-57 8l3 22l112 -1l106 1l3 -22l-61 -8l117 -326l11 -53l130 378l-58 9l3 22l83 -1l75 1l2 -22l-61 -9l-152 -410z" />
    <glyph glyph-name="ycircumflex" unicode="&#x177;" horiz-adv-x="536" 
d="M201 -235h-115v97h100l101 169l-62 -26l-163 434l-57 8l3 22l112 -1l106 1l3 -22l-61 -8l117 -326l11 -53l130 378l-58 9l3 22l83 -1l75 1l2 -22l-61 -9l-152 -410z" />
    <glyph glyph-name="ydieresis" unicode="&#xff;" horiz-adv-x="536" 
d="M201 -235h-115v97h100l101 169l-62 -26l-163 434l-57 8l3 22l112 -1l106 1l3 -22l-61 -8l117 -326l11 -53l130 378l-58 9l3 22l83 -1l75 1l2 -22l-61 -9l-152 -410z" />
    <glyph glyph-name="ygrave" unicode="&#x1ef3;" horiz-adv-x="536" 
d="M201 -235h-115v97h100l101 169l-62 -26l-163 434l-57 8l3 22l112 -1l106 1l3 -22l-61 -8l117 -326l11 -53l130 378l-58 9l3 22l83 -1l75 1l2 -22l-61 -9l-152 -410z" />
    <glyph glyph-name="z" unicode="z" horiz-adv-x="464" 
d="M421 0h-380l-7 20l263 390l32 34l-189 -3l-53 -118h-25v146h366l8 -20l-264 -393l-27 -31l201 3l62 122h27z" />
    <glyph glyph-name="zacute" unicode="&#x17a;" horiz-adv-x="464" 
d="M421 0h-380l-7 20l263 390l32 34l-189 -3l-53 -118h-25v146h366l8 -20l-264 -393l-27 -31l201 3l62 122h27z" />
    <glyph glyph-name="zcaron" unicode="&#x17e;" horiz-adv-x="464" 
d="M421 0h-380l-7 20l263 390l32 34l-189 -3l-53 -118h-25v146h366l8 -20l-264 -393l-27 -31l201 3l62 122h27z" />
    <glyph glyph-name="zdotaccent" unicode="&#x17c;" horiz-adv-x="464" 
d="M421 0h-380l-7 20l263 390l32 34l-189 -3l-53 -118h-25v146h366l8 -20l-264 -393l-27 -31l201 3l62 122h27z" />
    <glyph glyph-name="zero" unicode="0" horiz-adv-x="576" 
d="M301 484c136 0 235 -100 235 -240c0 -144 -93 -225 -261 -259c-136 0 -235 100 -235 240c0 144 94 222 261 259zM147 251c0 -127 45 -228 152 -228c87 0 129 90 129 195c0 126 -45 227 -152 227c-87 0 -129 -90 -129 -194z" />
    <glyph glyph-name="uni0401" unicode="&#x401;" 
 />
    <glyph glyph-name="uni0403" unicode="&#x403;" 
 />
    <glyph glyph-name="uni0407" unicode="&#x407;" 
 />
    <glyph glyph-name="uni0409" unicode="&#x409;" 
 />
    <glyph glyph-name="uni040A" unicode="&#x40a;" 
 />
    <glyph glyph-name="uni040C" unicode="&#x40c;" 
 />
    <glyph glyph-name="uni040E" unicode="&#x40e;" 
 />
    <glyph glyph-name="uni0419" unicode="&#x419;" 
 />
    <glyph glyph-name="uni0439" unicode="&#x439;" 
 />
    <glyph glyph-name="uni0451" unicode="&#x451;" 
 />
    <glyph glyph-name="uni0453" unicode="&#x453;" 
 />
    <glyph glyph-name="uni0457" unicode="&#x457;" 
 />
    <glyph glyph-name="uni0459" unicode="&#x459;" 
 />
    <glyph glyph-name="uni045A" unicode="&#x45a;" 
 />
    <glyph glyph-name="uni045C" unicode="&#x45c;" 
 />
    <glyph glyph-name="uni045E" unicode="&#x45e;" 
 />
    <glyph glyph-name="uni0490" unicode="&#x490;" 
 />
    <glyph glyph-name="uni0491" unicode="&#x491;" 
 />
  </font>
</defs>
</svg>
