<?xml version="1.0" standalone="no"?>
<!DOCTYPE svg PUBLIC "-//W3C//DTD SVG 1.1//EN" "http://www.w3.org/Graphics/SVG/1.1/DTD/svg11.dtd" >
<svg>
<metadata>
Created by FontForge 20110222 at Mon Dec  7 17:00:36 2015
 By www-data
Copyright (c) 2015 Monotype Imaging Inc.  All rights reserved.
</metadata>
<defs>
<font id="NeueHaasUnicaPro-Light" horiz-adv-x="544" >
  <font-face 
    font-family="Neue Haas Unica Pro"
    font-weight="350"
    font-variant="small-caps"
    font-stretch="normal"
    units-per-em="1000"
    panose-1="2 11 4 4 3 2 6 2 2 3"
    ascent="764"
    descent="-236"
    x-height="508"
    cap-height="712"
    bbox="-155 -275 980 946"
    underline-thickness="50"
    underline-position="-75"
    stemh="53"
    stemv="62"
    unicode-range="U+0020-FEFF"
  />
<missing-glyph horiz-adv-x="614" 
d="M151 777h312c79 0 128 -49 128 -128v-586c0 -79 -49 -128 -128 -128h-312c-79 0 -128 49 -128 128v586c0 79 49 128 128 128zM463 736h-312c-53 0 -87 -34 -87 -87v-586c0 -53 34 -87 87 -87h312c53 0 87 34 87 87v586c0 53 -34 87 -87 87zM302 646
c99 0 166 -59 166 -145c0 -56 -13 -86 -84 -147c-60 -50 -69 -71 -69 -160h-57v25c0 84 15 114 80 173c56 49 62 69 62 109c0 54 -37 87 -98 87c-67 0 -105 -37 -109 -107h-63c6 108 67 165 172 165zM325 65h-77v81h77v-81z" />
    <glyph glyph-name="f_f" unicode="ff" horiz-adv-x="541" 
d="M495 663c-49 0 -73 -25 -73 -90v-65h102v-52h-102v-456h-62v456h-192v-456h-62v456h-91v52h91v71c0 93 44 137 125 137c15 0 31 -2 42 -4v-53c-7 2 -20 4 -32 4c-49 0 -73 -25 -73 -90v-65h192v71c0 93 44 137 125 137c14 0 31 -2 41 -4v-53c-7 2 -19 4 -31 4z" />
    <glyph glyph-name="f_f_i" unicode="ffi" horiz-adv-x="769" 
d="M360 508v71c0 93 44 137 125 137c14 0 31 -2 41 -4v-53c-7 2 -19 4 -31 4c-49 0 -73 -25 -73 -90v-65h102v-52h-102v-456h-62v456h-192v-456h-62v456h-91v52h91v71c0 93 44 137 125 137c15 0 31 -2 42 -4v-53c-7 2 -20 4 -32 4c-49 0 -73 -25 -73 -90v-65h192zM686 712
v-88h-62v88h62zM624 508h62v-508h-62v508z" />
    <glyph glyph-name="f_f_l" unicode="ffl" horiz-adv-x="769" 
d="M360 508v71c0 93 44 137 125 137c14 0 31 -2 41 -4v-53c-7 2 -19 4 -31 4c-49 0 -73 -25 -73 -90v-65h102v-52h-102v-456h-62v456h-192v-456h-62v456h-91v52h91v71c0 93 44 137 125 137c15 0 31 -2 42 -4v-53c-7 2 -20 4 -32 4c-49 0 -73 -25 -73 -90v-65h192zM686 712
v-712h-62v712h62z" />
    <glyph glyph-name="f_i" unicode="fi" horiz-adv-x="516" 
d="M106 508v71c0 93 44 137 125 137c15 0 31 -2 42 -4v-53c-7 2 -20 4 -32 4c-49 0 -73 -25 -73 -90v-65h103v-52h-103v-456h-62v456h-91v52h91zM432 712v-88h-62v88h62zM370 508h62v-508h-62v508z" />
    <glyph glyph-name="f_l" unicode="fl" horiz-adv-x="516" 
d="M106 508v71c0 93 44 137 125 137c15 0 31 -2 42 -4v-53c-7 2 -20 4 -32 4c-49 0 -73 -25 -73 -90v-65h103v-52h-103v-456h-62v456h-91v52h91zM432 712v-712h-62v712h62z" />
    <glyph glyph-name=".notdef" horiz-adv-x="614" 
d="M151 777h312c79 0 128 -49 128 -128v-586c0 -79 -49 -128 -128 -128h-312c-79 0 -128 49 -128 128v586c0 79 49 128 128 128zM463 736h-312c-53 0 -87 -34 -87 -87v-586c0 -53 34 -87 87 -87h312c53 0 87 34 87 87v586c0 53 -34 87 -87 87zM302 646
c99 0 166 -59 166 -145c0 -56 -13 -86 -84 -147c-60 -50 -69 -71 -69 -160h-57v25c0 84 15 114 80 173c56 49 62 69 62 109c0 54 -37 87 -98 87c-67 0 -105 -37 -109 -107h-63c6 108 67 165 172 165zM325 65h-77v81h77v-81z" />
    <glyph glyph-name="NULL" horiz-adv-x="600" 
 />
    <glyph glyph-name="space" unicode=" " horiz-adv-x="230" 
 />
    <glyph glyph-name="exclam" unicode="!" horiz-adv-x="251" 
d="M151 164h-51l-16 548h83zM165 0h-79v93h79v-93z" />
    <glyph glyph-name="quotedbl" unicode="&#x22;" horiz-adv-x="340" 
d="M126 454h-45l-10 258h65zM260 454h-46l-9 258h64z" />
    <glyph glyph-name="numbersign" unicode="#" horiz-adv-x="637" 
d="M468 429l-29 -181h127l-8 -49h-126l-32 -199h-54l32 199h-161l-32 -199h-55l32 199h-127l8 49h126l29 181h-127l8 49h127l31 196h55l-31 -196h161l31 196h54l-31 -196h126l-8 -49h-126zM414 429h-161l-29 -181h161z" />
    <glyph glyph-name="dollar" unicode="$" 
d="M498 175c0 -106 -74 -179 -199 -187v-87h-54v87c-129 10 -199 90 -200 232h68c0 -107 43 -163 132 -173v274c-96 27 -187 61 -187 190c0 102 69 168 187 175v78h54v-78c124 -10 188 -82 188 -220h-67c0 106 -40 153 -121 161v-251c106 -30 199 -61 199 -201zM126 511
c0 -76 43 -99 119 -121v238c-79 -6 -119 -44 -119 -117zM299 306v-260c84 7 131 52 131 128c0 86 -51 108 -131 132z" />
    <glyph glyph-name="percent" unicode="%" horiz-adv-x="841" 
d="M262 -30h-60l377 734h61zM192 687c94 0 147 -67 147 -187c0 -118 -53 -185 -147 -185s-147 67 -147 185c0 120 53 187 147 187zM192 633c-52 0 -82 -47 -82 -133c0 -85 30 -132 82 -132s83 47 83 132c0 86 -31 133 -83 133zM649 359c94 0 147 -67 147 -186
s-53 -186 -147 -186s-147 67 -147 186s53 186 147 186zM649 306c-52 0 -82 -48 -82 -133c0 -86 30 -132 82 -132s83 46 83 132c0 85 -31 133 -83 133z" />
    <glyph glyph-name="ampersand" unicode="&#x26;" horiz-adv-x="724" 
d="M626 0l-93 93c-57 -67 -138 -107 -231 -107c-145 0 -242 84 -242 202c0 90 51 161 164 215c-69 71 -87 108 -87 171c0 89 67 151 162 151c100 0 163 -62 163 -151c0 -80 -33 -131 -140 -184l204 -202c32 57 49 130 49 209h65c0 -97 -24 -185 -68 -254l144 -143h-90z
M299 669c-62 0 -101 -36 -101 -96c0 -46 16 -75 85 -145c98 48 118 91 118 145c0 56 -37 96 -102 96zM303 44c76 0 140 34 188 91l-229 229c-104 -51 -134 -103 -134 -175c0 -83 70 -145 175 -145z" />
    <glyph glyph-name="quotesingle" unicode="'" horiz-adv-x="207" 
d="M126 454h-45l-10 258h65z" />
    <glyph glyph-name="parenleft" unicode="(" horiz-adv-x="274" 
d="M187 741h57c-82 -144 -120 -276 -120 -444s38 -300 120 -444h-57c-86 130 -132 266 -132 444s46 314 132 444z" />
    <glyph glyph-name="parenright" unicode=")" horiz-adv-x="274" 
d="M30 741h58c85 -130 131 -266 131 -444s-46 -314 -131 -444h-58c83 144 120 276 120 444s-37 300 -120 444z" />
    <glyph glyph-name="asterisk" unicode="*" horiz-adv-x="398" 
d="M217 574l125 56l22 -66l-134 -23l91 -98l-56 -43l-66 122l-66 -122l-57 43l91 98l-133 23l22 66l125 -56l-16 138h68z" />
    <glyph glyph-name="plus" unicode="+" horiz-adv-x="566" 
d="M311 345h181v-57h-181v-180h-56v180h-181v57h181v181h56v-181z" />
    <glyph glyph-name="comma" unicode="," horiz-adv-x="210" 
d="M148 0l-41 -130h-45l30 130h-30v92h86v-92z" />
    <glyph glyph-name="hyphen" unicode="-" horiz-adv-x="290" 
d="M260 261h-230v62h230v-62z" />
    <glyph glyph-name="period" unicode="." horiz-adv-x="210" 
d="M148 0h-86v92h86v-92z" />
    <glyph glyph-name="slash" unicode="/" horiz-adv-x="442" 
d="M94 -89h-64l297 834h64z" />
    <glyph glyph-name="zero" unicode="0" 
d="M272 687c150 0 231 -122 231 -350c0 -227 -81 -350 -231 -350c-151 0 -232 123 -232 350c0 228 81 350 232 350zM272 626c-106 0 -163 -100 -163 -289c0 -190 57 -291 163 -291s163 101 163 291c0 189 -57 289 -163 289z" />
    <glyph glyph-name="one" unicode="1" 
d="M319 0h-65v509h-145v53c102 0 145 30 158 112h52v-674z" />
    <glyph glyph-name="two" unicode="2" 
d="M272 687c122 0 204 -76 204 -185c0 -117 -81 -172 -193 -237c-140 -82 -168 -132 -168 -206h376v-59h-442c-1 7 -1 14 -1 19c0 126 30 196 200 296c105 60 160 97 160 186c0 74 -54 125 -137 125c-95 0 -140 -54 -146 -143h-68c6 127 90 204 215 204z" />
    <glyph glyph-name="three" unicode="3" 
d="M264 687c131 0 213 -73 213 -181c0 -82 -38 -131 -116 -160v-2c86 -29 128 -81 128 -169c0 -110 -92 -188 -224 -188c-138 0 -219 80 -219 208h68c0 -97 53 -148 151 -148c92 0 156 52 156 130c0 88 -63 136 -174 136h-29v59h29c101 0 163 50 163 129
c0 76 -59 126 -149 126s-143 -48 -143 -144h-67c0 129 84 204 213 204z" />
    <glyph glyph-name="four" unicode="4" 
d="M518 185h-119v-185h-64v185h-313v64l291 425h86v-432h119v-57zM87 242h249v98v264h-2c-55 -82 -110 -161 -165 -242z" />
    <glyph glyph-name="five" unicode="5" 
d="M458 615h-303l-21 -233h2c30 37 83 59 138 59c131 0 214 -86 214 -222c0 -141 -88 -232 -224 -232c-124 0 -207 71 -207 190h67c2 -83 59 -130 139 -130c97 0 157 67 157 170c0 101 -58 164 -150 164c-73 0 -124 -37 -143 -108l-66 5l37 396h360v-59z" />
    <glyph glyph-name="six" unicode="6" 
d="M288 687c114 0 186 -69 199 -181h-68c-14 78 -58 121 -131 121c-105 0 -172 -90 -176 -282h2c39 60 97 94 172 94c126 0 211 -89 211 -222c0 -137 -89 -230 -219 -230c-146 0 -228 107 -228 322c0 248 88 378 238 378zM279 380c-90 0 -153 -68 -153 -162
c0 -104 58 -171 152 -171c90 0 151 67 151 170c0 97 -60 163 -150 163z" />
    <glyph glyph-name="seven" unicode="7" 
d="M491 674v-60c-104 -150 -199 -356 -252 -614h-74c67 284 165 481 255 615h-377v59h448z" />
    <glyph glyph-name="eight" unicode="8" 
d="M272 687c123 0 212 -76 212 -184c0 -73 -45 -123 -116 -153v-2c82 -28 129 -83 129 -165c0 -117 -93 -196 -225 -196c-133 0 -225 79 -225 196c0 82 46 137 128 165v2c-70 30 -115 80 -115 153c0 108 89 184 212 184zM272 627c-86 0 -145 -49 -145 -124
c0 -76 56 -126 145 -126c88 0 144 50 144 126c0 75 -59 124 -144 124zM272 318c-93 0 -157 -56 -157 -133c0 -84 63 -137 157 -137c93 0 157 53 157 137c0 77 -65 133 -157 133z" />
    <glyph glyph-name="nine" unicode="9" 
d="M254 -13c-114 0 -186 69 -199 181h68c14 -78 58 -121 132 -121c105 0 171 90 175 282h-2c-38 -60 -97 -94 -172 -94c-125 0 -211 89 -211 222c0 137 89 230 220 230c146 0 228 -107 228 -322c0 -248 -88 -378 -239 -378zM264 294c90 0 152 68 152 162
c0 104 -57 171 -151 171c-91 0 -151 -67 -151 -170c0 -97 59 -163 150 -163z" />
    <glyph glyph-name="colon" unicode=":" horiz-adv-x="210" 
d="M148 416h-86v92h86v-92zM148 0h-86v92h86v-92z" />
    <glyph glyph-name="semicolon" unicode=";" horiz-adv-x="210" 
d="M148 416h-86v92h86v-92zM148 0l-41 -130h-45l30 130h-30v92h86v-92z" />
    <glyph glyph-name="less" unicode="&#x3c;" horiz-adv-x="566" 
d="M492 469l-359 -151v-2l359 -151v-62l-418 176v76l418 176v-62z" />
    <glyph glyph-name="equal" unicode="=" horiz-adv-x="566" 
d="M492 365h-418v56h418v-56zM492 212h-418v56h418v-56z" />
    <glyph glyph-name="greater" unicode="&#x3e;" horiz-adv-x="566" 
d="M492 355v-76l-418 -176v62l359 151v2l-359 151v62z" />
    <glyph glyph-name="question" unicode="?" horiz-adv-x="501" 
d="M252 725c124 0 209 -73 209 -178c0 -70 -18 -108 -110 -184c-79 -65 -92 -93 -92 -208h-58v29c0 107 20 145 105 218c75 65 87 91 87 144c0 73 -56 120 -141 120c-93 0 -147 -50 -153 -143h-64c7 132 86 202 217 202zM269 0h-78v93h78v-93z" />
    <glyph glyph-name="at" unicode="@" horiz-adv-x="865" 
d="M442 688c224 0 370 -143 370 -362c0 -169 -86 -248 -183 -248c-58 0 -95 30 -104 93h-2c-29 -63 -77 -93 -141 -93c-89 0 -144 68 -145 192c1 147 78 248 187 248c64 0 102 -34 121 -84h2c3 21 8 50 13 74h58c-24 -113 -42 -241 -42 -296c0 -57 22 -81 62 -81
c61 0 117 60 117 195c0 187 -123 309 -313 309c-212 0 -331 -159 -331 -360c0 -202 124 -323 316 -323c87 0 162 20 221 57l25 -46c-65 -40 -148 -64 -246 -64c-227 0 -373 141 -373 376c0 228 144 413 388 413zM432 464c-76 0 -132 -76 -132 -194c0 -90 36 -137 98 -137
c66 0 127 62 127 211c0 76 -33 120 -93 120z" />
    <glyph glyph-name="A" unicode="A" horiz-adv-x="664" 
d="M499 230h-334l-89 -230h-70l282 712h89l281 -712h-70zM475 290l-28 74c-39 101 -75 193 -114 295h-2c-39 -102 -74 -194 -114 -295l-29 -74h287z" />
    <glyph glyph-name="B" unicode="B" horiz-adv-x="615" 
d="M101 712h221c156 0 230 -73 230 -180c0 -79 -41 -139 -116 -166v-2c79 -20 131 -83 131 -168c0 -119 -84 -196 -229 -196h-237v712zM166 655v-263h147c125 0 173 54 173 131c0 83 -50 132 -170 132h-150zM166 335v-278h164c112 0 169 49 169 140c0 84 -54 138 -186 138
h-147z" />
    <glyph glyph-name="C" unicode="C" horiz-adv-x="683" 
d="M351 725c169 0 269 -108 277 -251h-68c-10 115 -91 190 -209 190c-147 0 -237 -117 -237 -308s89 -308 235 -308c117 0 199 76 215 194h68c-15 -153 -120 -255 -283 -255c-188 0 -304 140 -304 369s117 369 306 369z" />
    <glyph glyph-name="D" unicode="D" horiz-adv-x="718" 
d="M101 712h208c232 0 364 -128 364 -356s-132 -356 -364 -356h-208v712zM166 653v-594h143c190 0 295 106 295 297s-105 297 -295 297h-143z" />
    <glyph glyph-name="E" unicode="E" horiz-adv-x="610" 
d="M544 653h-378v-258h359v-59h-359v-277h390v-59h-455v712h443v-59z" />
    <glyph glyph-name="F" unicode="F" horiz-adv-x="568" 
d="M534 653h-368v-269h346v-59h-346v-325h-65v712h433v-59z" />
    <glyph glyph-name="G" unicode="G" horiz-adv-x="724" 
d="M360 725c157 0 264 -88 276 -223h-68c-17 102 -92 162 -208 162c-153 0 -246 -118 -246 -310c0 -191 90 -306 236 -306c124 0 224 70 224 265h-209v59h272v-372h-61v109h-2c-36 -74 -127 -121 -231 -121c-182 0 -298 138 -298 366c0 230 120 371 315 371z" />
    <glyph glyph-name="H" unicode="H" horiz-adv-x="731" 
d="M630 0h-65v340h-399v-340h-65v712h65v-313h399v313h65v-712z" />
    <glyph glyph-name="I" unicode="I" horiz-adv-x="267" 
d="M166 0h-65v712h65v-712z" />
    <glyph glyph-name="J" unicode="J" horiz-adv-x="337" 
d="M242 712v-519c0 -132 -68 -197 -185 -197c-15 0 -31 2 -42 5v60c16 -3 28 -4 41 -4c78 0 120 41 120 138v517h66z" />
    <glyph glyph-name="K" unicode="K" horiz-adv-x="607" 
d="M239 372l363 -372h-91l-343 357h-2v-357h-65v712h65v-325h2l314 325h88z" />
    <glyph glyph-name="L" unicode="L" horiz-adv-x="553" 
d="M166 59h377v-59h-442v712h65v-653z" />
    <glyph glyph-name="M" unicode="M" horiz-adv-x="909" 
d="M808 0h-65v365c0 92 0 184 1 276h-2c-37 -94 -72 -185 -108 -278l-142 -363h-76l-141 363c-36 93 -72 184 -108 278h-2c1 -92 1 -184 1 -276v-365h-65v712h105l141 -364l106 -278h2c35 92 72 187 107 278l141 364h105v-712z" />
    <glyph glyph-name="N" unicode="N" horiz-adv-x="745" 
d="M644 0h-99l-185 316c-66 112 -129 222 -193 331h-2c0 -119 1 -237 1 -356v-291h-65v712h99l185 -316c66 -112 129 -222 193 -331h2c-1 119 -1 237 -1 356v291h65v-712z" />
    <glyph glyph-name="O" unicode="O" horiz-adv-x="724" 
d="M362 725c193 0 316 -144 316 -369s-123 -369 -316 -369s-317 144 -317 369s124 369 317 369zM362 664c-152 0 -248 -120 -248 -308s96 -308 248 -308c151 0 248 120 248 308s-97 308 -248 308z" />
    <glyph glyph-name="P" unicode="P" horiz-adv-x="606" 
d="M101 712h232c159 0 243 -82 243 -207c0 -126 -84 -208 -243 -208h-167v-297h-65v712zM166 653v-297h166c116 0 176 56 176 149c0 92 -60 148 -176 148h-166z" />
    <glyph glyph-name="Q" unicode="Q" horiz-adv-x="723" 
d="M677 356c0 -115 -32 -209 -89 -274l79 -84l-45 -43l-79 86c-49 -35 -109 -54 -178 -54c-195 0 -320 144 -320 369s125 369 320 369c191 0 312 -144 312 -369zM365 48c51 0 96 14 133 41l-91 98l45 42l91 -98c42 54 66 131 66 225c0 187 -95 308 -244 308
c-154 0 -251 -121 -251 -308c0 -188 97 -308 251 -308z" />
    <glyph glyph-name="R" unicode="R" horiz-adv-x="627" 
d="M101 712h209c168 0 244 -71 244 -190c0 -92 -55 -162 -138 -179v-2c53 -16 75 -46 106 -133l75 -208h-71l-68 198c-31 89 -66 116 -145 116h-147v-314h-65v712zM166 653v-280h148c121 0 174 64 173 148c0 90 -64 132 -178 132h-143z" />
    <glyph glyph-name="S" unicode="S" horiz-adv-x="599" 
d="M282 725c165 0 248 -80 248 -234h-66c0 121 -66 175 -182 175c-100 0 -157 -49 -157 -129c0 -85 61 -110 180 -139c135 -33 238 -67 238 -208c0 -124 -94 -203 -243 -203c-161 0 -255 85 -255 250h65c0 -133 75 -190 190 -190c116 0 177 52 177 142
c0 88 -65 112 -188 143c-137 34 -230 68 -230 204c0 111 83 189 223 189z" />
    <glyph glyph-name="T" unicode="T" horiz-adv-x="592" 
d="M582 653h-254v-653h-65v653h-253v59h572v-59z" />
    <glyph glyph-name="U" unicode="U" horiz-adv-x="699" 
d="M604 712v-448c0 -181 -89 -277 -254 -277s-255 96 -255 277v448h65v-447c0 -147 72 -217 190 -217s189 70 189 217v447h65z" />
    <glyph glyph-name="V" unicode="V" horiz-adv-x="617" 
d="M353 0h-88l-258 712h69l121 -337l111 -312h2c37 104 73 208 110 312l121 337h69z" />
    <glyph glyph-name="W" unicode="W" horiz-adv-x="896" 
d="M711 0h-102l-80 325c-27 109 -54 218 -80 327h-2c-26 -109 -53 -218 -80 -327l-80 -325h-102l-174 712h66l74 -303c29 -116 57 -232 85 -348h2c29 116 57 234 86 350l74 301h100l74 -301c29 -116 57 -234 86 -350h2l84 348l75 303h66z" />
    <glyph glyph-name="X" unicode="X" horiz-adv-x="617" 
d="M349 367l258 -367h-80l-218 313h-2l-218 -313h-79l258 367l-244 345h79l204 -292h2l205 292h79z" />
    <glyph glyph-name="Y" unicode="Y" horiz-adv-x="602" 
d="M334 304v-304h-66v304l-263 408h77l98 -154c40 -63 80 -127 120 -191h2c40 64 80 128 121 191l97 154h77z" />
    <glyph glyph-name="Z" unicode="Z" horiz-adv-x="558" 
d="M521 644l-429 -583v-2h448v-59h-523v68l429 583v2h-420v59h495v-68z" />
    <glyph glyph-name="bracketleft" unicode="[" horiz-adv-x="281" 
d="M261 693h-121v-793h121v-48h-182v889h182v-48z" />
    <glyph glyph-name="backslash" unicode="\" horiz-adv-x="442" 
d="M115 745l297 -834h-64l-297 834h64z" />
    <glyph glyph-name="bracketright" unicode="]" horiz-adv-x="281" 
d="M202 741v-889h-182v48h121v793h-121v48h182z" />
    <glyph glyph-name="asciicircum" unicode="^" horiz-adv-x="426" 
d="M413 371h-59l-140 290h-2l-140 -290h-59l166 341h68z" />
    <glyph glyph-name="underscore" unicode="_" horiz-adv-x="500" 
d="M500 -88h-500v38h500v-38z" />
    <glyph glyph-name="grave" unicode="`" horiz-adv-x="274" 
d="M134 712l90 -141h-59l-115 141h84z" />
    <glyph glyph-name="a" unicode="a" horiz-adv-x="524" 
d="M256 521c114 0 190 -61 190 -195v-201c0 -52 5 -96 11 -125h-58c-5 24 -7 54 -7 77h-2c-33 -55 -92 -87 -181 -87c-104 0 -172 61 -172 146c0 83 47 133 193 156c47 8 111 15 156 18v24c0 95 -54 134 -130 134c-86 0 -129 -47 -133 -113h-65c6 95 75 166 198 166z
M386 219v39c-43 -3 -105 -11 -148 -18c-102 -15 -135 -44 -135 -100c0 -59 44 -98 119 -98c47 0 89 16 117 45c34 36 47 64 47 132z" />
    <glyph glyph-name="b" unicode="b" horiz-adv-x="565" 
d="M145 433h2c26 53 87 88 160 88c131 0 214 -104 214 -266s-83 -266 -214 -266c-73 0 -134 35 -160 88h-2v-77h-62v712h62v-279zM297 469c-94 0 -155 -84 -155 -214s61 -214 155 -214c97 0 159 84 159 214s-62 214 -159 214z" />
    <glyph glyph-name="c" unicode="c" horiz-adv-x="521" 
d="M274 521c115 0 197 -77 206 -188h-65c-6 78 -63 134 -141 134c-102 0 -163 -81 -163 -213c0 -133 61 -213 163 -213c78 0 134 64 141 140h65c-9 -110 -88 -194 -206 -194c-142 0 -230 101 -230 267s88 267 230 267z" />
    <glyph glyph-name="d" unicode="d" horiz-adv-x="565" 
d="M482 0h-62v77h-2c-26 -53 -87 -88 -160 -88c-131 0 -214 104 -214 266s83 266 214 266c73 0 134 -35 160 -88h2v279h62v-712zM268 469c-97 0 -159 -84 -159 -214s62 -214 159 -214c94 0 155 84 155 214s-61 214 -155 214z" />
    <glyph glyph-name="e" unicode="e" horiz-adv-x="539" 
d="M276 40c83 0 136 46 151 111h64c-16 -87 -87 -164 -215 -164c-145 0 -232 108 -232 276c0 150 85 258 228 258c114 0 193 -69 215 -181c6 -27 8 -61 8 -98h-388c3 -135 75 -202 169 -202zM272 468c-93 0 -158 -66 -164 -175h327c-7 113 -72 175 -163 175z" />
    <glyph glyph-name="f" unicode="f" horiz-adv-x="287" 
d="M241 663c-49 0 -73 -25 -73 -90v-65h103v-52h-103v-456h-62v456h-91v52h91v71c0 93 44 137 125 137c15 0 31 -2 42 -4v-53c-7 2 -20 4 -32 4z" />
    <glyph glyph-name="g" unicode="g" horiz-adv-x="565" 
d="M262 521c67 0 122 -31 156 -89h2v76h62v-477c0 -147 -74 -223 -213 -223c-126 0 -203 60 -204 160h63c2 -69 56 -108 141 -108c103 0 151 55 151 174v60h-2c-34 -57 -90 -89 -156 -89c-133 0 -218 102 -218 258s85 258 218 258zM264 468c-95 0 -155 -81 -155 -205
s60 -205 155 -205c99 0 159 78 159 205s-60 205 -159 205z" />
    <glyph glyph-name="h" unicode="h" horiz-adv-x="563" 
d="M145 440h2c35 54 95 79 157 79c117 0 181 -70 181 -210v-309h-62v306c0 120 -49 159 -130 159c-79 0 -148 -57 -148 -164v-301h-62v712h62v-272z" />
    <glyph glyph-name="i" unicode="i" horiz-adv-x="228" 
d="M145 624h-62v88h62v-88zM145 0h-62v508h62v-508z" />
    <glyph glyph-name="j" unicode="j" horiz-adv-x="235" 
d="M152 624h-62v88h62v-88zM152 508v-545c0 -111 -53 -152 -133 -152c-12 0 -23 1 -36 4v54c11 -2 21 -3 30 -3c49 0 77 25 77 98v544h62z" />
    <glyph glyph-name="k" unicode="k" horiz-adv-x="479" 
d="M486 0h-86l-253 262h-2v-262h-62v712h62v-417h2l226 213h84l-246 -228z" />
    <glyph glyph-name="l" unicode="l" horiz-adv-x="228" 
d="M145 0h-62v712h62v-712z" />
    <glyph glyph-name="m" unicode="m" horiz-adv-x="845" 
d="M601 519c107 0 166 -68 166 -204v-315h-62v311c0 116 -42 154 -114 154c-82 0 -135 -66 -135 -164v-301h-62v327c0 87 -42 138 -114 138c-81 0 -135 -68 -135 -172v-293h-62v508h62v-66h2c36 50 83 77 142 77c69 0 126 -36 151 -101c32 64 87 101 161 101z" />
    <glyph glyph-name="n" unicode="n" horiz-adv-x="563" 
d="M304 519c117 0 181 -70 181 -210v-309h-62v306c0 120 -49 159 -130 159c-79 0 -148 -57 -148 -164v-301h-62v508h61v-69h2c31 48 88 80 158 80z" />
    <glyph glyph-name="o" unicode="o" horiz-adv-x="552" 
d="M276 521c144 0 232 -101 232 -267s-88 -267 -232 -267s-232 101 -232 267s88 267 232 267zM276 467c-105 0 -167 -81 -167 -213s62 -213 167 -213s168 81 168 213s-63 213 -168 213z" />
    <glyph glyph-name="p" unicode="p" horiz-adv-x="565" 
d="M307 521c131 0 214 -104 214 -266s-83 -266 -214 -266c-73 0 -134 35 -160 88h-2v-262h-62v693h62v-75h2c26 52 87 88 160 88zM297 469c-94 0 -155 -84 -155 -214s61 -214 155 -214c97 0 159 84 159 214s-62 214 -159 214z" />
    <glyph glyph-name="q" unicode="q" horiz-adv-x="565" 
d="M258 521c73 0 134 -36 160 -88h2v75h62v-693h-62v262h-2c-26 -53 -87 -88 -160 -88c-131 0 -214 104 -214 266s83 266 214 266zM268 469c-97 0 -159 -84 -159 -214s62 -214 159 -214c94 0 155 84 155 214s-61 214 -155 214z" />
    <glyph glyph-name="r" unicode="r" horiz-adv-x="347" 
d="M301 512c11 0 24 -1 34 -3v-59c-8 1 -21 2 -32 2c-101 0 -158 -66 -158 -184v-268h-62v508h61v-80h2c34 55 88 84 155 84z" />
    <glyph glyph-name="s" unicode="s" horiz-adv-x="479" 
d="M230 521c120 0 190 -63 191 -174h-62c0 77 -48 120 -129 120c-70 0 -115 -33 -115 -84c0 -62 40 -70 128 -91c95 -22 193 -42 193 -157c0 -88 -74 -148 -190 -148c-128 0 -203 66 -205 184h63c0 -83 52 -130 142 -130c76 0 128 36 128 90c0 67 -44 79 -151 104
c-85 20 -170 37 -170 143c0 86 73 143 177 143z" />
    <glyph glyph-name="t" unicode="t" horiz-adv-x="302" 
d="M238 51c13 0 27 2 35 4v-53c-13 -3 -31 -5 -46 -5c-87 0 -124 39 -124 137v322h-91v52h91v118h62v-118h103v-52h-103v-321c0 -60 20 -84 73 -84z" />
    <glyph glyph-name="u" unicode="u" horiz-adv-x="563" 
d="M259 -11c-116 0 -181 70 -181 210v309h62v-306c0 -120 49 -159 130 -159c79 0 148 57 148 164v301h62v-508h-61v69h-2c-30 -48 -88 -80 -158 -80z" />
    <glyph glyph-name="v" unicode="v" horiz-adv-x="450" 
d="M265 0h-80l-190 508h67l80 -220c28 -78 54 -149 82 -228h2c28 79 54 150 82 228l80 220h67z" />
    <glyph glyph-name="w" unicode="w" horiz-adv-x="750" 
d="M595 0h-89l-66 230c-22 75 -43 147 -64 222h-2c-21 -75 -42 -147 -64 -222l-66 -230h-89l-147 508h64l62 -220c22 -76 44 -156 65 -232h2l63 225l64 227h94l64 -227l63 -225h2c21 76 43 156 65 232l62 220h64z" />
    <glyph glyph-name="x" unicode="x" horiz-adv-x="467" 
d="M270 266l197 -266h-77l-156 219h-2l-156 -219h-76l196 266l-178 242h76l138 -198h2l139 198h75z" />
    <glyph glyph-name="y" unicode="y" horiz-adv-x="456" 
d="M461 508l-210 -532c-53 -132 -97 -165 -196 -165c-13 0 -26 1 -37 4v55c11 -3 24 -4 36 -4c74 0 99 24 141 134l-200 508h67l165 -429h2l165 429h67z" />
    <glyph glyph-name="z" unicode="z" horiz-adv-x="461" 
d="M426 450l-324 -394v-2h334v-54h-411v58l324 394v2h-314v54h391v-58z" />
    <glyph glyph-name="braceleft" unicode="{" horiz-adv-x="283" 
d="M259 741v-44c-66 -1 -92 -30 -92 -106v-173c0 -67 -19 -100 -79 -120v-3c60 -20 79 -53 79 -120v-173c0 -76 26 -105 92 -106v-44h-22c-89 0 -130 47 -130 154v167c0 60 -18 85 -67 100v47c49 15 67 40 67 100v167c0 107 41 154 130 154h22z" />
    <glyph glyph-name="bar" unicode="|" horiz-adv-x="262" 
d="M160 -205h-58v937h58v-937z" />
    <glyph glyph-name="braceright" unicode="}" horiz-adv-x="283" 
d="M23 741h22c89 0 131 -47 131 -154v-167c0 -60 17 -85 67 -100v-47c-50 -15 -67 -40 -67 -100v-167c0 -107 -42 -154 -131 -154h-22v44c67 1 92 30 92 106v173c0 67 20 100 79 120v3c-59 20 -79 53 -79 120v173c0 76 -25 105 -92 106v44z" />
    <glyph glyph-name="asciitilde" unicode="~" horiz-adv-x="578" 
d="M166 405c112 0 159 -120 248 -120c55 0 90 44 90 109h49c0 -99 -57 -166 -140 -166c-113 0 -160 121 -249 121c-55 0 -90 -44 -90 -109h-49c0 99 57 165 141 165z" />
    <glyph glyph-name="Aacute" unicode="&#xc1;" horiz-adv-x="664" 
d="M333 760h-59l90 135h84zM499 230h-334l-89 -230h-70l282 712h89l281 -712h-70zM475 290l-28 74c-39 101 -75 193 -114 295h-2c-39 -102 -74 -194 -114 -295l-29 -74h287z" />
    <glyph glyph-name="Abreve" unicode="&#x102;" horiz-adv-x="664" 
d="M332 756c-86 0 -138 51 -146 139h51c8 -58 42 -90 95 -90s86 32 95 90h51c-8 -88 -60 -139 -146 -139zM499 230h-334l-89 -230h-70l282 712h89l281 -712h-70zM475 290l-28 74c-39 101 -75 193 -114 295h-2c-39 -102 -74 -194 -114 -295l-29 -74h287z" />
    <glyph glyph-name="Acircumflex" unicode="&#xc2;" horiz-adv-x="664" 
d="M252 760h-69l114 135h71l114 -135h-69l-81 95zM499 230h-334l-89 -230h-70l282 712h89l281 -712h-70zM475 290l-28 74c-39 101 -75 193 -114 295h-2c-39 -102 -74 -194 -114 -295l-29 -74h287z" />
    <glyph glyph-name="Adieresis" unicode="&#xc4;" horiz-adv-x="664" 
d="M270 778h-61v88h61v-88zM454 778h-61v88h61v-88zM499 230h-334l-89 -230h-70l282 712h89l281 -712h-70zM475 290l-28 74c-39 101 -75 193 -114 295h-2c-39 -102 -74 -194 -114 -295l-29 -74h287z" />
    <glyph glyph-name="Agrave" unicode="&#xc0;" horiz-adv-x="664" 
d="M331 760l-115 135h84l90 -135h-59zM499 230h-334l-89 -230h-70l282 712h89l281 -712h-70zM475 290l-28 74c-39 101 -75 193 -114 295h-2c-39 -102 -74 -194 -114 -295l-29 -74h287z" />
    <glyph glyph-name="Amacron" unicode="&#x100;" horiz-adv-x="664" 
d="M463 793h-263v52h263v-52zM499 230h-334l-89 -230h-70l282 712h89l281 -712h-70zM475 290l-28 74c-39 101 -75 193 -114 295h-2c-39 -102 -74 -194 -114 -295l-29 -74h287z" />
    <glyph glyph-name="Aogonek" unicode="&#x104;" horiz-adv-x="664" 
d="M621 -147c13 0 27 2 40 7v-44c-12 -5 -28 -8 -49 -8c-63 0 -92 29 -92 75c0 44 25 76 78 117h-10l-89 230h-334l-89 -230h-70l282 712h89l281 -712c-61 -46 -80 -76 -80 -110c0 -24 16 -37 43 -37zM475 290l-28 74c-39 101 -75 193 -114 295h-2
c-39 -102 -74 -194 -114 -295l-29 -74h287z" />
    <glyph glyph-name="Aring" unicode="&#xc5;" horiz-adv-x="664" 
d="M332 753c-54 0 -97 43 -97 97c0 53 43 96 97 96c53 0 96 -43 96 -96c0 -54 -43 -97 -96 -97zM332 909c-33 0 -60 -27 -60 -59c0 -34 27 -60 60 -60s59 26 59 60c0 32 -26 59 -59 59zM499 230h-334l-89 -230h-70l282 712h89l281 -712h-70zM475 290l-28 74
c-39 101 -75 193 -114 295h-2c-39 -102 -74 -194 -114 -295l-29 -74h287z" />
    <glyph glyph-name="Atilde" unicode="&#xc3;" horiz-adv-x="664" 
d="M262 834c-27 0 -43 -19 -46 -54h-48c4 68 39 105 93 105c58 0 99 -53 142 -53c27 0 43 19 46 53h48c-4 -68 -39 -105 -93 -105c-58 0 -98 54 -142 54zM499 230h-334l-89 -230h-70l282 712h89l281 -712h-70zM475 290l-28 74c-39 101 -75 193 -114 295h-2
c-39 -102 -74 -194 -114 -295l-29 -74h287z" />
    <glyph glyph-name="AE" unicode="&#xc6;" horiz-adv-x="924" 
d="M869 59v-59h-359l-37 247h-281l-124 -247h-74l357 712h506v-59h-380l39 -258h322v-59h-313l42 -277h302zM464 306l-52 347h-17l-174 -347h243z" />
    <glyph glyph-name="Cacute" unicode="&#x106;" horiz-adv-x="683" 
d="M352 760h-59l90 135h84zM351 725c169 0 269 -108 277 -251h-68c-10 115 -91 190 -209 190c-147 0 -237 -117 -237 -308s89 -308 235 -308c117 0 199 76 215 194h68c-15 -153 -120 -255 -283 -255c-188 0 -304 140 -304 369s117 369 306 369z" />
    <glyph glyph-name="Ccaron" unicode="&#x10c;" horiz-adv-x="683" 
d="M386 760h-71l-114 135h69l81 -95l80 95h69zM351 725c169 0 269 -108 277 -251h-68c-10 115 -91 190 -209 190c-147 0 -237 -117 -237 -308s89 -308 235 -308c117 0 199 76 215 194h68c-15 -153 -120 -255 -283 -255c-188 0 -304 140 -304 369s117 369 306 369z" />
    <glyph glyph-name="Ccedilla" unicode="&#xc7;" horiz-adv-x="683" 
d="M564 242h68c-14 -143 -107 -242 -253 -254l-34 -51c5 1 14 2 23 2c43 0 78 -27 78 -72s-34 -85 -105 -85c-37 0 -72 11 -100 27l15 32c26 -14 53 -20 78 -20c38 0 60 16 60 44c0 27 -21 43 -56 43c-12 0 -22 -2 -31 -5l-16 18l44 66c-180 7 -290 146 -290 369
c0 229 117 369 306 369c169 0 269 -108 277 -251h-68c-10 115 -91 190 -209 190c-147 0 -237 -117 -237 -308s89 -308 235 -308c117 0 199 76 215 194z" />
    <glyph glyph-name="Ccircumflex" unicode="&#x108;" horiz-adv-x="683" 
d="M315 895h71l114 -135h-69l-81 95l-80 -95h-69zM351 725c169 0 269 -108 277 -251h-68c-10 115 -91 190 -209 190c-147 0 -237 -117 -237 -308s89 -308 235 -308c117 0 199 76 215 194h68c-15 -153 -120 -255 -283 -255c-188 0 -304 140 -304 369s117 369 306 369z" />
    <glyph glyph-name="Cdotaccent" unicode="&#x10a;" horiz-adv-x="683" 
d="M381 769h-62v88h62v-88zM351 725c169 0 269 -108 277 -251h-68c-10 115 -91 190 -209 190c-147 0 -237 -117 -237 -308s89 -308 235 -308c117 0 199 76 215 194h68c-15 -153 -120 -255 -283 -255c-188 0 -304 140 -304 369s117 369 306 369z" />
    <glyph glyph-name="Eth" unicode="&#xd0;" horiz-adv-x="718" 
d="M101 712h208c232 0 364 -128 364 -356s-132 -356 -364 -356h-208v333h-66v55h66v324zM166 59h143c190 0 295 106 295 297s-105 297 -295 297h-143v-265h220v-55h-220v-274z" />
    <glyph glyph-name="Dcaron" unicode="&#x10e;" horiz-adv-x="718" 
d="M362 760h-71l-114 135h69l81 -95l80 95h69zM101 712h208c232 0 364 -128 364 -356s-132 -356 -364 -356h-208v712zM166 653v-594h143c190 0 295 106 295 297s-105 297 -295 297h-143z" />
    <glyph glyph-name="Dcroat" unicode="&#x110;" horiz-adv-x="718" 
d="M101 712h208c232 0 364 -128 364 -356s-132 -356 -364 -356h-208v333h-66v55h66v324zM166 59h143c190 0 295 106 295 297s-105 297 -295 297h-143v-265h220v-55h-220v-274z" />
    <glyph glyph-name="Eacute" unicode="&#xc9;" horiz-adv-x="610" 
d="M324 760h-59l90 135h84zM544 653h-378v-258h359v-59h-359v-277h390v-59h-455v712h443v-59z" />
    <glyph glyph-name="Ebreve" unicode="&#x114;" horiz-adv-x="610" 
d="M417 895h51c-8 -88 -60 -139 -146 -139s-138 51 -146 139h51c8 -58 42 -90 95 -90s86 32 95 90zM544 653h-378v-258h359v-59h-359v-277h390v-59h-455v712h443v-59z" />
    <glyph glyph-name="Ecaron" unicode="&#x11a;" horiz-adv-x="610" 
d="M358 760h-71l-114 135h69l81 -95l80 95h69zM544 653h-378v-258h359v-59h-359v-277h390v-59h-455v712h443v-59z" />
    <glyph glyph-name="Ecircumflex" unicode="&#xca;" horiz-adv-x="610" 
d="M287 895h71l114 -135h-69l-81 95l-80 -95h-69zM544 653h-378v-258h359v-59h-359v-277h390v-59h-455v712h443v-59z" />
    <glyph glyph-name="Edieresis" unicode="&#xcb;" horiz-adv-x="610" 
d="M260 778h-61v88h61v-88zM444 778h-61v88h61v-88zM544 653h-378v-258h359v-59h-359v-277h390v-59h-455v712h443v-59z" />
    <glyph glyph-name="Edotaccent" unicode="&#x116;" horiz-adv-x="610" 
d="M353 769h-62v88h62v-88zM544 653h-378v-258h359v-59h-359v-277h390v-59h-455v712h443v-59z" />
    <glyph glyph-name="Egrave" unicode="&#xc8;" horiz-adv-x="610" 
d="M290 895l90 -135h-59l-115 135h84zM544 653h-378v-258h359v-59h-359v-277h390v-59h-455v712h443v-59z" />
    <glyph glyph-name="Emacron" unicode="&#x112;" horiz-adv-x="610" 
d="M453 793h-263v52h263v-52zM544 653h-378v-258h359v-59h-359v-277h390v-59h-455v712h443v-59z" />
    <glyph glyph-name="Eogonek" unicode="&#x118;" horiz-adv-x="610" 
d="M519 -147c13 0 27 2 40 7v-44c-12 -5 -28 -8 -49 -8c-63 0 -92 29 -92 75c0 44 25 76 78 117h-395v712h443v-59h-378v-258h359v-59h-359v-277h390v-59c-61 -46 -80 -76 -80 -110c0 -24 16 -37 43 -37z" />
    <glyph glyph-name="Gbreve" unicode="&#x11e;" horiz-adv-x="724" 
d="M451 895h51c-8 -88 -60 -139 -146 -139s-138 51 -146 139h51c8 -58 42 -90 95 -90s86 32 95 90zM360 725c157 0 264 -88 276 -223h-68c-17 102 -92 162 -208 162c-153 0 -246 -118 -246 -310c0 -191 90 -306 236 -306c124 0 224 70 224 265h-209v59h272v-372h-61v109h-2
c-36 -74 -127 -121 -231 -121c-182 0 -298 138 -298 366c0 230 120 371 315 371z" />
    <glyph glyph-name="Gcircumflex" unicode="&#x11c;" horiz-adv-x="724" 
d="M320 895h71l114 -135h-69l-81 95l-80 -95h-69zM360 725c157 0 264 -88 276 -223h-68c-17 102 -92 162 -208 162c-153 0 -246 -118 -246 -310c0 -191 90 -306 236 -306c124 0 224 70 224 265h-209v59h272v-372h-61v109h-2c-36 -74 -127 -121 -231 -121
c-182 0 -298 138 -298 366c0 230 120 371 315 371z" />
    <glyph glyph-name="Gcommaaccent" unicode="&#x122;" horiz-adv-x="724" 
d="M360 725c157 0 264 -88 276 -223h-68c-17 102 -92 162 -208 162c-153 0 -246 -118 -246 -310c0 -191 90 -306 236 -306c124 0 224 70 224 265h-209v59h272v-372h-61v109h-2c-36 -74 -127 -121 -231 -121c-182 0 -298 138 -298 366c0 230 120 371 315 371zM391 -149
l-49 -102h-29l35 102h-28v81h71v-81z" />
    <glyph glyph-name="Gdotaccent" unicode="&#x120;" horiz-adv-x="724" 
d="M386 769h-62v88h62v-88zM360 725c157 0 264 -88 276 -223h-68c-17 102 -92 162 -208 162c-153 0 -246 -118 -246 -310c0 -191 90 -306 236 -306c124 0 224 70 224 265h-209v59h272v-372h-61v109h-2c-36 -74 -127 -121 -231 -121c-182 0 -298 138 -298 366
c0 230 120 371 315 371z" />
    <glyph glyph-name="Hbar" unicode="&#x126;" horiz-adv-x="731" 
d="M690 576h-60v-576h-65v340h-399v-340h-65v576h-60v53h60v83h65v-83h399v83h65v-83h60v-53zM565 576h-399v-177h399v177z" />
    <glyph glyph-name="Hcircumflex" unicode="&#x124;" horiz-adv-x="731" 
d="M330 895h71l114 -135h-69l-81 95l-80 -95h-69zM630 0h-65v340h-399v-340h-65v712h65v-313h399v313h65v-712z" />
    <glyph glyph-name="IJ" unicode="&#x132;" horiz-adv-x="604" 
d="M166 0h-65v712h65v-712zM509 712v-519c0 -132 -68 -197 -185 -197c-15 0 -31 2 -42 5v60c16 -3 28 -4 41 -4c78 0 120 41 120 138v517h66z" />
    <glyph glyph-name="Iacute" unicode="&#xcd;" horiz-adv-x="267" 
d="M135 760h-59l90 135h84zM166 0h-65v712h65v-712z" />
    <glyph glyph-name="Ibreve" unicode="&#x12c;" horiz-adv-x="267" 
d="M229 895h51c-8 -88 -60 -139 -146 -139s-138 51 -146 139h51c8 -58 42 -90 95 -90s86 32 95 90zM166 0h-65v712h65v-712z" />
    <glyph glyph-name="Icircumflex" unicode="&#xce;" horiz-adv-x="267" 
d="M98 895h71l114 -135h-69l-81 95l-80 -95h-69zM166 0h-65v712h65v-712z" />
    <glyph glyph-name="Idieresis" unicode="&#xcf;" horiz-adv-x="267" 
d="M71 778h-61v88h61v-88zM255 778h-61v88h61v-88zM166 0h-65v712h65v-712z" />
    <glyph glyph-name="Idotaccent" unicode="&#x130;" horiz-adv-x="267" 
d="M164 769h-62v88h62v-88zM166 0h-65v712h65v-712z" />
    <glyph glyph-name="Igrave" unicode="&#xcc;" horiz-adv-x="267" 
d="M101 895l90 -135h-59l-115 135h84zM166 0h-65v712h65v-712z" />
    <glyph glyph-name="Imacron" unicode="&#x12a;" horiz-adv-x="267" 
d="M264 793h-263v52h263v-52zM166 0h-65v712h65v-712z" />
    <glyph glyph-name="Iogonek" unicode="&#x12e;" horiz-adv-x="267" 
d="M129 -147c13 0 27 2 40 7v-44c-12 -5 -28 -8 -49 -8c-63 0 -92 29 -92 75c0 44 25 76 78 117h-5v712h65v-712c-61 -46 -80 -76 -80 -110c0 -24 16 -37 43 -37z" />
    <glyph glyph-name="Itilde" unicode="&#x128;" horiz-adv-x="267" 
d="M250 885h48c-4 -68 -39 -105 -93 -105c-58 0 -98 54 -142 54c-27 0 -43 -19 -46 -54h-48c4 68 39 105 93 105c58 0 99 -53 142 -53c27 0 43 19 46 53zM166 0h-65v712h65v-712z" />
    <glyph glyph-name="Jcircumflex" unicode="&#x134;" horiz-adv-x="337" 
d="M174 895h71l114 -135h-69l-81 95l-80 -95h-69zM242 712v-519c0 -132 -68 -197 -185 -197c-15 0 -31 2 -42 5v60c16 -3 28 -4 41 -4c78 0 120 41 120 138v517h66z" />
    <glyph glyph-name="Kcommaaccent" unicode="&#x136;" horiz-adv-x="607" 
d="M239 372l363 -372h-91l-343 357h-2v-357h-65v712h65v-325h2l314 325h88zM361 -149l-49 -102h-29l35 102h-28v81h71v-81z" />
    <glyph glyph-name="Lacute" unicode="&#x139;" horiz-adv-x="553" 
d="M167 760h-59l90 135h84zM166 59h377v-59h-442v712h65v-653z" />
    <glyph glyph-name="Lcaron" unicode="&#x13d;" horiz-adv-x="553" 
d="M166 59h377v-59h-442v712h65v-653zM275 497h-41l31 215h64z" />
    <glyph glyph-name="Lcommaaccent" unicode="&#x13b;" horiz-adv-x="553" 
d="M166 59h377v-59h-442v712h65v-653zM358 -149l-49 -102h-29l35 102h-28v81h71v-81z" />
    <glyph glyph-name="Ldot" unicode="&#x13f;" horiz-adv-x="633" 
d="M166 59h377v-59h-442v712h65v-653zM493 357h-86v92h86v-92z" />
    <glyph glyph-name="Lslash" unicode="&#x141;" horiz-adv-x="553" 
d="M543 59v-59h-442v316l-84 -50v63l84 50v333h65v-301l152 91v-63l-152 -91v-289h377z" />
    <glyph glyph-name="Nacute" unicode="&#x143;" horiz-adv-x="745" 
d="M374 760h-59l90 135h84zM644 0h-99l-185 316c-66 112 -129 222 -193 331h-2c0 -119 1 -237 1 -356v-291h-65v712h99l185 -316c66 -112 129 -222 193 -331h2c-1 119 -1 237 -1 356v291h65v-712z" />
    <glyph glyph-name="Ncaron" unicode="&#x147;" horiz-adv-x="745" 
d="M408 760h-71l-114 135h69l81 -95l80 95h69zM644 0h-99l-185 316c-66 112 -129 222 -193 331h-2c0 -119 1 -237 1 -356v-291h-65v712h99l185 -316c66 -112 129 -222 193 -331h2c-1 119 -1 237 -1 356v291h65v-712z" />
    <glyph glyph-name="Ncommaaccent" unicode="&#x145;" horiz-adv-x="745" 
d="M644 0h-99l-185 316c-66 112 -129 222 -193 331h-2c0 -119 1 -237 1 -356v-291h-65v712h99l185 -316c66 -112 129 -222 193 -331h2c-1 119 -1 237 -1 356v291h65v-712zM409 -149l-49 -102h-29l35 102h-28v81h71v-81z" />
    <glyph glyph-name="Eng" unicode="&#x14a;" horiz-adv-x="743" 
d="M642 712v-759c0 -104 -54 -142 -135 -142c-12 0 -24 1 -36 4v54c11 -2 21 -3 30 -3c49 0 77 22 77 88v46l-213 333l-198 312h-2c0 -115 1 -231 1 -346v-299h-65v712h97l180 -284c66 -104 132 -207 198 -312h2v346v250h64z" />
    <glyph glyph-name="Ntilde" unicode="&#xd1;" horiz-adv-x="745" 
d="M489 885h48c-4 -68 -39 -105 -93 -105c-58 0 -98 54 -142 54c-27 0 -43 -19 -46 -54h-48c4 68 39 105 93 105c58 0 99 -53 142 -53c27 0 43 19 46 53zM644 0h-99l-185 316c-66 112 -129 222 -193 331h-2c0 -119 1 -237 1 -356v-291h-65v712h99l185 -316
c66 -112 129 -222 193 -331h2c-1 119 -1 237 -1 356v291h65v-712z" />
    <glyph glyph-name="Oacute" unicode="&#xd3;" horiz-adv-x="724" 
d="M363 760h-59l90 135h84zM362 725c193 0 316 -144 316 -369s-123 -369 -316 -369s-317 144 -317 369s124 369 317 369zM362 664c-152 0 -248 -120 -248 -308s96 -308 248 -308c151 0 248 120 248 308s-97 308 -248 308z" />
    <glyph glyph-name="Obreve" unicode="&#x14e;" horiz-adv-x="724" 
d="M457 895h51c-8 -88 -60 -139 -146 -139s-138 51 -146 139h51c8 -58 42 -90 95 -90s86 32 95 90zM362 725c193 0 316 -144 316 -369s-123 -369 -316 -369s-317 144 -317 369s124 369 317 369zM362 664c-152 0 -248 -120 -248 -308s96 -308 248 -308c151 0 248 120 248 308
s-97 308 -248 308z" />
    <glyph glyph-name="Ocircumflex" unicode="&#xd4;" horiz-adv-x="724" 
d="M326 895h71l114 -135h-69l-81 95l-80 -95h-69zM362 725c193 0 316 -144 316 -369s-123 -369 -316 -369s-317 144 -317 369s124 369 317 369zM362 664c-152 0 -248 -120 -248 -308s96 -308 248 -308c151 0 248 120 248 308s-97 308 -248 308z" />
    <glyph glyph-name="Odieresis" unicode="&#xd6;" horiz-adv-x="724" 
d="M300 778h-61v88h61v-88zM484 778h-61v88h61v-88zM362 725c193 0 316 -144 316 -369s-123 -369 -316 -369s-317 144 -317 369s124 369 317 369zM362 664c-152 0 -248 -120 -248 -308s96 -308 248 -308c151 0 248 120 248 308s-97 308 -248 308z" />
    <glyph glyph-name="Ograve" unicode="&#xd2;" horiz-adv-x="724" 
d="M330 895l90 -135h-59l-115 135h84zM362 725c193 0 316 -144 316 -369s-123 -369 -316 -369s-317 144 -317 369s124 369 317 369zM362 664c-152 0 -248 -120 -248 -308s96 -308 248 -308c151 0 248 120 248 308s-97 308 -248 308z" />
    <glyph glyph-name="Ohungarumlaut" unicode="&#x150;" horiz-adv-x="724" 
d="M295 753h-56l110 142h80zM440 753h-56l110 142h80zM362 725c193 0 316 -144 316 -369s-123 -369 -316 -369s-317 144 -317 369s124 369 317 369zM362 664c-152 0 -248 -120 -248 -308s96 -308 248 -308c151 0 248 120 248 308s-97 308 -248 308z" />
    <glyph glyph-name="Omacron" unicode="&#x14c;" horiz-adv-x="724" 
d="M493 793h-263v52h263v-52zM362 725c193 0 316 -144 316 -369s-123 -369 -316 -369s-317 144 -317 369s124 369 317 369zM362 664c-152 0 -248 -120 -248 -308s96 -308 248 -308c151 0 248 120 248 308s-97 308 -248 308z" />
    <glyph glyph-name="Oslash" unicode="&#xd8;" horiz-adv-x="724" 
d="M662 706l-65 -86c52 -64 81 -155 81 -264c0 -225 -123 -369 -316 -369c-77 0 -143 23 -195 65l-60 -80l-45 35l65 85c-53 64 -82 155 -82 264c0 225 124 369 317 369c77 0 143 -23 194 -65l61 80zM113 356c0 -85 20 -156 56 -208l348 460c-41 36 -93 56 -155 56
c-152 0 -249 -120 -249 -308zM362 48c152 0 248 120 248 308c0 85 -19 156 -55 208l-348 -460c41 -36 93 -56 155 -56z" />
    <glyph glyph-name="Otilde" unicode="&#xd5;" horiz-adv-x="724" 
d="M478 885h48c-4 -68 -39 -105 -93 -105c-58 0 -98 54 -142 54c-27 0 -43 -19 -46 -54h-48c4 68 39 105 93 105c58 0 99 -53 142 -53c27 0 43 19 46 53zM362 725c193 0 316 -144 316 -369s-123 -369 -316 -369s-317 144 -317 369s124 369 317 369zM362 664
c-152 0 -248 -120 -248 -308s96 -308 248 -308c151 0 248 120 248 308s-97 308 -248 308z" />
    <glyph glyph-name="OE" unicode="&#x152;" horiz-adv-x="989" 
d="M922 653h-377v-258h358v-59h-358v-277h389v-59h-530c-229 0 -359 128 -359 356s130 356 359 356h518v-59zM479 653h-75c-186 0 -290 -106 -290 -297s104 -297 290 -297h75v594z" />
    <glyph glyph-name="Thorn" unicode="&#xde;" horiz-adv-x="606" 
d="M166 576h167c159 0 243 -81 243 -207s-84 -208 -243 -208h-167v-161h-65v712h65v-136zM166 517v-297h166c116 0 176 56 176 149c0 92 -60 148 -176 148h-166z" />
    <glyph glyph-name="Racute" unicode="&#x154;" horiz-adv-x="627" 
d="M312 760h-59l90 135h84zM101 712h209c168 0 244 -71 244 -190c0 -92 -55 -162 -138 -179v-2c53 -16 75 -46 106 -133l75 -208h-71l-68 198c-31 89 -66 116 -145 116h-147v-314h-65v712zM166 653v-280h148c121 0 174 64 173 148c0 90 -64 132 -178 132h-143z" />
    <glyph glyph-name="Rcaron" unicode="&#x158;" horiz-adv-x="627" 
d="M346 760h-71l-114 135h69l81 -95l80 95h69zM101 712h209c168 0 244 -71 244 -190c0 -92 -55 -162 -138 -179v-2c53 -16 75 -46 106 -133l75 -208h-71l-68 198c-31 89 -66 116 -145 116h-147v-314h-65v712zM166 653v-280h148c121 0 174 64 173 148c0 90 -64 132 -178 132
h-143z" />
    <glyph glyph-name="Rcommaaccent" unicode="&#x156;" horiz-adv-x="627" 
d="M101 712h209c168 0 244 -71 244 -190c0 -92 -55 -162 -138 -179v-2c53 -16 75 -46 106 -133l75 -208h-71l-68 198c-31 89 -66 116 -145 116h-147v-314h-65v712zM166 653v-280h148c121 0 174 64 173 148c0 90 -64 132 -178 132h-143zM372 -149l-49 -102h-29l35 102h-28v81
h71v-81z" />
    <glyph glyph-name="Sacute" unicode="&#x15a;" horiz-adv-x="599" 
d="M283 760h-59l90 135h84zM282 725c165 0 248 -80 248 -234h-66c0 121 -66 175 -182 175c-100 0 -157 -49 -157 -129c0 -85 61 -110 180 -139c135 -33 238 -67 238 -208c0 -124 -94 -203 -243 -203c-161 0 -255 85 -255 250h65c0 -133 75 -190 190 -190
c116 0 177 52 177 142c0 88 -65 112 -188 143c-137 34 -230 68 -230 204c0 111 83 189 223 189z" />
    <glyph glyph-name="Scaron" unicode="&#x160;" horiz-adv-x="599" 
d="M318 760h-71l-114 135h69l81 -95l80 95h69zM282 725c165 0 248 -80 248 -234h-66c0 121 -66 175 -182 175c-100 0 -157 -49 -157 -129c0 -85 61 -110 180 -139c135 -33 238 -67 238 -208c0 -124 -94 -203 -243 -203c-161 0 -255 85 -255 250h65c0 -133 75 -190 190 -190
c116 0 177 52 177 142c0 88 -65 112 -188 143c-137 34 -230 68 -230 204c0 111 83 189 223 189z" />
    <glyph glyph-name="Scedilla" unicode="&#x15e;" horiz-adv-x="599" 
d="M543 190c0 -114 -79 -190 -208 -201l-34 -52c5 1 14 2 23 2c43 0 78 -27 78 -72s-34 -85 -105 -85c-37 0 -72 11 -100 27l15 32c26 -14 53 -20 78 -20c38 0 60 16 60 44c0 27 -21 43 -56 43c-12 0 -22 -2 -31 -5l-16 18l44 66c-155 3 -246 88 -246 250h65
c0 -133 75 -190 190 -190c116 0 177 52 177 142c0 88 -65 112 -188 143c-137 34 -230 68 -230 204c0 111 83 189 223 189c165 0 248 -80 248 -234h-66c0 121 -66 175 -182 175c-100 0 -157 -49 -157 -129c0 -85 61 -110 180 -139c135 -33 238 -67 238 -208z" />
    <glyph glyph-name="Scircumflex" unicode="&#x15c;" horiz-adv-x="599" 
d="M247 895h71l114 -135h-69l-81 95l-80 -95h-69zM282 725c165 0 248 -80 248 -234h-66c0 121 -66 175 -182 175c-100 0 -157 -49 -157 -129c0 -85 61 -110 180 -139c135 -33 238 -67 238 -208c0 -124 -94 -203 -243 -203c-161 0 -255 85 -255 250h65
c0 -133 75 -190 190 -190c116 0 177 52 177 142c0 88 -65 112 -188 143c-137 34 -230 68 -230 204c0 111 83 189 223 189z" />
    <glyph glyph-name="Scommaaccent" unicode="&#x218;" horiz-adv-x="599" 
d="M282 725c165 0 248 -80 248 -234h-66c0 121 -66 175 -182 175c-100 0 -157 -49 -157 -129c0 -85 61 -110 180 -139c135 -33 238 -67 238 -208c0 -124 -94 -203 -243 -203c-161 0 -255 85 -255 250h65c0 -133 75 -190 190 -190c116 0 177 52 177 142
c0 88 -65 112 -188 143c-137 34 -230 68 -230 204c0 111 83 189 223 189zM335 -149l-49 -102h-29l35 102h-28v81h71v-81z" />
    <glyph glyph-name="Germandbls" unicode="&#x1e9e;" horiz-adv-x="752" 
d="M645 603l-174 -183c147 -27 232 -97 232 -230c0 -131 -91 -201 -226 -201s-210 66 -210 187h67c0 -81 48 -127 143 -127c97 0 158 49 158 141c0 116 -85 168 -240 181v52l166 175c-42 41 -106 67 -180 67c-147 0 -225 -79 -225 -235v-430h-65v430c0 188 105 295 291 295
c112 0 206 -50 263 -122z" />
    <glyph glyph-name="Tbar" unicode="&#x166;" horiz-adv-x="592" 
d="M328 653v-240h145v-54h-145v-359h-65v359h-144v54h144v240h-253v59h572v-59h-254z" />
    <glyph glyph-name="Tcaron" unicode="&#x164;" horiz-adv-x="592" 
d="M331 760h-71l-114 135h69l81 -95l80 95h69zM582 653h-254v-653h-65v653h-253v59h572v-59z" />
    <glyph glyph-name="Tcedilla" unicode="&#x162;" horiz-adv-x="592" 
d="M582 653h-254v-653h-65v653h-253v59h572v-59zM332 -149l-49 -102h-29l35 102h-28v81h71v-81z" />
    <glyph glyph-name="Tcommaaccent" unicode="&#x21a;" horiz-adv-x="592" 
d="M582 653h-254v-653h-65v653h-253v59h572v-59zM332 -149l-49 -102h-29l35 102h-28v81h71v-81z" />
    <glyph glyph-name="Uacute" unicode="&#xda;" horiz-adv-x="699" 
d="M351 760h-59l90 135h84zM604 712v-448c0 -181 -89 -277 -254 -277s-255 96 -255 277v448h65v-447c0 -147 72 -217 190 -217s189 70 189 217v447h65z" />
    <glyph glyph-name="Ubreve" unicode="&#x16c;" horiz-adv-x="699" 
d="M445 895h51c-8 -88 -60 -139 -146 -139s-138 51 -146 139h51c8 -58 42 -90 95 -90s86 32 95 90zM604 712v-448c0 -181 -89 -277 -254 -277s-255 96 -255 277v448h65v-447c0 -147 72 -217 190 -217s189 70 189 217v447h65z" />
    <glyph glyph-name="Ucircumflex" unicode="&#xdb;" horiz-adv-x="699" 
d="M314 895h71l114 -135h-69l-81 95l-80 -95h-69zM604 712v-448c0 -181 -89 -277 -254 -277s-255 96 -255 277v448h65v-447c0 -147 72 -217 190 -217s189 70 189 217v447h65z" />
    <glyph glyph-name="Udieresis" unicode="&#xdc;" horiz-adv-x="699" 
d="M288 778h-61v88h61v-88zM472 778h-61v88h61v-88zM604 712v-448c0 -181 -89 -277 -254 -277s-255 96 -255 277v448h65v-447c0 -147 72 -217 190 -217s189 70 189 217v447h65z" />
    <glyph glyph-name="Ugrave" unicode="&#xd9;" horiz-adv-x="699" 
d="M317 895l90 -135h-59l-115 135h84zM604 712v-448c0 -181 -89 -277 -254 -277s-255 96 -255 277v448h65v-447c0 -147 72 -217 190 -217s189 70 189 217v447h65z" />
    <glyph glyph-name="Uhungarumlaut" unicode="&#x170;" horiz-adv-x="699" 
d="M283 753h-56l110 142h80zM428 753h-56l110 142h80zM604 712v-448c0 -181 -89 -277 -254 -277s-255 96 -255 277v448h65v-447c0 -147 72 -217 190 -217s189 70 189 217v447h65z" />
    <glyph glyph-name="Umacron" unicode="&#x16a;" horiz-adv-x="699" 
d="M481 793h-263v52h263v-52zM604 712v-448c0 -181 -89 -277 -254 -277s-255 96 -255 277v448h65v-447c0 -147 72 -217 190 -217s189 70 189 217v447h65z" />
    <glyph glyph-name="Uogonek" unicode="&#x172;" horiz-adv-x="699" 
d="M604 712v-448c0 -125 -41 -198 -114 -256c-61 -48 -80 -77 -80 -111c0 -29 16 -44 44 -44c13 0 27 2 39 7v-44c-12 -5 -28 -8 -48 -8c-64 0 -93 31 -93 81c0 41 21 69 64 106v2c-20 -6 -42 -10 -66 -10c-165 0 -255 96 -255 277v448h65v-447c0 -147 72 -217 190 -217
s189 70 189 217v447h65z" />
    <glyph glyph-name="Uring" unicode="&#x16e;" horiz-adv-x="699" 
d="M350 946c53 0 96 -43 96 -96c0 -54 -43 -97 -96 -97c-54 0 -97 43 -97 97c0 53 43 96 97 96zM350 909c-33 0 -60 -27 -60 -59c0 -34 27 -60 60 -60s59 26 59 60c0 32 -26 59 -59 59zM604 712v-448c0 -181 -89 -277 -254 -277s-255 96 -255 277v448h65v-447
c0 -147 72 -217 190 -217s189 70 189 217v447h65z" />
    <glyph glyph-name="Utilde" unicode="&#x168;" horiz-adv-x="699" 
d="M466 885h48c-4 -68 -39 -105 -93 -105c-58 0 -98 54 -142 54c-27 0 -43 -19 -46 -54h-48c4 68 39 105 93 105c58 0 99 -53 142 -53c27 0 43 19 46 53zM604 712v-448c0 -181 -89 -277 -254 -277s-255 96 -255 277v448h65v-447c0 -147 72 -217 190 -217s189 70 189 217v447
h65z" />
    <glyph glyph-name="Wacute" unicode="&#x1e82;" horiz-adv-x="896" 
d="M450 760h-59l90 135h84zM711 0h-102l-80 325c-27 109 -54 218 -80 327h-2c-26 -109 -53 -218 -80 -327l-80 -325h-102l-174 712h66l74 -303c29 -116 57 -232 85 -348h2c29 116 57 234 86 350l74 301h100l74 -301c29 -116 57 -234 86 -350h2l84 348l75 303h66z" />
    <glyph glyph-name="Wcircumflex" unicode="&#x174;" horiz-adv-x="896" 
d="M413 895h71l114 -135h-69l-81 95l-80 -95h-69zM711 0h-102l-80 325c-27 109 -54 218 -80 327h-2c-26 -109 -53 -218 -80 -327l-80 -325h-102l-174 712h66l74 -303c29 -116 57 -232 85 -348h2c29 116 57 234 86 350l74 301h100l74 -301c29 -116 57 -234 86 -350h2l84 348
l75 303h66z" />
    <glyph glyph-name="Wdieresis" unicode="&#x1e84;" horiz-adv-x="896" 
d="M387 778h-61v88h61v-88zM571 778h-61v88h61v-88zM711 0h-102l-80 325c-27 109 -54 218 -80 327h-2c-26 -109 -53 -218 -80 -327l-80 -325h-102l-174 712h66l74 -303c29 -116 57 -232 85 -348h2c29 116 57 234 86 350l74 301h100l74 -301c29 -116 57 -234 86 -350h2
l84 348l75 303h66z" />
    <glyph glyph-name="Wgrave" unicode="&#x1e80;" horiz-adv-x="896" 
d="M417 895l90 -135h-59l-115 135h84zM711 0h-102l-80 325c-27 109 -54 218 -80 327h-2c-26 -109 -53 -218 -80 -327l-80 -325h-102l-174 712h66l74 -303c29 -116 57 -232 85 -348h2c29 116 57 234 86 350l74 301h100l74 -301c29 -116 57 -234 86 -350h2l84 348l75 303h66z
" />
    <glyph glyph-name="Yacute" unicode="&#xdd;" horiz-adv-x="602" 
d="M302 760h-59l90 135h84zM334 304v-304h-66v304l-263 408h77l98 -154c40 -63 80 -127 120 -191h2c40 64 80 128 121 191l97 154h77z" />
    <glyph glyph-name="Ycircumflex" unicode="&#x176;" horiz-adv-x="602" 
d="M266 895h71l114 -135h-69l-81 95l-80 -95h-69zM334 304v-304h-66v304l-263 408h77l98 -154c40 -63 80 -127 120 -191h2c40 64 80 128 121 191l97 154h77z" />
    <glyph glyph-name="Ydieresis" unicode="&#x178;" horiz-adv-x="602" 
d="M239 778h-61v88h61v-88zM423 778h-61v88h61v-88zM334 304v-304h-66v304l-263 408h77l98 -154c40 -63 80 -127 120 -191h2c40 64 80 128 121 191l97 154h77z" />
    <glyph glyph-name="Ygrave" unicode="&#x1ef2;" horiz-adv-x="602" 
d="M269 895l90 -135h-59l-115 135h84zM334 304v-304h-66v304l-263 408h77l98 -154c40 -63 80 -127 120 -191h2c40 64 80 128 121 191l97 154h77z" />
    <glyph glyph-name="Zacute" unicode="&#x179;" horiz-adv-x="558" 
d="M274 760h-59l90 135h84zM521 644l-429 -583v-2h448v-59h-523v68l429 583v2h-420v59h495v-68z" />
    <glyph glyph-name="Zcaron" unicode="&#x17d;" horiz-adv-x="558" 
d="M309 760h-71l-114 135h69l81 -95l80 95h69zM521 644l-429 -583v-2h448v-59h-523v68l429 583v2h-420v59h495v-68z" />
    <glyph glyph-name="Zdotaccent" unicode="&#x17b;" horiz-adv-x="558" 
d="M304 769h-62v88h62v-88zM521 644l-429 -583v-2h448v-59h-523v68l429 583v2h-420v59h495v-68z" />
    <glyph glyph-name="J.acute.loclNLD" horiz-adv-x="337" 
d="M210 775h-59l90 141h84zM242 712v-519c0 -132 -68 -197 -185 -197c-15 0 -31 2 -42 5v60c16 -3 28 -4 41 -4c78 0 120 41 120 138v517h66z" />
    <glyph glyph-name="Ccedilla.ss01" horiz-adv-x="683" 
d="M351 725c169 0 269 -108 277 -251h-68c-10 115 -91 190 -209 190c-147 0 -237 -117 -237 -308s89 -308 235 -308c117 0 199 76 215 194h68c-15 -153 -120 -255 -283 -255c-188 0 -304 140 -304 369s117 369 306 369zM286 -208h-83l124 159h60z" />
    <glyph glyph-name="Scedilla.ss01" horiz-adv-x="599" 
d="M282 725c165 0 248 -80 248 -234h-66c0 121 -66 175 -182 175c-100 0 -157 -49 -157 -129c0 -85 61 -110 180 -139c135 -33 238 -67 238 -208c0 -124 -94 -203 -243 -203c-161 0 -255 85 -255 250h65c0 -133 75 -190 190 -190c116 0 177 52 177 142
c0 88 -65 112 -188 143c-137 34 -230 68 -230 204c0 111 83 189 223 189zM242 -208h-83l124 159h60z" />
    <glyph glyph-name="Tcedilla.ss01" horiz-adv-x="592" 
d="M582 653h-254v-653h-65v653h-253v59h572v-59zM238 -208h-83l124 159h60z" />
    <glyph glyph-name="aacute" unicode="&#xe1;" horiz-adv-x="524" 
d="M250 571h-59l90 141h84zM256 521c114 0 190 -61 190 -195v-201c0 -52 5 -96 11 -125h-58c-5 24 -7 54 -7 77h-2c-33 -55 -92 -87 -181 -87c-104 0 -172 61 -172 146c0 83 47 133 193 156c47 8 111 15 156 18v24c0 95 -54 134 -130 134c-86 0 -129 -47 -133 -113h-65
c6 95 75 166 198 166zM386 219v39c-43 -3 -105 -11 -148 -18c-102 -15 -135 -44 -135 -100c0 -59 44 -98 119 -98c47 0 89 16 117 45c34 36 47 64 47 132z" />
    <glyph glyph-name="abreve" unicode="&#x103;" horiz-adv-x="524" 
d="M344 712h51c-8 -88 -60 -139 -146 -139s-138 51 -146 139h51c8 -58 42 -89 95 -89s86 31 95 89zM256 521c114 0 190 -61 190 -195v-201c0 -52 5 -96 11 -125h-58c-5 24 -7 54 -7 77h-2c-33 -55 -92 -87 -181 -87c-104 0 -172 61 -172 146c0 83 47 133 193 156
c47 8 111 15 156 18v24c0 95 -54 134 -130 134c-86 0 -129 -47 -133 -113h-65c6 95 75 166 198 166zM386 219v39c-43 -3 -105 -11 -148 -18c-102 -15 -135 -44 -135 -100c0 -59 44 -98 119 -98c47 0 89 16 117 45c34 36 47 64 47 132z" />
    <glyph glyph-name="acircumflex" unicode="&#xe2;" horiz-adv-x="524" 
d="M329 571l-80 101l-81 -101h-69l114 141h71l114 -141h-69zM256 521c114 0 190 -61 190 -195v-201c0 -52 5 -96 11 -125h-58c-5 24 -7 54 -7 77h-2c-33 -55 -92 -87 -181 -87c-104 0 -172 61 -172 146c0 83 47 133 193 156c47 8 111 15 156 18v24c0 95 -54 134 -130 134
c-86 0 -129 -47 -133 -113h-65c6 95 75 166 198 166zM386 219v39c-43 -3 -105 -11 -148 -18c-102 -15 -135 -44 -135 -100c0 -59 44 -98 119 -98c47 0 89 16 117 45c34 36 47 64 47 132z" />
    <glyph glyph-name="adieresis" unicode="&#xe4;" horiz-adv-x="524" 
d="M187 624h-61v88h61v-88zM371 624h-61v88h61v-88zM256 521c114 0 190 -61 190 -195v-201c0 -52 5 -96 11 -125h-58c-5 24 -7 54 -7 77h-2c-33 -55 -92 -87 -181 -87c-104 0 -172 61 -172 146c0 83 47 133 193 156c47 8 111 15 156 18v24c0 95 -54 134 -130 134
c-86 0 -129 -47 -133 -113h-65c6 95 75 166 198 166zM386 219v39c-43 -3 -105 -11 -148 -18c-102 -15 -135 -44 -135 -100c0 -59 44 -98 119 -98c47 0 89 16 117 45c34 36 47 64 47 132z" />
    <glyph glyph-name="agrave" unicode="&#xe0;" horiz-adv-x="524" 
d="M217 712l90 -141h-59l-115 141h84zM256 521c114 0 190 -61 190 -195v-201c0 -52 5 -96 11 -125h-58c-5 24 -7 54 -7 77h-2c-33 -55 -92 -87 -181 -87c-104 0 -172 61 -172 146c0 83 47 133 193 156c47 8 111 15 156 18v24c0 95 -54 134 -130 134
c-86 0 -129 -47 -133 -113h-65c6 95 75 166 198 166zM386 219v39c-43 -3 -105 -11 -148 -18c-102 -15 -135 -44 -135 -100c0 -59 44 -98 119 -98c47 0 89 16 117 45c34 36 47 64 47 132z" />
    <glyph glyph-name="amacron" unicode="&#x101;" horiz-adv-x="524" 
d="M380 624h-263v52h263v-52zM256 521c114 0 190 -61 190 -195v-201c0 -52 5 -96 11 -125h-58c-5 24 -7 54 -7 77h-2c-33 -55 -92 -87 -181 -87c-104 0 -172 61 -172 146c0 83 47 133 193 156c47 8 111 15 156 18v24c0 95 -54 134 -130 134c-86 0 -129 -47 -133 -113h-65
c6 95 75 166 198 166zM386 219v39c-43 -3 -105 -11 -148 -18c-102 -15 -135 -44 -135 -100c0 -59 44 -98 119 -98c47 0 89 16 117 45c34 36 47 64 47 132z" />
    <glyph glyph-name="aogonek" unicode="&#x105;" horiz-adv-x="524" 
d="M420 -147c13 0 27 2 40 7v-44c-12 -5 -28 -8 -49 -8c-63 0 -92 29 -92 75c0 44 25 77 80 118c-5 24 -7 53 -7 76h-2c-33 -55 -92 -87 -181 -87c-104 0 -172 61 -172 146c0 83 47 133 193 156c47 8 111 15 156 18v24c0 95 -54 134 -130 134c-86 0 -129 -47 -133 -113h-65
c6 95 75 166 198 166c114 0 190 -61 190 -195v-201c0 -52 5 -96 11 -125c-61 -46 -80 -76 -80 -110c0 -24 16 -37 43 -37zM386 219v39c-43 -3 -105 -11 -148 -18c-102 -15 -135 -44 -135 -100c0 -59 44 -98 119 -98c47 0 89 16 117 45c34 36 47 64 47 132z" />
    <glyph glyph-name="aring" unicode="&#xe5;" horiz-adv-x="524" 
d="M249 764c53 0 96 -44 96 -97c0 -54 -43 -97 -96 -97c-54 0 -97 43 -97 97c0 53 43 97 97 97zM249 726c-33 0 -60 -26 -60 -59c0 -34 27 -60 60 -60s59 26 59 60c0 33 -26 59 -59 59zM256 521c114 0 190 -61 190 -195v-201c0 -52 5 -96 11 -125h-58c-5 24 -7 54 -7 77h-2
c-33 -55 -92 -87 -181 -87c-104 0 -172 61 -172 146c0 83 47 133 193 156c47 8 111 15 156 18v24c0 95 -54 134 -130 134c-86 0 -129 -47 -133 -113h-65c6 95 75 166 198 166zM386 219v39c-43 -3 -105 -11 -148 -18c-102 -15 -135 -44 -135 -100c0 -59 44 -98 119 -98
c47 0 89 16 117 45c34 36 47 64 47 132z" />
    <glyph glyph-name="atilde" unicode="&#xe3;" horiz-adv-x="524" 
d="M365 703h48c-4 -68 -39 -105 -93 -105c-58 0 -98 53 -142 53c-27 0 -43 -19 -46 -53h-48c4 68 39 105 93 105c58 0 99 -54 142 -54c27 0 43 19 46 54zM256 521c114 0 190 -61 190 -195v-201c0 -52 5 -96 11 -125h-58c-5 24 -7 54 -7 77h-2c-33 -55 -92 -87 -181 -87
c-104 0 -172 61 -172 146c0 83 47 133 193 156c47 8 111 15 156 18v24c0 95 -54 134 -130 134c-86 0 -129 -47 -133 -113h-65c6 95 75 166 198 166zM386 219v39c-43 -3 -105 -11 -148 -18c-102 -15 -135 -44 -135 -100c0 -59 44 -98 119 -98c47 0 89 16 117 45
c34 36 47 64 47 132z" />
    <glyph glyph-name="ae" unicode="&#xe6;" horiz-adv-x="854" 
d="M600 40c78 0 127 46 141 111h64c-14 -87 -82 -164 -205 -164c-86 0 -150 45 -185 121c-34 -76 -108 -121 -204 -121c-105 0 -174 62 -174 150c0 91 55 156 224 156h125v41c0 91 -50 134 -130 134c-83 0 -129 -47 -133 -113h-65c6 95 78 166 198 166c79 0 140 -30 167 -98
c35 61 94 98 173 98c106 0 184 -71 206 -181c5 -27 7 -61 7 -99h-368c4 -135 71 -201 159 -201zM596 468c-89 0 -149 -66 -155 -175h307c-6 113 -67 175 -152 175zM386 241h-117c-124 0 -166 -36 -166 -102c0 -60 44 -100 119 -100c47 0 90 16 117 46c35 36 47 65 47 134v22
z" />
    <glyph glyph-name="cacute" unicode="&#x107;" horiz-adv-x="521" 
d="M275 571h-59l90 141h84zM274 521c115 0 197 -77 206 -188h-65c-6 78 -63 134 -141 134c-102 0 -163 -81 -163 -213c0 -133 61 -213 163 -213c78 0 134 64 141 140h65c-9 -110 -88 -194 -206 -194c-142 0 -230 101 -230 267s88 267 230 267z" />
    <glyph glyph-name="ccaron" unicode="&#x10d;" horiz-adv-x="521" 
d="M310 571h-71l-114 141h69l81 -101l80 101h69zM274 521c115 0 197 -77 206 -188h-65c-6 78 -63 134 -141 134c-102 0 -163 -81 -163 -213c0 -133 61 -213 163 -213c78 0 134 64 141 140h65c-9 -110 -88 -194 -206 -194c-142 0 -230 101 -230 267s88 267 230 267z" />
    <glyph glyph-name="ccedilla" unicode="&#xe7;" horiz-adv-x="521" 
d="M274 41c78 0 134 64 141 140h65c-8 -98 -72 -176 -170 -191l-35 -53c5 1 14 2 23 2c43 0 78 -27 78 -72s-34 -85 -105 -85c-37 0 -72 11 -100 27l15 32c26 -14 53 -20 78 -20c38 0 60 16 60 44c0 27 -21 43 -56 43c-12 0 -22 -2 -31 -5l-16 18l44 66
c-137 4 -221 104 -221 267c0 166 88 267 230 267c115 0 197 -77 206 -188h-65c-6 78 -63 134 -141 134c-102 0 -163 -81 -163 -213c0 -133 61 -213 163 -213z" />
    <glyph glyph-name="ccircumflex" unicode="&#x109;" horiz-adv-x="521" 
d="M355 571l-80 101l-81 -101h-69l114 141h71l114 -141h-69zM274 521c115 0 197 -77 206 -188h-65c-6 78 -63 134 -141 134c-102 0 -163 -81 -163 -213c0 -133 61 -213 163 -213c78 0 134 64 141 140h65c-9 -110 -88 -194 -206 -194c-142 0 -230 101 -230 267
s88 267 230 267z" />
    <glyph glyph-name="cdotaccent" unicode="&#x10b;" horiz-adv-x="521" 
d="M305 624h-62v88h62v-88zM274 521c115 0 197 -77 206 -188h-65c-6 78 -63 134 -141 134c-102 0 -163 -81 -163 -213c0 -133 61 -213 163 -213c78 0 134 64 141 140h65c-9 -110 -88 -194 -206 -194c-142 0 -230 101 -230 267s88 267 230 267z" />
    <glyph glyph-name="eth" unicode="&#xf0;" horiz-adv-x="553" 
d="M403 538c71 -89 106 -176 106 -284c0 -166 -89 -267 -233 -267s-232 100 -232 265c0 162 86 261 224 261c48 0 88 -16 120 -45v2c-33 47 -77 93 -125 135l-136 -65l-20 43l116 55c-24 19 -48 37 -73 53l41 34c27 -17 55 -39 84 -62l120 58l20 -43l-101 -48
c35 -32 67 -64 89 -92zM276 41c105 0 169 80 169 211s-64 211 -169 211c-104 0 -167 -80 -167 -211s63 -211 167 -211z" />
    <glyph glyph-name="dcaron" unicode="&#x10f;" horiz-adv-x="565" 
d="M482 0h-62v77h-2c-26 -53 -87 -88 -160 -88c-131 0 -214 104 -214 266s83 266 214 266c73 0 134 -35 160 -88h2v279h62v-712zM560 536h-41l31 176h64zM268 469c-97 0 -159 -84 -159 -214s62 -214 159 -214c94 0 155 84 155 214s-61 214 -155 214z" />
    <glyph glyph-name="dcroat" unicode="&#x111;" horiz-adv-x="560" 
d="M546 583h-64v-583h-62v77h-2c-26 -53 -87 -88 -160 -88c-131 0 -214 104 -214 266s83 266 214 266c73 0 134 -35 160 -88h2v150h-137v46h137v83h62v-83h64v-46zM268 41c94 0 155 84 155 214s-61 214 -155 214c-97 0 -159 -84 -159 -214s62 -214 159 -214z" />
    <glyph glyph-name="eacute" unicode="&#xe9;" horiz-adv-x="539" 
d="M270 571h-59l90 141h84zM276 40c83 0 136 46 151 111h64c-16 -87 -87 -164 -215 -164c-145 0 -232 108 -232 276c0 150 85 258 228 258c114 0 193 -69 215 -181c6 -27 8 -61 8 -98h-388c3 -135 75 -202 169 -202zM272 468c-93 0 -158 -66 -164 -175h327
c-7 113 -72 175 -163 175z" />
    <glyph glyph-name="ebreve" unicode="&#x115;" horiz-adv-x="539" 
d="M269 573c-86 0 -138 51 -146 139h51c8 -58 42 -89 95 -89s86 31 95 89h51c-8 -88 -60 -139 -146 -139zM276 40c83 0 136 46 151 111h64c-16 -87 -87 -164 -215 -164c-145 0 -232 108 -232 276c0 150 85 258 228 258c114 0 193 -69 215 -181c6 -27 8 -61 8 -98h-388
c3 -135 75 -202 169 -202zM272 468c-93 0 -158 -66 -164 -175h327c-7 113 -72 175 -163 175z" />
    <glyph glyph-name="ecaron" unicode="&#x11b;" horiz-adv-x="539" 
d="M234 571l-114 141h69l81 -101l80 101h69l-114 -141h-71zM276 40c83 0 136 46 151 111h64c-16 -87 -87 -164 -215 -164c-145 0 -232 108 -232 276c0 150 85 258 228 258c114 0 193 -69 215 -181c6 -27 8 -61 8 -98h-388c3 -135 75 -202 169 -202zM272 468
c-93 0 -158 -66 -164 -175h327c-7 113 -72 175 -163 175z" />
    <glyph glyph-name="ecircumflex" unicode="&#xea;" horiz-adv-x="539" 
d="M189 571h-69l114 141h71l114 -141h-69l-80 101zM276 40c83 0 136 46 151 111h64c-16 -87 -87 -164 -215 -164c-145 0 -232 108 -232 276c0 150 85 258 228 258c114 0 193 -69 215 -181c6 -27 8 -61 8 -98h-388c3 -135 75 -202 169 -202zM272 468
c-93 0 -158 -66 -164 -175h327c-7 113 -72 175 -163 175z" />
    <glyph glyph-name="edieresis" unicode="&#xeb;" horiz-adv-x="539" 
d="M207 624h-61v88h61v-88zM391 624h-61v88h61v-88zM276 40c83 0 136 46 151 111h64c-16 -87 -87 -164 -215 -164c-145 0 -232 108 -232 276c0 150 85 258 228 258c114 0 193 -69 215 -181c6 -27 8 -61 8 -98h-388c3 -135 75 -202 169 -202zM272 468
c-93 0 -158 -66 -164 -175h327c-7 113 -72 175 -163 175z" />
    <glyph glyph-name="edotaccent" unicode="&#x117;" horiz-adv-x="539" 
d="M300 624h-62v88h62v-88zM276 40c83 0 136 46 151 111h64c-16 -87 -87 -164 -215 -164c-145 0 -232 108 -232 276c0 150 85 258 228 258c114 0 193 -69 215 -181c6 -27 8 -61 8 -98h-388c3 -135 75 -202 169 -202zM272 468c-93 0 -158 -66 -164 -175h327
c-7 113 -72 175 -163 175z" />
    <glyph glyph-name="egrave" unicode="&#xe8;" horiz-adv-x="539" 
d="M268 571l-115 141h84l90 -141h-59zM276 40c83 0 136 46 151 111h64c-16 -87 -87 -164 -215 -164c-145 0 -232 108 -232 276c0 150 85 258 228 258c114 0 193 -69 215 -181c6 -27 8 -61 8 -98h-388c3 -135 75 -202 169 -202zM272 468c-93 0 -158 -66 -164 -175h327
c-7 113 -72 175 -163 175z" />
    <glyph glyph-name="emacron" unicode="&#x113;" horiz-adv-x="539" 
d="M400 624h-263v52h263v-52zM276 40c83 0 136 46 151 111h64c-16 -87 -87 -164 -215 -164c-145 0 -232 108 -232 276c0 150 85 258 228 258c114 0 193 -69 215 -181c6 -27 8 -61 8 -98h-388c3 -135 75 -202 169 -202zM272 468c-93 0 -158 -66 -164 -175h327
c-7 113 -72 175 -163 175z" />
    <glyph glyph-name="eogonek" unicode="&#x119;" horiz-adv-x="539" 
d="M276 40c83 0 136 46 151 111h64c-9 -50 -33 -89 -77 -127c-65 -57 -85 -89 -85 -130c0 -27 15 -41 43 -41c13 0 27 2 40 7v-44c-13 -5 -28 -8 -49 -8c-64 0 -92 29 -92 75c0 40 17 72 52 107v2c-15 -3 -31 -5 -47 -5c-145 0 -232 108 -232 276c0 150 85 258 228 258
c114 0 193 -69 215 -181c6 -27 8 -61 8 -98h-388c3 -135 75 -202 169 -202zM272 468c-93 0 -158 -66 -164 -175h327c-7 113 -72 175 -163 175z" />
    <glyph glyph-name="gbreve" unicode="&#x11f;" horiz-adv-x="565" 
d="M368 712h51c-8 -88 -60 -139 -146 -139s-138 51 -146 139h51c8 -58 42 -89 95 -89s86 31 95 89zM262 521c67 0 122 -31 156 -89h2v76h62v-477c0 -147 -74 -223 -213 -223c-126 0 -203 60 -204 160h63c2 -69 56 -108 141 -108c103 0 151 55 151 174v60h-2
c-34 -57 -90 -89 -156 -89c-133 0 -218 102 -218 258s85 258 218 258zM264 468c-95 0 -155 -81 -155 -205s60 -205 155 -205c99 0 159 78 159 205s-60 205 -159 205z" />
    <glyph glyph-name="gcircumflex" unicode="&#x11d;" horiz-adv-x="565" 
d="M354 571l-80 101l-81 -101h-69l114 141h71l114 -141h-69zM262 521c67 0 122 -31 156 -89h2v76h62v-477c0 -147 -74 -223 -213 -223c-126 0 -203 60 -204 160h63c2 -69 56 -108 141 -108c103 0 151 55 151 174v60h-2c-34 -57 -90 -89 -156 -89c-133 0 -218 102 -218 258
s85 258 218 258zM264 468c-95 0 -155 -81 -155 -205s60 -205 155 -205c99 0 159 78 159 205s-60 205 -159 205z" />
    <glyph glyph-name="gcommaaccent" unicode="&#x123;" horiz-adv-x="565" 
d="M277 667h28v-81h-71v81l49 102h29zM262 521c67 0 122 -31 156 -89h2v76h62v-477c0 -147 -74 -223 -213 -223c-126 0 -203 60 -204 160h63c2 -69 56 -108 141 -108c103 0 151 55 151 174v60h-2c-34 -57 -90 -89 -156 -89c-133 0 -218 102 -218 258s85 258 218 258z
M264 468c-95 0 -155 -81 -155 -205s60 -205 155 -205c99 0 159 78 159 205s-60 205 -159 205z" />
    <glyph glyph-name="gdotaccent" unicode="&#x121;" horiz-adv-x="565" 
d="M304 624h-62v88h62v-88zM262 521c67 0 122 -31 156 -89h2v76h62v-477c0 -147 -74 -223 -213 -223c-126 0 -203 60 -204 160h63c2 -69 56 -108 141 -108c103 0 151 55 151 174v60h-2c-34 -57 -90 -89 -156 -89c-133 0 -218 102 -218 258s85 258 218 258zM264 468
c-95 0 -155 -81 -155 -205s60 -205 155 -205c99 0 159 78 159 205s-60 205 -159 205z" />
    <glyph glyph-name="hbar" unicode="&#x127;" horiz-adv-x="563" 
d="M304 519c117 0 181 -70 181 -210v-309h-62v306c0 120 -49 159 -130 159c-79 0 -148 -57 -148 -164v-301h-62v583h-69v46h69v83h62v-83h132v-46h-132v-143h2c35 54 95 79 157 79z" />
    <glyph glyph-name="hcircumflex" unicode="&#x125;" horiz-adv-x="563" 
d="M247 895h71l114 -135h-69l-81 95l-80 -95h-69zM145 440h2c35 54 95 79 157 79c117 0 181 -70 181 -210v-309h-62v306c0 120 -49 159 -130 159c-79 0 -148 -57 -148 -164v-301h-62v712h62v-272z" />
    <glyph glyph-name="dotlessi" unicode="&#x131;" horiz-adv-x="228" 
d="M145 0h-62v508h62v-508z" />
    <glyph glyph-name="iacute" unicode="&#xed;" horiz-adv-x="228" 
d="M116 571h-59l90 141h84zM145 0h-62v508h62v-508z" />
    <glyph glyph-name="ibreve" unicode="&#x12d;" horiz-adv-x="228" 
d="M193 712h51c-3 -87 -49 -139 -129 -139s-126 51 -129 139h50c4 -58 32 -90 79 -90s75 32 78 90zM145 0h-62v508h62v-508z" />
    <glyph glyph-name="icircumflex" unicode="&#xee;" horiz-adv-x="228" 
d="M249 572h-67l-68 101l-67 -101h-68l98 140h74zM145 0h-62v508h62v-508z" />
    <glyph glyph-name="idieresis" unicode="&#xef;" horiz-adv-x="228" 
d="M73 624h-61v88h61v-88zM217 624h-61v88h61v-88zM145 0h-62v508h62v-508z" />
    <glyph glyph-name="idotaccent" horiz-adv-x="228" 
d="M145 624h-62v88h62v-88zM145 0h-62v508h62v-508z" />
    <glyph glyph-name="igrave" unicode="&#xec;" horiz-adv-x="228" 
d="M82 712l90 -141h-59l-115 141h84zM145 0h-62v508h62v-508z" />
    <glyph glyph-name="ij" unicode="&#x133;" horiz-adv-x="463" 
d="M145 624h-62v88h62v-88zM380 624h-62v88h62v-88zM145 0h-62v508h62v-508zM380 508v-545c0 -111 -53 -152 -133 -152c-12 0 -23 1 -36 4v54c11 -2 21 -3 30 -3c49 0 77 25 77 98v544h62z" />
    <glyph glyph-name="imacron" unicode="&#x12b;" horiz-adv-x="228" 
d="M235 625h-242v51h242v-51zM145 0h-62v508h62v-508z" />
    <glyph glyph-name="iogonek" unicode="&#x12f;" horiz-adv-x="228" 
d="M145 624h-62v88h62v-88zM108 -147c13 0 27 2 40 7v-44c-12 -5 -28 -8 -49 -8c-63 0 -92 29 -92 75c0 44 25 76 78 117h-2v508h62v-508c-61 -46 -80 -76 -80 -110c0 -24 16 -37 43 -37z" />
    <glyph glyph-name="itilde" unicode="&#x129;" horiz-adv-x="228" 
d="M214 703h44c-3 -68 -36 -105 -86 -105c-51 0 -80 54 -117 54c-25 0 -38 -19 -41 -54h-44c3 68 35 105 85 105c52 0 80 -55 117 -55c25 0 39 19 42 55zM145 0h-62v508h62v-508z" />
    <glyph glyph-name="dotlessj" unicode="&#x237;" horiz-adv-x="235" 
d="M152 508v-545c0 -111 -53 -152 -133 -152c-12 0 -23 1 -36 4v54c11 -2 21 -3 30 -3c49 0 77 25 77 98v544h62z" />
    <glyph glyph-name="jcircumflex" unicode="&#x135;" horiz-adv-x="235" 
d="M256 572h-67l-68 101l-67 -101h-68l98 140h74zM152 508v-545c0 -111 -53 -152 -133 -152c-12 0 -23 1 -36 4v54c11 -2 21 -3 30 -3c49 0 77 25 77 98v544h62z" />
    <glyph glyph-name="kcommaaccent" unicode="&#x137;" horiz-adv-x="479" 
d="M486 0h-86l-253 262h-2v-262h-62v712h62v-417h2l226 213h84l-246 -228zM230 -68h71v-81l-49 -102h-29l35 102h-28v81z" />
    <glyph glyph-name="kgreenlandic" unicode="&#x138;" horiz-adv-x="496" 
d="M486 0h-86l-253 262h-2v-262h-62v508h62v-213h2l226 213h84l-246 -228z" />
    <glyph glyph-name="lacute" unicode="&#x13a;" horiz-adv-x="228" 
d="M137 775h-59l90 141h84zM145 0h-62v712h62v-712z" />
    <glyph glyph-name="lcaron" unicode="&#x13e;" horiz-adv-x="228" 
d="M145 0h-62v712h62v-712zM225 536h-41l31 176h64z" />
    <glyph glyph-name="lcommaaccent" unicode="&#x13c;" horiz-adv-x="228" 
d="M145 0h-62v712h62v-712zM150 -149l-49 -102h-29l35 102h-28v81h71v-81z" />
    <glyph glyph-name="ldot" unicode="&#x140;" horiz-adv-x="356" 
d="M145 0h-62v712h62v-712zM335 310h-86v92h86v-92z" />
    <glyph glyph-name="lslash" unicode="&#x142;" horiz-adv-x="262" 
d="M252 448l-90 -53v-395h-62v363l-90 -53v59l90 53v290h62v-258l90 53v-59z" />
    <glyph glyph-name="nacute" unicode="&#x144;" horiz-adv-x="563" 
d="M285 571h-59l90 141h84zM304 519c117 0 181 -70 181 -210v-309h-62v306c0 120 -49 159 -130 159c-79 0 -148 -57 -148 -164v-301h-62v508h61v-69h2c31 48 88 80 158 80z" />
    <glyph glyph-name="napostrophe" unicode="&#x149;" horiz-adv-x="666" 
d="M156 622l-40 -128h-44l29 128h-29v90h84v-90zM407 519c117 0 181 -70 181 -210v-309h-62v306c0 120 -49 159 -130 159c-79 0 -148 -57 -148 -164v-301h-62v508h62v-69h2c30 48 87 80 157 80z" />
    <glyph glyph-name="ncaron" unicode="&#x148;" horiz-adv-x="563" 
d="M320 571h-71l-114 141h69l81 -101l80 101h69zM304 519c117 0 181 -70 181 -210v-309h-62v306c0 120 -49 159 -130 159c-79 0 -148 -57 -148 -164v-301h-62v508h61v-69h2c31 48 88 80 158 80z" />
    <glyph glyph-name="ncommaaccent" unicode="&#x146;" horiz-adv-x="563" 
d="M304 519c117 0 181 -70 181 -210v-309h-62v306c0 120 -49 159 -130 159c-79 0 -148 -57 -148 -164v-301h-62v508h61v-69h2c31 48 88 80 158 80zM320 -149l-49 -102h-29l35 102h-28v81h71v-81z" />
    <glyph glyph-name="eng" unicode="&#x14b;" horiz-adv-x="563" 
d="M304 519c56 0 100 -18 132 -51c37 -39 49 -87 49 -169v-346c0 -104 -53 -142 -132 -142c-12 0 -24 1 -36 4v54c10 -2 20 -3 29 -3c49 0 77 22 77 89v340c0 73 -9 106 -33 133c-24 26 -55 38 -97 38c-79 0 -148 -58 -148 -165v-301h-62v508h62v-69h2c35 55 95 80 157 80z
" />
    <glyph glyph-name="ntilde" unicode="&#xf1;" horiz-adv-x="563" 
d="M401 703h48c-4 -68 -39 -105 -93 -105c-58 0 -98 53 -142 53c-27 0 -43 -19 -46 -53h-48c4 68 39 105 93 105c58 0 99 -54 142 -54c27 0 43 19 46 54zM304 519c117 0 181 -70 181 -210v-309h-62v306c0 120 -49 159 -130 159c-79 0 -148 -57 -148 -164v-301h-62v508h61
v-69h2c31 48 88 80 158 80z" />
    <glyph glyph-name="oacute" unicode="&#xf3;" horiz-adv-x="552" 
d="M277 571h-59l90 141h84zM276 521c144 0 232 -101 232 -267s-88 -267 -232 -267s-232 101 -232 267s88 267 232 267zM276 467c-105 0 -167 -81 -167 -213s62 -213 167 -213s168 81 168 213s-63 213 -168 213z" />
    <glyph glyph-name="obreve" unicode="&#x14f;" horiz-adv-x="552" 
d="M371 712h51c-8 -88 -60 -139 -146 -139s-138 51 -146 139h51c8 -58 42 -89 95 -89s86 31 95 89zM276 521c144 0 232 -101 232 -267s-88 -267 -232 -267s-232 101 -232 267s88 267 232 267zM276 467c-105 0 -167 -81 -167 -213s62 -213 167 -213s168 81 168 213
s-63 213 -168 213z" />
    <glyph glyph-name="ocircumflex" unicode="&#xf4;" horiz-adv-x="552" 
d="M357 571l-80 101l-81 -101h-69l114 141h71l114 -141h-69zM276 521c144 0 232 -101 232 -267s-88 -267 -232 -267s-232 101 -232 267s88 267 232 267zM276 467c-105 0 -167 -81 -167 -213s62 -213 167 -213s168 81 168 213s-63 213 -168 213z" />
    <glyph glyph-name="odieresis" unicode="&#xf6;" horiz-adv-x="552" 
d="M214 624h-61v88h61v-88zM398 624h-61v88h61v-88zM276 521c144 0 232 -101 232 -267s-88 -267 -232 -267s-232 101 -232 267s88 267 232 267zM276 467c-105 0 -167 -81 -167 -213s62 -213 167 -213s168 81 168 213s-63 213 -168 213z" />
    <glyph glyph-name="ograve" unicode="&#xf2;" horiz-adv-x="552" 
d="M244 712l90 -141h-59l-115 141h84zM276 521c144 0 232 -101 232 -267s-88 -267 -232 -267s-232 101 -232 267s88 267 232 267zM276 467c-105 0 -167 -81 -167 -213s62 -213 167 -213s168 81 168 213s-63 213 -168 213z" />
    <glyph glyph-name="ohungarumlaut" unicode="&#x151;" horiz-adv-x="552" 
d="M211 571h-56l110 141h80zM356 571h-56l110 141h80zM276 521c144 0 232 -101 232 -267s-88 -267 -232 -267s-232 101 -232 267s88 267 232 267zM276 467c-105 0 -167 -81 -167 -213s62 -213 167 -213s168 81 168 213s-63 213 -168 213z" />
    <glyph glyph-name="omacron" unicode="&#x14d;" horiz-adv-x="552" 
d="M407 624h-263v52h263v-52zM276 521c144 0 232 -101 232 -267s-88 -267 -232 -267s-232 101 -232 267s88 267 232 267zM276 467c-105 0 -167 -81 -167 -213s62 -213 167 -213s168 81 168 213s-63 213 -168 213z" />
    <glyph glyph-name="oslash" unicode="&#xf8;" horiz-adv-x="553" 
d="M506 515l-55 -71c38 -46 58 -110 58 -190c0 -166 -89 -267 -233 -267c-55 0 -102 15 -139 42l-51 -66l-39 31l54 70c-37 46 -57 111 -57 190c0 166 88 267 232 267c55 0 102 -15 140 -43l51 68zM276 467c-104 0 -168 -81 -168 -213c0 -56 11 -102 32 -137l240 314
c-27 23 -63 36 -104 36zM276 41c105 0 169 81 169 213c0 56 -11 103 -33 138l-239 -315c27 -23 62 -36 103 -36z" />
    <glyph glyph-name="otilde" unicode="&#xf5;" horiz-adv-x="552" 
d="M393 703h48c-4 -68 -39 -105 -93 -105c-58 0 -98 53 -142 53c-27 0 -43 -19 -46 -53h-48c4 68 39 105 93 105c58 0 99 -54 142 -54c27 0 43 19 46 54zM276 521c144 0 232 -101 232 -267s-88 -267 -232 -267s-232 101 -232 267s88 267 232 267zM276 467
c-105 0 -167 -81 -167 -213s62 -213 167 -213s168 81 168 213s-63 213 -168 213z" />
    <glyph glyph-name="oe" unicode="&#x153;" horiz-adv-x="882" 
d="M628 40c79 0 128 46 141 111h64c-14 -87 -82 -164 -205 -164c-88 0 -151 46 -185 125c-33 -80 -96 -125 -182 -125c-134 0 -217 101 -217 267s83 267 217 267c84 0 148 -44 181 -122c32 75 95 122 182 122c106 0 184 -71 206 -181c5 -27 8 -61 8 -98h-369
c3 -135 71 -202 159 -202zM624 468c-89 0 -149 -66 -155 -175h307c-5 113 -66 175 -152 175zM261 41c95 0 154 81 154 213s-59 213 -154 213c-94 0 -152 -81 -152 -213s58 -213 152 -213z" />
    <glyph glyph-name="thorn" unicode="&#xfe;" horiz-adv-x="565" 
d="M145 433h2c26 53 87 88 160 88c131 0 214 -104 214 -266s-83 -266 -214 -266c-73 0 -134 35 -160 88h-2v-262h-62v897h62v-279zM297 469c-94 0 -155 -84 -155 -214s61 -214 155 -214c97 0 159 84 159 214s-62 214 -159 214z" />
    <glyph glyph-name="racute" unicode="&#x155;" horiz-adv-x="347" 
d="M207 571h-59l90 141h84zM301 512c11 0 24 -1 34 -3v-59c-8 1 -21 2 -32 2c-101 0 -158 -66 -158 -184v-268h-62v508h61v-80h2c34 55 88 84 155 84z" />
    <glyph glyph-name="rcaron" unicode="&#x159;" horiz-adv-x="347" 
d="M242 571h-71l-114 141h69l81 -101l80 101h69zM301 512c11 0 24 -1 34 -3v-59c-8 1 -21 2 -32 2c-101 0 -158 -66 -158 -184v-268h-62v508h61v-80h2c34 55 88 84 155 84z" />
    <glyph glyph-name="rcommaaccent" unicode="&#x157;" horiz-adv-x="347" 
d="M301 512c11 0 24 -1 34 -3v-59c-8 1 -21 2 -32 2c-101 0 -158 -66 -158 -184v-268h-62v508h61v-80h2c34 55 88 84 155 84zM150 -149l-49 -102h-29l35 102h-28v81h71v-81z" />
    <glyph glyph-name="sacute" unicode="&#x15b;" horiz-adv-x="479" 
d="M231 571h-59l90 141h84zM230 521c120 0 190 -63 191 -174h-62c0 77 -48 120 -129 120c-70 0 -115 -33 -115 -84c0 -62 40 -70 128 -91c95 -22 193 -42 193 -157c0 -88 -74 -148 -190 -148c-128 0 -203 66 -205 184h63c0 -83 52 -130 142 -130c76 0 128 36 128 90
c0 67 -44 79 -151 104c-85 20 -170 37 -170 143c0 86 73 143 177 143z" />
    <glyph glyph-name="scaron" unicode="&#x161;" horiz-adv-x="479" 
d="M265 571h-71l-114 141h69l81 -101l80 101h69zM230 521c120 0 190 -63 191 -174h-62c0 77 -48 120 -129 120c-70 0 -115 -33 -115 -84c0 -62 40 -70 128 -91c95 -22 193 -42 193 -157c0 -88 -74 -148 -190 -148c-128 0 -203 66 -205 184h63c0 -83 52 -130 142 -130
c76 0 128 36 128 90c0 67 -44 79 -151 104c-85 20 -170 37 -170 143c0 86 73 143 177 143z" />
    <glyph glyph-name="scedilla" unicode="&#x15f;" horiz-adv-x="479" 
d="M436 135c0 -79 -59 -135 -154 -146l-35 -52c5 1 14 2 23 2c43 0 78 -27 78 -72s-34 -85 -105 -85c-37 0 -72 11 -100 27l15 32c26 -14 53 -20 78 -20c38 0 60 16 60 44c0 27 -21 43 -56 43c-12 0 -22 -2 -31 -5l-16 18l44 66c-122 3 -194 69 -196 184h63
c0 -83 52 -130 142 -130c76 0 128 36 128 90c0 67 -44 79 -151 104c-85 20 -170 37 -170 143c0 86 73 143 177 143c120 0 190 -63 191 -174h-62c0 77 -48 120 -129 120c-70 0 -115 -33 -115 -84c0 -62 40 -70 128 -91c95 -22 193 -42 193 -157z" />
    <glyph glyph-name="scircumflex" unicode="&#x15d;" horiz-adv-x="479" 
d="M310 571l-80 101l-81 -101h-69l114 141h71l114 -141h-69zM230 521c120 0 190 -63 191 -174h-62c0 77 -48 120 -129 120c-70 0 -115 -33 -115 -84c0 -62 40 -70 128 -91c95 -22 193 -42 193 -157c0 -88 -74 -148 -190 -148c-128 0 -203 66 -205 184h63
c0 -83 52 -130 142 -130c76 0 128 36 128 90c0 67 -44 79 -151 104c-85 20 -170 37 -170 143c0 86 73 143 177 143z" />
    <glyph glyph-name="scommaaccent" unicode="&#x219;" horiz-adv-x="479" 
d="M230 521c120 0 190 -63 191 -174h-62c0 77 -48 120 -129 120c-70 0 -115 -33 -115 -84c0 -62 40 -70 128 -91c95 -22 193 -42 193 -157c0 -88 -74 -148 -190 -148c-128 0 -203 66 -205 184h63c0 -83 52 -130 142 -130c76 0 128 36 128 90c0 67 -44 79 -151 104
c-85 20 -170 37 -170 143c0 86 73 143 177 143zM282 -149l-49 -102h-29l35 102h-28v81h71v-81z" />
    <glyph glyph-name="germandbls" unicode="&#xdf;" horiz-adv-x="548" 
d="M281 725c115 0 190 -68 190 -170c0 -78 -38 -130 -111 -154v-2c85 -17 145 -82 145 -192c0 -134 -85 -213 -232 -213c-17 0 -36 2 -52 6v56c13 -4 33 -6 49 -6c107 0 171 58 171 158s-62 162 -164 162h-15v58c98 0 146 46 146 123c0 74 -50 119 -127 119
c-88 0 -136 -56 -136 -163v-507h-62v510c0 136 71 215 198 215z" />
    <glyph glyph-name="longs" unicode="&#x17f;" horiz-adv-x="287" 
d="M231 716c15 0 31 -2 42 -4v-53c-7 2 -20 4 -32 4c-49 0 -73 -25 -73 -90v-573h-62v456h-91v52h91v71c0 93 44 137 125 137z" />
    <glyph glyph-name="tbar" unicode="&#x167;" horiz-adv-x="298" 
d="M238 51c13 0 27 2 35 4v-53c-13 -3 -31 -5 -46 -5c-87 0 -124 39 -124 137v117h-88v48h88v157h-91v52h91v118h62v-118h103v-52h-103v-157h100v-48h-100v-116c0 -60 20 -84 73 -84z" />
    <glyph glyph-name="tcaron" unicode="&#x165;" horiz-adv-x="302" 
d="M244 536h-41l31 176h64zM165 456v-321c0 -60 20 -84 73 -84c13 0 27 2 35 4v-53c-13 -3 -31 -5 -46 -5c-87 0 -124 39 -124 137v322h-91v52h91v118h62v-118h103v-52h-103z" />
    <glyph glyph-name="tcedilla" unicode="&#x163;" horiz-adv-x="302" 
d="M238 51c13 0 27 2 35 4v-53c-13 -3 -31 -5 -46 -5c-87 0 -124 39 -124 137v322h-91v52h91v118h62v-118h103v-52h-103v-321c0 -60 20 -84 73 -84zM134 -68h71v-81l-49 -102h-29l35 102h-28v81z" />
    <glyph glyph-name="tcommaaccent" unicode="&#x21b;" horiz-adv-x="302" 
d="M238 51c13 0 27 2 35 4v-53c-13 -3 -31 -5 -46 -5c-87 0 -124 39 -124 137v322h-91v52h91v118h62v-118h103v-52h-103v-321c0 -60 20 -84 73 -84zM134 -68h71v-81l-49 -102h-29l35 102h-28v81z" />
    <glyph glyph-name="uacute" unicode="&#xfa;" horiz-adv-x="563" 
d="M283 571h-59l90 141h84zM259 -11c-116 0 -181 70 -181 210v309h62v-306c0 -120 49 -159 130 -159c79 0 148 57 148 164v301h62v-508h-61v69h-2c-30 -48 -88 -80 -158 -80z" />
    <glyph glyph-name="ubreve" unicode="&#x16d;" horiz-adv-x="563" 
d="M377 712h51c-8 -88 -60 -139 -146 -139s-138 51 -146 139h51c8 -58 42 -89 95 -89s86 31 95 89zM259 -11c-116 0 -181 70 -181 210v309h62v-306c0 -120 49 -159 130 -159c79 0 148 57 148 164v301h62v-508h-61v69h-2c-30 -48 -88 -80 -158 -80z" />
    <glyph glyph-name="ucircumflex" unicode="&#xfb;" horiz-adv-x="563" 
d="M363 571l-80 101l-81 -101h-69l114 141h71l114 -141h-69zM259 -11c-116 0 -181 70 -181 210v309h62v-306c0 -120 49 -159 130 -159c79 0 148 57 148 164v301h62v-508h-61v69h-2c-30 -48 -88 -80 -158 -80z" />
    <glyph glyph-name="udieresis" unicode="&#xfc;" horiz-adv-x="563" 
d="M220 624h-61v88h61v-88zM404 624h-61v88h61v-88zM259 -11c-116 0 -181 70 -181 210v309h62v-306c0 -120 49 -159 130 -159c79 0 148 57 148 164v301h62v-508h-61v69h-2c-30 -48 -88 -80 -158 -80z" />
    <glyph glyph-name="ugrave" unicode="&#xf9;" horiz-adv-x="563" 
d="M250 712l90 -141h-59l-115 141h84zM259 -11c-116 0 -181 70 -181 210v309h62v-306c0 -120 49 -159 130 -159c79 0 148 57 148 164v301h62v-508h-61v69h-2c-30 -48 -88 -80 -158 -80z" />
    <glyph glyph-name="uhungarumlaut" unicode="&#x171;" horiz-adv-x="563" 
d="M217 571h-56l110 141h80zM362 571h-56l110 141h80zM259 -11c-116 0 -181 70 -181 210v309h62v-306c0 -120 49 -159 130 -159c79 0 148 57 148 164v301h62v-508h-61v69h-2c-30 -48 -88 -80 -158 -80z" />
    <glyph glyph-name="umacron" unicode="&#x16b;" horiz-adv-x="563" 
d="M413 624h-263v52h263v-52zM259 -11c-116 0 -181 70 -181 210v309h62v-306c0 -120 49 -159 130 -159c79 0 148 57 148 164v301h62v-508h-61v69h-2c-30 -48 -88 -80 -158 -80z" />
    <glyph glyph-name="uogonek" unicode="&#x173;" horiz-adv-x="563" 
d="M443 -147c13 0 27 2 40 7v-44c-12 -5 -28 -8 -49 -8c-63 0 -92 29 -92 75c0 44 25 76 78 117h-1v69h-2c-30 -48 -88 -80 -158 -80c-116 0 -181 70 -181 210v309h62v-306c0 -120 49 -159 130 -159c79 0 148 57 148 164v301h62v-508c-61 -46 -80 -76 -80 -110
c0 -24 16 -37 43 -37z" />
    <glyph glyph-name="uring" unicode="&#x16f;" horiz-adv-x="563" 
d="M282 764c53 0 96 -44 96 -97c0 -54 -43 -97 -96 -97c-54 0 -97 43 -97 97c0 53 43 97 97 97zM282 726c-33 0 -60 -26 -60 -59c0 -34 27 -60 60 -60s59 26 59 60c0 33 -26 59 -59 59zM259 -11c-116 0 -181 70 -181 210v309h62v-306c0 -120 49 -159 130 -159
c79 0 148 57 148 164v301h62v-508h-61v69h-2c-30 -48 -88 -80 -158 -80z" />
    <glyph glyph-name="utilde" unicode="&#x169;" horiz-adv-x="563" 
d="M399 703h48c-4 -68 -39 -105 -93 -105c-58 0 -98 53 -142 53c-27 0 -43 -19 -46 -53h-48c4 68 39 105 93 105c58 0 99 -54 142 -54c27 0 43 19 46 54zM259 -11c-116 0 -181 70 -181 210v309h62v-306c0 -120 49 -159 130 -159c79 0 148 57 148 164v301h62v-508h-61v69h-2
c-30 -48 -88 -80 -158 -80z" />
    <glyph glyph-name="wacute" unicode="&#x1e83;" horiz-adv-x="750" 
d="M376 571h-59l90 141h84zM595 0h-89l-66 230c-22 75 -43 147 -64 222h-2c-21 -75 -42 -147 -64 -222l-66 -230h-89l-147 508h64l62 -220c22 -76 44 -156 65 -232h2l63 225l64 227h94l64 -227l63 -225h2c21 76 43 156 65 232l62 220h64z" />
    <glyph glyph-name="wcircumflex" unicode="&#x175;" horiz-adv-x="750" 
d="M455 571l-80 101l-81 -101h-69l114 141h71l114 -141h-69zM595 0h-89l-66 230c-22 75 -43 147 -64 222h-2c-21 -75 -42 -147 -64 -222l-66 -230h-89l-147 508h64l62 -220c22 -76 44 -156 65 -232h2l63 225l64 227h94l64 -227l63 -225h2c21 76 43 156 65 232l62 220h64z
" />
    <glyph glyph-name="wdieresis" unicode="&#x1e85;" horiz-adv-x="750" 
d="M313 624h-61v88h61v-88zM497 624h-61v88h61v-88zM595 0h-89l-66 230c-22 75 -43 147 -64 222h-2c-21 -75 -42 -147 -64 -222l-66 -230h-89l-147 508h64l62 -220c22 -76 44 -156 65 -232h2l63 225l64 227h94l64 -227l63 -225h2c21 76 43 156 65 232l62 220h64z" />
    <glyph glyph-name="wgrave" unicode="&#x1e81;" horiz-adv-x="750" 
d="M343 712l90 -141h-59l-115 141h84zM595 0h-89l-66 230c-22 75 -43 147 -64 222h-2c-21 -75 -42 -147 -64 -222l-66 -230h-89l-147 508h64l62 -220c22 -76 44 -156 65 -232h2l63 225l64 227h94l64 -227l63 -225h2c21 76 43 156 65 232l62 220h64z" />
    <glyph glyph-name="yacute" unicode="&#xfd;" horiz-adv-x="456" 
d="M230 571h-59l90 141h84zM461 508l-210 -532c-53 -132 -97 -165 -196 -165c-13 0 -26 1 -37 4v55c11 -3 24 -4 36 -4c74 0 99 24 141 134l-200 508h67l165 -429h2l165 429h67z" />
    <glyph glyph-name="ycircumflex" unicode="&#x177;" horiz-adv-x="456" 
d="M309 571l-80 101l-81 -101h-69l114 141h71l114 -141h-69zM461 508l-210 -532c-53 -132 -97 -165 -196 -165c-13 0 -26 1 -37 4v55c11 -3 24 -4 36 -4c74 0 99 24 141 134l-200 508h67l165 -429h2l165 429h67z" />
    <glyph glyph-name="ydieresis" unicode="&#xff;" horiz-adv-x="456" 
d="M166 624h-61v88h61v-88zM350 624h-61v88h61v-88zM461 508l-210 -532c-53 -132 -97 -165 -196 -165c-13 0 -26 1 -37 4v55c11 -3 24 -4 36 -4c74 0 99 24 141 134l-200 508h67l165 -429h2l165 429h67z" />
    <glyph glyph-name="ygrave" unicode="&#x1ef3;" horiz-adv-x="456" 
d="M196 712l90 -141h-59l-115 141h84zM461 508l-210 -532c-53 -132 -97 -165 -196 -165c-13 0 -26 1 -37 4v55c11 -3 24 -4 36 -4c74 0 99 24 141 134l-200 508h67l165 -429h2l165 429h67z" />
    <glyph glyph-name="zacute" unicode="&#x17a;" horiz-adv-x="461" 
d="M222 571h-59l90 141h84zM426 450l-324 -394v-2h334v-54h-411v58l324 394v2h-314v54h391v-58z" />
    <glyph glyph-name="zcaron" unicode="&#x17e;" horiz-adv-x="461" 
d="M256 571h-71l-114 141h69l81 -101l80 101h69zM426 450l-324 -394v-2h334v-54h-411v58l324 394v2h-314v54h391v-58z" />
    <glyph glyph-name="zdotaccent" unicode="&#x17c;" horiz-adv-x="461" 
d="M251 624h-62v88h62v-88zM426 450l-324 -394v-2h334v-54h-411v58l324 394v2h-314v54h391v-58z" />
    <glyph glyph-name="j.acute.loclNLD" horiz-adv-x="235" 
d="M122 571h-59l90 141h84zM152 508v-545c0 -111 -53 -152 -133 -152c-12 0 -23 1 -36 4v54c11 -2 21 -3 30 -3c49 0 77 25 77 98v544h62z" />
    <glyph glyph-name="ccedilla.ss01" horiz-adv-x="521" 
d="M274 521c115 0 197 -77 206 -188h-65c-6 78 -63 134 -141 134c-102 0 -163 -81 -163 -213c0 -133 61 -213 163 -213c78 0 134 64 141 140h65c-9 -110 -88 -194 -206 -194c-142 0 -230 101 -230 267s88 267 230 267zM216 -208h-83l124 159h60z" />
    <glyph glyph-name="scedilla.ss01" horiz-adv-x="479" 
d="M230 521c120 0 190 -63 191 -174h-62c0 77 -48 120 -129 120c-70 0 -115 -33 -115 -84c0 -62 40 -70 128 -91c95 -22 193 -42 193 -157c0 -88 -74 -148 -190 -148c-128 0 -203 66 -205 184h63c0 -83 52 -130 142 -130c76 0 128 36 128 90c0 67 -44 79 -151 104
c-85 20 -170 37 -170 143c0 86 73 143 177 143zM188 -208h-83l124 159h60z" />
    <glyph glyph-name="tcedilla.ss01" horiz-adv-x="302" 
d="M238 51c13 0 27 2 35 4v-53c-13 -3 -31 -5 -46 -5c-87 0 -124 39 -124 137v322h-91v52h91v118h62v-118h103v-52h-103v-321c0 -60 20 -84 73 -84zM152 -49h60l-101 -159h-83z" />
    <glyph glyph-name="a.sups" horiz-adv-x="383" 
d="M187 695c86 0 141 -43 141 -138v-136c0 -40 4 -70 9 -91h-49c-3 17 -5 37 -5 53h-2c-24 -38 -66 -60 -129 -60c-77 0 -126 44 -126 104c0 59 35 95 143 111c34 5 76 10 107 12v14c0 62 -37 87 -89 87c-58 0 -88 -30 -90 -72h-56c4 65 55 116 146 116zM276 483v23
c-29 -2 -69 -7 -100 -12c-69 -11 -93 -27 -93 -64c0 -38 29 -63 80 -63c31 0 62 10 80 28c25 25 33 44 33 88z" />
    <glyph glyph-name="b.sups" horiz-adv-x="411" 
d="M112 637h2c18 34 61 59 111 59c95 0 155 -74 155 -187s-60 -187 -155 -187c-50 0 -93 25 -112 59h-2v-51h-53v498h54v-191zM216 651c-65 0 -108 -57 -108 -142s43 -142 108 -142s108 57 108 142s-43 142 -108 142z" />
    <glyph glyph-name="c.sups" horiz-adv-x="380" 
d="M200 695c92 0 146 -66 152 -135h-56c-3 41 -39 87 -96 87c-69 0 -111 -53 -111 -139s42 -139 111 -139c53 0 92 43 96 91h56c-6 -78 -64 -140 -152 -140c-104 0 -168 71 -168 188c0 116 64 187 168 187z" />
    <glyph glyph-name="d.sups" horiz-adv-x="411" 
d="M353 828v-498h-53v51h-2c-18 -34 -62 -59 -111 -59c-95 0 -155 74 -155 187s60 187 154 187c50 0 93 -25 112 -59h2v191h53zM196 651c-66 0 -109 -57 -109 -142s43 -142 109 -142c64 0 107 57 107 142s-43 142 -107 142z" />
    <glyph glyph-name="e.sups" horiz-adv-x="393" 
d="M201 365c57 0 92 29 103 71h55c-11 -59 -61 -116 -158 -116c-107 0 -169 76 -169 194c0 104 61 181 167 181c83 0 140 -48 157 -126c4 -20 6 -45 6 -73h-276c3 -91 52 -131 115 -131zM199 650c-63 0 -108 -40 -113 -112h223c-6 72 -49 112 -110 112z" />
    <glyph glyph-name="egrave.sups" horiz-adv-x="393" 
d="M201 365c57 0 92 29 103 71h55c-11 -59 -61 -116 -158 -116c-107 0 -169 76 -169 194c0 96 52 170 144 180l-87 93h77l67 -95c65 -11 108 -56 123 -123c4 -20 6 -45 6 -73h-276c3 -91 52 -131 115 -131zM199 650c-63 0 -108 -40 -113 -112h223c-6 72 -49 112 -110 112z
" />
    <glyph glyph-name="f.sups" horiz-adv-x="214" 
d="M180 787c-34 0 -51 -16 -51 -61v-40h73v-45h-73v-311h-54v311h-64v45h64v47c0 67 34 98 96 98c11 0 25 -2 32 -4v-43c-7 2 -14 3 -23 3z" />
    <glyph glyph-name="g.sups" horiz-adv-x="411" 
d="M189 695c44 0 84 -19 109 -56h2v47h53v-334c0 -104 -55 -157 -160 -157c-91 0 -145 43 -145 113h53c2 -45 37 -69 92 -69c74 0 106 35 106 115v39h-2c-24 -36 -64 -56 -108 -56c-96 0 -157 71 -157 179s61 179 157 179zM191 651c-63 0 -104 -55 -104 -135
s41 -134 104 -134c70 0 111 50 111 134s-41 135 -111 135z" />
    <glyph glyph-name="h.sups" horiz-adv-x="409" 
d="M112 642h2c25 36 68 52 109 52c87 0 132 -50 132 -148v-216h-53v213c0 82 -33 105 -89 105c-54 0 -101 -36 -101 -111v-207h-54v498h54v-186z" />
    <glyph glyph-name="i.sups" horiz-adv-x="170" 
d="M112 764h-54v64h54v-64zM112 330h-54v356h54v-356z" />
    <glyph glyph-name="j.sups" horiz-adv-x="176" 
d="M117 764h-53v64h53v-64zM117 686v-389c0 -72 -40 -100 -99 -100c-10 0 -19 1 -30 3v47c9 -2 17 -2 24 -2c33 0 52 14 52 53v388h53z" />
    <glyph glyph-name="k.sups" horiz-adv-x="353" 
d="M358 330h-74l-170 182h-2v-182h-54v498h54v-289h2l151 147h72l-170 -159z" />
    <glyph glyph-name="l.sups" horiz-adv-x="170" 
d="M112 330h-54v498h54v-498z" />
    <glyph glyph-name="m.sups" horiz-adv-x="614" 
d="M437 694c80 0 123 -49 123 -144v-220h-54v216c0 79 -28 102 -78 102c-57 0 -92 -46 -92 -113v-205h-54v226c0 59 -28 92 -78 92c-57 0 -92 -47 -92 -116v-202h-54v356h53v-43h2c27 34 57 51 99 51c48 0 90 -24 110 -69c24 45 63 69 115 69z" />
    <glyph glyph-name="n.sups" horiz-adv-x="410" 
d="M223 694c87 0 132 -50 132 -148v-216h-53v213c0 82 -33 105 -89 105c-54 0 -101 -36 -101 -111v-207h-54v356h53v-45h2c21 30 61 53 110 53z" />
    <glyph glyph-name="o.sups" horiz-adv-x="405" 
d="M203 695c106 0 171 -71 171 -187c0 -117 -65 -188 -171 -188c-105 0 -172 71 -172 188c0 116 67 187 172 187zM203 649c-71 0 -114 -54 -114 -141s43 -141 114 -141c72 0 115 54 115 141s-43 141 -115 141z" />
    <glyph glyph-name="p.sups" horiz-adv-x="411" 
d="M225 696c95 0 155 -74 155 -187s-60 -187 -155 -187c-50 0 -93 25 -111 59h-2v-180h-54v485h53v-50h2c19 34 62 60 112 60zM216 651c-65 0 -108 -57 -108 -142s43 -142 108 -142s108 57 108 142s-43 142 -108 142z" />
    <glyph glyph-name="q.sups" horiz-adv-x="411" 
d="M187 696c49 0 93 -26 111 -60h2v50h53v-485h-53v180h-2c-19 -34 -62 -59 -112 -59c-94 0 -154 74 -154 187s60 187 155 187zM196 651c-66 0 -109 -57 -109 -142s43 -142 109 -142c64 0 107 57 107 142s-43 142 -107 142z" />
    <glyph glyph-name="r.sups" horiz-adv-x="256" 
d="M222 689c8 0 18 -1 25 -2v-51c-6 1 -15 2 -24 2c-73 0 -111 -48 -111 -126v-182h-54v356h53v-55h2c26 39 64 58 109 58z" />
    <glyph glyph-name="s.sups" horiz-adv-x="351" 
d="M169 695c88 0 140 -43 141 -121h-54c0 49 -32 76 -87 76c-48 0 -78 -20 -78 -52c0 -41 28 -45 90 -59s140 -28 140 -113c0 -63 -54 -106 -141 -106c-94 0 -149 47 -151 129h54c0 -54 36 -83 97 -83c52 0 88 22 88 56c0 44 -30 51 -105 69c-58 14 -125 23 -125 102
c0 61 53 102 131 102z" />
    <glyph glyph-name="t.sups" horiz-adv-x="223" 
d="M177 374c10 0 20 2 25 3v-46c-9 -2 -23 -3 -34 -3c-67 0 -96 28 -96 99v214h-64v45h64v83h54v-83h73v-45h-73v-212c0 -39 14 -55 51 -55z" />
    <glyph glyph-name="u.sups" horiz-adv-x="409" 
d="M186 322c-86 0 -132 50 -132 148v216h54v-213c0 -82 33 -105 88 -105c54 0 102 36 102 111v207h53v-356h-53v45h-2c-21 -30 -61 -53 -110 -53z" />
    <glyph glyph-name="v.sups" horiz-adv-x="331" 
d="M201 330h-70l-135 356h58l55 -150c20 -54 36 -100 56 -154h2l55 154l55 150h58z" />
    <glyph glyph-name="w.sups" 
d="M437 330h-77l-43 154c-16 51 -29 101 -44 153h-2c-14 -52 -28 -102 -44 -153l-43 -154h-76l-102 356h55l41 -149c14 -52 30 -107 44 -159h2c14 50 28 103 42 152l43 156h79l43 -156c14 -49 27 -102 41 -152h2l45 159l41 149h55z" />
    <glyph glyph-name="x.sups" horiz-adv-x="343" 
d="M203 517l140 -187h-66l-105 147h-2l-105 -147h-65l140 187l-127 169h65l92 -132h2l93 132h64z" />
    <glyph glyph-name="y.sups" horiz-adv-x="337" 
d="M340 686l-150 -375c-37 -89 -70 -113 -146 -113c-8 0 -18 1 -26 3v47c8 -2 17 -3 25 -3c55 0 71 16 98 85l-144 356h58l114 -290h2l112 290h57z" />
    <glyph glyph-name="z.sups" horiz-adv-x="334" 
d="M310 638l-225 -260v-2h232v-46h-299v48l224 260v2h-217v46h285v-48z" />
    <glyph glyph-name="ff" unicode="&#xfb00;" horiz-adv-x="541" 
d="M495 663c-49 0 -73 -25 -73 -90v-65h102v-52h-102v-456h-62v456h-192v-456h-62v456h-91v52h91v71c0 93 44 137 125 137c15 0 31 -2 42 -4v-53c-7 2 -20 4 -32 4c-49 0 -73 -25 -73 -90v-65h192v71c0 93 44 137 125 137c14 0 31 -2 41 -4v-53c-7 2 -19 4 -31 4z" />
    <glyph glyph-name="ffi" unicode="&#xfb03;" horiz-adv-x="769" 
d="M360 508v71c0 93 44 137 125 137c14 0 31 -2 41 -4v-53c-7 2 -19 4 -31 4c-49 0 -73 -25 -73 -90v-65h102v-52h-102v-456h-62v456h-192v-456h-62v456h-91v52h91v71c0 93 44 137 125 137c15 0 31 -2 42 -4v-53c-7 2 -20 4 -32 4c-49 0 -73 -25 -73 -90v-65h192zM686 712
v-88h-62v88h62zM624 508h62v-508h-62v508z" />
    <glyph glyph-name="ffl" unicode="&#xfb04;" horiz-adv-x="769" 
d="M360 508v71c0 93 44 137 125 137c14 0 31 -2 41 -4v-53c-7 2 -19 4 -31 4c-49 0 -73 -25 -73 -90v-65h102v-52h-102v-456h-62v456h-192v-456h-62v456h-91v52h91v71c0 93 44 137 125 137c15 0 31 -2 42 -4v-53c-7 2 -20 4 -32 4c-49 0 -73 -25 -73 -90v-65h192zM686 712
v-712h-62v712h62z" />
    <glyph glyph-name="fi" unicode="&#xfb01;" horiz-adv-x="516" 
d="M106 508v71c0 93 44 137 125 137c15 0 31 -2 42 -4v-53c-7 2 -20 4 -32 4c-49 0 -73 -25 -73 -90v-65h103v-52h-103v-456h-62v456h-91v52h91zM432 712v-88h-62v88h62zM370 508h62v-508h-62v508z" />
    <glyph glyph-name="fl" unicode="&#xfb02;" horiz-adv-x="516" 
d="M106 508v71c0 93 44 137 125 137c15 0 31 -2 42 -4v-53c-7 2 -20 4 -32 4c-49 0 -73 -25 -73 -90v-65h103v-52h-103v-456h-62v456h-91v52h91zM432 712v-712h-62v712h62z" />
    <glyph glyph-name="a.smcp" horiz-adv-x="554" 
d="M411 166h-268l-67 -166h-70l227 548h88l227 -548h-70zM387 225l-20 50c-31 76 -58 142 -89 220h-2c-31 -78 -58 -144 -89 -220l-20 -50h220z" />
    <glyph glyph-name="aacute.smcp" horiz-adv-x="554" 
d="M278 611h-59l90 141h84zM411 166h-268l-67 -166h-70l227 548h88l227 -548h-70zM387 225l-20 50c-31 76 -58 142 -89 220h-2c-31 -78 -58 -144 -89 -220l-20 -50h220z" />
    <glyph glyph-name="abreve.smcp" horiz-adv-x="554" 
d="M277 613c-86 0 -138 51 -146 139h51c8 -58 42 -89 95 -89s86 31 95 89h51c-8 -88 -60 -139 -146 -139zM411 166h-268l-67 -166h-70l227 548h88l227 -548h-70zM387 225l-20 50c-31 76 -58 142 -89 220h-2c-31 -78 -58 -144 -89 -220l-20 -50h220z" />
    <glyph glyph-name="acircumflex.smcp" horiz-adv-x="554" 
d="M196 611h-69l114 141h71l114 -141h-69l-80 101zM411 166h-268l-67 -166h-70l227 548h88l227 -548h-70zM387 225l-20 50c-31 76 -58 142 -89 220h-2c-31 -78 -58 -144 -89 -220l-20 -50h220z" />
    <glyph glyph-name="adieresis.smcp" horiz-adv-x="554" 
d="M215 664h-61v88h61v-88zM399 664h-61v88h61v-88zM411 166h-268l-67 -166h-70l227 548h88l227 -548h-70zM387 225l-20 50c-31 76 -58 142 -89 220h-2c-31 -78 -58 -144 -89 -220l-20 -50h220z" />
    <glyph glyph-name="agrave.smcp" horiz-adv-x="554" 
d="M276 611l-115 141h84l90 -141h-59zM411 166h-268l-67 -166h-70l227 548h88l227 -548h-70zM387 225l-20 50c-31 76 -58 142 -89 220h-2c-31 -78 -58 -144 -89 -220l-20 -50h220z" />
    <glyph glyph-name="amacron.smcp" horiz-adv-x="554" 
d="M408 664h-263v52h263v-52zM411 166h-268l-67 -166h-70l227 548h88l227 -548h-70zM387 225l-20 50c-31 76 -58 142 -89 220h-2c-31 -78 -58 -144 -89 -220l-20 -50h220z" />
    <glyph glyph-name="aogonek.smcp" horiz-adv-x="554" 
d="M511 -147c13 0 27 2 40 7v-44c-12 -5 -28 -8 -49 -8c-63 0 -92 29 -92 75c0 44 25 76 78 117h-10l-67 166h-268l-67 -166h-70l227 548h88l227 -548c-61 -46 -80 -76 -80 -110c0 -24 16 -37 43 -37zM387 225l-20 50c-31 76 -58 142 -89 220h-2c-31 -78 -58 -144 -89 -220
l-20 -50h220z" />
    <glyph glyph-name="aring.smcp" horiz-adv-x="554" 
d="M277 610c-54 0 -97 43 -97 97c0 53 43 97 97 97c53 0 96 -44 96 -97c0 -54 -43 -97 -96 -97zM277 766c-33 0 -60 -26 -60 -59c0 -34 27 -60 60 -60s59 26 59 60c0 33 -26 59 -59 59zM411 166h-268l-67 -166h-70l227 548h88l227 -548h-70zM387 225l-20 50
c-31 76 -58 142 -89 220h-2c-31 -78 -58 -144 -89 -220l-20 -50h220z" />
    <glyph glyph-name="atilde.smcp" horiz-adv-x="554" 
d="M207 691c-27 0 -43 -19 -46 -53h-48c4 68 39 105 93 105c58 0 99 -54 142 -54c27 0 43 19 46 54h48c-4 -68 -39 -105 -93 -105c-58 0 -98 53 -142 53zM411 166h-268l-67 -166h-70l227 548h88l227 -548h-70zM387 225l-20 50c-31 76 -58 142 -89 220h-2
c-31 -78 -58 -144 -89 -220l-20 -50h220z" />
    <glyph glyph-name="ae.smcp" horiz-adv-x="771" 
d="M718 59v-59h-302l-29 178h-226l-93 -178h-73l287 548h427v-59h-305l29 -178h260v-59h-250l31 -193h244zM378 237l-41 252h-13l-132 -252h186z" />
    <glyph glyph-name="b.smcp" horiz-adv-x="537" 
d="M90 548h187c131 0 193 -58 193 -142c0 -58 -32 -102 -93 -124v-2c64 -17 104 -65 104 -127c0 -93 -70 -153 -191 -153h-200v548zM155 492v-185h112c98 0 137 35 137 91c0 61 -39 94 -134 94h-115zM155 251v-194h125c90 0 133 31 133 97c0 62 -42 97 -146 97h-112z" />
    <glyph glyph-name="c.smcp" horiz-adv-x="577" 
d="M293 561c141 0 225 -82 232 -196h-69c-8 86 -74 135 -163 135c-115 0 -184 -85 -184 -226c0 -142 69 -226 183 -226c89 0 154 52 167 140h69c-12 -122 -100 -201 -236 -201c-156 0 -251 108 -251 287s95 287 252 287z" />
    <glyph glyph-name="cacute.smcp" horiz-adv-x="577" 
d="M294 611h-59l90 141h84zM293 561c141 0 225 -82 232 -196h-69c-8 86 -74 135 -163 135c-115 0 -184 -85 -184 -226c0 -142 69 -226 183 -226c89 0 154 52 167 140h69c-12 -122 -100 -201 -236 -201c-156 0 -251 108 -251 287s95 287 252 287z" />
    <glyph glyph-name="ccaron.smcp" horiz-adv-x="577" 
d="M328 611h-71l-114 141h69l81 -101l80 101h69zM293 561c141 0 225 -82 232 -196h-69c-8 86 -74 135 -163 135c-115 0 -184 -85 -184 -226c0 -142 69 -226 183 -226c89 0 154 52 167 140h69c-12 -122 -100 -201 -236 -201c-156 0 -251 108 -251 287s95 287 252 287z" />
    <glyph glyph-name="ccedilla.smcp" horiz-adv-x="577" 
d="M459 188h69c-11 -111 -85 -186 -200 -199l-35 -52c5 1 14 2 23 2c43 0 78 -27 78 -72s-34 -85 -105 -85c-37 0 -72 11 -100 27l15 32c26 -14 53 -20 78 -20c38 0 60 16 60 44c0 27 -21 43 -56 43c-12 0 -22 -2 -31 -5l-16 18l44 66c-151 4 -242 111 -242 287
c0 179 95 287 252 287c141 0 225 -82 232 -196h-69c-8 86 -74 135 -163 135c-115 0 -184 -85 -184 -226c0 -142 69 -226 183 -226c89 0 154 52 167 140z" />
    <glyph glyph-name="ccircumflex.smcp" horiz-adv-x="577" 
d="M373 611l-80 101l-81 -101h-69l114 141h71l114 -141h-69zM293 561c141 0 225 -82 232 -196h-69c-8 86 -74 135 -163 135c-115 0 -184 -85 -184 -226c0 -142 69 -226 183 -226c89 0 154 52 167 140h69c-12 -122 -100 -201 -236 -201c-156 0 -251 108 -251 287
s95 287 252 287z" />
    <glyph glyph-name="cdotaccent.smcp" horiz-adv-x="577" 
d="M323 664h-62v88h62v-88zM293 561c141 0 225 -82 232 -196h-69c-8 86 -74 135 -163 135c-115 0 -184 -85 -184 -226c0 -142 69 -226 183 -226c89 0 154 52 167 140h69c-12 -122 -100 -201 -236 -201c-156 0 -251 108 -251 287s95 287 252 287z" />
    <glyph glyph-name="d.smcp" horiz-adv-x="604" 
d="M90 548h173c191 0 300 -98 300 -274s-109 -274 -300 -274h-173v548zM155 489v-430h108c148 0 231 76 231 215s-83 215 -231 215h-108z" />
    <glyph glyph-name="eth.smcp" horiz-adv-x="605" 
d="M91 548h173c191 0 300 -98 300 -274s-109 -274 -300 -274h-173v251h-64v53h64v244zM156 59h108c148 0 232 76 232 215s-84 215 -232 215h-108v-185h165v-53h-165v-192z" />
    <glyph glyph-name="dcaron.smcp" horiz-adv-x="604" 
d="M313 611h-71l-114 141h69l81 -101l80 101h69zM90 548h173c191 0 300 -98 300 -274s-109 -274 -300 -274h-173v548zM155 489v-430h108c148 0 231 76 231 215s-83 215 -231 215h-108z" />
    <glyph glyph-name="dcroat.smcp" horiz-adv-x="605" 
d="M91 548h173c191 0 300 -98 300 -274s-109 -274 -300 -274h-173v251h-64v53h64v244zM156 59h108c148 0 232 76 232 215s-84 215 -232 215h-108v-185h165v-53h-165v-192z" />
    <glyph glyph-name="e.smcp" horiz-adv-x="520" 
d="M463 489h-307v-178h290v-59h-290v-193h315v-59h-380v548h372v-59z" />
    <glyph glyph-name="eacute.smcp" horiz-adv-x="520" 
d="M278 611h-59l90 141h84zM463 489h-307v-178h290v-59h-290v-193h315v-59h-380v548h372v-59z" />
    <glyph glyph-name="ebreve.smcp" horiz-adv-x="520" 
d="M372 752h51c-8 -88 -60 -139 -146 -139s-138 51 -146 139h51c8 -58 42 -89 95 -89s86 31 95 89zM463 489h-307v-178h290v-59h-290v-193h315v-59h-380v548h372v-59z" />
    <glyph glyph-name="ecaron.smcp" horiz-adv-x="520" 
d="M313 611h-71l-114 141h69l81 -101l80 101h69zM463 489h-307v-178h290v-59h-290v-193h315v-59h-380v548h372v-59z" />
    <glyph glyph-name="ecircumflex.smcp" horiz-adv-x="520" 
d="M358 611l-80 101l-81 -101h-69l114 141h71l114 -141h-69zM463 489h-307v-178h290v-59h-290v-193h315v-59h-380v548h372v-59z" />
    <glyph glyph-name="edieresis.smcp" horiz-adv-x="520" 
d="M215 664h-61v88h61v-88zM399 664h-61v88h61v-88zM463 489h-307v-178h290v-59h-290v-193h315v-59h-380v548h372v-59z" />
    <glyph glyph-name="edotaccent.smcp" horiz-adv-x="520" 
d="M308 664h-62v88h62v-88zM463 489h-307v-178h290v-59h-290v-193h315v-59h-380v548h372v-59z" />
    <glyph glyph-name="egrave.smcp" horiz-adv-x="520" 
d="M245 752l90 -141h-59l-115 141h84zM463 489h-307v-178h290v-59h-290v-193h315v-59h-380v548h372v-59z" />
    <glyph glyph-name="emacron.smcp" horiz-adv-x="520" 
d="M408 664h-263v52h263v-52zM463 489h-307v-178h290v-59h-290v-193h315v-59h-380v548h372v-59z" />
    <glyph glyph-name="eogonek.smcp" horiz-adv-x="520" 
d="M434 -147c13 0 27 2 40 7v-44c-12 -5 -28 -8 -49 -8c-63 0 -92 29 -92 75c0 44 25 76 78 117h-320v548h372v-59h-307v-178h290v-59h-290v-193h315v-59c-61 -46 -80 -76 -80 -110c0 -24 16 -37 43 -37z" />
    <glyph glyph-name="f.smcp" horiz-adv-x="484" 
d="M453 489h-298v-191h280v-59h-280v-239h-65v548h363v-59z" />
    <glyph glyph-name="fi.smcp" horiz-adv-x="731" 
d="M453 489h-298v-191h280v-59h-280v-239h-65v548h363v-59zM640 0h-65v548h65v-548z" />
    <glyph glyph-name="fl.smcp" horiz-adv-x="954" 
d="M453 489h-298v-191h280v-59h-280v-239h-65v548h363v-59zM640 59h304v-59h-369v548h65v-489z" />
    <glyph glyph-name="g.smcp" horiz-adv-x="610" 
d="M300 561c130 0 222 -67 232 -174h-69c-15 74 -74 113 -163 113c-118 0 -191 -86 -191 -227c0 -139 70 -223 184 -223c100 0 176 50 176 184h-165v58h228v-292h-61v71h-2c-32 -51 -106 -81 -183 -81c-150 0 -245 107 -245 283c0 179 98 288 259 288z" />
    <glyph glyph-name="gbreve.smcp" horiz-adv-x="610" 
d="M390 752h51c-8 -88 -60 -139 -146 -139s-138 51 -146 139h51c8 -58 42 -89 95 -89s86 31 95 89zM300 561c130 0 222 -67 232 -174h-69c-15 74 -74 113 -163 113c-118 0 -191 -86 -191 -227c0 -139 70 -223 184 -223c100 0 176 50 176 184h-165v58h228v-292h-61v71h-2
c-32 -51 -106 -81 -183 -81c-150 0 -245 107 -245 283c0 179 98 288 259 288z" />
    <glyph glyph-name="gcircumflex.smcp" horiz-adv-x="610" 
d="M375 611l-80 101l-81 -101h-69l114 141h71l114 -141h-69zM300 561c130 0 222 -67 232 -174h-69c-15 74 -74 113 -163 113c-118 0 -191 -86 -191 -227c0 -139 70 -223 184 -223c100 0 176 50 176 184h-165v58h228v-292h-61v71h-2c-32 -51 -106 -81 -183 -81
c-150 0 -245 107 -245 283c0 179 98 288 259 288z" />
    <glyph glyph-name="gcommaaccent.smcp" horiz-adv-x="610" 
d="M300 561c130 0 222 -67 232 -174h-69c-15 74 -74 113 -163 113c-118 0 -191 -86 -191 -227c0 -139 70 -223 184 -223c100 0 176 50 176 184h-165v58h228v-292h-61v71h-2c-32 -51 -106 -81 -183 -81c-150 0 -245 107 -245 283c0 179 98 288 259 288zM334 -149l-49 -102
h-29l35 102h-28v81h71v-81z" />
    <glyph glyph-name="gdotaccent.smcp" horiz-adv-x="610" 
d="M325 664h-62v88h62v-88zM300 561c130 0 222 -67 232 -174h-69c-15 74 -74 113 -163 113c-118 0 -191 -86 -191 -227c0 -139 70 -223 184 -223c100 0 176 50 176 184h-165v58h228v-292h-61v71h-2c-32 -51 -106 -81 -183 -81c-150 0 -245 107 -245 283
c0 179 98 288 259 288z" />
    <glyph glyph-name="h.smcp" horiz-adv-x="624" 
d="M533 0h-65v255h-312v-255h-65v548h65v-234h312v234h65v-548z" />
    <glyph glyph-name="hbar.smcp" horiz-adv-x="624" 
d="M582 438h-49v-438h-65v255h-312v-255h-65v438h-49v51h49v59h65v-59h312v59h65v-59h49v-51zM468 438h-312v-124h312v124z" />
    <glyph glyph-name="hcircumflex.smcp" horiz-adv-x="624" 
d="M393 611l-80 101l-81 -101h-69l114 141h71l114 -141h-69zM533 0h-65v255h-312v-255h-65v548h65v-234h312v234h65v-548z" />
    <glyph glyph-name="i.smcp" horiz-adv-x="247" 
d="M156 0h-65v548h65v-548z" />
    <glyph glyph-name="iacute.smcp" horiz-adv-x="247" 
d="M125 611h-59l90 141h84zM156 0h-65v548h65v-548z" />
    <glyph glyph-name="ibreve.smcp" horiz-adv-x="247" 
d="M202 752h51c-3 -87 -49 -139 -129 -139s-126 51 -129 139h50c4 -58 32 -90 79 -90s75 32 78 90zM156 0h-65v548h65v-548z" />
    <glyph glyph-name="icircumflex.smcp" horiz-adv-x="247" 
d="M258 612h-67l-68 101l-67 -101h-68l98 140h74zM156 0h-65v548h65v-548z" />
    <glyph glyph-name="idieresis.smcp" horiz-adv-x="247" 
d="M82 664h-61v88h61v-88zM226 664h-61v88h61v-88zM156 0h-65v548h65v-548z" />
    <glyph glyph-name="idotaccent.smcp" horiz-adv-x="247" 
d="M154 664h-62v88h62v-88zM156 0h-65v548h65v-548z" />
    <glyph glyph-name="igrave.smcp" horiz-adv-x="247" 
d="M91 752l90 -141h-59l-115 141h84zM156 0h-65v548h65v-548z" />
    <glyph glyph-name="ij.smcp" horiz-adv-x="541" 
d="M156 0h-65v548h65v-548zM455 548v-393c0 -106 -57 -158 -157 -158c-14 0 -28 1 -38 4v59c12 -2 23 -3 34 -3c63 0 96 29 96 100v391h65z" />
    <glyph glyph-name="imacron.smcp" horiz-adv-x="247" 
d="M244 665h-242v51h242v-51zM156 0h-65v548h65v-548z" />
    <glyph glyph-name="iogonek.smcp" horiz-adv-x="247" 
d="M119 -147c13 0 27 2 40 7v-44c-12 -5 -28 -8 -49 -8c-63 0 -92 29 -92 75c0 44 25 76 78 117h-5v548h65v-548c-61 -46 -80 -76 -80 -110c0 -24 16 -37 43 -37z" />
    <glyph glyph-name="itilde.smcp" horiz-adv-x="247" 
d="M223 743h44c-3 -68 -36 -105 -86 -105c-51 0 -80 54 -117 54c-25 0 -38 -19 -41 -54h-44c3 68 35 105 85 105c52 0 80 -55 117 -55c25 0 39 19 42 55zM156 0h-65v548h65v-548z" />
    <glyph glyph-name="j.smcp" horiz-adv-x="294" 
d="M208 548v-393c0 -106 -57 -158 -157 -158c-14 0 -28 1 -38 4v59c12 -2 23 -3 34 -3c63 0 96 29 96 100v391h65z" />
    <glyph glyph-name="jcircumflex.smcp" horiz-adv-x="294" 
d="M309 612h-67l-68 101l-67 -101h-68l98 140h74zM208 548v-393c0 -106 -57 -158 -157 -158c-14 0 -28 1 -38 4v59c12 -2 23 -3 34 -3c63 0 96 29 96 100v391h65z" />
    <glyph glyph-name="k.smcp" horiz-adv-x="525" 
d="M230 286l290 -286h-91l-271 271h-2v-271h-65v548h65v-248h2l248 248h89z" />
    <glyph glyph-name="kcommaaccent.smcp" horiz-adv-x="525" 
d="M230 286l290 -286h-91l-271 271h-2v-271h-65v548h65v-248h2l248 248h89zM316 -149l-49 -102h-29l35 102h-28v81h71v-81z" />
    <glyph glyph-name="l.smcp" horiz-adv-x="470" 
d="M156 59h304v-59h-369v548h65v-489z" />
    <glyph glyph-name="lacute.smcp" horiz-adv-x="470" 
d="M159 611h-59l90 141h84zM156 59h304v-59h-369v548h65v-489z" />
    <glyph glyph-name="lcaron.smcp" horiz-adv-x="470" 
d="M156 59h304v-59h-369v548h65v-489zM254 372h-41l31 176h64z" />
    <glyph glyph-name="lcommaaccent.smcp" horiz-adv-x="470" 
d="M156 59h304v-59h-369v548h65v-489zM310 -149l-49 -102h-29l35 102h-28v81h71v-81z" />
    <glyph glyph-name="ldot.smcp" horiz-adv-x="530" 
d="M156 59h304v-59h-369v548h65v-489zM431 288h-85v92h85v-92z" />
    <glyph glyph-name="j.acute.loclNLD.smcp" horiz-adv-x="294" 
d="M176 611h-59l90 141h84zM208 548v-393c0 -106 -57 -158 -157 -158c-14 0 -28 1 -38 4v59c12 -2 23 -3 34 -3c63 0 96 29 96 100v391h65z" />
    <glyph glyph-name="lslash.smcp" horiz-adv-x="464" 
d="M454 59v-59h-370v244l-69 -39v60l69 39v244h65v-214l123 69v-60l-123 -69v-215h305z" />
    <glyph glyph-name="m.smcp" horiz-adv-x="778" 
d="M688 0h-65v274v202h-2c-28 -69 -54 -135 -83 -204l-111 -272h-76l-111 272l-83 204h-2c0 -67 1 -135 1 -202v-274h-65v548h105l108 -266l84 -211h2l85 211l107 266h106v-548z" />
    <glyph glyph-name="n.smcp" horiz-adv-x="636" 
d="M545 0h-99l-143 238c-49 84 -98 165 -146 245h-2c0 -89 1 -177 1 -265v-218h-65v548h99l143 -238c50 -83 98 -165 146 -244h2v264v218h64v-548z" />
    <glyph glyph-name="nacute.smcp" horiz-adv-x="636" 
d="M319 611h-59l90 141h84zM545 0h-99l-143 238c-49 84 -98 165 -146 245h-2c0 -89 1 -177 1 -265v-218h-65v548h99l143 -238c50 -83 98 -165 146 -244h2v264v218h64v-548z" />
    <glyph glyph-name="ncaron.smcp" horiz-adv-x="636" 
d="M354 611h-71l-114 141h69l81 -101l80 101h69zM545 0h-99l-143 238c-49 84 -98 165 -146 245h-2c0 -89 1 -177 1 -265v-218h-65v548h99l143 -238c50 -83 98 -165 146 -244h2v264v218h64v-548z" />
    <glyph glyph-name="ncommaaccent.smcp" horiz-adv-x="636" 
d="M545 0h-99l-143 238c-49 84 -98 165 -146 245h-2c0 -89 1 -177 1 -265v-218h-65v548h99l143 -238c50 -83 98 -165 146 -244h2v264v218h64v-548zM354 -149l-49 -102h-29l35 102h-28v81h71v-81z" />
    <glyph glyph-name="eng.smcp" horiz-adv-x="635" 
d="M544 548v-579c0 -91 -47 -126 -117 -126c-11 0 -22 2 -34 5v52c10 -2 19 -3 26 -3c38 0 60 20 60 72v31l-167 250c-53 78 -102 153 -155 232h-2c0 -88 1 -175 1 -262v-220h-65v548h97l135 -201c52 -77 102 -153 155 -232h2c-1 88 -1 175 -1 262v171h65z" />
    <glyph glyph-name="ntilde.smcp" horiz-adv-x="636" 
d="M435 743h48c-4 -68 -39 -105 -93 -105c-58 0 -98 53 -142 53c-27 0 -43 -19 -46 -53h-48c4 68 39 105 93 105c58 0 99 -54 142 -54c27 0 43 19 46 54zM545 0h-99l-143 238c-49 84 -98 165 -146 245h-2c0 -89 1 -177 1 -265v-218h-65v548h99l143 -238
c50 -83 98 -165 146 -244h2v264v218h64v-548z" />
    <glyph glyph-name="o.smcp" horiz-adv-x="607" 
d="M304 561c160 0 262 -112 262 -287s-102 -287 -262 -287s-263 112 -263 287s103 287 263 287zM304 500c-119 0 -194 -88 -194 -226s75 -226 194 -226c118 0 194 88 194 226s-76 226 -194 226z" />
    <glyph glyph-name="oacute.smcp" horiz-adv-x="607" 
d="M305 611h-59l90 141h84zM304 561c160 0 262 -112 262 -287s-102 -287 -262 -287s-263 112 -263 287s103 287 263 287zM304 500c-119 0 -194 -88 -194 -226s75 -226 194 -226c118 0 194 88 194 226s-76 226 -194 226z" />
    <glyph glyph-name="obreve.smcp" horiz-adv-x="607" 
d="M399 752h51c-8 -88 -60 -139 -146 -139s-138 51 -146 139h51c8 -58 42 -89 95 -89s86 31 95 89zM304 561c160 0 262 -112 262 -287s-102 -287 -262 -287s-263 112 -263 287s103 287 263 287zM304 500c-119 0 -194 -88 -194 -226s75 -226 194 -226c118 0 194 88 194 226
s-76 226 -194 226z" />
    <glyph glyph-name="ocircumflex.smcp" horiz-adv-x="607" 
d="M384 611l-80 101l-81 -101h-69l114 141h71l114 -141h-69zM304 561c160 0 262 -112 262 -287s-102 -287 -262 -287s-263 112 -263 287s103 287 263 287zM304 500c-119 0 -194 -88 -194 -226s75 -226 194 -226c118 0 194 88 194 226s-76 226 -194 226z" />
    <glyph glyph-name="odieresis.smcp" horiz-adv-x="607" 
d="M242 664h-61v88h61v-88zM426 664h-61v88h61v-88zM304 561c160 0 262 -112 262 -287s-102 -287 -262 -287s-263 112 -263 287s103 287 263 287zM304 500c-119 0 -194 -88 -194 -226s75 -226 194 -226c118 0 194 88 194 226s-76 226 -194 226z" />
    <glyph glyph-name="ograve.smcp" horiz-adv-x="607" 
d="M272 752l90 -141h-59l-115 141h84zM304 561c160 0 262 -112 262 -287s-102 -287 -262 -287s-263 112 -263 287s103 287 263 287zM304 500c-119 0 -194 -88 -194 -226s75 -226 194 -226c118 0 194 88 194 226s-76 226 -194 226z" />
    <glyph glyph-name="ohungarumlaut.smcp" horiz-adv-x="607" 
d="M238 611h-56l110 141h80zM383 611h-56l110 141h80zM304 561c160 0 262 -112 262 -287s-102 -287 -262 -287s-263 112 -263 287s103 287 263 287zM304 500c-119 0 -194 -88 -194 -226s75 -226 194 -226c118 0 194 88 194 226s-76 226 -194 226z" />
    <glyph glyph-name="omacron.smcp" horiz-adv-x="607" 
d="M435 664h-263v52h263v-52zM304 561c160 0 262 -112 262 -287s-102 -287 -262 -287s-263 112 -263 287s103 287 263 287zM304 500c-119 0 -194 -88 -194 -226s75 -226 194 -226c118 0 194 88 194 226s-76 226 -194 226z" />
    <glyph glyph-name="oslash.smcp" horiz-adv-x="607" 
d="M555 541l-53 -66c41 -50 64 -118 64 -201c0 -175 -102 -287 -262 -287c-61 0 -114 16 -156 46l-49 -60l-45 35l52 64c-42 50 -65 119 -65 202c0 175 103 287 263 287c62 0 115 -17 157 -47l48 61zM304 501c-119 0 -195 -89 -195 -227c0 -60 14 -110 40 -148l271 338
c-31 24 -70 37 -116 37zM304 47c119 0 194 89 194 227c0 59 -14 109 -39 147l-271 -337c31 -24 70 -37 116 -37z" />
    <glyph glyph-name="otilde.smcp" horiz-adv-x="607" 
d="M420 743h48c-4 -68 -39 -105 -93 -105c-58 0 -98 53 -142 53c-27 0 -43 -19 -46 -53h-48c4 68 39 105 93 105c58 0 99 -54 142 -54c27 0 43 19 46 54zM304 561c160 0 262 -112 262 -287s-102 -287 -262 -287s-263 112 -263 287s103 287 263 287zM304 500
c-119 0 -194 -88 -194 -226s75 -226 194 -226c118 0 194 88 194 226s-76 226 -194 226z" />
    <glyph glyph-name="oe.smcp" horiz-adv-x="831" 
d="M769 489h-307v-178h291v-59h-291v-193h316v-59h-440c-189 0 -297 99 -297 274c0 176 108 274 297 274h431v-59zM397 489h-58c-146 0 -229 -78 -229 -215s83 -215 229 -215h58v430z" />
    <glyph glyph-name="p.smcp" horiz-adv-x="516" 
d="M91 548h191c134 0 207 -63 207 -166c0 -102 -73 -165 -207 -165h-126v-217h-65v548zM156 489v-213h125c92 0 140 37 140 106c0 70 -49 107 -140 107h-125z" />
    <glyph glyph-name="thorn.smcp" horiz-adv-x="516" 
d="M156 445h126c134 0 207 -62 207 -165s-73 -166 -207 -166h-126v-114h-65v548h65v-103zM156 387v-214h125c92 0 140 38 140 107s-49 107 -140 107h-125z" />
    <glyph glyph-name="q.smcp" horiz-adv-x="607" 
d="M566 274c0 -86 -24 -156 -68 -206l62 -63l-45 -44l-64 66c-41 -26 -90 -40 -147 -40c-160 0 -263 111 -263 287c0 175 103 287 263 287s262 -112 262 -287zM110 274c0 -139 75 -227 194 -227c39 0 72 9 101 26l-73 74l45 44l74 -76c30 39 47 93 47 159
c0 138 -75 226 -194 226s-194 -88 -194 -226z" />
    <glyph glyph-name="r.smcp" horiz-adv-x="534" 
d="M91 548h177c133 0 204 -47 204 -149c0 -67 -44 -124 -111 -137v-2c44 -12 60 -36 85 -102l61 -158h-70l-54 149c-24 66 -54 85 -115 85h-112v-234h-65v548zM156 490v-198h113c95 0 136 45 136 106c0 66 -52 92 -138 92h-111z" />
    <glyph glyph-name="racute.smcp" horiz-adv-x="534" 
d="M270 611h-59l90 141h84zM91 548h177c133 0 204 -47 204 -149c0 -67 -44 -124 -111 -137v-2c44 -12 60 -36 85 -102l61 -158h-70l-54 149c-24 66 -54 85 -115 85h-112v-234h-65v548zM156 490v-198h113c95 0 136 45 136 106c0 66 -52 92 -138 92h-111z" />
    <glyph glyph-name="rcaron.smcp" horiz-adv-x="534" 
d="M304 611h-71l-114 141h69l81 -101l80 101h69zM91 548h177c133 0 204 -47 204 -149c0 -67 -44 -124 -111 -137v-2c44 -12 60 -36 85 -102l61 -158h-70l-54 149c-24 66 -54 85 -115 85h-112v-234h-65v548zM156 490v-198h113c95 0 136 45 136 106c0 66 -52 92 -138 92h-111z
" />
    <glyph glyph-name="rcommaaccent.smcp" horiz-adv-x="534" 
d="M91 548h177c133 0 204 -47 204 -149c0 -67 -44 -124 -111 -137v-2c44 -12 60 -36 85 -102l61 -158h-70l-54 149c-24 66 -54 85 -115 85h-112v-234h-65v548zM156 490v-198h113c95 0 136 45 136 106c0 66 -52 92 -138 92h-111zM324 -149l-49 -102h-29l35 102h-28v81h71v-81
z" />
    <glyph glyph-name="s.smcp" horiz-adv-x="517" 
d="M241 561c139 0 207 -62 207 -181h-65c0 86 -53 122 -142 122c-78 0 -121 -34 -121 -90c0 -61 49 -76 142 -97c107 -25 198 -53 198 -163c0 -101 -80 -165 -205 -165c-133 0 -213 68 -213 195h65c0 -98 60 -136 148 -136c91 0 139 37 139 103c0 58 -52 78 -148 100
c-111 26 -192 49 -192 160c0 87 68 152 187 152z" />
    <glyph glyph-name="sacute.smcp" horiz-adv-x="517" 
d="M242 611h-59l90 141h84zM241 561c139 0 207 -62 207 -181h-65c0 86 -53 122 -142 122c-78 0 -121 -34 -121 -90c0 -61 49 -76 142 -97c107 -25 198 -53 198 -163c0 -101 -80 -165 -205 -165c-133 0 -213 68 -213 195h65c0 -98 60 -136 148 -136c91 0 139 37 139 103
c0 58 -52 78 -148 100c-111 26 -192 49 -192 160c0 87 68 152 187 152z" />
    <glyph glyph-name="scaron.smcp" horiz-adv-x="517" 
d="M277 611h-71l-114 141h69l81 -101l80 101h69zM241 561c139 0 207 -62 207 -181h-65c0 86 -53 122 -142 122c-78 0 -121 -34 -121 -90c0 -61 49 -76 142 -97c107 -25 198 -53 198 -163c0 -101 -80 -165 -205 -165c-133 0 -213 68 -213 195h65c0 -98 60 -136 148 -136
c91 0 139 37 139 103c0 58 -52 78 -148 100c-111 26 -192 49 -192 160c0 87 68 152 187 152z" />
    <glyph glyph-name="scedilla.smcp" horiz-adv-x="517" 
d="M460 152c0 -91 -65 -152 -169 -163l-35 -52c5 1 14 2 23 2c43 0 78 -27 78 -72s-34 -85 -105 -85c-37 0 -72 11 -100 27l15 32c26 -14 53 -20 78 -20c38 0 60 16 60 44c0 27 -21 43 -56 43c-12 0 -22 -2 -31 -5l-16 18l44 66c-127 3 -204 71 -204 195h65
c0 -98 60 -136 148 -136c91 0 139 37 139 103c0 58 -52 78 -148 100c-111 26 -192 49 -192 160c0 87 68 152 187 152c139 0 207 -62 207 -181h-65c0 86 -53 122 -142 122c-78 0 -121 -34 -121 -90c0 -61 49 -76 142 -97c107 -25 198 -53 198 -163z" />
    <glyph glyph-name="scircumflex.smcp" horiz-adv-x="517" 
d="M322 611l-80 101l-81 -101h-69l114 141h71l114 -141h-69zM241 561c139 0 207 -62 207 -181h-65c0 86 -53 122 -142 122c-78 0 -121 -34 -121 -90c0 -61 49 -76 142 -97c107 -25 198 -53 198 -163c0 -101 -80 -165 -205 -165c-133 0 -213 68 -213 195h65
c0 -98 60 -136 148 -136c91 0 139 37 139 103c0 58 -52 78 -148 100c-111 26 -192 49 -192 160c0 87 68 152 187 152z" />
    <glyph glyph-name="scommaaccent.smcp" horiz-adv-x="517" 
d="M241 561c139 0 207 -62 207 -181h-65c0 86 -53 122 -142 122c-78 0 -121 -34 -121 -90c0 -61 49 -76 142 -97c107 -25 198 -53 198 -163c0 -101 -80 -165 -205 -165c-133 0 -213 68 -213 195h65c0 -98 60 -136 148 -136c91 0 139 37 139 103c0 58 -52 78 -148 100
c-111 26 -192 49 -192 160c0 87 68 152 187 152zM291 -149l-49 -102h-29l35 102h-28v81h71v-81z" />
    <glyph glyph-name="germandbls.smcp" horiz-adv-x="653" 
d="M550 460l-133 -134c114 -22 180 -77 180 -175c0 -107 -75 -164 -188 -164c-112 0 -173 54 -173 154h66c0 -60 36 -95 108 -95c74 0 120 37 120 105c0 82 -68 117 -191 128v50l124 124c-32 30 -79 49 -134 49c-116 0 -178 -60 -178 -176v-326h-65v326
c0 148 89 235 243 235c94 0 172 -42 221 -101z" />
    <glyph glyph-name="t.smcp" horiz-adv-x="492" 
d="M482 489h-204v-489h-65v489h-203v59h472v-59z" />
    <glyph glyph-name="tbar.smcp" horiz-adv-x="492" 
d="M278 489v-175h114v-53h-114v-261h-65v261h-115v53h115v175h-203v59h472v-59h-204z" />
    <glyph glyph-name="tcaron.smcp" horiz-adv-x="492" 
d="M281 611h-71l-114 141h69l81 -101l80 101h69zM482 489h-204v-489h-65v489h-203v59h472v-59z" />
    <glyph glyph-name="tcedilla.smcp" horiz-adv-x="492" 
d="M482 489h-204v-489h-65v489h-203v59h472v-59zM282 -149l-49 -102h-29l35 102h-28v81h71v-81z" />
    <glyph glyph-name="tcommaaccent.smcp" horiz-adv-x="492" 
d="M482 489h-204v-489h-65v489h-203v59h472v-59zM282 -149l-49 -102h-29l35 102h-28v81h71v-81z" />
    <glyph glyph-name="u.smcp" horiz-adv-x="598" 
d="M513 548v-345c0 -140 -75 -216 -214 -216c-138 0 -213 76 -213 216v345h65v-344c0 -106 57 -156 148 -156s149 50 149 156v344h65z" />
    <glyph glyph-name="uacute.smcp" horiz-adv-x="598" 
d="M301 611h-59l90 141h84zM513 548v-345c0 -140 -75 -216 -214 -216c-138 0 -213 76 -213 216v345h65v-344c0 -106 57 -156 148 -156s149 50 149 156v344h65z" />
    <glyph glyph-name="ubreve.smcp" horiz-adv-x="598" 
d="M395 752h51c-8 -88 -60 -139 -146 -139s-138 51 -146 139h51c8 -58 42 -89 95 -89s86 31 95 89zM513 548v-345c0 -140 -75 -216 -214 -216c-138 0 -213 76 -213 216v345h65v-344c0 -106 57 -156 148 -156s149 50 149 156v344h65z" />
    <glyph glyph-name="ucircumflex.smcp" horiz-adv-x="598" 
d="M380 611l-80 101l-81 -101h-69l114 141h71l114 -141h-69zM513 548v-345c0 -140 -75 -216 -214 -216c-138 0 -213 76 -213 216v345h65v-344c0 -106 57 -156 148 -156s149 50 149 156v344h65z" />
    <glyph glyph-name="udieresis.smcp" horiz-adv-x="598" 
d="M237 664h-61v88h61v-88zM421 664h-61v88h61v-88zM513 548v-345c0 -140 -75 -216 -214 -216c-138 0 -213 76 -213 216v345h65v-344c0 -106 57 -156 148 -156s149 50 149 156v344h65z" />
    <glyph glyph-name="ugrave.smcp" horiz-adv-x="598" 
d="M267 752l90 -141h-59l-115 141h84zM513 548v-345c0 -140 -75 -216 -214 -216c-138 0 -213 76 -213 216v345h65v-344c0 -106 57 -156 148 -156s149 50 149 156v344h65z" />
    <glyph glyph-name="uhungarumlaut.smcp" horiz-adv-x="598" 
d="M234 611h-56l110 141h80zM379 611h-56l110 141h80zM513 548v-345c0 -140 -75 -216 -214 -216c-138 0 -213 76 -213 216v345h65v-344c0 -106 57 -156 148 -156s149 50 149 156v344h65z" />
    <glyph glyph-name="umacron.smcp" horiz-adv-x="598" 
d="M430 664h-263v52h263v-52zM513 548v-345c0 -140 -75 -216 -214 -216c-138 0 -213 76 -213 216v345h65v-344c0 -106 57 -156 148 -156s149 50 149 156v344h65z" />
    <glyph glyph-name="uogonek.smcp" horiz-adv-x="598" 
d="M513 548v-342c0 -92 -31 -150 -94 -201c-62 -49 -80 -79 -80 -115c0 -24 15 -37 43 -37c13 0 27 2 40 7v-44c-13 -5 -28 -8 -49 -8c-64 0 -92 29 -92 75c0 40 20 71 63 108v2c-13 -3 -28 -4 -45 -4c-138 0 -213 76 -213 217v342h65v-342c0 -106 57 -156 148 -156
c92 0 149 50 149 156v342h65z" />
    <glyph glyph-name="uring.smcp" horiz-adv-x="598" 
d="M300 804c53 0 96 -44 96 -97c0 -54 -43 -97 -96 -97c-54 0 -97 43 -97 97c0 53 43 97 97 97zM300 766c-33 0 -60 -26 -60 -59c0 -34 27 -60 60 -60s59 26 59 60c0 33 -26 59 -59 59zM513 548v-345c0 -140 -75 -216 -214 -216c-138 0 -213 76 -213 216v345h65v-344
c0 -106 57 -156 148 -156s149 50 149 156v344h65z" />
    <glyph glyph-name="utilde.smcp" horiz-adv-x="598" 
d="M416 743h48c-4 -68 -39 -105 -93 -105c-58 0 -98 53 -142 53c-27 0 -43 -19 -46 -53h-48c4 68 39 105 93 105c58 0 99 -54 142 -54c27 0 43 19 46 54zM513 548v-345c0 -140 -75 -216 -214 -216c-138 0 -213 76 -213 216v345h65v-344c0 -106 57 -156 148 -156
s149 50 149 156v344h65z" />
    <glyph glyph-name="v.smcp" horiz-adv-x="512" 
d="M301 0h-90l-205 548h69l96 -259l84 -227h2c28 75 55 152 84 227l95 259h70z" />
    <glyph glyph-name="w.smcp" horiz-adv-x="748" 
d="M602 0h-103l-63 248c-21 80 -41 162 -61 240h-2c-19 -78 -40 -160 -61 -240l-63 -248h-103l-136 548h66l55 -222c23 -89 45 -178 67 -266h2c22 90 44 179 67 268l56 220h102l56 -220c23 -89 45 -178 68 -268h2c21 88 43 177 66 266l55 222h66z" />
    <glyph glyph-name="wacute.smcp" horiz-adv-x="748" 
d="M375 611h-59l90 141h84zM602 0h-103l-63 248c-21 80 -41 162 -61 240h-2c-19 -78 -40 -160 -61 -240l-63 -248h-103l-136 548h66l55 -222c23 -89 45 -178 67 -266h2c22 90 44 179 67 268l56 220h102l56 -220c23 -89 45 -178 68 -268h2c21 88 43 177 66 266l55 222h66z
" />
    <glyph glyph-name="wcircumflex.smcp" horiz-adv-x="748" 
d="M455 611l-80 101l-81 -101h-69l114 141h71l114 -141h-69zM602 0h-103l-63 248c-21 80 -41 162 -61 240h-2c-19 -78 -40 -160 -61 -240l-63 -248h-103l-136 548h66l55 -222c23 -89 45 -178 67 -266h2c22 90 44 179 67 268l56 220h102l56 -220c23 -89 45 -178 68 -268h2
c21 88 43 177 66 266l55 222h66z" />
    <glyph glyph-name="wdieresis.smcp" horiz-adv-x="748" 
d="M312 664h-61v88h61v-88zM496 664h-61v88h61v-88zM602 0h-103l-63 248c-21 80 -41 162 -61 240h-2c-19 -78 -40 -160 -61 -240l-63 -248h-103l-136 548h66l55 -222c23 -89 45 -178 67 -266h2c22 90 44 179 67 268l56 220h102l56 -220c23 -89 45 -178 68 -268h2
c21 88 43 177 66 266l55 222h66z" />
    <glyph glyph-name="wgrave.smcp" horiz-adv-x="748" 
d="M342 752l90 -141h-59l-115 141h84zM602 0h-103l-63 248c-21 80 -41 162 -61 240h-2c-19 -78 -40 -160 -61 -240l-63 -248h-103l-136 548h66l55 -222c23 -89 45 -178 67 -266h2c22 90 44 179 67 268l56 220h102l56 -220c23 -89 45 -178 68 -268h2c21 88 43 177 66 266
l55 222h66z" />
    <glyph glyph-name="x.smcp" horiz-adv-x="516" 
d="M298 283l209 -283h-80l-168 230h-2l-169 -230h-79l208 283l-197 265h79l158 -213h2l158 213h78z" />
    <glyph glyph-name="y.smcp" horiz-adv-x="503" 
d="M284 230v-230h-65v230l-215 318h77l75 -113c32 -48 63 -96 94 -143h2c31 47 63 95 94 143l75 113h78z" />
    <glyph glyph-name="yacute.smcp" horiz-adv-x="503" 
d="M252 611h-59l90 141h84zM284 230v-230h-65v230l-215 318h77l75 -113c32 -48 63 -96 94 -143h2c31 47 63 95 94 143l75 113h78z" />
    <glyph glyph-name="ycircumflex.smcp" horiz-adv-x="503" 
d="M332 611l-80 101l-81 -101h-69l114 141h71l114 -141h-69zM284 230v-230h-65v230l-215 318h77l75 -113c32 -48 63 -96 94 -143h2c31 47 63 95 94 143l75 113h78z" />
    <glyph glyph-name="ydieresis.smcp" horiz-adv-x="503" 
d="M189 664h-61v88h61v-88zM373 664h-61v88h61v-88zM284 230v-230h-65v230l-215 318h77l75 -113c32 -48 63 -96 94 -143h2c31 47 63 95 94 143l75 113h78z" />
    <glyph glyph-name="ygrave.smcp" horiz-adv-x="503" 
d="M219 752l90 -141h-59l-115 141h84zM284 230v-230h-65v230l-215 318h77l75 -113c32 -48 63 -96 94 -143h2c31 47 63 95 94 143l75 113h78z" />
    <glyph glyph-name="z.smcp" horiz-adv-x="462" 
d="M431 481l-341 -420v-2h356v-59h-431v67l341 420v2h-333v59h408v-67z" />
    <glyph glyph-name="zacute.smcp" horiz-adv-x="462" 
d="M228 611h-59l90 141h84zM431 481l-341 -420v-2h356v-59h-431v67l341 420v2h-333v59h408v-67z" />
    <glyph glyph-name="zcaron.smcp" horiz-adv-x="462" 
d="M263 611h-71l-114 141h69l81 -101l80 101h69zM431 481l-341 -420v-2h356v-59h-431v67l341 420v2h-333v59h408v-67z" />
    <glyph glyph-name="zdotaccent.smcp" horiz-adv-x="462" 
d="M258 664h-62v88h62v-88zM431 481l-341 -420v-2h356v-59h-431v67l341 420v2h-333v59h408v-67z" />
    <glyph glyph-name="ccedilla.smcp.ss01" horiz-adv-x="577" 
d="M293 561c141 0 225 -82 232 -196h-69c-8 86 -74 135 -163 135c-115 0 -184 -85 -184 -226c0 -142 69 -226 183 -226c89 0 154 52 167 140h69c-12 -122 -100 -201 -236 -201c-156 0 -251 108 -251 287s95 287 252 287zM234 -208h-83l124 159h60z" />
    <glyph glyph-name="scedilla.smcp.ss01" horiz-adv-x="517" 
d="M241 561c139 0 207 -62 207 -181h-65c0 86 -53 122 -142 122c-78 0 -121 -34 -121 -90c0 -61 49 -76 142 -97c107 -25 198 -53 198 -163c0 -101 -80 -165 -205 -165c-133 0 -213 68 -213 195h65c0 -98 60 -136 148 -136c91 0 139 37 139 103c0 58 -52 78 -148 100
c-111 26 -192 49 -192 160c0 87 68 152 187 152zM197 -208h-83l124 159h60z" />
    <glyph glyph-name="tcedilla.smcp.ss01" horiz-adv-x="492" 
d="M482 489h-204v-489h-65v489h-203v59h472v-59zM188 -208h-83l124 159h60z" />
    <glyph glyph-name="ordfeminine" unicode="&#xaa;" horiz-adv-x="383" 
d="M187 695c86 0 141 -43 141 -138v-136c0 -40 4 -70 9 -91h-49c-3 17 -5 37 -5 53h-2c-24 -38 -66 -60 -129 -60c-77 0 -126 44 -126 104c0 59 35 95 143 111c34 5 76 10 107 12v14c0 62 -37 87 -89 87c-58 0 -88 -30 -90 -72h-56c4 65 55 116 146 116zM276 483v23
c-29 -2 -69 -7 -100 -12c-69 -11 -93 -27 -93 -64c0 -38 29 -63 80 -63c31 0 62 10 80 28c25 25 33 44 33 88z" />
    <glyph glyph-name="ordmasculine" unicode="&#xba;" horiz-adv-x="405" 
d="M203 695c106 0 171 -71 171 -187c0 -117 -65 -188 -171 -188c-105 0 -172 71 -172 188c0 116 67 187 172 187zM203 649c-71 0 -114 -54 -114 -141s43 -141 114 -141c72 0 115 54 115 141s-43 141 -115 141z" />
    <glyph glyph-name="Delta" unicode="&#x394;" horiz-adv-x="664" 
d="M658 0h-652l282 712h89zM565 59l-118 305c-39 101 -75 193 -114 295h-2c-39 -102 -75 -194 -114 -295l-118 -305h466z" />
    <glyph glyph-name="Omega" unicode="&#x3a9;" horiz-adv-x="726" 
d="M363 725c182 0 311 -102 311 -316c0 -144 -74 -250 -169 -348v-2h180v-59h-253v61c97 100 174 201 174 344c0 175 -101 259 -243 259c-141 0 -242 -84 -242 -259c0 -143 76 -244 173 -344v-61h-253v59h180v2c-95 98 -169 204 -169 348c0 214 130 316 311 316z" />
    <glyph glyph-name="mu" unicode="&#x3bc;" horiz-adv-x="568" 
d="M481 508v-375c0 -67 13 -84 48 -84c8 0 16 1 24 4v-51c-14 -5 -28 -7 -47 -7c-53 0 -78 22 -84 82h-2c-26 -52 -84 -85 -153 -85c-58 0 -99 19 -122 53v-230h-62v693h62v-303c0 -120 47 -160 127 -160c78 0 147 58 147 165v298h62z" />
    <glyph glyph-name="pi" unicode="&#x3c0;" horiz-adv-x="642" 
d="M623 456h-125v-306c0 -80 28 -101 74 -101c10 0 22 2 30 4v-51c-12 -4 -33 -7 -50 -7c-73 0 -116 36 -116 149v312h-252v-456h-62v456h-109v52h610v-52z" />
    <glyph glyph-name="zero.lf" horiz-adv-x="572" 
d="M286 687c150 0 231 -122 231 -350c0 -227 -81 -350 -231 -350c-151 0 -232 123 -232 350c0 228 81 350 232 350zM286 626c-106 0 -163 -100 -163 -289c0 -190 57 -291 163 -291s163 101 163 291c0 189 -57 289 -163 289z" />
    <glyph glyph-name="one.lf" horiz-adv-x="334" 
d="M225 0h-65v509h-145v53c102 0 145 30 158 112h52v-674z" />
    <glyph glyph-name="two.lf" horiz-adv-x="552" 
d="M280 687c122 0 204 -76 204 -185c0 -117 -81 -172 -193 -237c-140 -82 -168 -132 -169 -206h377v-59h-442c-1 7 -1 14 -1 19c0 126 30 196 200 296c105 60 160 97 160 186c0 74 -54 125 -137 125c-95 0 -140 -54 -146 -143h-68c6 127 90 204 215 204z" />
    <glyph glyph-name="three.lf" 
d="M264 687c131 0 213 -73 213 -181c0 -82 -38 -131 -116 -160v-2c86 -29 128 -81 128 -169c0 -110 -92 -188 -224 -188c-138 0 -219 80 -219 208h68c0 -97 53 -148 151 -148c92 0 156 52 156 130c0 88 -63 136 -174 136h-29v59h29c101 0 163 50 163 129
c0 76 -59 126 -149 126s-143 -48 -143 -144h-67c0 129 84 204 213 204z" />
    <glyph glyph-name="four.lf" horiz-adv-x="527" 
d="M511 185h-118v-185h-64v185h-314v64l291 425h87v-432h118v-57zM80 242h249v98v264h-2c-55 -82 -109 -161 -165 -242z" />
    <glyph glyph-name="five.lf" 
d="M458 615h-303l-21 -233h2c30 37 83 59 138 59c131 0 214 -86 214 -222c0 -141 -88 -232 -224 -232c-124 0 -207 71 -207 190h67c2 -83 59 -130 139 -130c97 0 157 67 157 170c0 101 -58 164 -150 164c-73 0 -124 -37 -143 -108l-66 5l37 396h360v-59z" />
    <glyph glyph-name="six.lf" horiz-adv-x="551" 
d="M293 687c114 0 186 -69 199 -181h-68c-14 78 -58 121 -132 121c-105 0 -171 -90 -175 -282h2c38 60 97 94 172 94c125 0 210 -89 210 -222c0 -137 -88 -230 -219 -230c-146 0 -228 107 -228 322c0 248 88 378 239 378zM283 380c-90 0 -152 -68 -152 -162
c0 -104 57 -171 151 -171c91 0 151 67 151 170c0 97 -59 163 -150 163z" />
    <glyph glyph-name="seven.lf" horiz-adv-x="457" 
d="M441 674v-60c-103 -150 -198 -356 -251 -614h-73c67 284 164 481 254 615h-356v59h426z" />
    <glyph glyph-name="eight.lf" horiz-adv-x="550" 
d="M275 687c123 0 212 -76 212 -184c0 -73 -45 -123 -116 -153v-2c82 -28 129 -83 129 -165c0 -117 -93 -196 -225 -196c-133 0 -225 79 -225 196c0 82 46 137 128 165v2c-70 30 -115 80 -115 153c0 108 88 184 212 184zM275 627c-86 0 -145 -49 -145 -124
c0 -76 56 -126 145 -126c88 0 144 50 144 126c0 75 -59 124 -144 124zM275 318c-93 0 -157 -56 -157 -133c0 -84 63 -137 157 -137c93 0 157 53 157 137c0 77 -65 133 -157 133z" />
    <glyph glyph-name="nine.lf" horiz-adv-x="551" 
d="M258 -13c-114 0 -186 69 -199 181h68c14 -78 58 -121 132 -121c104 0 171 90 175 282h-2c-38 -60 -97 -94 -172 -94c-125 0 -211 89 -211 222c0 137 89 230 220 230c146 0 228 -107 228 -322c0 -248 -88 -378 -239 -378zM268 294c90 0 152 68 152 162
c0 104 -57 171 -151 171c-91 0 -151 -67 -151 -170c0 -97 59 -163 150 -163z" />
    <glyph glyph-name="fraction" unicode="&#x2044;" horiz-adv-x="147" 
d="M-90 0h-65l392 674h65z" />
    <glyph glyph-name="onehalf" unicode="&#xbd;" horiz-adv-x="717" 
d="M155 270h-56v291h-90v46c64 0 93 18 101 67h45v-404zM130 0h-65l392 674h65zM545 413c79 0 131 -46 131 -114c0 -70 -56 -110 -120 -146c-78 -43 -97 -69 -97 -103h227v-50h-284c-1 4 -1 9 -1 14c0 79 19 122 126 183c57 32 91 54 91 103c0 36 -28 61 -74 61
c-54 0 -76 -29 -79 -75h-57c3 80 59 127 137 127z" />
    <glyph glyph-name="onequarter" unicode="&#xbc;" horiz-adv-x="682" 
d="M99 561h-90v46c64 0 93 18 101 67h45v-404h-56v291zM522 674l-392 -674h-65l392 674h65zM672 103h-67v-103h-56v103h-193v55l174 246h75v-251h67v-50zM413 153h137v53v137h-2c-30 -43 -60 -85 -91 -128z" />
    <glyph glyph-name="threequarters" unicode="&#xbe;" horiz-adv-x="808" 
d="M312 376c0 -68 -58 -115 -142 -115c-90 0 -143 49 -143 131h57c0 -56 30 -79 86 -79c51 0 84 25 84 65c0 46 -35 72 -101 72h-13v50h13c57 0 94 26 94 68c0 39 -29 63 -78 63c-53 0 -81 -23 -81 -76h-57c0 81 55 128 139 128c85 0 135 -44 135 -111
c0 -45 -18 -73 -66 -94v-2c52 -21 73 -51 73 -100zM648 674l-392 -674h-65l392 674h65zM798 103h-67v-103h-56v103h-193v55l174 246h75v-251h67v-50zM539 153h137v53v137h-2c-30 -43 -60 -85 -91 -128z" />
    <glyph glyph-name="oneeighth" unicode="&#x215b;" horiz-adv-x="716" 
d="M155 270h-56v291h-90v46c64 0 93 18 101 67h45v-404zM130 0h-65l392 674h65zM542 413c80 0 137 -47 137 -113c0 -41 -23 -70 -65 -90v-1c51 -19 72 -51 72 -98c0 -71 -59 -120 -144 -120c-87 0 -145 49 -145 120c0 47 22 79 72 98v1c-42 20 -65 49 -65 90
c0 66 57 113 138 113zM542 361c-49 0 -81 -23 -81 -61c0 -42 32 -67 81 -67s80 25 80 67c0 38 -32 61 -80 61zM542 183c-52 0 -88 -28 -88 -71s35 -69 88 -69c52 0 87 26 87 69s-36 71 -87 71z" />
    <glyph glyph-name="threeeighths" unicode="&#x215c;" horiz-adv-x="842" 
d="M170 683c85 0 135 -44 135 -111c0 -45 -18 -73 -66 -94v-2c52 -21 73 -51 73 -100c0 -68 -58 -115 -142 -115c-90 0 -143 49 -143 131h57c0 -56 30 -79 86 -79c51 0 84 25 84 65c0 46 -35 72 -101 72h-13v50h13c57 0 94 26 94 68c0 39 -29 63 -78 63
c-53 0 -81 -23 -81 -76h-57c0 81 55 128 139 128zM256 0h-65l392 674h65zM668 413c80 0 137 -47 137 -113c0 -41 -23 -70 -65 -90v-1c51 -19 72 -51 72 -98c0 -71 -59 -120 -144 -120c-87 0 -145 49 -145 120c0 47 22 79 72 98v1c-42 20 -65 49 -65 90c0 66 57 113 138 113z
M668 361c-49 0 -81 -23 -81 -61c0 -42 32 -67 81 -67s80 25 80 67c0 38 -32 61 -80 61zM668 183c-52 0 -88 -28 -88 -71s35 -69 88 -69c52 0 87 26 87 69s-36 71 -87 71z" />
    <glyph glyph-name="fiveeighths" unicode="&#x215d;" horiz-adv-x="844" 
d="M294 623h-184l-10 -113h1c16 17 44 28 77 28c83 0 136 -53 136 -137c0 -86 -57 -140 -144 -140c-81 0 -136 44 -136 117h57c1 -42 35 -65 78 -65c54 0 87 34 87 89c0 52 -32 84 -82 84c-42 0 -70 -19 -80 -55l-56 3l22 240h234v-51zM257 0h-65l392 674h65zM669 413
c80 0 137 -47 137 -113c0 -41 -23 -70 -65 -90v-1c51 -19 72 -51 72 -98c0 -71 -59 -120 -144 -120c-87 0 -145 49 -145 120c0 47 22 79 72 98v1c-42 20 -65 49 -65 90c0 66 57 113 138 113zM669 361c-49 0 -81 -23 -81 -61c0 -42 32 -67 81 -67s80 25 80 67
c0 38 -32 61 -80 61zM669 183c-52 0 -88 -28 -88 -71s35 -69 88 -69c52 0 87 26 87 69s-36 71 -87 71z" />
    <glyph glyph-name="seveneighths" unicode="&#x215e;" horiz-adv-x="750" 
d="M293 674v-51c-63 -84 -119 -213 -148 -353h-60c40 163 98 282 147 353h-223v51h284zM163 0h-65l392 674h65zM575 413c80 0 137 -47 137 -113c0 -41 -23 -70 -65 -90v-1c51 -19 72 -51 72 -98c0 -71 -59 -120 -144 -120c-87 0 -145 49 -145 120c0 47 22 79 72 98v1
c-42 20 -65 49 -65 90c0 66 57 113 138 113zM575 361c-49 0 -81 -23 -81 -61c0 -42 32 -67 81 -67s80 25 80 67c0 38 -32 61 -80 61zM575 183c-52 0 -88 -28 -88 -71s35 -69 88 -69c52 0 87 26 87 69s-36 71 -87 71z" />
    <glyph glyph-name="zero.dnom" horiz-adv-x="363" 
d="M182 413c97 0 149 -74 149 -211s-52 -211 -149 -211c-98 0 -149 74 -149 211s51 211 149 211zM182 361c-59 0 -92 -56 -92 -159s33 -159 92 -159s91 56 91 159s-32 159 -91 159z" />
    <glyph glyph-name="one.dnom" horiz-adv-x="220" 
d="M155 0h-56v291h-90v46c64 0 93 18 101 67h45v-404z" />
    <glyph glyph-name="two.dnom" horiz-adv-x="350" 
d="M178 413c79 0 131 -46 131 -114c0 -70 -56 -110 -120 -146c-78 -43 -97 -69 -97 -103h227v-50h-284c-1 4 -1 9 -1 14c0 79 19 122 126 183c57 32 91 54 91 103c0 36 -28 61 -74 61c-54 0 -76 -29 -79 -75h-57c3 80 59 127 137 127z" />
    <glyph glyph-name="three.dnom" horiz-adv-x="346" 
d="M171 413c85 0 135 -44 135 -111c0 -45 -18 -73 -66 -94v-2c52 -21 73 -51 73 -100c0 -68 -58 -115 -142 -115c-90 0 -143 49 -143 131h57c0 -56 30 -79 86 -79c51 0 84 25 84 65c0 46 -35 72 -101 72h-13v50h13c57 0 94 26 94 68c0 39 -29 63 -78 63
c-53 0 -81 -23 -81 -76h-57c0 81 55 128 139 128z" />
    <glyph glyph-name="four.dnom" horiz-adv-x="335" 
d="M325 103h-67v-103h-56v103h-193v55l174 246h75v-251h67v-50zM66 153h137v53v137h-2c-30 -43 -60 -85 -91 -128z" />
    <glyph glyph-name="five.dnom" horiz-adv-x="347" 
d="M294 353h-184l-10 -113h1c16 17 44 28 77 28c83 0 136 -53 136 -137c0 -86 -57 -140 -144 -140c-81 0 -136 44 -136 117h57c1 -42 35 -65 78 -65c54 0 87 34 87 89c0 52 -32 84 -82 84c-42 0 -70 -19 -80 -55l-56 3l22 240h234v-51z" />
    <glyph glyph-name="six.dnom" horiz-adv-x="350" 
d="M186 413c75 0 122 -43 128 -115h-57c-8 43 -33 63 -72 63c-57 0 -92 -42 -96 -140h1c24 30 55 44 99 44c78 0 131 -54 131 -134c0 -83 -57 -140 -141 -140c-94 0 -146 66 -146 195c0 148 54 227 153 227zM181 214c-50 0 -85 -35 -85 -86c0 -55 35 -85 83 -85
c49 0 84 34 84 88c0 49 -33 83 -82 83z" />
    <glyph glyph-name="seven.dnom" horiz-adv-x="303" 
d="M293 404v-51c-63 -84 -119 -213 -148 -353h-60c40 163 98 282 147 353h-223v51h284z" />
    <glyph glyph-name="eight.dnom" horiz-adv-x="349" 
d="M175 413c80 0 137 -47 137 -113c0 -41 -23 -70 -65 -90v-1c51 -19 72 -51 72 -98c0 -71 -59 -120 -144 -120c-87 0 -145 49 -145 120c0 47 22 79 72 98v1c-42 20 -65 49 -65 90c0 66 57 113 138 113zM175 361c-49 0 -81 -23 -81 -61c0 -42 32 -67 81 -67s80 25 80 67
c0 38 -32 61 -80 61zM175 183c-52 0 -88 -28 -88 -71s35 -69 88 -69c52 0 87 26 87 69s-36 71 -87 71z" />
    <glyph glyph-name="nine.dnom" horiz-adv-x="350" 
d="M164 -8c-75 0 -122 43 -128 115h57c8 -43 33 -63 72 -63c57 0 92 42 96 140h-1c-24 -30 -55 -44 -99 -44c-78 0 -131 54 -131 134c0 83 57 140 141 140c94 0 146 -66 146 -195c0 -148 -55 -227 -153 -227zM168 191c51 0 85 35 85 86c0 55 -34 85 -82 85
c-50 0 -84 -34 -84 -88c0 -49 33 -83 81 -83z" />
    <glyph glyph-name="zero.numr" horiz-adv-x="363" 
d="M182 683c97 0 149 -74 149 -211s-52 -211 -149 -211c-98 0 -149 74 -149 211s51 211 149 211zM182 631c-59 0 -92 -56 -92 -159s33 -159 92 -159s91 56 91 159s-32 159 -91 159z" />
    <glyph glyph-name="one.numr" horiz-adv-x="220" 
d="M155 270h-56v291h-90v46c64 0 93 18 101 67h45v-404z" />
    <glyph glyph-name="two.numr" horiz-adv-x="350" 
d="M177 683c79 0 131 -46 131 -114c0 -70 -56 -110 -120 -146c-78 -43 -97 -69 -97 -103h227v-50h-284c-1 4 -1 9 -1 14c0 79 19 122 126 183c57 32 91 54 91 103c0 36 -28 61 -74 61c-54 0 -76 -29 -79 -75h-57c3 80 59 127 137 127z" />
    <glyph glyph-name="three.numr" horiz-adv-x="346" 
d="M170 683c85 0 135 -44 135 -111c0 -45 -18 -73 -66 -94v-2c52 -21 73 -51 73 -100c0 -68 -58 -115 -142 -115c-90 0 -143 49 -143 131h57c0 -56 30 -79 86 -79c51 0 84 25 84 65c0 46 -35 72 -101 72h-13v50h13c57 0 94 26 94 68c0 39 -29 63 -78 63
c-53 0 -81 -23 -81 -76h-57c0 81 55 128 139 128z" />
    <glyph glyph-name="four.numr" horiz-adv-x="335" 
d="M325 373h-67v-103h-56v103h-193v55l174 246h75v-251h67v-50zM66 423h137v53v137h-2c-30 -43 -60 -85 -91 -128z" />
    <glyph glyph-name="five.numr" horiz-adv-x="347" 
d="M294 623h-184l-10 -113h1c16 17 44 28 77 28c83 0 136 -53 136 -137c0 -86 -57 -140 -144 -140c-81 0 -136 44 -136 117h57c1 -42 35 -65 78 -65c54 0 87 34 87 89c0 52 -32 84 -82 84c-42 0 -70 -19 -80 -55l-56 3l22 240h234v-51z" />
    <glyph glyph-name="six.numr" horiz-adv-x="350" 
d="M186 683c75 0 122 -43 128 -115h-57c-8 43 -33 63 -72 63c-57 0 -92 -42 -96 -140h1c24 30 55 44 99 44c78 0 131 -54 131 -134c0 -83 -57 -140 -141 -140c-94 0 -146 66 -146 195c0 148 54 227 153 227zM181 484c-50 0 -85 -35 -85 -86c0 -55 35 -85 83 -85
c49 0 84 34 84 88c0 49 -33 83 -82 83z" />
    <glyph glyph-name="seven.numr" horiz-adv-x="303" 
d="M293 674v-51c-63 -84 -119 -213 -148 -353h-60c40 163 98 282 147 353h-223v51h284z" />
    <glyph glyph-name="eight.numr" horiz-adv-x="349" 
d="M175 683c80 0 137 -47 137 -113c0 -41 -23 -70 -65 -90v-1c51 -19 72 -51 72 -98c0 -71 -59 -120 -144 -120c-87 0 -145 49 -145 120c0 47 22 79 72 98v1c-42 20 -65 49 -65 90c0 66 57 113 138 113zM175 631c-49 0 -81 -23 -81 -61c0 -42 32 -67 81 -67s80 25 80 67
c0 38 -32 61 -80 61zM175 453c-52 0 -88 -28 -88 -71s35 -69 88 -69c52 0 87 26 87 69s-36 71 -87 71z" />
    <glyph glyph-name="nine.numr" horiz-adv-x="350" 
d="M164 262c-75 0 -122 43 -128 115h57c8 -43 33 -63 72 -63c57 0 92 42 96 140h-1c-24 -30 -55 -44 -99 -44c-78 0 -131 54 -131 134c0 83 57 140 141 140c94 0 146 -66 146 -195c0 -148 -55 -227 -153 -227zM168 461c51 0 85 35 85 86c0 55 -34 85 -82 85
c-50 0 -84 -34 -84 -88c0 -49 33 -83 81 -83z" />
    <glyph glyph-name="zeroinferior" unicode="&#x2080;" horiz-adv-x="416" 
d="M207 310c110 0 170 -86 170 -246c0 -158 -60 -246 -170 -246s-169 88 -169 246c0 160 59 246 169 246zM207 258c-71 0 -111 -68 -111 -194c0 -127 40 -196 111 -196s111 69 111 196c0 126 -40 194 -111 194z" />
    <glyph glyph-name="oneinferior" unicode="&#x2081;" horiz-adv-x="248" 
d="M171 -172h-56v348h-105v45c74 0 107 21 116 79h45v-472z" />
    <glyph glyph-name="twoinferior" unicode="&#x2082;" horiz-adv-x="402" 
d="M204 310c90 0 150 -54 150 -132c0 -83 -62 -124 -139 -168c-96 -54 -118 -86 -118 -132h268v-50h-324c-2 5 -2 10 -2 15c0 90 22 141 145 210c71 40 110 66 110 125c0 47 -35 80 -91 80c-65 0 -94 -36 -98 -94h-59c4 91 67 146 158 146z" />
    <glyph glyph-name="threeinferior" unicode="&#x2083;" horiz-adv-x="396" 
d="M193 310c97 0 156 -52 156 -129c0 -55 -25 -88 -81 -111v-2c62 -23 89 -57 89 -117c0 -78 -68 -133 -163 -133c-102 0 -162 57 -162 149h58c0 -66 36 -98 104 -98c62 0 104 34 104 84c0 58 -42 89 -120 89h-18v50h18c69 0 113 32 113 85c0 50 -39 81 -100 81
c-63 0 -97 -30 -97 -95h-58c0 93 62 147 157 147z" />
    <glyph glyph-name="fourinferior" unicode="&#x2084;" horiz-adv-x="384" 
d="M372 -48h-82v-124h-55v124h-225v55l206 293h74v-298h82v-50zM66 2h170v65v172h-2c-37 -53 -75 -105 -112 -159z" />
    <glyph glyph-name="fiveinferior" unicode="&#x2085;" horiz-adv-x="396" 
d="M335 250h-215l-15 -148h2c22 23 59 36 94 36c96 0 156 -60 156 -155c0 -101 -64 -165 -164 -165c-91 0 -153 51 -153 135h58c1 -53 41 -83 95 -83c65 0 106 43 106 111c0 66 -40 107 -101 107c-50 0 -85 -26 -98 -71l-57 4l27 279h265v-50z" />
    <glyph glyph-name="sixinferior" unicode="&#x2086;" horiz-adv-x="401" 
d="M212 310c85 0 139 -50 146 -131h-58c-9 52 -39 79 -89 79c-70 0 -115 -57 -119 -180h2c25 36 63 58 119 58c90 0 152 -62 152 -156c0 -96 -65 -162 -160 -162c-108 0 -167 76 -167 227c0 173 63 265 174 265zM206 86c-62 0 -104 -44 -104 -107c0 -68 40 -109 103 -109
c60 0 102 44 102 110c0 63 -40 106 -101 106z" />
    <glyph glyph-name="seveninferior" unicode="&#x2087;" horiz-adv-x="348" 
d="M336 300v-51c-74 -103 -140 -249 -175 -421h-64c47 194 117 332 178 422h-265v50h326z" />
    <glyph glyph-name="eightinferior" unicode="&#x2088;" horiz-adv-x="399" 
d="M200 310c91 0 155 -55 155 -131c0 -48 -30 -83 -79 -106v-2c59 -21 89 -58 89 -114c0 -82 -68 -139 -165 -139c-98 0 -165 57 -165 139c0 56 29 93 88 114v2c-49 23 -79 58 -79 106c0 76 64 131 156 131zM200 258c-58 0 -98 -31 -98 -79c0 -51 38 -83 98 -83
c59 0 98 32 98 83c0 48 -40 79 -98 79zM200 47c-63 0 -107 -37 -107 -88c0 -55 43 -89 107 -89c63 0 106 34 106 89c0 51 -44 88 -106 88z" />
    <glyph glyph-name="nineinferior" unicode="&#x2089;" horiz-adv-x="401" 
d="M188 -182c-85 0 -139 50 -146 131h58c9 -52 39 -79 89 -79c70 0 115 57 119 180h-2c-25 -36 -63 -58 -119 -58c-90 0 -152 62 -152 156c0 96 65 162 161 162c107 0 166 -76 166 -227c0 -173 -63 -265 -174 -265zM194 42c62 0 104 44 104 107c0 68 -40 109 -103 109
c-60 0 -102 -44 -102 -110c0 -63 40 -106 101 -106z" />
    <glyph glyph-name="zerosuperior" unicode="&#x2070;" horiz-adv-x="416" 
d="M208 812c110 0 170 -86 170 -246c0 -158 -60 -246 -170 -246s-169 88 -169 246c0 160 59 246 169 246zM208 760c-71 0 -111 -68 -111 -194c0 -127 40 -196 111 -196s111 69 111 196c0 126 -40 194 -111 194z" />
    <glyph glyph-name="onesuperior" unicode="&#xb9;" horiz-adv-x="248" 
d="M172 330h-56v348h-105v45c74 0 107 21 116 79h45v-472z" />
    <glyph glyph-name="twosuperior" unicode="&#xb2;" horiz-adv-x="402" 
d="M204 812c90 0 150 -54 150 -132c0 -83 -62 -124 -139 -168c-96 -54 -118 -86 -118 -132h268v-50h-324c-2 5 -2 10 -2 15c0 90 22 141 145 210c71 40 110 66 110 125c0 47 -35 80 -91 80c-65 0 -94 -36 -98 -94h-59c4 91 67 146 158 146z" />
    <glyph glyph-name="threesuperior" unicode="&#xb3;" horiz-adv-x="396" 
d="M193 812c97 0 156 -52 156 -129c0 -55 -25 -88 -81 -111v-2c62 -23 89 -57 89 -117c0 -78 -68 -133 -163 -133c-102 0 -162 57 -162 149h58c0 -66 36 -98 104 -98c62 0 104 34 104 84c0 58 -42 89 -120 89h-18v50h18c69 0 113 32 113 85c0 50 -39 81 -100 81
c-63 0 -97 -30 -97 -95h-58c0 93 62 147 157 147z" />
    <glyph glyph-name="foursuperior" unicode="&#x2074;" horiz-adv-x="384" 
d="M373 454h-82v-124h-55v124h-225v55l206 293h74v-298h82v-50zM67 504h170v65v172h-2c-37 -53 -75 -105 -112 -159z" />
    <glyph glyph-name="fivesuperior" unicode="&#x2075;" horiz-adv-x="396" 
d="M335 752h-215l-15 -148h2c22 23 59 36 94 36c96 0 156 -60 156 -155c0 -101 -64 -165 -164 -165c-91 0 -153 51 -153 135h58c1 -53 41 -83 95 -83c65 0 106 43 106 111c0 66 -40 107 -101 107c-50 0 -85 -26 -98 -71l-57 4l27 279h265v-50z" />
    <glyph glyph-name="sixsuperior" unicode="&#x2076;" horiz-adv-x="401" 
d="M213 812c85 0 139 -50 146 -131h-58c-9 52 -39 79 -89 79c-70 0 -115 -57 -119 -180h2c25 36 63 58 119 58c90 0 152 -62 152 -156c0 -96 -65 -162 -160 -162c-108 0 -167 76 -167 227c0 173 63 265 174 265zM207 588c-62 0 -104 -44 -104 -107c0 -68 40 -109 103 -109
c60 0 102 44 102 110c0 63 -40 106 -101 106z" />
    <glyph glyph-name="sevensuperior" unicode="&#x2077;" horiz-adv-x="348" 
d="M337 802v-51c-74 -103 -140 -249 -175 -421h-64c47 194 117 332 178 422h-265v50h326z" />
    <glyph glyph-name="eightsuperior" unicode="&#x2078;" horiz-adv-x="399" 
d="M200 812c91 0 155 -55 155 -131c0 -48 -30 -83 -79 -106v-2c59 -21 89 -58 89 -114c0 -82 -68 -139 -165 -139c-98 0 -165 57 -165 139c0 56 29 93 88 114v2c-49 23 -79 58 -79 106c0 76 64 131 156 131zM200 760c-58 0 -98 -31 -98 -79c0 -51 38 -83 98 -83
c59 0 98 32 98 83c0 48 -40 79 -98 79zM200 549c-63 0 -107 -37 -107 -88c0 -55 43 -89 107 -89c63 0 106 34 106 89c0 51 -44 88 -106 88z" />
    <glyph glyph-name="ninesuperior" unicode="&#x2079;" horiz-adv-x="401" 
d="M188 320c-85 0 -139 50 -146 131h58c9 -52 39 -79 89 -79c70 0 115 57 119 180h-2c-25 -36 -63 -58 -119 -58c-90 0 -152 62 -152 156c0 96 65 162 161 162c107 0 166 -76 166 -227c0 -173 -63 -265 -174 -265zM194 544c62 0 104 44 104 107c0 68 -40 109 -103 109
c-60 0 -102 -44 -102 -110c0 -63 40 -106 101 -106z" />
    <glyph glyph-name="zero.smcp" horiz-adv-x="461" 
d="M231 559c127 0 197 -100 197 -285c0 -184 -70 -285 -197 -285c-128 0 -198 101 -198 285c0 185 70 285 198 285zM231 499c-84 0 -129 -78 -129 -225c0 -148 45 -227 129 -227c83 0 129 79 129 227c0 147 -46 225 -129 225z" />
    <glyph glyph-name="one.smcp" horiz-adv-x="461" 
d="M277 0h-65v404h-122v53c86 0 124 24 134 91h53v-548z" />
    <glyph glyph-name="two.smcp" horiz-adv-x="461" 
d="M231 559c104 0 174 -62 174 -153c0 -95 -72 -144 -162 -195c-112 -62 -137 -100 -137 -152h312v-59h-377c-1 5 -1 12 -1 17c0 105 25 163 169 244c82 47 127 77 127 145c0 55 -41 93 -106 93c-76 0 -110 -41 -115 -109h-68c4 106 78 169 184 169z" />
    <glyph glyph-name="three.smcp" horiz-adv-x="461" 
d="M226 559c112 0 181 -60 181 -149c0 -63 -29 -102 -94 -128v-2c71 -27 103 -68 103 -136c0 -92 -78 -155 -190 -155c-119 0 -189 65 -189 172h68c0 -76 43 -113 121 -113c73 0 122 38 122 97c0 67 -50 104 -141 104h-21v57h22c80 0 131 39 131 99c0 58 -46 95 -116 95
c-73 0 -114 -36 -114 -111h-66c0 108 72 170 183 170z" />
    <glyph glyph-name="four.smcp" horiz-adv-x="461" 
d="M440 145h-97v-145h-64v145h-261v63l240 340h85v-346h97v-57zM82 202h198v76v199h-2c-43 -62 -86 -122 -130 -184z" />
    <glyph glyph-name="five.smcp" horiz-adv-x="461" 
d="M389 489h-251l-16 -170h2c26 27 70 41 111 41c110 0 181 -69 181 -180c0 -117 -76 -191 -191 -191c-107 0 -179 58 -179 156h68c1 -62 46 -96 110 -96c76 0 123 50 123 128c0 77 -45 124 -118 124c-58 0 -98 -28 -113 -82l-66 5l31 324h308v-59z" />
    <glyph glyph-name="six.smcp" horiz-adv-x="461" 
d="M244 559c98 0 161 -57 171 -151h-68c-12 61 -46 91 -104 91c-83 0 -135 -66 -139 -210h2c34 48 77 69 139 69c105 0 178 -73 178 -181c0 -112 -76 -188 -187 -188c-125 0 -195 88 -195 263c0 201 74 307 203 307zM237 299c-72 0 -122 -51 -122 -123
c0 -80 48 -127 121 -127c70 0 119 50 119 128c0 72 -47 122 -118 122z" />
    <glyph glyph-name="seven.smcp" horiz-adv-x="461" 
d="M416 548v-60c-86 -118 -163 -288 -205 -488h-74c54 225 137 386 209 489h-310v59h380z" />
    <glyph glyph-name="eight.smcp" horiz-adv-x="461" 
d="M231 559c105 0 181 -63 181 -151c0 -57 -35 -96 -92 -123v-2c68 -24 102 -68 102 -133c0 -96 -78 -161 -191 -161c-114 0 -192 65 -192 161c0 65 34 109 102 133v2c-57 27 -92 66 -92 123c0 88 76 151 182 151zM231 499c-68 0 -114 -35 -114 -91c0 -59 44 -97 114 -97
c69 0 113 38 113 97c0 56 -46 91 -113 91zM231 253c-74 0 -124 -42 -124 -101c0 -64 49 -103 124 -103c74 0 124 39 124 103c0 59 -51 101 -124 101z" />
    <glyph glyph-name="nine.smcp" horiz-adv-x="461" 
d="M217 -11c-98 0 -161 57 -170 151h68c11 -61 45 -91 103 -91c83 0 136 66 140 210h-2c-35 -48 -78 -69 -140 -69c-105 0 -177 73 -177 181c0 112 75 188 187 188c125 0 194 -88 194 -263c0 -201 -73 -307 -203 -307zM225 249c72 0 121 51 121 123c0 80 -47 127 -120 127
c-71 0 -119 -50 -119 -128c0 -72 46 -122 118 -122z" />
    <glyph glyph-name="zero.lf.smcp" horiz-adv-x="493" 
d="M247 559c127 0 197 -100 197 -285c0 -184 -70 -285 -197 -285c-128 0 -198 101 -198 285c0 185 70 285 198 285zM247 499c-84 0 -130 -78 -130 -225c0 -148 46 -227 130 -227c83 0 129 79 129 227c0 147 -46 225 -129 225z" />
    <glyph glyph-name="one.lf.smcp" horiz-adv-x="298" 
d="M200 0h-65v404h-122v53c86 0 124 24 134 91h53v-548z" />
    <glyph glyph-name="two.lf.smcp" horiz-adv-x="475" 
d="M241 559c104 0 174 -62 174 -153c0 -95 -72 -144 -162 -195c-112 -62 -137 -100 -137 -152h312v-59h-377c-1 5 -1 12 -1 17c0 105 25 163 169 244c83 47 128 77 128 145c0 55 -42 93 -107 93c-75 0 -110 -41 -114 -109h-69c5 106 78 169 184 169z" />
    <glyph glyph-name="three.lf.smcp" horiz-adv-x="469" 
d="M229 559c112 0 181 -60 181 -149c0 -63 -29 -102 -94 -128v-2c72 -27 103 -68 103 -136c0 -92 -78 -155 -190 -155c-119 0 -188 65 -188 172h68c0 -76 42 -113 120 -113c73 0 122 38 122 97c0 67 -50 104 -140 104h-22v57h22c80 0 131 39 131 99c0 58 -46 95 -116 95
c-72 0 -113 -36 -113 -111h-67c0 108 72 170 183 170z" />
    <glyph glyph-name="four.lf.smcp" horiz-adv-x="449" 
d="M435 145h-96v-145h-64v145h-262v63l240 340h86v-346h96v-57zM78 202h197v76c0 66 0 134 1 199h-2c-43 -62 -87 -122 -131 -184z" />
    <glyph glyph-name="five.lf.smcp" horiz-adv-x="470" 
d="M394 489h-251l-16 -170h2c26 27 70 41 111 41c110 0 181 -69 181 -180c0 -117 -76 -191 -191 -191c-107 0 -179 58 -179 156h68c1 -62 46 -96 110 -96c76 0 123 50 123 128c0 77 -45 124 -118 124c-58 0 -98 -28 -113 -82l-66 5l31 324h308v-59z" />
    <glyph glyph-name="six.lf.smcp" horiz-adv-x="476" 
d="M253 559c98 0 160 -57 170 -151h-68c-11 61 -45 91 -103 91c-83 0 -136 -66 -140 -210h2c35 48 78 69 140 69c105 0 177 -73 177 -181c0 -112 -76 -188 -187 -188c-125 0 -195 88 -195 263c0 201 74 307 204 307zM245 299c-72 0 -121 -51 -121 -123
c0 -80 47 -127 120 -127c71 0 119 50 119 128c0 72 -46 122 -118 122z" />
    <glyph glyph-name="seven.lf.smcp" horiz-adv-x="407" 
d="M393 548v-60c-86 -118 -163 -288 -205 -488h-74c54 225 137 386 209 489h-310v59h380z" />
    <glyph glyph-name="eight.lf.smcp" horiz-adv-x="473" 
d="M237 559c105 0 181 -63 181 -151c0 -57 -35 -96 -92 -123v-2c68 -24 102 -68 102 -133c0 -96 -78 -161 -191 -161c-114 0 -192 65 -192 161c0 65 34 109 102 133v2c-57 27 -92 66 -92 123c0 88 76 151 182 151zM237 499c-68 0 -114 -35 -114 -91c0 -59 44 -97 114 -97
c69 0 113 38 113 97c0 56 -46 91 -113 91zM237 253c-74 0 -124 -42 -124 -101c0 -64 49 -103 124 -103c74 0 124 39 124 103c0 59 -51 101 -124 101z" />
    <glyph glyph-name="nine.lf.smcp" horiz-adv-x="476" 
d="M223 -11c-98 0 -161 57 -171 151h68c12 -61 46 -91 104 -91c83 0 135 66 139 210h-2c-34 -48 -77 -69 -139 -69c-105 0 -178 73 -178 181c0 112 76 188 187 188c125 0 195 -88 195 -263c0 -201 -74 -307 -203 -307zM230 249c72 0 122 51 122 123c0 80 -48 127 -121 127
c-70 0 -119 -50 -119 -128c0 -72 47 -122 118 -122z" />
    <glyph glyph-name="periodcentered" unicode="&#xb7;" horiz-adv-x="210" 
d="M148 260h-86v91h86v-91z" />
    <glyph glyph-name="bullet" unicode="&#x2022;" horiz-adv-x="322" 
d="M161 254c-56 0 -102 46 -102 102s46 102 102 102c57 0 103 -46 103 -102s-46 -102 -103 -102z" />
    <glyph glyph-name="ellipsis" unicode="&#x2026;" horiz-adv-x="681" 
d="M148 0h-86v92h86v-92zM383 0h-85v92h85v-92zM619 0h-86v92h86v-92z" />
    <glyph glyph-name="exclamdown" unicode="&#xa1;" horiz-adv-x="251" 
d="M86 508h79v-93h-79v93zM100 344h51l16 -548h-83z" />
    <glyph glyph-name="overline" unicode="&#x203e;" horiz-adv-x="500" 
d="M500 793h-500v52h500v-52z" />
    <glyph glyph-name="questiondown" unicode="&#xbf;" horiz-adv-x="466" 
d="M231 508h79v-93h-79v93zM249 -217c-124 0 -209 73 -209 178c0 70 18 108 110 184c79 65 92 93 92 208h58v-29c0 -107 -20 -145 -105 -218c-75 -65 -87 -91 -87 -144c0 -73 56 -120 141 -120c93 0 147 50 153 143h64c-8 -132 -86 -202 -217 -202z" />
    <glyph glyph-name="underscoredbl" unicode="&#x2017;" horiz-adv-x="500" 
d="M500 -88h-500v38h500v-38zM500 -210h-500v38h500v-38z" />
    <glyph glyph-name="periodcentered.case" horiz-adv-x="210" 
d="M148 310h-86v91h86v-91z" />
    <glyph glyph-name="exclamdown.case" horiz-adv-x="251" 
d="M86 712h79v-93h-79v93zM100 548h51l16 -548h-83z" />
    <glyph glyph-name="periodcentered.loclCAT.case" horiz-adv-x="80" 
d="M-61 357h-85v92h85v-92z" />
    <glyph glyph-name="questiondown.case" horiz-adv-x="501" 
d="M231 712h79v-93h-79v93zM249 -13c-124 0 -209 73 -209 178c0 70 18 108 110 184c79 65 92 93 92 208h58v-29c0 -107 -20 -145 -105 -218c-75 -65 -87 -91 -87 -144c0 -73 56 -120 141 -120c93 0 147 50 153 143h64c-8 -132 -86 -202 -217 -202z" />
    <glyph glyph-name="slash.case" horiz-adv-x="442" 
d="M126 0h-64l253 712h64z" />
    <glyph glyph-name="periodcentered.loclCAT" horiz-adv-x="128" 
d="M107 310h-86v91h86v-91z" />
    <glyph glyph-name="parenleftinferior" unicode="&#x208d;" horiz-adv-x="204" 
d="M134 347h49c-59 -103 -85 -196 -85 -311s26 -208 85 -311h-49c-62 91 -96 188 -96 311s34 219 96 311z" />
    <glyph glyph-name="parenleftsuperior" unicode="&#x207d;" horiz-adv-x="204" 
d="M134 849h49c-59 -103 -85 -196 -85 -311s26 -208 85 -311h-49c-62 91 -96 188 -96 311s34 219 96 311z" />
    <glyph glyph-name="parenrightinferior" unicode="&#x208e;" horiz-adv-x="204" 
d="M70 -275h-49c59 103 85 196 85 311s-26 208 -85 311h49c62 -91 96 -188 96 -311s-34 -219 -96 -311z" />
    <glyph glyph-name="parenrightsuperior" unicode="&#x207e;" horiz-adv-x="204" 
d="M70 227h-49c59 103 85 196 85 311s-26 208 -85 311h49c62 -91 96 -188 96 -311s-34 -219 -96 -311z" />
    <glyph glyph-name="braceleft.case" horiz-adv-x="283" 
d="M259 772v-44c-66 -1 -92 -30 -92 -106v-144c0 -67 -19 -100 -79 -120v-3c60 -20 79 -53 79 -120v-145c0 -76 26 -105 92 -106v-44h-22c-89 0 -130 47 -130 155v138c0 60 -18 85 -67 100v47c49 15 67 40 67 100v138c0 107 41 154 130 154h22z" />
    <glyph glyph-name="braceright.case" horiz-adv-x="283" 
d="M23 772h22c89 0 131 -47 131 -154v-138c0 -60 17 -85 67 -100v-47c-50 -15 -67 -40 -67 -100v-138c0 -108 -42 -155 -131 -155h-22v44c67 1 92 30 92 106v145c0 67 20 100 79 120v3c-59 20 -79 53 -79 120v144c0 76 -25 105 -92 106v44z" />
    <glyph glyph-name="bracketleft.case" horiz-adv-x="281" 
d="M261 724h-121v-736h121v-48h-182v832h182v-48z" />
    <glyph glyph-name="bracketright.case" horiz-adv-x="281" 
d="M202 772v-832h-182v48h121v736h-121v48h182z" />
    <glyph glyph-name="parenleft.case" horiz-adv-x="274" 
d="M187 772h57c-82 -135 -120 -258 -120 -416c0 -157 38 -281 120 -416h-57c-86 122 -132 249 -132 416s46 295 132 416z" />
    <glyph glyph-name="parenright.case" horiz-adv-x="274" 
d="M30 772h58c85 -121 131 -249 131 -416s-46 -294 -131 -416h-58c83 135 120 259 120 416c0 158 -37 281 -120 416z" />
    <glyph glyph-name="bracketleft.sups" horiz-adv-x="205" 
d="M191 805h-82v-534h82v-44h-135v622h135v-44z" />
    <glyph glyph-name="bracketright.sups" horiz-adv-x="205" 
d="M150 849v-622h-136v44h82v534h-82v44h136z" />
    <glyph glyph-name="emdash" unicode="&#x2014;" horiz-adv-x="1000" 
d="M980 261h-960v62h960v-62z" />
    <glyph glyph-name="endash" unicode="&#x2013;" horiz-adv-x="500" 
d="M480 261h-460v62h460v-62z" />
    <glyph glyph-name="horizontalbar" unicode="&#x2015;" horiz-adv-x="1000" 
d="M980 261h-960v62h960v-62z" />
    <glyph glyph-name="hyphentwo" unicode="&#x2010;" horiz-adv-x="290" 
d="M260 261h-230v62h230v-62z" />
    <glyph glyph-name="softhyphen" unicode="&#xad;" horiz-adv-x="290" 
d="M260 261h-230v62h230v-62z" />
    <glyph glyph-name="emdash.case" horiz-adv-x="1000" 
d="M980 324h-960v62h960v-62z" />
    <glyph glyph-name="endash.case" horiz-adv-x="500" 
d="M480 324h-460v62h460v-62z" />
    <glyph glyph-name="hyphen.case" horiz-adv-x="290" 
d="M260 324h-230v62h230v-62z" />
    <glyph glyph-name="guillemetleft" unicode="&#xab;" horiz-adv-x="430" 
d="M114 254l112 -200h-62l-114 200l114 200h62zM267 254l113 -200h-63l-114 200l114 200h63z" />
    <glyph glyph-name="guillemetright" unicode="&#xbb;" horiz-adv-x="430" 
d="M112 454l114 -200l-114 -200h-62l112 200l-112 200h62zM266 454l114 -200l-114 -200h-63l113 200l-113 200h63z" />
    <glyph glyph-name="guilsinglleft" unicode="&#x2039;" horiz-adv-x="276" 
d="M114 254l112 -200h-62l-114 200l114 200h62z" />
    <glyph glyph-name="guilsinglright" unicode="&#x203a;" horiz-adv-x="276" 
d="M112 454l114 -200l-114 -200h-62l112 200l-112 200h62z" />
    <glyph glyph-name="quotedblbase" unicode="&#x201e;" horiz-adv-x="379" 
d="M156 0l-40 -128h-44l29 128h-29v90h84v-90zM306 0l-40 -128h-44l29 128h-29v90h84v-90z" />
    <glyph glyph-name="quotedblleft" unicode="&#x201c;" horiz-adv-x="379" 
d="M72 584l41 128h44l-30 -128h29v-90h-84v90zM222 584l41 128h44l-30 -128h29v-90h-84v90z" />
    <glyph glyph-name="quotedblright" unicode="&#x201d;" horiz-adv-x="379" 
d="M156 622l-40 -128h-44l29 128h-29v90h84v-90zM306 622l-40 -128h-44l29 128h-29v90h84v-90z" />
    <glyph glyph-name="quoteleft" unicode="&#x2018;" horiz-adv-x="229" 
d="M72 584l41 128h44l-30 -128h29v-90h-84v90z" />
    <glyph glyph-name="quoteright" unicode="&#x2019;" horiz-adv-x="229" 
d="M156 622l-40 -128h-44l29 128h-29v90h84v-90z" />
    <glyph glyph-name="quotesinglbase" unicode="&#x201a;" horiz-adv-x="229" 
d="M156 0l-40 -128h-44l29 128h-29v90h84v-90z" />
    <glyph glyph-name="guillemetleft.case" horiz-adv-x="430" 
d="M114 356l112 -200h-62l-114 200l114 200h62zM267 356l113 -200h-63l-114 200l114 200h63z" />
    <glyph glyph-name="guillemetright.case" horiz-adv-x="430" 
d="M112 556l114 -200l-114 -200h-62l112 200l-112 200h62zM266 556l114 -200l-114 -200h-63l113 200l-113 200h63z" />
    <glyph glyph-name="guilsinglleft.case" horiz-adv-x="276" 
d="M114 356l112 -200h-62l-114 200l114 200h62z" />
    <glyph glyph-name="guilsinglright.case" horiz-adv-x="276" 
d="M112 556l114 -200l-114 -200h-62l112 200l-112 200h62z" />
    <glyph glyph-name="quoteright.loclFRA" horiz-adv-x="268" 
d="M176 622l-40 -128h-44l29 128h-29v90h84v-90z" />
    <glyph glyph-name="periodcentered.loclCAT.smcp" horiz-adv-x="60" 
d="M-39 288h-85v92h85v-92z" />
    <glyph glyph-name="nbspace" unicode="&#xa0;" horiz-adv-x="230" 
 />
    <glyph glyph-name="cent" unicode="&#xa2;" 
d="M312 544v-420c63 13 107 71 112 137h66c-8 -101 -76 -180 -178 -192v-92h-54v91c-127 12 -204 110 -204 266s77 254 204 266v87h54v-88c100 -11 170 -84 178 -186h-65c-5 68 -50 120 -113 131zM120 334c0 -121 52 -198 138 -211v422c-86 -13 -138 -91 -138 -211z" />
    <glyph glyph-name="currency" unicode="&#xa4;" 
d="M480 291c0 -54 -15 -101 -42 -137l79 -82l-45 -43l-77 83c-34 -23 -76 -36 -123 -36c-48 0 -90 13 -123 36l-78 -83l-44 43l78 83c-26 36 -41 82 -41 136s15 100 41 136l-78 83l44 43l78 -83c33 23 75 36 123 36c47 0 89 -13 123 -36l77 83l45 -43l-79 -82
c27 -36 42 -83 42 -137zM272 135c89 0 146 61 146 156s-57 156 -146 156c-90 0 -147 -61 -147 -156s57 -156 147 -156z" />
    <glyph glyph-name="euro" unicode="&#x20ac;" 
d="M460 202h68c-17 -140 -97 -215 -224 -215c-138 0 -226 91 -248 262h-55l10 53h41l-1 35c0 10 0 20 1 29h-51l10 53h44c21 175 109 268 249 268c130 0 209 -74 220 -211h-68c-8 97 -63 150 -152 150c-101 0 -163 -72 -180 -207h274l-10 -53h-268l-1 -29c0 -12 0 -24 1 -35
h257l-11 -53h-241c18 -131 79 -201 179 -201c87 0 143 54 156 154z" />
    <glyph glyph-name="florin" unicode="&#x192;" 
d="M478 717c13 0 31 -2 44 -5v-57c-12 3 -27 5 -40 5c-60 0 -91 -30 -110 -110l-21 -82h110v-50h-122l-109 -431c-33 -130 -74 -176 -168 -176c-14 0 -29 2 -39 5v57c10 -3 23 -5 35 -5c54 0 84 23 111 127l106 423h-101v50h113l23 90c29 117 73 159 168 159z" />
    <glyph glyph-name="franc" unicode="&#x20a3;" 
d="M177 615v-219h311v-60h-311v-131h177v-55h-177v-150h-66v150h-87v55h87v469h398v-59h-332z" />
    <glyph glyph-name="lira" unicode="&#x20a4;" 
d="M139 56h357v-56h-472v56c64 0 100 42 100 136v51h-100v54h100v64h-100v53h100v65c0 138 70 208 190 208c116 0 186 -75 186 -200h-62c0 91 -47 140 -124 140c-83 0 -127 -52 -127 -148v-65h127v-53h-127v-64h127v-54h-127v-51c0 -70 -14 -107 -48 -134v-2z" />
    <glyph glyph-name="liraTurkish" unicode="&#x20ba;" 
d="M447 316h67c0 -212 -122 -319 -334 -319c-20 0 -43 1 -62 3v290l-95 -52v61l95 52v96l-95 -52v61l95 52v166h65v-136l168 90v-60l-168 -90v-97l168 91v-60l-168 -91v-265c167 0 264 86 264 260z" />
    <glyph glyph-name="peseta" unicode="&#x20a7;" horiz-adv-x="811" 
d="M748 51c13 0 27 2 35 4v-53c-13 -3 -32 -5 -46 -5c-87 0 -124 39 -124 137v322h-76c-5 -120 -89 -197 -243 -197h-128v-259h-65v674h193c141 0 223 -64 240 -166h79v118h62v-118h103v-52h-103v-321c0 -60 20 -84 73 -84zM166 318h127c116 0 176 56 176 149
c0 92 -60 148 -176 148h-127v-297z" />
    <glyph glyph-name="ruble" unicode="&#x20bd;" 
d="M96 674h194c146 0 223 -76 223 -197c0 -120 -77 -198 -223 -198h-132v-74h205v-55h-205v-150h-62v150h-83v55h83v74h-83v56h83v339zM158 618v-283h132c103 0 158 53 158 142s-55 141 -158 141h-132z" />
    <glyph glyph-name="rupeeIndian" unicode="&#x20b9;" 
d="M333 620v-2c39 -15 64 -46 71 -94h112l-15 -54h-97c-12 -76 -75 -131 -172 -150v-2c46 -20 79 -58 113 -125l94 -193h-73l-86 178c-43 89 -91 122 -166 122h-16v55h43c113 0 180 46 194 115h-307l15 54h293c-13 65 -77 96 -186 96h-122l15 54h473l-15 -54h-168z" />
    <glyph glyph-name="sterling" unicode="&#xa3;" 
d="M139 56h357v-56h-472v56c64 0 100 42 100 136v109h-100v56h100v122c0 138 70 208 190 208c116 0 186 -75 186 -200h-62c0 91 -47 140 -124 140c-83 0 -127 -52 -127 -148v-122h127v-56h-127v-109c0 -70 -14 -107 -48 -134v-2z" />
    <glyph glyph-name="yen" unicode="&#xa5;" 
d="M338 367h145v-53h-179v-65h179v-53h-179v-196h-65v196h-179v53h179v65h-179v53h145l-198 307h77l67 -106l120 -192h2l120 192l67 106h76z" />
    <glyph glyph-name="Ohm" unicode="&#x2126;" horiz-adv-x="726" 
d="M363 725c182 0 311 -102 311 -316c0 -144 -74 -250 -169 -348v-2h180v-59h-253v61c97 100 174 201 174 344c0 175 -101 259 -243 259c-141 0 -242 -84 -242 -259c0 -143 76 -244 173 -344v-61h-253v59h180v2c-95 98 -169 204 -169 348c0 214 130 316 311 316z" />
    <glyph glyph-name="approxequal" unicode="&#x2248;" horiz-adv-x="566" 
d="M185 485c92 0 129 -97 196 -97c40 0 64 33 64 84h53c0 -83 -46 -139 -117 -139c-91 0 -129 96 -196 96c-40 0 -64 -33 -64 -83h-53c0 82 46 139 117 139zM185 301c92 0 129 -96 196 -96c40 0 64 33 64 83h53c0 -82 -46 -139 -117 -139c-91 0 -129 97 -196 97
c-40 0 -64 -33 -64 -84h-53c0 83 46 139 117 139z" />
    <glyph glyph-name="bulletoperator" unicode="&#x2219;" horiz-adv-x="335" 
d="M210 260h-85v91h85v-91z" />
    <glyph glyph-name="divide" unicode="&#xf7;" horiz-adv-x="566" 
d="M316 441h-66v72h66v-72zM492 288h-418v57h418v-57zM316 121h-66v72h66v-72z" />
    <glyph glyph-name="divisionslash" unicode="&#x2215;" horiz-adv-x="442" 
d="M94 -89h-64l297 834h64z" />
    <glyph glyph-name="equalinferior" unicode="&#x208c;" horiz-adv-x="406" 
d="M354 82h-301v47h301v-47zM354 -30h-301v47h301v-47z" />
    <glyph glyph-name="equalsuperior" unicode="&#x207c;" horiz-adv-x="405" 
d="M353 584h-301v47h301v-47zM353 472h-301v47h301v-47z" />
    <glyph glyph-name="greaterequal" unicode="&#x2265;" horiz-adv-x="566" 
d="M492 356v-75l-418 -175v62l359 150v2l-359 150v61zM492 0h-418v56h418v-56z" />
    <glyph glyph-name="increment" unicode="&#x2206;" horiz-adv-x="664" 
d="M658 0h-652l282 712h89zM565 59l-118 305c-39 101 -75 193 -114 295h-2c-39 -102 -75 -194 -114 -295l-118 -305h466z" />
    <glyph glyph-name="infinity" unicode="&#x221e;" horiz-adv-x="606" 
d="M460 451c77 0 131 -58 131 -143s-54 -143 -131 -143c-76 0 -120 47 -157 98c-37 -51 -81 -98 -156 -98c-78 0 -132 58 -132 143s54 143 132 143c75 0 119 -47 156 -98c37 51 81 98 157 98zM152 221c54 0 87 40 120 87c-33 47 -66 87 -120 87c-50 0 -80 -33 -80 -87
s30 -87 80 -87zM454 221c51 0 80 33 80 87s-29 87 -80 87c-54 0 -87 -40 -120 -87c33 -47 66 -87 120 -87z" />
    <glyph glyph-name="integral" unicode="&#x222b;" horiz-adv-x="295" 
d="M241 716c15 0 31 -2 42 -4v-53c-6 2 -20 4 -32 4c-49 0 -73 -25 -73 -90v-625c0 -93 -44 -137 -124 -137c-15 0 -32 2 -42 4v53c6 -2 20 -4 31 -4c49 0 73 25 73 90v625c0 93 44 137 125 137z" />
    <glyph glyph-name="lessequal" unicode="&#x2264;" horiz-adv-x="566" 
d="M492 470l-359 -150v-2l359 -150v-62l-418 175v75l418 175v-61zM492 56v-56h-418v56h418z" />
    <glyph glyph-name="logicalnot" unicode="&#xac;" horiz-adv-x="566" 
d="M492 144h-56v249h-362v57h418v-306z" />
    <glyph glyph-name="micro" unicode="&#xb5;" horiz-adv-x="568" 
d="M481 508v-375c0 -67 13 -84 48 -84c8 0 16 1 24 4v-51c-14 -5 -28 -7 -47 -7c-53 0 -78 22 -84 82h-2c-26 -52 -84 -85 -153 -85c-58 0 -99 19 -122 53v-230h-62v693h62v-303c0 -120 47 -160 127 -160c78 0 147 58 147 165v298h62z" />
    <glyph glyph-name="minus" unicode="&#x2212;" horiz-adv-x="566" 
d="M492 288h-418v57h418v-57z" />
    <glyph glyph-name="minusinferior" unicode="&#x208b;" horiz-adv-x="406" 
d="M354 26h-301v47h301v-47z" />
    <glyph glyph-name="minussuperior" unicode="&#x207b;" horiz-adv-x="405" 
d="M353 528h-301v47h301v-47z" />
    <glyph glyph-name="multiply" unicode="&#xd7;" horiz-adv-x="566" 
d="M518 502l-197 -196l197 -196l-39 -39l-196 197l-196 -197l-39 39l197 196l-197 196l39 39l196 -196l196 196z" />
    <glyph glyph-name="notequal" unicode="&#x2260;" horiz-adv-x="566" 
d="M347 365l-64 -97h209v-56h-246l-88 -132h-63l87 132h-108v56h145l65 97h-210v56h247l87 132h64l-88 -132h108v-56h-145z" />
    <glyph glyph-name="partialdiff" unicode="&#x2202;" horiz-adv-x="589" 
d="M269 725c159 0 251 -120 251 -351c0 -274 -115 -387 -249 -387c-142 0 -222 94 -222 233c0 144 86 258 227 258c94 0 150 -48 174 -101h2c1 11 1 21 1 33c0 154 -71 255 -183 255c-78 0 -118 -43 -128 -115h-68c11 104 72 175 195 175zM280 418c-99 0 -163 -85 -163 -201
c0 -104 52 -170 154 -170c106 0 165 89 165 197c0 103 -58 174 -156 174z" />
    <glyph glyph-name="perthousand" unicode="&#x2030;" horiz-adv-x="975" 
d="M148 -30h-62l423 734h63zM159 687c82 0 129 -58 129 -162c0 -105 -47 -163 -129 -163s-129 58 -129 163c0 104 47 162 129 162zM159 636c-43 0 -69 -40 -69 -111c0 -72 26 -111 69 -111s69 39 69 111c0 71 -26 111 -69 111zM498 313c82 0 129 -58 129 -163
c0 -104 -47 -162 -129 -162c-81 0 -129 58 -129 162c0 105 48 163 129 163zM816 313c82 0 129 -58 129 -163c0 -104 -47 -162 -129 -162c-81 0 -129 58 -129 162c0 105 48 163 129 163zM498 261c-43 0 -68 -39 -68 -111c0 -71 25 -111 68 -111c44 0 69 40 69 111
c0 72 -25 111 -69 111zM816 261c-43 0 -68 -39 -68 -111c0 -71 25 -111 68 -111c44 0 69 40 69 111c0 72 -25 111 -69 111z" />
    <glyph glyph-name="plusinferior" unicode="&#x208a;" horiz-adv-x="406" 
d="M227 73h127v-47h-127v-123h-47v123h-127v47h127v124h47v-124z" />
    <glyph glyph-name="plusminus" unicode="&#xb1;" horiz-adv-x="566" 
d="M311 366h181v-56h-181v-180h-56v180h-181v56h181v180h56v-180zM492 0h-418v56h418v-56z" />
    <glyph glyph-name="plussuperior" unicode="&#x207a;" horiz-adv-x="405" 
d="M226 575h127v-47h-127v-123h-47v123h-127v47h127v124h47v-124z" />
    <glyph glyph-name="product" unicode="&#x220f;" horiz-adv-x="652" 
d="M551 -120h-65v773h-320v-773h-65v832h450v-832z" />
    <glyph glyph-name="radical" unicode="&#x221a;" horiz-adv-x="541" 
d="M283 -120h-77l-100 420h-81v52h123l97 -406h2l218 766h56z" />
    <glyph glyph-name="summation" unicode="&#x2211;" horiz-adv-x="471" 
d="M436 654h-329l214 -362l-214 -354h329v-58h-401v58l216 354l-216 362v58h401v-58z" />
    <glyph glyph-name="lozenge" unicode="&#x25ca;" horiz-adv-x="574" 
d="M534 356l-207 -356h-80l-207 356l207 356h80zM105 356l182 -310l181 310l-181 310z" />
    <glyph glyph-name="apple" unicode="&#xf8ff;" horiz-adv-x="600" 
d="M151 777h312c79 0 128 -49 128 -128v-586c0 -79 -49 -128 -128 -128h-312c-79 0 -128 49 -128 128v586c0 79 49 128 128 128zM463 736h-312c-53 0 -87 -34 -87 -87v-586c0 -53 34 -87 87 -87h312c53 0 87 34 87 87v586c0 53 -34 87 -87 87zM302 646
c99 0 166 -59 166 -145c0 -56 -13 -86 -84 -147c-60 -50 -69 -71 -69 -160h-57v25c0 84 15 114 80 173c56 49 62 69 62 109c0 54 -37 87 -98 87c-67 0 -105 -37 -109 -107h-63c6 108 67 165 172 165zM325 65h-77v81h77v-81z" />
    <glyph glyph-name="brokenbar" unicode="&#xa6;" horiz-adv-x="262" 
d="M160 382h-58v350h58v-350zM160 -205h-58v350h58v-350z" />
    <glyph glyph-name="paragraph" unicode="&#xb6;" horiz-adv-x="555" 
d="M533 667h-80v-787h-48v787h-89v-787h-48v436h-40c-115 0 -188 78 -188 198c0 121 73 198 188 198h305v-45z" />
    <glyph glyph-name="copyright" unicode="&#xa9;" horiz-adv-x="814" 
d="M407 723c215 0 358 -147 358 -367s-143 -367 -358 -367c-214 0 -358 147 -358 367s144 367 358 367zM407 680c-190 0 -316 -129 -316 -324s126 -324 316 -324c189 0 316 129 316 324s-127 324 -316 324zM408 605c115 0 182 -73 187 -169h-63c-6 67 -53 111 -124 111
c-88 0 -141 -73 -141 -191s53 -191 140 -191c70 0 118 45 127 115h64c-10 -104 -81 -173 -191 -173c-127 0 -205 95 -205 249s79 249 206 249z" />
    <glyph glyph-name="registered" unicode="&#xae;" horiz-adv-x="584" 
d="M292 725c148 0 247 -102 247 -254s-99 -254 -247 -254s-247 102 -247 254s99 254 247 254zM292 693c-129 0 -215 -89 -215 -222s86 -222 215 -222s215 89 215 222s-86 222 -215 222zM184 635h112c71 0 107 -35 107 -92c0 -35 -22 -70 -56 -77v-2c20 -5 31 -17 42 -49
l34 -100h-52l-27 85c-10 34 -27 46 -60 46h-53v-131h-47v320zM231 593v-105h53c49 0 70 21 70 55c0 30 -19 50 -66 50h-57z" />
    <glyph glyph-name="published" unicode="&#x2117;" horiz-adv-x="814" 
d="M407 723c215 0 358 -147 358 -367s-143 -367 -358 -367c-214 0 -358 147 -358 367s144 367 358 367zM407 680c-190 0 -316 -129 -316 -324s126 -324 316 -324c189 0 316 129 316 324s-127 324 -316 324zM272 588h162c116 0 180 -54 180 -148c0 -92 -64 -147 -180 -147
h-99v-183h-63v478zM335 531v-180h98c74 0 116 29 116 89c0 61 -42 91 -116 91h-98z" />
    <glyph glyph-name="section" unicode="&#xa7;" horiz-adv-x="545" 
d="M263 725c109 0 170 -58 172 -164h-63c-1 73 -37 109 -109 109c-64 0 -103 -34 -103 -90c0 -61 29 -73 138 -124c141 -65 183 -99 183 -189c0 -61 -27 -110 -84 -144v-2c34 -28 50 -65 50 -113c0 -97 -68 -155 -179 -155c-117 0 -184 58 -185 175h63
c1 -78 37 -120 122 -120c73 0 114 37 114 100c0 66 -37 85 -149 139c-123 59 -169 93 -169 185c0 58 27 108 80 140v2c-34 28 -49 60 -49 106c0 86 68 145 168 145zM186 445c-43 -33 -62 -66 -62 -106c0 -56 32 -90 139 -140c32 -14 69 -34 92 -49c39 27 66 65 66 110
c0 57 -28 87 -138 137c-31 13 -67 31 -97 48z" />
    <glyph glyph-name="trademark" unicode="&#x2122;" horiz-adv-x="787" 
d="M298 666h-121v-310h-51v310h-121v46h293v-46zM736 356h-50v173v126h-2c-16 -42 -29 -83 -45 -125l-66 -174h-57l-65 174c-16 42 -30 83 -45 125h-2c0 -42 1 -85 1 -126v-173h-51v356h82l59 -164c17 -45 33 -90 49 -135h2l48 135l61 164h81v-356z" />
    <glyph glyph-name="degree" unicode="&#xb0;" horiz-adv-x="309" 
d="M154 722c63 0 113 -51 113 -113s-50 -113 -113 -113c-62 0 -112 51 -112 113s50 113 112 113zM154 677c-37 0 -67 -31 -67 -68s30 -67 67 -67s69 30 69 67s-32 68 -69 68z" />
    <glyph glyph-name="estimated" unicode="&#x212e;" horiz-adv-x="859" 
d="M430 687c242 0 382 -167 382 -361h-610c-8 0 -13 -5 -13 -12v-166c0 -20 2 -33 15 -44c58 -57 133 -91 226 -91c98 0 186 45 238 109h69c-45 -63 -145 -134 -307 -134c-232 0 -383 146 -383 348c0 198 144 351 383 351zM430 661c-93 0 -168 -35 -226 -93
c-13 -12 -15 -22 -15 -41v-166c0 -8 5 -13 13 -13h454c8 0 13 5 13 13v166c0 19 -2 29 -15 41c-68 67 -147 93 -224 93z" />
    <glyph glyph-name="literSign" unicode="&#x2113;" horiz-adv-x="435" 
d="M178 202v-62c0 -67 23 -95 78 -95c15 0 35 3 50 8v-53c-18 -6 -44 -9 -62 -9c-87 0 -128 46 -128 149v55h-4c-19 0 -39 2 -55 6v44c17 -3 36 -5 55 -5h4v249c0 153 40 198 119 198c66 0 120 -50 120 -191c0 -180 -72 -269 -177 -294zM178 498v-249c79 25 130 99 130 247
c0 106 -31 141 -69 141c-43 0 -61 -30 -61 -139z" />
    <glyph glyph-name="dagger" unicode="&#x2020;" horiz-adv-x="523" 
d="M294 515h175v-55h-175v-580h-65v580h-175v55h175v197h65v-197z" />
    <glyph glyph-name="daggerdbl" unicode="&#x2021;" horiz-adv-x="523" 
d="M294 516h175v-55h-175v-268h175v-55h-175v-258h-65v258h-175v55h175v268h-175v55h175v196h65v-196z" />
    <glyph glyph-name="interrobang" unicode="&#x203d;" horiz-adv-x="501" 
d="M282 712l-2 -67c109 -6 181 -69 181 -158c0 -71 -17 -108 -110 -182c-64 -50 -79 -69 -79 -150h-52l-11 427c-66 -14 -105 -59 -110 -130h-64c6 109 69 174 173 190l-2 70h76zM314 343c68 64 79 91 79 143c0 57 -44 95 -114 100l-8 -282h2c10 11 25 25 41 39zM206 93h79
v-93h-79v93z" />
    <glyph glyph-name="ampersand.smcp" horiz-adv-x="597" 
d="M501 0l-66 64c-45 -48 -110 -76 -180 -76c-126 0 -201 66 -201 158c0 74 39 127 126 166c-51 51 -66 79 -66 129c0 71 57 120 138 120c84 0 137 -48 137 -119c0 -61 -28 -101 -113 -142l151 -144c23 43 36 97 36 150h65c-1 -70 -21 -139 -56 -194l117 -112h-88zM252 507
c-48 0 -77 -25 -78 -68c0 -33 13 -52 64 -103c78 37 91 66 91 104s-27 67 -77 67zM255 45c55 0 103 22 137 60l-174 168c-78 -36 -97 -78 -97 -126c0 -58 53 -102 134 -102z" />
    <glyph glyph-name="acute" unicode="&#xb4;" horiz-adv-x="274" 
d="M109 571h-59l90 141h84z" />
    <glyph glyph-name="breve" unicode="&#x2d8;" horiz-adv-x="392" 
d="M291 712h51c-8 -88 -60 -139 -146 -139s-138 51 -146 139h51c8 -58 42 -89 95 -89s86 31 95 89z" />
    <glyph glyph-name="caron" unicode="&#x2c7;" horiz-adv-x="399" 
d="M235 571h-71l-114 141h69l81 -101l80 101h69z" />
    <glyph glyph-name="cedilla" unicode="&#xb8;" horiz-adv-x="305" 
d="M196 0l-42 -63c5 1 14 2 23 2c43 0 78 -27 78 -72s-34 -85 -105 -85c-37 0 -72 11 -100 27l15 32c26 -14 53 -20 78 -20c38 0 60 16 60 44c0 27 -21 43 -56 43c-12 0 -22 -2 -31 -5l-16 18l53 79h43z" />
    <glyph glyph-name="circumflex" unicode="&#x2c6;" horiz-adv-x="399" 
d="M280 571l-80 101l-81 -101h-69l114 141h71l114 -141h-69z" />
    <glyph glyph-name="dieresis" unicode="&#xa8;" horiz-adv-x="345" 
d="M111 624h-61v88h61v-88zM295 624h-61v88h61v-88z" />
    <glyph glyph-name="dotaccent" unicode="&#x2d9;" horiz-adv-x="162" 
d="M112 624h-62v88h62v-88z" />
    <glyph glyph-name="hungarumlaut" unicode="&#x2dd;" horiz-adv-x="435" 
d="M106 571h-56l110 141h80zM251 571h-56l110 141h80z" />
    <glyph glyph-name="macron" unicode="&#xaf;" horiz-adv-x="363" 
d="M313 624h-263v52h263v-52z" />
    <glyph glyph-name="ogonek" unicode="&#x2db;" horiz-adv-x="241" 
d="M132 3l56 -3c-61 -46 -80 -76 -80 -110c0 -24 16 -37 43 -37c13 0 27 2 40 7v-44c-12 -5 -28 -8 -49 -8c-63 0 -92 29 -92 75c0 45 26 78 82 120z" />
    <glyph glyph-name="ring" unicode="&#x2da;" horiz-adv-x="293" 
d="M147 764c53 0 96 -44 96 -97c0 -54 -43 -97 -96 -97c-54 0 -97 43 -97 97c0 53 43 97 97 97zM147 726c-33 0 -60 -26 -60 -59c0 -34 27 -60 60 -60s59 26 59 60c0 33 -26 59 -59 59z" />
    <glyph glyph-name="tilde" unicode="&#x2dc;" horiz-adv-x="429" 
d="M331 703h48c-4 -68 -39 -105 -93 -105c-58 0 -98 53 -142 53c-27 0 -43 -19 -46 -53h-48c4 68 39 105 93 105c58 0 99 -54 142 -54c27 0 43 19 46 54z" />
    <glyph glyph-name="acute.case" horiz-adv-x="274" 
d="M109 760h-59l90 135h84z" />
    <glyph glyph-name="breve.case" horiz-adv-x="392" 
d="M291 895h51c-8 -88 -60 -139 -146 -139s-138 51 -146 139h51c8 -58 42 -90 95 -90s86 32 95 90z" />
    <glyph glyph-name="caron.alt" horiz-adv-x="195" 
d="M91 536h-41l31 176h64z" />
    <glyph glyph-name="caron.case" horiz-adv-x="399" 
d="M235 760h-71l-114 135h69l81 -95l80 95h69z" />
    <glyph glyph-name="caron.alt.case" horiz-adv-x="195" 
d="M91 497h-41l31 215h64z" />
    <glyph glyph-name="circumflex.case" horiz-adv-x="399" 
d="M164 895h71l114 -135h-69l-81 95l-80 -95h-69z" />
    <glyph glyph-name="dieresis.case" horiz-adv-x="345" 
d="M111 778h-61v88h61v-88zM295 778h-61v88h61v-88z" />
    <glyph glyph-name="dotaccent.case" horiz-adv-x="162" 
d="M112 769h-62v88h62v-88z" />
    <glyph glyph-name="grave.case" horiz-adv-x="274" 
d="M134 895l90 -135h-59l-115 135h84z" />
    <glyph glyph-name="hungarumlaut.case" horiz-adv-x="437" 
d="M106 753h-56l110 142h80zM251 753h-56l110 142h80z" />
    <glyph glyph-name="macron.case" horiz-adv-x="363" 
d="M313 793h-263v52h263v-52z" />
    <glyph glyph-name="breve.narrow" horiz-adv-x="358" 
d="M257 712h51c-3 -87 -49 -139 -129 -139s-126 51 -129 139h50c4 -58 32 -90 79 -90s75 32 78 90z" />
    <glyph glyph-name="circumflex.narrow" horiz-adv-x="370" 
d="M320 572h-67l-68 101l-67 -101h-68l98 140h74z" />
    <glyph glyph-name="dieresis.narrow" horiz-adv-x="305" 
d="M111 624h-61v88h61v-88zM255 624h-61v88h61v-88z" />
    <glyph glyph-name="macron.narrow" horiz-adv-x="342" 
d="M292 625h-242v51h242v-51z" />
    <glyph glyph-name="tilde.narrow" horiz-adv-x="388" 
d="M294 703h44c-3 -68 -36 -105 -86 -105c-51 0 -80 54 -117 54c-25 0 -38 -19 -41 -54h-44c3 68 35 105 85 105c52 0 80 -55 117 -55c25 0 39 19 42 55z" />
    <glyph glyph-name="ring.case" horiz-adv-x="293" 
d="M147 946c53 0 96 -43 96 -96c0 -54 -43 -97 -96 -97c-54 0 -97 43 -97 97c0 53 43 96 97 96zM147 909c-33 0 -60 -27 -60 -59c0 -34 27 -60 60 -60s59 26 59 60c0 32 -26 59 -59 59z" />
    <glyph glyph-name="cedilla.ss01" horiz-adv-x="284" 
d="M133 -208h-83l124 159h60z" />
    <glyph glyph-name="tilde.case" horiz-adv-x="429" 
d="M331 885h48c-4 -68 -39 -105 -93 -105c-58 0 -98 54 -142 54c-27 0 -43 -19 -46 -54h-48c4 68 39 105 93 105c58 0 99 -53 142 -53c27 0 43 19 46 53z" />
    <glyph glyph-name="commaaccent" unicode="&#x326;" horiz-adv-x="0" 
d="M128 -149l-49 -102h-29l35 102h-28v81h71v-81z" />
    <glyph glyph-name="commaturnedabovecomb" unicode="&#x312;" horiz-adv-x="0" 
d="M93 667h28v-81h-71v81l49 102h29z" />
    <glyph glyph-name="apostrophemod" unicode="&#x2bc;" horiz-adv-x="229" 
d="M156 622l-40 -128h-44l29 128h-29v90h84v-90z" />
    <glyph glyph-name="firsttonechinese" unicode="&#x2c9;" horiz-adv-x="363" 
d="M313 624h-263v52h263v-52z" />
    <glyph glyph-name="uniFEFF" unicode="&#xfeff;" horiz-adv-x="0" 
 />
    <glyph glyph-name="uni20BC" unicode="&#x20bc;" horiz-adv-x="626" 
d="M49 0v316c0 191 72 271 232 277v119h64v-119c160 -6 231 -86 231 -277v-316h-64v316c0 150 -47 208 -167 213v-529h-64v529c-120 -5 -167 -63 -167 -213v-316h-65z" />
    <glyph glyph-name="bracketleftinferior" horiz-adv-x="205" 
d="M191 303h-82v-534h82v-44h-135v622h135v-44z" />
    <glyph glyph-name="bracketrightinferior" horiz-adv-x="205" 
d="M150 347v-622h-136v44h82v534h-82v44h136z" />
    </font>
</defs>
</svg>
