<?xml version="1.0" encoding="utf-8"?>
<!-- Generator: Adobe Illustrator 18.1.0, SVG Export Plug-In . SVG Version: 6.00 Build 0)  -->
<!DOCTYPE svg PUBLIC "-//W3C//DTD SVG 1.1//EN" "http://www.w3.org/Graphics/SVG/1.1/DTD/svg11.dtd">
<svg version="1.1" id="Layer_1" xmlns="http://www.w3.org/2000/svg" xmlns:xlink="http://www.w3.org/1999/xlink" x="0px" y="0px"
	 viewBox="0 0 180 41.2" enable-background="new 0 0 180 41.2" xml:space="preserve">
<path fill="#179C4C" d="M91.8,5.7c-0.3-1.2-0.6-2.4-0.9-3.6C90.9,2,90.8,2,90.7,2c-0.1,0-0.2,0-0.2,0.1c-1.1,1.9-1.8,4.1-2.3,6.2
	l0,0.1c0.4,2,0.6,4,0.4,6c0,0.1,0.1,0.2,0.2,0.2c0,0,0,0,0,0c0.1,0,0.2,0,0.2-0.1c0.9-2.1,1.8-4.2,2.4-6.4
	C91.6,7.3,91.7,6.6,91.8,5.7L91.8,5.7z"/>
<g>
	<path fill="#179C4C" d="M88.7,5.6c3.4-2.3,7.1-4.4,11.1-5.6c-1,2.1-2.2,4.2-3.4,6.3C95.3,7.2,94.2,8,93,8.8
		c-3.6,2.4-7.6,4.1-11.5,5.8C84.3,12,86.7,8.9,88.7,5.6"/>
	<path fill="#179C4C" d="M80.2,8.1C80.7,6,81.4,3.9,82.5,2c0.4,1.2,0.7,2.4,0.9,3.6c-0.1,0.7-0.2,1.5-0.4,2.2
		c-0.5,2.2-1.5,4.3-2.4,6.4C80.8,12.2,80.6,10.1,80.2,8.1"/>
</g>
<g>
	<path fill="#179C4C" d="M43.9,33.6c-4.8,0-8.4-4-8.4-8.7c0-4.8,3.6-8.9,8.5-8.8c5.1,0,8.5,3.8,8.5,8.9
		C52.5,29.8,48.7,33.6,43.9,33.6 M54.7,12.5c-1.2,0-2.3,1-2.3,2.3l0,1.2c-2-3-5-4.2-8.5-4.2c-5.9,0-10.6,3.4-12.4,8.6
		c0.5,1.4,0.7,2.8,0.7,4.4c0,1.6-0.3,3.1-0.8,4.4c1.7,5.1,6.5,8.6,12.4,8.6c3.6,0,6.6-1.3,8.5-4.4l0,1.5c0,1.3,1,2.3,2.3,2.3
		c1.3,0,2.3-1,2.3-2.3l0.1-20.1C57.1,13.6,56,12.5,54.7,12.5 M18.6,33.5c-4.8,0-8.4-4-8.4-8.7c0-4.7,3.6-8.8,8.4-8.8
		c4.8,0,8.4,4.1,8.4,8.8C27,29.5,23.4,33.5,18.6,33.5 M31.2,21.7C31.2,21.7,31.2,21.7,31.2,21.7c-1.4-5.7-6.4-9.9-12.6-9.9
		c-3.2,0-6,1-8.4,3l0-10.7c0-1.2-1.1-2.3-2.3-2.3c-1.3,0-2.3,1.1-2.3,2.3L5.5,24.8c0,7.2,5.8,13,13,13c5.3,0,9.8-3,11.8-7.5
		c0,0,0.5-1.4,0.6-1.4c0.4-1.3,0.7-2.6,0.7-4C31.6,23.7,31.5,22.7,31.2,21.7"/>
	<path fill="#179C4C" d="M94,37.4c-1.2,0-2.3-1-2.3-2.3l0-11.4c0-4-1.3-7.4-5.8-7.4c-4.6,0-5.9,3.3-5.9,7.4L80,35
		c0,1.3-1.1,2.3-2.3,2.3c-1.2,0-2.3-1-2.3-2.3l0-11.4c0-3.9-1.1-7.4-5.6-7.4c-4.6,0-6.1,3.2-6.1,7.4l0,11.4c0,1.3-1.1,2.3-2.3,2.3
		c-1.3,0-2.3-1-2.3-2.3L59,14c0-1.2,1-2.1,2.2-2.1c1.1,0,2.2,0.9,2.2,2.1l0,1.2c2.1-2.4,3.9-3.3,7.1-3.3c2.9,0,6.4,1.4,7.7,4.2
		c1.9-3,4.8-4.1,8.2-4.1c6.5,0,10,4.1,10,10.5l0,12.6C96.3,36.3,95.3,37.4,94,37.4"/>
	<path fill="#179C4C" d="M136.5,33.9c-4.9,0-8.7-4-8.6-8.8c0-4.9,3.8-8.8,8.7-8.7c4.9,0,8.7,3.9,8.7,8.7
		C145.2,29.9,141.3,33.9,136.5,33.9 M136.5,12.1c-5.7,0-10.8,3.5-12.6,8.6c0.4,1.3,0.7,2.8,0.7,4.3c0,1.5-0.3,2.9-0.7,4.2
		c1.8,5.2,6.8,8.8,12.5,8.9c7.2,0,13.3-5.7,13.4-13C149.8,17.7,143.8,12.1,136.5,12.1 M110.9,33.8c-4.8,0-8.4-4-8.4-8.7
		c0-4.7,3.6-8.8,8.4-8.8c4.8,0,8.4,4.1,8.4,8.8C119.3,29.8,115.7,33.8,110.9,33.8 M123.5,22c-1.4-5.7-6.4-9.9-12.6-9.9
		c-3.2,0-6,1-8.4,3l0-10.7c0-1.2-1.1-2.3-2.3-2.3c-1.3,0-2.3,1.1-2.3,2.3L97.9,25c0,7.2,5.8,13,13,13c5.8,0,10.7-3.7,12.4-8.9
		c0,0,0.2-0.8,0.3-1.1c0.2-1,0.3-2,0.3-3C123.9,24,123.5,22,123.5,22"/>
	<path fill="#179C4C" d="M161.2,16.4c-4.9,0-8.7,3.9-8.7,8.7c0,4.8,3.8,8.8,8.6,8.8c4.9,0,8.7-4,8.7-8.8
		C169.9,20.3,166,16.4,161.2,16.4 M161.1,38.2c-7.3,0-13.3-5.8-13.3-13.2c0-7.3,6.2-12.8,13.4-12.8c7.2,0,13.3,5.6,13.3,13
		C174.5,32.5,168.3,38.2,161.1,38.2"/>
</g>
</svg>
